G04 (created by PCBNEW-RS274X (2012-apr-16-27)-stable) date Saturday 07,June,2014 10:26:27 PM SGT*
G01*
G70*
G90*
%MOIN*%
G04 Gerber Fmt 3.4, Leading zero omitted, Abs format*
%FSLAX34Y34*%
G04 APERTURE LIST*
%ADD10C,0.006000*%
%ADD11C,0.005000*%
%ADD12C,0.017500*%
%ADD13C,0.010000*%
%ADD14C,0.012000*%
%ADD15C,0.008000*%
%ADD16C,0.000100*%
%ADD17C,0.002600*%
%ADD18C,0.004000*%
%ADD19C,0.011300*%
%ADD20C,0.015000*%
%ADD21R,0.220000X0.080000*%
%ADD22R,0.080000X0.100000*%
%ADD23R,0.080000X0.080000*%
%ADD24C,0.080000*%
%ADD25R,0.075000X0.075000*%
%ADD26C,0.075000*%
%ADD27C,0.120000*%
%ADD28R,0.055000X0.075000*%
%ADD29R,0.075000X0.055000*%
%ADD30R,0.100000X0.080000*%
%ADD31R,0.100000X0.164000*%
%ADD32R,0.100000X0.060000*%
%ADD33R,0.082900X0.090900*%
%ADD34R,0.090900X0.082900*%
G04 APERTURE END LIST*
G54D10*
X70900Y-32570D02*
X70898Y-32527D01*
X70892Y-32484D01*
X70882Y-32441D01*
X70869Y-32399D01*
X70853Y-32359D01*
X70833Y-32321D01*
X70809Y-32284D01*
X70783Y-32249D01*
X70753Y-32217D01*
X70721Y-32187D01*
X70686Y-32161D01*
X70650Y-32137D01*
X70611Y-32117D01*
X70571Y-32101D01*
X70529Y-32088D01*
X70486Y-32078D01*
X70443Y-32072D01*
X70400Y-32070D01*
X70400Y-51270D02*
X70443Y-51268D01*
X70486Y-51262D01*
X70529Y-51252D01*
X70571Y-51239D01*
X70611Y-51223D01*
X70650Y-51203D01*
X70686Y-51179D01*
X70721Y-51153D01*
X70753Y-51123D01*
X70783Y-51091D01*
X70809Y-51056D01*
X70833Y-51019D01*
X70853Y-50981D01*
X70869Y-50941D01*
X70882Y-50899D01*
X70892Y-50856D01*
X70898Y-50813D01*
X70900Y-50770D01*
X44130Y-50770D02*
X44130Y-32570D01*
X44130Y-50770D02*
X44132Y-50813D01*
X44138Y-50856D01*
X44148Y-50899D01*
X44161Y-50941D01*
X44177Y-50981D01*
X44197Y-51019D01*
X44221Y-51056D01*
X44247Y-51091D01*
X44277Y-51123D01*
X44309Y-51153D01*
X44344Y-51179D01*
X44381Y-51203D01*
X44419Y-51223D01*
X44459Y-51239D01*
X44501Y-51252D01*
X44544Y-51262D01*
X44587Y-51268D01*
X44630Y-51270D01*
X70420Y-51270D02*
X44630Y-51270D01*
X44630Y-32070D02*
X44587Y-32072D01*
X44544Y-32078D01*
X44501Y-32088D01*
X44459Y-32101D01*
X44419Y-32117D01*
X44381Y-32137D01*
X44344Y-32161D01*
X44309Y-32187D01*
X44277Y-32217D01*
X44247Y-32249D01*
X44221Y-32284D01*
X44197Y-32321D01*
X44177Y-32359D01*
X44161Y-32399D01*
X44148Y-32441D01*
X44138Y-32484D01*
X44132Y-32527D01*
X44130Y-32570D01*
G54D11*
X56685Y-42673D02*
X56662Y-42661D01*
X56626Y-42661D01*
X56590Y-42673D01*
X56566Y-42697D01*
X56555Y-42721D01*
X56543Y-42768D01*
X56543Y-42804D01*
X56555Y-42852D01*
X56566Y-42875D01*
X56590Y-42899D01*
X56626Y-42911D01*
X56650Y-42911D01*
X56685Y-42899D01*
X56697Y-42887D01*
X56697Y-42804D01*
X56650Y-42804D01*
X56805Y-42911D02*
X56805Y-42661D01*
X56900Y-42661D01*
X56924Y-42673D01*
X56935Y-42685D01*
X56947Y-42709D01*
X56947Y-42745D01*
X56935Y-42768D01*
X56924Y-42780D01*
X56900Y-42792D01*
X56805Y-42792D01*
X57292Y-42661D02*
X57340Y-42661D01*
X57364Y-42673D01*
X57387Y-42697D01*
X57399Y-42745D01*
X57399Y-42828D01*
X57387Y-42875D01*
X57364Y-42899D01*
X57340Y-42911D01*
X57292Y-42911D01*
X57268Y-42899D01*
X57245Y-42875D01*
X57233Y-42828D01*
X57233Y-42745D01*
X57245Y-42697D01*
X57268Y-42673D01*
X57292Y-42661D01*
X57507Y-42911D02*
X57507Y-42745D01*
X57507Y-42792D02*
X57518Y-42768D01*
X57530Y-42756D01*
X57554Y-42745D01*
X57578Y-42745D01*
X57769Y-42899D02*
X57745Y-42911D01*
X57697Y-42911D01*
X57673Y-42899D01*
X57662Y-42887D01*
X57650Y-42864D01*
X57650Y-42792D01*
X57662Y-42768D01*
X57673Y-42756D01*
X57697Y-42745D01*
X57745Y-42745D01*
X57769Y-42756D01*
X57983Y-42745D02*
X57983Y-42911D01*
X57876Y-42745D02*
X57876Y-42875D01*
X57887Y-42899D01*
X57911Y-42911D01*
X57947Y-42911D01*
X57971Y-42899D01*
X57983Y-42887D01*
X58137Y-42911D02*
X58113Y-42899D01*
X58102Y-42875D01*
X58102Y-42661D01*
X58268Y-42911D02*
X58244Y-42899D01*
X58233Y-42875D01*
X58233Y-42661D01*
X58399Y-42911D02*
X58375Y-42899D01*
X58364Y-42887D01*
X58352Y-42864D01*
X58352Y-42792D01*
X58364Y-42768D01*
X58375Y-42756D01*
X58399Y-42745D01*
X58435Y-42745D01*
X58459Y-42756D01*
X58471Y-42768D01*
X58483Y-42792D01*
X58483Y-42864D01*
X58471Y-42887D01*
X58459Y-42899D01*
X58435Y-42911D01*
X58399Y-42911D01*
X57626Y-43085D02*
X57638Y-43073D01*
X57661Y-43061D01*
X57721Y-43061D01*
X57745Y-43073D01*
X57757Y-43085D01*
X57768Y-43109D01*
X57768Y-43133D01*
X57757Y-43168D01*
X57614Y-43311D01*
X57768Y-43311D01*
X57923Y-43061D02*
X57947Y-43061D01*
X57971Y-43073D01*
X57983Y-43085D01*
X57995Y-43109D01*
X58006Y-43156D01*
X58006Y-43216D01*
X57995Y-43264D01*
X57983Y-43287D01*
X57971Y-43299D01*
X57947Y-43311D01*
X57923Y-43311D01*
X57899Y-43299D01*
X57887Y-43287D01*
X57876Y-43264D01*
X57864Y-43216D01*
X57864Y-43156D01*
X57876Y-43109D01*
X57887Y-43085D01*
X57899Y-43073D01*
X57923Y-43061D01*
X58244Y-43311D02*
X58102Y-43311D01*
X58173Y-43311D02*
X58173Y-43061D01*
X58149Y-43097D01*
X58125Y-43121D01*
X58102Y-43133D01*
X58459Y-43145D02*
X58459Y-43311D01*
X58399Y-43049D02*
X58340Y-43228D01*
X58494Y-43228D01*
G54D10*
X66564Y-50691D02*
X66464Y-50549D01*
X66392Y-50691D02*
X66392Y-50391D01*
X66507Y-50391D01*
X66535Y-50406D01*
X66550Y-50420D01*
X66564Y-50449D01*
X66564Y-50491D01*
X66550Y-50520D01*
X66535Y-50534D01*
X66507Y-50549D01*
X66392Y-50549D01*
X66807Y-50677D02*
X66778Y-50691D01*
X66721Y-50691D01*
X66692Y-50677D01*
X66678Y-50649D01*
X66678Y-50534D01*
X66692Y-50506D01*
X66721Y-50491D01*
X66778Y-50491D01*
X66807Y-50506D01*
X66821Y-50534D01*
X66821Y-50563D01*
X66678Y-50591D01*
X66921Y-50491D02*
X66992Y-50691D01*
X67064Y-50491D01*
X67393Y-50606D02*
X67536Y-50606D01*
X67365Y-50691D02*
X67465Y-50391D01*
X67565Y-50691D01*
X67722Y-50391D02*
X67750Y-50391D01*
X67779Y-50406D01*
X67793Y-50420D01*
X67807Y-50449D01*
X67822Y-50506D01*
X67822Y-50577D01*
X67807Y-50634D01*
X67793Y-50663D01*
X67779Y-50677D01*
X67750Y-50691D01*
X67722Y-50691D01*
X67693Y-50677D01*
X67679Y-50663D01*
X67664Y-50634D01*
X67650Y-50577D01*
X67650Y-50506D01*
X67664Y-50449D01*
X67679Y-50420D01*
X67693Y-50406D01*
X67722Y-50391D01*
G54D12*
X58184Y-50594D02*
X58184Y-49794D01*
X58450Y-49794D01*
X58517Y-49832D01*
X58550Y-49870D01*
X58584Y-49946D01*
X58584Y-50060D01*
X58550Y-50137D01*
X58517Y-50175D01*
X58450Y-50213D01*
X58184Y-50213D01*
X58884Y-50594D02*
X58884Y-49794D01*
X59617Y-50518D02*
X59583Y-50556D01*
X59483Y-50594D01*
X59417Y-50594D01*
X59317Y-50556D01*
X59250Y-50480D01*
X59217Y-50403D01*
X59183Y-50251D01*
X59183Y-50137D01*
X59217Y-49984D01*
X59250Y-49908D01*
X59317Y-49832D01*
X59417Y-49794D01*
X59483Y-49794D01*
X59583Y-49832D01*
X59617Y-49870D01*
X59917Y-50060D02*
X59917Y-50594D01*
X59917Y-50137D02*
X59950Y-50099D01*
X60017Y-50060D01*
X60117Y-50060D01*
X60183Y-50099D01*
X60217Y-50175D01*
X60217Y-50594D01*
X60850Y-50556D02*
X60783Y-50594D01*
X60650Y-50594D01*
X60583Y-50556D01*
X60550Y-50518D01*
X60516Y-50441D01*
X60516Y-50213D01*
X60550Y-50137D01*
X60583Y-50099D01*
X60650Y-50060D01*
X60783Y-50060D01*
X60850Y-50099D01*
X61583Y-49794D02*
X61816Y-50594D01*
X62049Y-49794D01*
X62249Y-49870D02*
X62283Y-49832D01*
X62349Y-49794D01*
X62516Y-49794D01*
X62583Y-49832D01*
X62616Y-49870D01*
X62649Y-49946D01*
X62649Y-50022D01*
X62616Y-50137D01*
X62216Y-50594D01*
X62649Y-50594D01*
G54D10*
X70900Y-32570D02*
X70900Y-50770D01*
X44630Y-32070D02*
X70420Y-32070D01*
G54D13*
X44850Y-34520D02*
X44850Y-33970D01*
X44850Y-33970D02*
X44200Y-33970D01*
X44800Y-48970D02*
X44200Y-48970D01*
X44800Y-48470D02*
X44800Y-48970D01*
X44200Y-33970D02*
X44200Y-48970D01*
G54D11*
X67600Y-40420D02*
X67600Y-41320D01*
X67600Y-41320D02*
X68250Y-41320D01*
X68950Y-40420D02*
X69600Y-40420D01*
X69600Y-40420D02*
X69600Y-41320D01*
X69600Y-41320D02*
X68950Y-41320D01*
X68250Y-40420D02*
X67600Y-40420D01*
G54D14*
X62000Y-34270D02*
X62000Y-33270D01*
X62000Y-33270D02*
X68000Y-33270D01*
X68000Y-33270D02*
X68000Y-34270D01*
X68000Y-34270D02*
X62000Y-34270D01*
X63000Y-34270D02*
X63000Y-33270D01*
G54D15*
X50600Y-47970D02*
X50600Y-34970D01*
X48600Y-34970D02*
X48600Y-47970D01*
X48600Y-47970D02*
X50600Y-47970D01*
X50600Y-34970D02*
X48600Y-34970D01*
G54D13*
X55800Y-46570D02*
X56100Y-46570D01*
X56100Y-46570D02*
X56100Y-47570D01*
X56100Y-47570D02*
X55800Y-47570D01*
X63800Y-46070D02*
X63800Y-48070D01*
X63800Y-48070D02*
X55800Y-48070D01*
X55800Y-48070D02*
X55800Y-46070D01*
X55800Y-46070D02*
X63800Y-46070D01*
G54D14*
X57800Y-33270D02*
X61800Y-33270D01*
X61800Y-33270D02*
X61800Y-35270D01*
X61800Y-35270D02*
X57800Y-35270D01*
X57800Y-35270D02*
X57800Y-33270D01*
X70326Y-48673D02*
X66310Y-48673D01*
X67176Y-48655D02*
X67176Y-44717D01*
X70326Y-44717D02*
X70326Y-48655D01*
X66310Y-48655D02*
X66310Y-44717D01*
X66310Y-44717D02*
X70326Y-44717D01*
G54D13*
X55800Y-42370D02*
X56100Y-42370D01*
X56100Y-42370D02*
X56100Y-43370D01*
X56100Y-43370D02*
X55800Y-43370D01*
X63800Y-41870D02*
X63800Y-43870D01*
X63800Y-43870D02*
X55800Y-43870D01*
X55800Y-43870D02*
X55800Y-41870D01*
X55800Y-41870D02*
X63800Y-41870D01*
X55800Y-37170D02*
X56100Y-37170D01*
X56100Y-37170D02*
X56100Y-38170D01*
X56100Y-38170D02*
X55800Y-38170D01*
X69800Y-36670D02*
X69800Y-38670D01*
X69800Y-38670D02*
X55800Y-38670D01*
X55800Y-38670D02*
X55800Y-36670D01*
X55800Y-36670D02*
X69800Y-36670D01*
G54D16*
G36*
X64236Y-50354D02*
X64248Y-50348D01*
X64273Y-50332D01*
X64310Y-50308D01*
X64353Y-50279D01*
X64397Y-50249D01*
X64432Y-50225D01*
X64457Y-50209D01*
X64468Y-50204D01*
X64473Y-50206D01*
X64494Y-50216D01*
X64524Y-50231D01*
X64541Y-50240D01*
X64569Y-50252D01*
X64582Y-50254D01*
X64585Y-50251D01*
X64595Y-50230D01*
X64610Y-50194D01*
X64631Y-50146D01*
X64655Y-50091D01*
X64680Y-50031D01*
X64706Y-49970D01*
X64730Y-49911D01*
X64751Y-49859D01*
X64768Y-49816D01*
X64780Y-49787D01*
X64784Y-49774D01*
X64783Y-49771D01*
X64769Y-49758D01*
X64745Y-49740D01*
X64693Y-49698D01*
X64642Y-49634D01*
X64611Y-49561D01*
X64600Y-49481D01*
X64609Y-49406D01*
X64639Y-49334D01*
X64689Y-49270D01*
X64749Y-49222D01*
X64820Y-49191D01*
X64900Y-49182D01*
X64976Y-49190D01*
X65049Y-49219D01*
X65114Y-49268D01*
X65141Y-49300D01*
X65179Y-49365D01*
X65200Y-49435D01*
X65203Y-49453D01*
X65199Y-49530D01*
X65177Y-49603D01*
X65136Y-49669D01*
X65080Y-49723D01*
X65073Y-49729D01*
X65046Y-49748D01*
X65029Y-49762D01*
X65015Y-49773D01*
X65113Y-50009D01*
X65129Y-50046D01*
X65156Y-50111D01*
X65179Y-50166D01*
X65198Y-50210D01*
X65211Y-50240D01*
X65217Y-50252D01*
X65218Y-50252D01*
X65226Y-50254D01*
X65244Y-50247D01*
X65277Y-50231D01*
X65299Y-50220D01*
X65324Y-50208D01*
X65335Y-50204D01*
X65345Y-50209D01*
X65369Y-50224D01*
X65404Y-50248D01*
X65446Y-50277D01*
X65486Y-50304D01*
X65523Y-50328D01*
X65550Y-50345D01*
X65563Y-50352D01*
X65565Y-50352D01*
X65577Y-50346D01*
X65598Y-50328D01*
X65630Y-50298D01*
X65676Y-50253D01*
X65683Y-50246D01*
X65720Y-50208D01*
X65750Y-50176D01*
X65771Y-50154D01*
X65778Y-50143D01*
X65778Y-50143D01*
X65771Y-50130D01*
X65754Y-50104D01*
X65730Y-50066D01*
X65700Y-50022D01*
X65622Y-49909D01*
X65665Y-49802D01*
X65678Y-49769D01*
X65695Y-49729D01*
X65707Y-49701D01*
X65713Y-49688D01*
X65725Y-49684D01*
X65754Y-49677D01*
X65797Y-49668D01*
X65848Y-49659D01*
X65896Y-49650D01*
X65939Y-49642D01*
X65971Y-49636D01*
X65985Y-49633D01*
X65989Y-49631D01*
X65991Y-49624D01*
X65993Y-49609D01*
X65994Y-49583D01*
X65995Y-49541D01*
X65995Y-49481D01*
X65995Y-49474D01*
X65994Y-49416D01*
X65993Y-49371D01*
X65992Y-49341D01*
X65990Y-49329D01*
X65990Y-49329D01*
X65976Y-49326D01*
X65945Y-49319D01*
X65902Y-49311D01*
X65850Y-49301D01*
X65846Y-49300D01*
X65795Y-49290D01*
X65751Y-49281D01*
X65721Y-49274D01*
X65708Y-49270D01*
X65705Y-49266D01*
X65695Y-49246D01*
X65680Y-49214D01*
X65663Y-49175D01*
X65646Y-49134D01*
X65631Y-49098D01*
X65621Y-49070D01*
X65618Y-49058D01*
X65619Y-49058D01*
X65626Y-49045D01*
X65644Y-49018D01*
X65669Y-48981D01*
X65700Y-48937D01*
X65702Y-48934D01*
X65732Y-48890D01*
X65756Y-48853D01*
X65772Y-48826D01*
X65778Y-48814D01*
X65778Y-48814D01*
X65768Y-48801D01*
X65746Y-48776D01*
X65714Y-48742D01*
X65675Y-48704D01*
X65663Y-48692D01*
X65621Y-48650D01*
X65591Y-48623D01*
X65573Y-48608D01*
X65564Y-48605D01*
X65563Y-48605D01*
X65550Y-48613D01*
X65523Y-48631D01*
X65485Y-48657D01*
X65441Y-48687D01*
X65438Y-48689D01*
X65394Y-48719D01*
X65357Y-48744D01*
X65331Y-48761D01*
X65320Y-48768D01*
X65318Y-48768D01*
X65300Y-48762D01*
X65269Y-48751D01*
X65231Y-48737D01*
X65190Y-48720D01*
X65154Y-48705D01*
X65126Y-48692D01*
X65113Y-48685D01*
X65113Y-48684D01*
X65108Y-48669D01*
X65100Y-48636D01*
X65091Y-48591D01*
X65081Y-48537D01*
X65079Y-48528D01*
X65069Y-48476D01*
X65061Y-48433D01*
X65055Y-48403D01*
X65052Y-48391D01*
X65044Y-48389D01*
X65019Y-48387D01*
X64980Y-48386D01*
X64933Y-48386D01*
X64884Y-48386D01*
X64835Y-48387D01*
X64794Y-48389D01*
X64764Y-48391D01*
X64752Y-48393D01*
X64752Y-48394D01*
X64747Y-48410D01*
X64740Y-48443D01*
X64731Y-48488D01*
X64720Y-48542D01*
X64718Y-48552D01*
X64709Y-48604D01*
X64700Y-48646D01*
X64694Y-48676D01*
X64690Y-48687D01*
X64686Y-48690D01*
X64664Y-48699D01*
X64629Y-48714D01*
X64586Y-48731D01*
X64486Y-48772D01*
X64363Y-48687D01*
X64351Y-48680D01*
X64307Y-48650D01*
X64271Y-48625D01*
X64246Y-48609D01*
X64235Y-48603D01*
X64234Y-48604D01*
X64222Y-48614D01*
X64198Y-48637D01*
X64164Y-48670D01*
X64126Y-48708D01*
X64097Y-48737D01*
X64063Y-48771D01*
X64042Y-48794D01*
X64030Y-48809D01*
X64026Y-48818D01*
X64027Y-48824D01*
X64035Y-48837D01*
X64053Y-48864D01*
X64078Y-48901D01*
X64108Y-48945D01*
X64133Y-48981D01*
X64159Y-49022D01*
X64177Y-49052D01*
X64183Y-49066D01*
X64181Y-49072D01*
X64173Y-49096D01*
X64158Y-49133D01*
X64140Y-49176D01*
X64097Y-49273D01*
X64033Y-49286D01*
X63994Y-49293D01*
X63940Y-49303D01*
X63889Y-49313D01*
X63808Y-49329D01*
X63805Y-49625D01*
X63817Y-49631D01*
X63829Y-49634D01*
X63859Y-49641D01*
X63902Y-49649D01*
X63952Y-49659D01*
X63995Y-49667D01*
X64039Y-49675D01*
X64070Y-49681D01*
X64084Y-49684D01*
X64087Y-49688D01*
X64098Y-49709D01*
X64113Y-49743D01*
X64130Y-49783D01*
X64148Y-49824D01*
X64163Y-49863D01*
X64174Y-49892D01*
X64178Y-49907D01*
X64172Y-49918D01*
X64155Y-49944D01*
X64131Y-49980D01*
X64102Y-50023D01*
X64073Y-50066D01*
X64048Y-50103D01*
X64031Y-50129D01*
X64023Y-50141D01*
X64027Y-50150D01*
X64044Y-50170D01*
X64077Y-50204D01*
X64125Y-50252D01*
X64133Y-50259D01*
X64171Y-50296D01*
X64204Y-50326D01*
X64226Y-50346D01*
X64236Y-50354D01*
X64236Y-50354D01*
G37*
G54D14*
X55800Y-40770D02*
X55800Y-39770D01*
X55800Y-39770D02*
X61800Y-39770D01*
X61800Y-39770D02*
X61800Y-40770D01*
X61800Y-40770D02*
X55800Y-40770D01*
X56800Y-40770D02*
X56800Y-39770D01*
G54D11*
X68000Y-40170D02*
X67999Y-40179D01*
X67996Y-40189D01*
X67991Y-40197D01*
X67985Y-40205D01*
X67977Y-40211D01*
X67969Y-40216D01*
X67960Y-40218D01*
X67950Y-40219D01*
X67941Y-40219D01*
X67932Y-40216D01*
X67923Y-40211D01*
X67916Y-40205D01*
X67909Y-40198D01*
X67905Y-40189D01*
X67902Y-40180D01*
X67901Y-40170D01*
X67901Y-40161D01*
X67904Y-40152D01*
X67908Y-40143D01*
X67915Y-40136D01*
X67922Y-40129D01*
X67930Y-40125D01*
X67940Y-40122D01*
X67949Y-40121D01*
X67958Y-40121D01*
X67968Y-40124D01*
X67976Y-40128D01*
X67984Y-40134D01*
X67990Y-40142D01*
X67995Y-40150D01*
X67998Y-40159D01*
X67999Y-40169D01*
X68000Y-40170D01*
X68400Y-40170D02*
X68000Y-40170D01*
X68000Y-40170D02*
X68000Y-39570D01*
X68000Y-39570D02*
X68400Y-39570D01*
X68800Y-39570D02*
X69200Y-39570D01*
X69200Y-39570D02*
X69200Y-40170D01*
X69200Y-40170D02*
X68800Y-40170D01*
X65950Y-47720D02*
X65949Y-47729D01*
X65946Y-47739D01*
X65941Y-47747D01*
X65935Y-47755D01*
X65927Y-47761D01*
X65919Y-47766D01*
X65910Y-47768D01*
X65900Y-47769D01*
X65891Y-47769D01*
X65882Y-47766D01*
X65873Y-47761D01*
X65866Y-47755D01*
X65859Y-47748D01*
X65855Y-47739D01*
X65852Y-47730D01*
X65851Y-47720D01*
X65851Y-47711D01*
X65854Y-47702D01*
X65858Y-47693D01*
X65865Y-47686D01*
X65872Y-47679D01*
X65880Y-47675D01*
X65890Y-47672D01*
X65899Y-47671D01*
X65908Y-47671D01*
X65918Y-47674D01*
X65926Y-47678D01*
X65934Y-47684D01*
X65940Y-47692D01*
X65945Y-47700D01*
X65948Y-47709D01*
X65949Y-47719D01*
X65950Y-47720D01*
X65900Y-47270D02*
X65900Y-47670D01*
X65900Y-47670D02*
X65300Y-47670D01*
X65300Y-47670D02*
X65300Y-47270D01*
X65300Y-46870D02*
X65300Y-46470D01*
X65300Y-46470D02*
X65900Y-46470D01*
X65900Y-46470D02*
X65900Y-46870D01*
X52050Y-34720D02*
X52049Y-34729D01*
X52046Y-34739D01*
X52041Y-34747D01*
X52035Y-34755D01*
X52027Y-34761D01*
X52019Y-34766D01*
X52010Y-34768D01*
X52000Y-34769D01*
X51991Y-34769D01*
X51982Y-34766D01*
X51973Y-34761D01*
X51966Y-34755D01*
X51959Y-34748D01*
X51955Y-34739D01*
X51952Y-34730D01*
X51951Y-34720D01*
X51951Y-34711D01*
X51954Y-34702D01*
X51958Y-34693D01*
X51965Y-34686D01*
X51972Y-34679D01*
X51980Y-34675D01*
X51990Y-34672D01*
X51999Y-34671D01*
X52008Y-34671D01*
X52018Y-34674D01*
X52026Y-34678D01*
X52034Y-34684D01*
X52040Y-34692D01*
X52045Y-34700D01*
X52048Y-34709D01*
X52049Y-34719D01*
X52050Y-34720D01*
X52000Y-34270D02*
X52000Y-34670D01*
X52000Y-34670D02*
X51400Y-34670D01*
X51400Y-34670D02*
X51400Y-34270D01*
X51400Y-33870D02*
X51400Y-33470D01*
X51400Y-33470D02*
X52000Y-33470D01*
X52000Y-33470D02*
X52000Y-33870D01*
X53550Y-37720D02*
X53549Y-37729D01*
X53546Y-37739D01*
X53541Y-37747D01*
X53535Y-37755D01*
X53527Y-37761D01*
X53519Y-37766D01*
X53510Y-37768D01*
X53500Y-37769D01*
X53491Y-37769D01*
X53482Y-37766D01*
X53473Y-37761D01*
X53466Y-37755D01*
X53459Y-37748D01*
X53455Y-37739D01*
X53452Y-37730D01*
X53451Y-37720D01*
X53451Y-37711D01*
X53454Y-37702D01*
X53458Y-37693D01*
X53465Y-37686D01*
X53472Y-37679D01*
X53480Y-37675D01*
X53490Y-37672D01*
X53499Y-37671D01*
X53508Y-37671D01*
X53518Y-37674D01*
X53526Y-37678D01*
X53534Y-37684D01*
X53540Y-37692D01*
X53545Y-37700D01*
X53548Y-37709D01*
X53549Y-37719D01*
X53550Y-37720D01*
X53500Y-37270D02*
X53500Y-37670D01*
X53500Y-37670D02*
X52900Y-37670D01*
X52900Y-37670D02*
X52900Y-37270D01*
X52900Y-36870D02*
X52900Y-36470D01*
X52900Y-36470D02*
X53500Y-36470D01*
X53500Y-36470D02*
X53500Y-36870D01*
X54350Y-37720D02*
X54349Y-37729D01*
X54346Y-37739D01*
X54341Y-37747D01*
X54335Y-37755D01*
X54327Y-37761D01*
X54319Y-37766D01*
X54310Y-37768D01*
X54300Y-37769D01*
X54291Y-37769D01*
X54282Y-37766D01*
X54273Y-37761D01*
X54266Y-37755D01*
X54259Y-37748D01*
X54255Y-37739D01*
X54252Y-37730D01*
X54251Y-37720D01*
X54251Y-37711D01*
X54254Y-37702D01*
X54258Y-37693D01*
X54265Y-37686D01*
X54272Y-37679D01*
X54280Y-37675D01*
X54290Y-37672D01*
X54299Y-37671D01*
X54308Y-37671D01*
X54318Y-37674D01*
X54326Y-37678D01*
X54334Y-37684D01*
X54340Y-37692D01*
X54345Y-37700D01*
X54348Y-37709D01*
X54349Y-37719D01*
X54350Y-37720D01*
X54300Y-37270D02*
X54300Y-37670D01*
X54300Y-37670D02*
X53700Y-37670D01*
X53700Y-37670D02*
X53700Y-37270D01*
X53700Y-36870D02*
X53700Y-36470D01*
X53700Y-36470D02*
X54300Y-36470D01*
X54300Y-36470D02*
X54300Y-36870D01*
X53750Y-37820D02*
X53749Y-37829D01*
X53746Y-37839D01*
X53741Y-37847D01*
X53735Y-37855D01*
X53727Y-37861D01*
X53719Y-37866D01*
X53710Y-37868D01*
X53700Y-37869D01*
X53691Y-37869D01*
X53682Y-37866D01*
X53673Y-37861D01*
X53666Y-37855D01*
X53659Y-37848D01*
X53655Y-37839D01*
X53652Y-37830D01*
X53651Y-37820D01*
X53651Y-37811D01*
X53654Y-37802D01*
X53658Y-37793D01*
X53665Y-37786D01*
X53672Y-37779D01*
X53680Y-37775D01*
X53690Y-37772D01*
X53699Y-37771D01*
X53708Y-37771D01*
X53718Y-37774D01*
X53726Y-37778D01*
X53734Y-37784D01*
X53740Y-37792D01*
X53745Y-37800D01*
X53748Y-37809D01*
X53749Y-37819D01*
X53750Y-37820D01*
X53700Y-38270D02*
X53700Y-37870D01*
X53700Y-37870D02*
X54300Y-37870D01*
X54300Y-37870D02*
X54300Y-38270D01*
X54300Y-38670D02*
X54300Y-39070D01*
X54300Y-39070D02*
X53700Y-39070D01*
X53700Y-39070D02*
X53700Y-38670D01*
X52950Y-37820D02*
X52949Y-37829D01*
X52946Y-37839D01*
X52941Y-37847D01*
X52935Y-37855D01*
X52927Y-37861D01*
X52919Y-37866D01*
X52910Y-37868D01*
X52900Y-37869D01*
X52891Y-37869D01*
X52882Y-37866D01*
X52873Y-37861D01*
X52866Y-37855D01*
X52859Y-37848D01*
X52855Y-37839D01*
X52852Y-37830D01*
X52851Y-37820D01*
X52851Y-37811D01*
X52854Y-37802D01*
X52858Y-37793D01*
X52865Y-37786D01*
X52872Y-37779D01*
X52880Y-37775D01*
X52890Y-37772D01*
X52899Y-37771D01*
X52908Y-37771D01*
X52918Y-37774D01*
X52926Y-37778D01*
X52934Y-37784D01*
X52940Y-37792D01*
X52945Y-37800D01*
X52948Y-37809D01*
X52949Y-37819D01*
X52950Y-37820D01*
X52900Y-38270D02*
X52900Y-37870D01*
X52900Y-37870D02*
X53500Y-37870D01*
X53500Y-37870D02*
X53500Y-38270D01*
X53500Y-38670D02*
X53500Y-39070D01*
X53500Y-39070D02*
X52900Y-39070D01*
X52900Y-39070D02*
X52900Y-38670D01*
X53700Y-34370D02*
X53699Y-34379D01*
X53696Y-34389D01*
X53691Y-34397D01*
X53685Y-34405D01*
X53677Y-34411D01*
X53669Y-34416D01*
X53660Y-34418D01*
X53650Y-34419D01*
X53641Y-34419D01*
X53632Y-34416D01*
X53623Y-34411D01*
X53616Y-34405D01*
X53609Y-34398D01*
X53605Y-34389D01*
X53602Y-34380D01*
X53601Y-34370D01*
X53601Y-34361D01*
X53604Y-34352D01*
X53608Y-34343D01*
X53615Y-34336D01*
X53622Y-34329D01*
X53630Y-34325D01*
X53640Y-34322D01*
X53649Y-34321D01*
X53658Y-34321D01*
X53668Y-34324D01*
X53676Y-34328D01*
X53684Y-34334D01*
X53690Y-34342D01*
X53695Y-34350D01*
X53698Y-34359D01*
X53699Y-34369D01*
X53700Y-34370D01*
X53200Y-34370D02*
X53600Y-34370D01*
X53600Y-34370D02*
X53600Y-34970D01*
X53600Y-34970D02*
X53200Y-34970D01*
X52800Y-34970D02*
X52400Y-34970D01*
X52400Y-34970D02*
X52400Y-34370D01*
X52400Y-34370D02*
X52800Y-34370D01*
X53700Y-33570D02*
X53699Y-33579D01*
X53696Y-33589D01*
X53691Y-33597D01*
X53685Y-33605D01*
X53677Y-33611D01*
X53669Y-33616D01*
X53660Y-33618D01*
X53650Y-33619D01*
X53641Y-33619D01*
X53632Y-33616D01*
X53623Y-33611D01*
X53616Y-33605D01*
X53609Y-33598D01*
X53605Y-33589D01*
X53602Y-33580D01*
X53601Y-33570D01*
X53601Y-33561D01*
X53604Y-33552D01*
X53608Y-33543D01*
X53615Y-33536D01*
X53622Y-33529D01*
X53630Y-33525D01*
X53640Y-33522D01*
X53649Y-33521D01*
X53658Y-33521D01*
X53668Y-33524D01*
X53676Y-33528D01*
X53684Y-33534D01*
X53690Y-33542D01*
X53695Y-33550D01*
X53698Y-33559D01*
X53699Y-33569D01*
X53700Y-33570D01*
X53200Y-33570D02*
X53600Y-33570D01*
X53600Y-33570D02*
X53600Y-34170D01*
X53600Y-34170D02*
X53200Y-34170D01*
X52800Y-34170D02*
X52400Y-34170D01*
X52400Y-34170D02*
X52400Y-33570D01*
X52400Y-33570D02*
X52800Y-33570D01*
X55550Y-40720D02*
X55549Y-40729D01*
X55546Y-40739D01*
X55541Y-40747D01*
X55535Y-40755D01*
X55527Y-40761D01*
X55519Y-40766D01*
X55510Y-40768D01*
X55500Y-40769D01*
X55491Y-40769D01*
X55482Y-40766D01*
X55473Y-40761D01*
X55466Y-40755D01*
X55459Y-40748D01*
X55455Y-40739D01*
X55452Y-40730D01*
X55451Y-40720D01*
X55451Y-40711D01*
X55454Y-40702D01*
X55458Y-40693D01*
X55465Y-40686D01*
X55472Y-40679D01*
X55480Y-40675D01*
X55490Y-40672D01*
X55499Y-40671D01*
X55508Y-40671D01*
X55518Y-40674D01*
X55526Y-40678D01*
X55534Y-40684D01*
X55540Y-40692D01*
X55545Y-40700D01*
X55548Y-40709D01*
X55549Y-40719D01*
X55550Y-40720D01*
X55500Y-40270D02*
X55500Y-40670D01*
X55500Y-40670D02*
X54900Y-40670D01*
X54900Y-40670D02*
X54900Y-40270D01*
X54900Y-39870D02*
X54900Y-39470D01*
X54900Y-39470D02*
X55500Y-39470D01*
X55500Y-39470D02*
X55500Y-39870D01*
X55150Y-37720D02*
X55149Y-37729D01*
X55146Y-37739D01*
X55141Y-37747D01*
X55135Y-37755D01*
X55127Y-37761D01*
X55119Y-37766D01*
X55110Y-37768D01*
X55100Y-37769D01*
X55091Y-37769D01*
X55082Y-37766D01*
X55073Y-37761D01*
X55066Y-37755D01*
X55059Y-37748D01*
X55055Y-37739D01*
X55052Y-37730D01*
X55051Y-37720D01*
X55051Y-37711D01*
X55054Y-37702D01*
X55058Y-37693D01*
X55065Y-37686D01*
X55072Y-37679D01*
X55080Y-37675D01*
X55090Y-37672D01*
X55099Y-37671D01*
X55108Y-37671D01*
X55118Y-37674D01*
X55126Y-37678D01*
X55134Y-37684D01*
X55140Y-37692D01*
X55145Y-37700D01*
X55148Y-37709D01*
X55149Y-37719D01*
X55150Y-37720D01*
X55100Y-37270D02*
X55100Y-37670D01*
X55100Y-37670D02*
X54500Y-37670D01*
X54500Y-37670D02*
X54500Y-37270D01*
X54500Y-36870D02*
X54500Y-36470D01*
X54500Y-36470D02*
X55100Y-36470D01*
X55100Y-36470D02*
X55100Y-36870D01*
X64000Y-34620D02*
X64000Y-35520D01*
X64000Y-35520D02*
X64650Y-35520D01*
X65350Y-34620D02*
X66000Y-34620D01*
X66000Y-34620D02*
X66000Y-35520D01*
X66000Y-35520D02*
X65350Y-35520D01*
X64650Y-34620D02*
X64000Y-34620D01*
X65750Y-43870D02*
X66650Y-43870D01*
X66650Y-43870D02*
X66650Y-43220D01*
X65750Y-42520D02*
X65750Y-41870D01*
X65750Y-41870D02*
X66650Y-41870D01*
X66650Y-41870D02*
X66650Y-42520D01*
X65750Y-43220D02*
X65750Y-43870D01*
G54D15*
X68000Y-41470D02*
X66800Y-41470D01*
X66800Y-41470D02*
X66800Y-44270D01*
X66800Y-44270D02*
X68000Y-44270D01*
X69200Y-41470D02*
X69500Y-41470D01*
X69500Y-41470D02*
X70400Y-42070D01*
X70400Y-42070D02*
X70400Y-43670D01*
X70400Y-43670D02*
X69500Y-44270D01*
X69500Y-44270D02*
X69200Y-44270D01*
G54D17*
X53039Y-33031D02*
X52961Y-33031D01*
X52961Y-33031D02*
X52961Y-33109D01*
X53039Y-33109D02*
X52961Y-33109D01*
X53039Y-33031D02*
X53039Y-33109D01*
X52823Y-32795D02*
X52686Y-32795D01*
X52686Y-32795D02*
X52686Y-32893D01*
X52823Y-32893D02*
X52686Y-32893D01*
X52823Y-32795D02*
X52823Y-32893D01*
X52686Y-32795D02*
X52646Y-32795D01*
X52646Y-32795D02*
X52646Y-33266D01*
X52686Y-33266D02*
X52646Y-33266D01*
X52686Y-32795D02*
X52686Y-33266D01*
X52686Y-33286D02*
X52646Y-33286D01*
X52646Y-33286D02*
X52646Y-33345D01*
X52686Y-33345D02*
X52646Y-33345D01*
X52686Y-33286D02*
X52686Y-33345D01*
X53354Y-32795D02*
X53314Y-32795D01*
X53314Y-32795D02*
X53314Y-33266D01*
X53354Y-33266D02*
X53314Y-33266D01*
X53354Y-32795D02*
X53354Y-33266D01*
X53354Y-33286D02*
X53314Y-33286D01*
X53314Y-33286D02*
X53314Y-33345D01*
X53354Y-33345D02*
X53314Y-33345D01*
X53354Y-33286D02*
X53354Y-33345D01*
X52823Y-32795D02*
X52764Y-32795D01*
X52764Y-32795D02*
X52764Y-32893D01*
X52823Y-32893D02*
X52764Y-32893D01*
X52823Y-32795D02*
X52823Y-32893D01*
G54D18*
X52390Y-32775D02*
X53610Y-32775D01*
X53610Y-32775D02*
X53610Y-33365D01*
X53610Y-33365D02*
X52390Y-33365D01*
X52390Y-33365D02*
X52390Y-32775D01*
X53214Y-32874D02*
X53196Y-32856D01*
X53177Y-32840D01*
X53156Y-32825D01*
X53134Y-32813D01*
X53111Y-32802D01*
X53087Y-32793D01*
X53063Y-32787D01*
X53038Y-32782D01*
X53013Y-32780D01*
X52988Y-32780D01*
X52963Y-32782D01*
X52938Y-32786D01*
X52913Y-32793D01*
X52890Y-32801D01*
X52867Y-32812D01*
X52845Y-32825D01*
X52824Y-32839D01*
X52804Y-32856D01*
X52786Y-32874D01*
X52785Y-32875D01*
X53215Y-33265D02*
X53231Y-33246D01*
X53245Y-33225D01*
X53258Y-33203D01*
X53269Y-33180D01*
X53277Y-33156D01*
X53284Y-33131D01*
X53288Y-33106D01*
X53290Y-33081D01*
X53290Y-33057D01*
X53288Y-33032D01*
X53283Y-33007D01*
X53277Y-32982D01*
X53268Y-32958D01*
X53257Y-32935D01*
X53244Y-32913D01*
X53230Y-32893D01*
X53215Y-32875D01*
X52786Y-33266D02*
X52804Y-33284D01*
X52823Y-33300D01*
X52844Y-33315D01*
X52866Y-33327D01*
X52889Y-33338D01*
X52913Y-33347D01*
X52937Y-33353D01*
X52962Y-33358D01*
X52987Y-33360D01*
X53012Y-33360D01*
X53037Y-33358D01*
X53062Y-33354D01*
X53087Y-33347D01*
X53110Y-33339D01*
X53133Y-33328D01*
X53155Y-33315D01*
X53176Y-33301D01*
X53196Y-33284D01*
X53214Y-33266D01*
X53215Y-33265D01*
X52785Y-32875D02*
X52769Y-32894D01*
X52755Y-32915D01*
X52742Y-32937D01*
X52731Y-32960D01*
X52723Y-32984D01*
X52716Y-33009D01*
X52712Y-33034D01*
X52710Y-33059D01*
X52710Y-33083D01*
X52712Y-33108D01*
X52717Y-33133D01*
X52723Y-33158D01*
X52732Y-33182D01*
X52743Y-33205D01*
X52756Y-33227D01*
X52770Y-33247D01*
X52785Y-33265D01*
G54D17*
X65561Y-45431D02*
X65561Y-45509D01*
X65561Y-45509D02*
X65639Y-45509D01*
X65639Y-45431D02*
X65639Y-45509D01*
X65561Y-45431D02*
X65639Y-45431D01*
X65325Y-45647D02*
X65325Y-45784D01*
X65325Y-45784D02*
X65423Y-45784D01*
X65423Y-45647D02*
X65423Y-45784D01*
X65325Y-45647D02*
X65423Y-45647D01*
X65325Y-45784D02*
X65325Y-45824D01*
X65325Y-45824D02*
X65796Y-45824D01*
X65796Y-45784D02*
X65796Y-45824D01*
X65325Y-45784D02*
X65796Y-45784D01*
X65816Y-45784D02*
X65816Y-45824D01*
X65816Y-45824D02*
X65875Y-45824D01*
X65875Y-45784D02*
X65875Y-45824D01*
X65816Y-45784D02*
X65875Y-45784D01*
X65325Y-45116D02*
X65325Y-45156D01*
X65325Y-45156D02*
X65796Y-45156D01*
X65796Y-45116D02*
X65796Y-45156D01*
X65325Y-45116D02*
X65796Y-45116D01*
X65816Y-45116D02*
X65816Y-45156D01*
X65816Y-45156D02*
X65875Y-45156D01*
X65875Y-45116D02*
X65875Y-45156D01*
X65816Y-45116D02*
X65875Y-45116D01*
X65325Y-45647D02*
X65325Y-45706D01*
X65325Y-45706D02*
X65423Y-45706D01*
X65423Y-45647D02*
X65423Y-45706D01*
X65325Y-45647D02*
X65423Y-45647D01*
G54D18*
X65305Y-46080D02*
X65305Y-44860D01*
X65305Y-44860D02*
X65895Y-44860D01*
X65895Y-44860D02*
X65895Y-46080D01*
X65895Y-46080D02*
X65305Y-46080D01*
X65404Y-45256D02*
X65386Y-45274D01*
X65370Y-45293D01*
X65355Y-45314D01*
X65343Y-45336D01*
X65332Y-45359D01*
X65323Y-45383D01*
X65317Y-45407D01*
X65312Y-45432D01*
X65310Y-45457D01*
X65310Y-45482D01*
X65312Y-45507D01*
X65316Y-45532D01*
X65323Y-45557D01*
X65331Y-45580D01*
X65342Y-45603D01*
X65355Y-45625D01*
X65369Y-45646D01*
X65386Y-45666D01*
X65404Y-45684D01*
X65405Y-45685D01*
X65795Y-45255D02*
X65776Y-45239D01*
X65755Y-45225D01*
X65733Y-45212D01*
X65710Y-45201D01*
X65686Y-45193D01*
X65661Y-45186D01*
X65636Y-45182D01*
X65611Y-45180D01*
X65587Y-45180D01*
X65562Y-45182D01*
X65537Y-45187D01*
X65512Y-45193D01*
X65488Y-45202D01*
X65465Y-45213D01*
X65443Y-45226D01*
X65423Y-45240D01*
X65405Y-45255D01*
X65796Y-45684D02*
X65814Y-45666D01*
X65830Y-45647D01*
X65845Y-45626D01*
X65857Y-45604D01*
X65868Y-45581D01*
X65877Y-45557D01*
X65883Y-45533D01*
X65888Y-45508D01*
X65890Y-45483D01*
X65890Y-45458D01*
X65888Y-45433D01*
X65884Y-45408D01*
X65877Y-45383D01*
X65869Y-45360D01*
X65858Y-45337D01*
X65845Y-45315D01*
X65831Y-45294D01*
X65814Y-45274D01*
X65796Y-45256D01*
X65795Y-45255D01*
X65405Y-45685D02*
X65424Y-45701D01*
X65445Y-45715D01*
X65467Y-45728D01*
X65490Y-45739D01*
X65514Y-45747D01*
X65539Y-45754D01*
X65564Y-45758D01*
X65589Y-45760D01*
X65613Y-45760D01*
X65638Y-45758D01*
X65663Y-45753D01*
X65688Y-45747D01*
X65712Y-45738D01*
X65735Y-45727D01*
X65757Y-45714D01*
X65777Y-45700D01*
X65795Y-45685D01*
G54D11*
X57400Y-34970D02*
X57399Y-34979D01*
X57396Y-34989D01*
X57391Y-34997D01*
X57385Y-35005D01*
X57377Y-35011D01*
X57369Y-35016D01*
X57360Y-35018D01*
X57350Y-35019D01*
X57341Y-35019D01*
X57332Y-35016D01*
X57323Y-35011D01*
X57316Y-35005D01*
X57309Y-34998D01*
X57305Y-34989D01*
X57302Y-34980D01*
X57301Y-34970D01*
X57301Y-34961D01*
X57304Y-34952D01*
X57308Y-34943D01*
X57315Y-34936D01*
X57322Y-34929D01*
X57330Y-34925D01*
X57340Y-34922D01*
X57349Y-34921D01*
X57358Y-34921D01*
X57368Y-34924D01*
X57376Y-34928D01*
X57384Y-34934D01*
X57390Y-34942D01*
X57395Y-34950D01*
X57398Y-34959D01*
X57399Y-34969D01*
X57400Y-34970D01*
X56900Y-34970D02*
X57300Y-34970D01*
X57300Y-34970D02*
X57300Y-35570D01*
X57300Y-35570D02*
X56900Y-35570D01*
X56500Y-35570D02*
X56100Y-35570D01*
X56100Y-35570D02*
X56100Y-34970D01*
X56100Y-34970D02*
X56500Y-34970D01*
X55025Y-41095D02*
X55024Y-41104D01*
X55021Y-41114D01*
X55016Y-41122D01*
X55010Y-41130D01*
X55002Y-41136D01*
X54994Y-41141D01*
X54985Y-41143D01*
X54975Y-41144D01*
X54966Y-41144D01*
X54957Y-41141D01*
X54948Y-41136D01*
X54941Y-41130D01*
X54934Y-41123D01*
X54930Y-41114D01*
X54927Y-41105D01*
X54926Y-41095D01*
X54926Y-41086D01*
X54929Y-41077D01*
X54933Y-41068D01*
X54940Y-41061D01*
X54947Y-41054D01*
X54955Y-41050D01*
X54965Y-41047D01*
X54974Y-41046D01*
X54983Y-41046D01*
X54993Y-41049D01*
X55001Y-41053D01*
X55009Y-41059D01*
X55015Y-41067D01*
X55020Y-41075D01*
X55023Y-41084D01*
X55024Y-41094D01*
X55025Y-41095D01*
X54975Y-41545D02*
X54975Y-41145D01*
X54975Y-41145D02*
X55575Y-41145D01*
X55575Y-41145D02*
X55575Y-41545D01*
X55575Y-41945D02*
X55575Y-42345D01*
X55575Y-42345D02*
X54975Y-42345D01*
X54975Y-42345D02*
X54975Y-41945D01*
X55025Y-45295D02*
X55024Y-45304D01*
X55021Y-45314D01*
X55016Y-45322D01*
X55010Y-45330D01*
X55002Y-45336D01*
X54994Y-45341D01*
X54985Y-45343D01*
X54975Y-45344D01*
X54966Y-45344D01*
X54957Y-45341D01*
X54948Y-45336D01*
X54941Y-45330D01*
X54934Y-45323D01*
X54930Y-45314D01*
X54927Y-45305D01*
X54926Y-45295D01*
X54926Y-45286D01*
X54929Y-45277D01*
X54933Y-45268D01*
X54940Y-45261D01*
X54947Y-45254D01*
X54955Y-45250D01*
X54965Y-45247D01*
X54974Y-45246D01*
X54983Y-45246D01*
X54993Y-45249D01*
X55001Y-45253D01*
X55009Y-45259D01*
X55015Y-45267D01*
X55020Y-45275D01*
X55023Y-45284D01*
X55024Y-45294D01*
X55025Y-45295D01*
X54975Y-45745D02*
X54975Y-45345D01*
X54975Y-45345D02*
X55575Y-45345D01*
X55575Y-45345D02*
X55575Y-45745D01*
X55575Y-46145D02*
X55575Y-46545D01*
X55575Y-46545D02*
X54975Y-46545D01*
X54975Y-46545D02*
X54975Y-46145D01*
X54150Y-39420D02*
X54149Y-39429D01*
X54146Y-39439D01*
X54141Y-39447D01*
X54135Y-39455D01*
X54127Y-39461D01*
X54119Y-39466D01*
X54110Y-39468D01*
X54100Y-39469D01*
X54091Y-39469D01*
X54082Y-39466D01*
X54073Y-39461D01*
X54066Y-39455D01*
X54059Y-39448D01*
X54055Y-39439D01*
X54052Y-39430D01*
X54051Y-39420D01*
X54051Y-39411D01*
X54054Y-39402D01*
X54058Y-39393D01*
X54065Y-39386D01*
X54072Y-39379D01*
X54080Y-39375D01*
X54090Y-39372D01*
X54099Y-39371D01*
X54108Y-39371D01*
X54118Y-39374D01*
X54126Y-39378D01*
X54134Y-39384D01*
X54140Y-39392D01*
X54145Y-39400D01*
X54148Y-39409D01*
X54149Y-39419D01*
X54150Y-39420D01*
X54100Y-39870D02*
X54100Y-39470D01*
X54100Y-39470D02*
X54700Y-39470D01*
X54700Y-39470D02*
X54700Y-39870D01*
X54700Y-40270D02*
X54700Y-40670D01*
X54700Y-40670D02*
X54100Y-40670D01*
X54100Y-40670D02*
X54100Y-40270D01*
G54D10*
X69950Y-41013D02*
X69936Y-41027D01*
X69893Y-41041D01*
X69864Y-41041D01*
X69821Y-41027D01*
X69793Y-40999D01*
X69778Y-40970D01*
X69764Y-40913D01*
X69764Y-40870D01*
X69778Y-40813D01*
X69793Y-40784D01*
X69821Y-40756D01*
X69864Y-40741D01*
X69893Y-40741D01*
X69936Y-40756D01*
X69950Y-40770D01*
X70050Y-40741D02*
X70250Y-40741D01*
X70121Y-41041D01*
G54D15*
X64534Y-32632D02*
X64534Y-32918D01*
X64514Y-32975D01*
X64476Y-33013D01*
X64419Y-33032D01*
X64381Y-33032D01*
X64667Y-32632D02*
X64896Y-32632D01*
X64781Y-33032D02*
X64781Y-32632D01*
X65010Y-32918D02*
X65201Y-32918D01*
X64972Y-33032D02*
X65105Y-32632D01*
X65239Y-33032D01*
X65582Y-32651D02*
X65544Y-32632D01*
X65487Y-32632D01*
X65429Y-32651D01*
X65391Y-32689D01*
X65372Y-32727D01*
X65353Y-32803D01*
X65353Y-32860D01*
X65372Y-32937D01*
X65391Y-32975D01*
X65429Y-33013D01*
X65487Y-33032D01*
X65525Y-33032D01*
X65582Y-33013D01*
X65601Y-32994D01*
X65601Y-32860D01*
X65525Y-32860D01*
G54D10*
X47388Y-44434D02*
X47288Y-44434D01*
X47288Y-44591D02*
X47288Y-44291D01*
X47431Y-44291D01*
X47588Y-44591D02*
X47560Y-44577D01*
X47545Y-44549D01*
X47545Y-44291D01*
X47745Y-44591D02*
X47717Y-44577D01*
X47702Y-44563D01*
X47688Y-44534D01*
X47688Y-44449D01*
X47702Y-44420D01*
X47717Y-44406D01*
X47745Y-44391D01*
X47788Y-44391D01*
X47817Y-44406D01*
X47831Y-44420D01*
X47845Y-44449D01*
X47845Y-44534D01*
X47831Y-44563D01*
X47817Y-44577D01*
X47788Y-44591D01*
X47745Y-44591D01*
X48016Y-44591D02*
X47988Y-44577D01*
X47973Y-44563D01*
X47959Y-44534D01*
X47959Y-44449D01*
X47973Y-44420D01*
X47988Y-44406D01*
X48016Y-44391D01*
X48059Y-44391D01*
X48088Y-44406D01*
X48102Y-44420D01*
X48116Y-44449D01*
X48116Y-44534D01*
X48102Y-44563D01*
X48088Y-44577D01*
X48059Y-44591D01*
X48016Y-44591D01*
X48373Y-44591D02*
X48373Y-44291D01*
X48373Y-44577D02*
X48344Y-44591D01*
X48287Y-44591D01*
X48259Y-44577D01*
X48244Y-44563D01*
X48230Y-44534D01*
X48230Y-44449D01*
X48244Y-44420D01*
X48259Y-44406D01*
X48287Y-44391D01*
X48344Y-44391D01*
X48373Y-44406D01*
X47611Y-45591D02*
X47611Y-45291D01*
X47711Y-45506D01*
X47811Y-45291D01*
X47811Y-45591D01*
X47954Y-45591D02*
X47954Y-45391D01*
X47954Y-45291D02*
X47940Y-45306D01*
X47954Y-45320D01*
X47969Y-45306D01*
X47954Y-45291D01*
X47954Y-45320D01*
X48083Y-45577D02*
X48112Y-45591D01*
X48169Y-45591D01*
X48197Y-45577D01*
X48212Y-45549D01*
X48212Y-45534D01*
X48197Y-45506D01*
X48169Y-45491D01*
X48126Y-45491D01*
X48097Y-45477D01*
X48083Y-45449D01*
X48083Y-45434D01*
X48097Y-45406D01*
X48126Y-45391D01*
X48169Y-45391D01*
X48197Y-45406D01*
X48298Y-45391D02*
X48412Y-45391D01*
X48340Y-45291D02*
X48340Y-45549D01*
X48355Y-45577D01*
X48383Y-45591D01*
X48412Y-45591D01*
X46787Y-46591D02*
X46787Y-46291D01*
X46787Y-46434D02*
X46959Y-46434D01*
X46959Y-46591D02*
X46959Y-46291D01*
X47144Y-46591D02*
X47116Y-46577D01*
X47101Y-46563D01*
X47087Y-46534D01*
X47087Y-46449D01*
X47101Y-46420D01*
X47116Y-46406D01*
X47144Y-46391D01*
X47187Y-46391D01*
X47216Y-46406D01*
X47230Y-46420D01*
X47244Y-46449D01*
X47244Y-46534D01*
X47230Y-46563D01*
X47216Y-46577D01*
X47187Y-46591D01*
X47144Y-46591D01*
X47372Y-46591D02*
X47372Y-46391D01*
X47372Y-46420D02*
X47387Y-46406D01*
X47415Y-46391D01*
X47458Y-46391D01*
X47487Y-46406D01*
X47501Y-46434D01*
X47501Y-46591D01*
X47501Y-46434D02*
X47515Y-46406D01*
X47544Y-46391D01*
X47587Y-46391D01*
X47615Y-46406D01*
X47630Y-46434D01*
X47630Y-46591D01*
X47887Y-46577D02*
X47858Y-46591D01*
X47801Y-46591D01*
X47772Y-46577D01*
X47758Y-46549D01*
X47758Y-46434D01*
X47772Y-46406D01*
X47801Y-46391D01*
X47858Y-46391D01*
X47887Y-46406D01*
X47901Y-46434D01*
X47901Y-46463D01*
X47758Y-46491D01*
X48244Y-46506D02*
X48387Y-46506D01*
X48216Y-46591D02*
X48316Y-46291D01*
X48416Y-46591D01*
X46829Y-47577D02*
X46872Y-47591D01*
X46943Y-47591D01*
X46972Y-47577D01*
X46986Y-47563D01*
X47001Y-47534D01*
X47001Y-47506D01*
X46986Y-47477D01*
X46972Y-47463D01*
X46943Y-47449D01*
X46886Y-47434D01*
X46858Y-47420D01*
X46843Y-47406D01*
X46829Y-47377D01*
X46829Y-47349D01*
X46843Y-47320D01*
X46858Y-47306D01*
X46886Y-47291D01*
X46958Y-47291D01*
X47001Y-47306D01*
X47129Y-47391D02*
X47129Y-47691D01*
X47129Y-47406D02*
X47158Y-47391D01*
X47215Y-47391D01*
X47244Y-47406D01*
X47258Y-47420D01*
X47272Y-47449D01*
X47272Y-47534D01*
X47258Y-47563D01*
X47244Y-47577D01*
X47215Y-47591D01*
X47158Y-47591D01*
X47129Y-47577D01*
X47400Y-47591D02*
X47400Y-47391D01*
X47400Y-47291D02*
X47386Y-47306D01*
X47400Y-47320D01*
X47415Y-47306D01*
X47400Y-47291D01*
X47400Y-47320D01*
X47543Y-47391D02*
X47543Y-47591D01*
X47543Y-47420D02*
X47558Y-47406D01*
X47586Y-47391D01*
X47629Y-47391D01*
X47658Y-47406D01*
X47672Y-47434D01*
X47672Y-47591D01*
X47943Y-47591D02*
X47943Y-47291D01*
X47943Y-47577D02*
X47914Y-47591D01*
X47857Y-47591D01*
X47829Y-47577D01*
X47814Y-47563D01*
X47800Y-47534D01*
X47800Y-47449D01*
X47814Y-47420D01*
X47829Y-47406D01*
X47857Y-47391D01*
X47914Y-47391D01*
X47943Y-47406D01*
X48128Y-47591D02*
X48100Y-47577D01*
X48085Y-47549D01*
X48085Y-47291D01*
X48357Y-47577D02*
X48328Y-47591D01*
X48271Y-47591D01*
X48242Y-47577D01*
X48228Y-47549D01*
X48228Y-47434D01*
X48242Y-47406D01*
X48271Y-47391D01*
X48328Y-47391D01*
X48357Y-47406D01*
X48371Y-47434D01*
X48371Y-47463D01*
X48228Y-47491D01*
X50782Y-47434D02*
X50882Y-47434D01*
X50925Y-47591D02*
X50782Y-47591D01*
X50782Y-47291D01*
X50925Y-47291D01*
X51053Y-47391D02*
X51053Y-47591D01*
X51053Y-47420D02*
X51068Y-47406D01*
X51096Y-47391D01*
X51139Y-47391D01*
X51168Y-47406D01*
X51182Y-47434D01*
X51182Y-47591D01*
X51453Y-47591D02*
X51453Y-47434D01*
X51439Y-47406D01*
X51410Y-47391D01*
X51353Y-47391D01*
X51324Y-47406D01*
X51453Y-47577D02*
X51424Y-47591D01*
X51353Y-47591D01*
X51324Y-47577D01*
X51310Y-47549D01*
X51310Y-47520D01*
X51324Y-47491D01*
X51353Y-47477D01*
X51424Y-47477D01*
X51453Y-47463D01*
X51595Y-47591D02*
X51595Y-47291D01*
X51595Y-47406D02*
X51624Y-47391D01*
X51681Y-47391D01*
X51710Y-47406D01*
X51724Y-47420D01*
X51738Y-47449D01*
X51738Y-47534D01*
X51724Y-47563D01*
X51710Y-47577D01*
X51681Y-47591D01*
X51624Y-47591D01*
X51595Y-47577D01*
X51909Y-47591D02*
X51881Y-47577D01*
X51866Y-47549D01*
X51866Y-47291D01*
X52138Y-47577D02*
X52109Y-47591D01*
X52052Y-47591D01*
X52023Y-47577D01*
X52009Y-47549D01*
X52009Y-47434D01*
X52023Y-47406D01*
X52052Y-47391D01*
X52109Y-47391D01*
X52138Y-47406D01*
X52152Y-47434D01*
X52152Y-47463D01*
X52009Y-47491D01*
X50793Y-46291D02*
X50993Y-46591D01*
X50993Y-46291D02*
X50793Y-46591D01*
X51322Y-46577D02*
X51365Y-46591D01*
X51436Y-46591D01*
X51465Y-46577D01*
X51479Y-46563D01*
X51494Y-46534D01*
X51494Y-46506D01*
X51479Y-46477D01*
X51465Y-46463D01*
X51436Y-46449D01*
X51379Y-46434D01*
X51351Y-46420D01*
X51336Y-46406D01*
X51322Y-46377D01*
X51322Y-46349D01*
X51336Y-46320D01*
X51351Y-46306D01*
X51379Y-46291D01*
X51451Y-46291D01*
X51494Y-46306D01*
X51580Y-46391D02*
X51694Y-46391D01*
X51622Y-46291D02*
X51622Y-46549D01*
X51637Y-46577D01*
X51665Y-46591D01*
X51694Y-46591D01*
X51908Y-46577D02*
X51879Y-46591D01*
X51822Y-46591D01*
X51793Y-46577D01*
X51779Y-46549D01*
X51779Y-46434D01*
X51793Y-46406D01*
X51822Y-46391D01*
X51879Y-46391D01*
X51908Y-46406D01*
X51922Y-46434D01*
X51922Y-46463D01*
X51779Y-46491D01*
X52050Y-46391D02*
X52050Y-46691D01*
X52050Y-46406D02*
X52079Y-46391D01*
X52136Y-46391D01*
X52165Y-46406D01*
X52179Y-46420D01*
X52193Y-46449D01*
X52193Y-46534D01*
X52179Y-46563D01*
X52165Y-46577D01*
X52136Y-46591D01*
X52079Y-46591D01*
X52050Y-46577D01*
X50831Y-45291D02*
X51031Y-45591D01*
X51031Y-45291D02*
X50831Y-45591D01*
X51374Y-45591D02*
X51374Y-45291D01*
X51446Y-45291D01*
X51489Y-45306D01*
X51517Y-45334D01*
X51532Y-45363D01*
X51546Y-45420D01*
X51546Y-45463D01*
X51532Y-45520D01*
X51517Y-45549D01*
X51489Y-45577D01*
X51446Y-45591D01*
X51374Y-45591D01*
X51674Y-45591D02*
X51674Y-45391D01*
X51674Y-45291D02*
X51660Y-45306D01*
X51674Y-45320D01*
X51689Y-45306D01*
X51674Y-45291D01*
X51674Y-45320D01*
X51817Y-45591D02*
X51817Y-45391D01*
X51817Y-45449D02*
X51832Y-45420D01*
X51846Y-45406D01*
X51875Y-45391D01*
X51903Y-45391D01*
X50884Y-44449D02*
X50884Y-44591D01*
X50784Y-44291D02*
X50884Y-44449D01*
X50984Y-44291D01*
X51298Y-44577D02*
X51341Y-44591D01*
X51412Y-44591D01*
X51441Y-44577D01*
X51455Y-44563D01*
X51470Y-44534D01*
X51470Y-44506D01*
X51455Y-44477D01*
X51441Y-44463D01*
X51412Y-44449D01*
X51355Y-44434D01*
X51327Y-44420D01*
X51312Y-44406D01*
X51298Y-44377D01*
X51298Y-44349D01*
X51312Y-44320D01*
X51327Y-44306D01*
X51355Y-44291D01*
X51427Y-44291D01*
X51470Y-44306D01*
X51556Y-44391D02*
X51670Y-44391D01*
X51598Y-44291D02*
X51598Y-44549D01*
X51613Y-44577D01*
X51641Y-44591D01*
X51670Y-44591D01*
X51884Y-44577D02*
X51855Y-44591D01*
X51798Y-44591D01*
X51769Y-44577D01*
X51755Y-44549D01*
X51755Y-44434D01*
X51769Y-44406D01*
X51798Y-44391D01*
X51855Y-44391D01*
X51884Y-44406D01*
X51898Y-44434D01*
X51898Y-44463D01*
X51755Y-44491D01*
X52026Y-44391D02*
X52026Y-44691D01*
X52026Y-44406D02*
X52055Y-44391D01*
X52112Y-44391D01*
X52141Y-44406D01*
X52155Y-44420D01*
X52169Y-44449D01*
X52169Y-44534D01*
X52155Y-44563D01*
X52141Y-44577D01*
X52112Y-44591D01*
X52055Y-44591D01*
X52026Y-44577D01*
X50912Y-43449D02*
X50912Y-43591D01*
X50812Y-43291D02*
X50912Y-43449D01*
X51012Y-43291D01*
X51340Y-43591D02*
X51340Y-43291D01*
X51412Y-43291D01*
X51455Y-43306D01*
X51483Y-43334D01*
X51498Y-43363D01*
X51512Y-43420D01*
X51512Y-43463D01*
X51498Y-43520D01*
X51483Y-43549D01*
X51455Y-43577D01*
X51412Y-43591D01*
X51340Y-43591D01*
X51640Y-43591D02*
X51640Y-43391D01*
X51640Y-43291D02*
X51626Y-43306D01*
X51640Y-43320D01*
X51655Y-43306D01*
X51640Y-43291D01*
X51640Y-43320D01*
X51783Y-43591D02*
X51783Y-43391D01*
X51783Y-43449D02*
X51798Y-43420D01*
X51812Y-43406D01*
X51841Y-43391D01*
X51869Y-43391D01*
X50793Y-42291D02*
X50993Y-42291D01*
X50793Y-42591D01*
X50993Y-42591D01*
X51322Y-42577D02*
X51365Y-42591D01*
X51436Y-42591D01*
X51465Y-42577D01*
X51479Y-42563D01*
X51494Y-42534D01*
X51494Y-42506D01*
X51479Y-42477D01*
X51465Y-42463D01*
X51436Y-42449D01*
X51379Y-42434D01*
X51351Y-42420D01*
X51336Y-42406D01*
X51322Y-42377D01*
X51322Y-42349D01*
X51336Y-42320D01*
X51351Y-42306D01*
X51379Y-42291D01*
X51451Y-42291D01*
X51494Y-42306D01*
X51580Y-42391D02*
X51694Y-42391D01*
X51622Y-42291D02*
X51622Y-42549D01*
X51637Y-42577D01*
X51665Y-42591D01*
X51694Y-42591D01*
X51908Y-42577D02*
X51879Y-42591D01*
X51822Y-42591D01*
X51793Y-42577D01*
X51779Y-42549D01*
X51779Y-42434D01*
X51793Y-42406D01*
X51822Y-42391D01*
X51879Y-42391D01*
X51908Y-42406D01*
X51922Y-42434D01*
X51922Y-42463D01*
X51779Y-42491D01*
X52050Y-42391D02*
X52050Y-42691D01*
X52050Y-42406D02*
X52079Y-42391D01*
X52136Y-42391D01*
X52165Y-42406D01*
X52179Y-42420D01*
X52193Y-42449D01*
X52193Y-42534D01*
X52179Y-42563D01*
X52165Y-42577D01*
X52136Y-42591D01*
X52079Y-42591D01*
X52050Y-42577D01*
X50821Y-41291D02*
X51021Y-41291D01*
X50821Y-41591D01*
X51021Y-41591D01*
X51364Y-41591D02*
X51364Y-41291D01*
X51436Y-41291D01*
X51479Y-41306D01*
X51507Y-41334D01*
X51522Y-41363D01*
X51536Y-41420D01*
X51536Y-41463D01*
X51522Y-41520D01*
X51507Y-41549D01*
X51479Y-41577D01*
X51436Y-41591D01*
X51364Y-41591D01*
X51664Y-41591D02*
X51664Y-41391D01*
X51664Y-41291D02*
X51650Y-41306D01*
X51664Y-41320D01*
X51679Y-41306D01*
X51664Y-41291D01*
X51664Y-41320D01*
X51807Y-41591D02*
X51807Y-41391D01*
X51807Y-41449D02*
X51822Y-41420D01*
X51836Y-41406D01*
X51865Y-41391D01*
X51893Y-41391D01*
X50802Y-40506D02*
X50945Y-40506D01*
X50774Y-40591D02*
X50874Y-40291D01*
X50974Y-40591D01*
X51288Y-40577D02*
X51331Y-40591D01*
X51402Y-40591D01*
X51431Y-40577D01*
X51445Y-40563D01*
X51460Y-40534D01*
X51460Y-40506D01*
X51445Y-40477D01*
X51431Y-40463D01*
X51402Y-40449D01*
X51345Y-40434D01*
X51317Y-40420D01*
X51302Y-40406D01*
X51288Y-40377D01*
X51288Y-40349D01*
X51302Y-40320D01*
X51317Y-40306D01*
X51345Y-40291D01*
X51417Y-40291D01*
X51460Y-40306D01*
X51546Y-40391D02*
X51660Y-40391D01*
X51588Y-40291D02*
X51588Y-40549D01*
X51603Y-40577D01*
X51631Y-40591D01*
X51660Y-40591D01*
X51874Y-40577D02*
X51845Y-40591D01*
X51788Y-40591D01*
X51759Y-40577D01*
X51745Y-40549D01*
X51745Y-40434D01*
X51759Y-40406D01*
X51788Y-40391D01*
X51845Y-40391D01*
X51874Y-40406D01*
X51888Y-40434D01*
X51888Y-40463D01*
X51745Y-40491D01*
X52016Y-40391D02*
X52016Y-40691D01*
X52016Y-40406D02*
X52045Y-40391D01*
X52102Y-40391D01*
X52131Y-40406D01*
X52145Y-40420D01*
X52159Y-40449D01*
X52159Y-40534D01*
X52145Y-40563D01*
X52131Y-40577D01*
X52102Y-40591D01*
X52045Y-40591D01*
X52016Y-40577D01*
X50830Y-39506D02*
X50973Y-39506D01*
X50802Y-39591D02*
X50902Y-39291D01*
X51002Y-39591D01*
X51330Y-39591D02*
X51330Y-39291D01*
X51402Y-39291D01*
X51445Y-39306D01*
X51473Y-39334D01*
X51488Y-39363D01*
X51502Y-39420D01*
X51502Y-39463D01*
X51488Y-39520D01*
X51473Y-39549D01*
X51445Y-39577D01*
X51402Y-39591D01*
X51330Y-39591D01*
X51630Y-39591D02*
X51630Y-39391D01*
X51630Y-39291D02*
X51616Y-39306D01*
X51630Y-39320D01*
X51645Y-39306D01*
X51630Y-39291D01*
X51630Y-39320D01*
X51773Y-39591D02*
X51773Y-39391D01*
X51773Y-39449D02*
X51788Y-39420D01*
X51802Y-39406D01*
X51831Y-39391D01*
X51859Y-39391D01*
X50808Y-38577D02*
X50851Y-38591D01*
X50922Y-38591D01*
X50951Y-38577D01*
X50965Y-38563D01*
X50980Y-38534D01*
X50980Y-38506D01*
X50965Y-38477D01*
X50951Y-38463D01*
X50922Y-38449D01*
X50865Y-38434D01*
X50837Y-38420D01*
X50822Y-38406D01*
X50808Y-38377D01*
X50808Y-38349D01*
X50822Y-38320D01*
X50837Y-38306D01*
X50865Y-38291D01*
X50937Y-38291D01*
X50980Y-38306D01*
X51066Y-38391D02*
X51180Y-38391D01*
X51108Y-38291D02*
X51108Y-38549D01*
X51123Y-38577D01*
X51151Y-38591D01*
X51180Y-38591D01*
X51322Y-38591D02*
X51294Y-38577D01*
X51279Y-38563D01*
X51265Y-38534D01*
X51265Y-38449D01*
X51279Y-38420D01*
X51294Y-38406D01*
X51322Y-38391D01*
X51365Y-38391D01*
X51394Y-38406D01*
X51408Y-38420D01*
X51422Y-38449D01*
X51422Y-38534D01*
X51408Y-38563D01*
X51394Y-38577D01*
X51365Y-38591D01*
X51322Y-38591D01*
X51550Y-38391D02*
X51550Y-38691D01*
X51550Y-38406D02*
X51579Y-38391D01*
X51636Y-38391D01*
X51665Y-38406D01*
X51679Y-38420D01*
X51693Y-38449D01*
X51693Y-38534D01*
X51679Y-38563D01*
X51665Y-38577D01*
X51636Y-38591D01*
X51579Y-38591D01*
X51550Y-38577D01*
X50833Y-37591D02*
X50833Y-37291D01*
X50833Y-37434D02*
X51005Y-37434D01*
X51005Y-37591D02*
X51005Y-37291D01*
X51190Y-37591D02*
X51162Y-37577D01*
X51147Y-37563D01*
X51133Y-37534D01*
X51133Y-37449D01*
X51147Y-37420D01*
X51162Y-37406D01*
X51190Y-37391D01*
X51233Y-37391D01*
X51262Y-37406D01*
X51276Y-37420D01*
X51290Y-37449D01*
X51290Y-37534D01*
X51276Y-37563D01*
X51262Y-37577D01*
X51233Y-37591D01*
X51190Y-37591D01*
X51418Y-37591D02*
X51418Y-37391D01*
X51418Y-37420D02*
X51433Y-37406D01*
X51461Y-37391D01*
X51504Y-37391D01*
X51533Y-37406D01*
X51547Y-37434D01*
X51547Y-37591D01*
X51547Y-37434D02*
X51561Y-37406D01*
X51590Y-37391D01*
X51633Y-37391D01*
X51661Y-37406D01*
X51676Y-37434D01*
X51676Y-37591D01*
X51933Y-37577D02*
X51904Y-37591D01*
X51847Y-37591D01*
X51818Y-37577D01*
X51804Y-37549D01*
X51804Y-37434D01*
X51818Y-37406D01*
X51847Y-37391D01*
X51904Y-37391D01*
X51933Y-37406D01*
X51947Y-37434D01*
X51947Y-37463D01*
X51804Y-37491D01*
X52276Y-37291D02*
X52476Y-37591D01*
X52476Y-37291D02*
X52276Y-37591D01*
X50857Y-36591D02*
X50857Y-36291D01*
X50857Y-36434D02*
X51029Y-36434D01*
X51029Y-36591D02*
X51029Y-36291D01*
X51214Y-36591D02*
X51186Y-36577D01*
X51171Y-36563D01*
X51157Y-36534D01*
X51157Y-36449D01*
X51171Y-36420D01*
X51186Y-36406D01*
X51214Y-36391D01*
X51257Y-36391D01*
X51286Y-36406D01*
X51300Y-36420D01*
X51314Y-36449D01*
X51314Y-36534D01*
X51300Y-36563D01*
X51286Y-36577D01*
X51257Y-36591D01*
X51214Y-36591D01*
X51442Y-36591D02*
X51442Y-36391D01*
X51442Y-36420D02*
X51457Y-36406D01*
X51485Y-36391D01*
X51528Y-36391D01*
X51557Y-36406D01*
X51571Y-36434D01*
X51571Y-36591D01*
X51571Y-36434D02*
X51585Y-36406D01*
X51614Y-36391D01*
X51657Y-36391D01*
X51685Y-36406D01*
X51700Y-36434D01*
X51700Y-36591D01*
X51957Y-36577D02*
X51928Y-36591D01*
X51871Y-36591D01*
X51842Y-36577D01*
X51828Y-36549D01*
X51828Y-36434D01*
X51842Y-36406D01*
X51871Y-36391D01*
X51928Y-36391D01*
X51957Y-36406D01*
X51971Y-36434D01*
X51971Y-36463D01*
X51828Y-36491D01*
X52386Y-36449D02*
X52386Y-36591D01*
X52286Y-36291D02*
X52386Y-36449D01*
X52486Y-36291D01*
X50843Y-35591D02*
X50843Y-35291D01*
X50843Y-35434D02*
X51015Y-35434D01*
X51015Y-35591D02*
X51015Y-35291D01*
X51200Y-35591D02*
X51172Y-35577D01*
X51157Y-35563D01*
X51143Y-35534D01*
X51143Y-35449D01*
X51157Y-35420D01*
X51172Y-35406D01*
X51200Y-35391D01*
X51243Y-35391D01*
X51272Y-35406D01*
X51286Y-35420D01*
X51300Y-35449D01*
X51300Y-35534D01*
X51286Y-35563D01*
X51272Y-35577D01*
X51243Y-35591D01*
X51200Y-35591D01*
X51428Y-35591D02*
X51428Y-35391D01*
X51428Y-35420D02*
X51443Y-35406D01*
X51471Y-35391D01*
X51514Y-35391D01*
X51543Y-35406D01*
X51557Y-35434D01*
X51557Y-35591D01*
X51557Y-35434D02*
X51571Y-35406D01*
X51600Y-35391D01*
X51643Y-35391D01*
X51671Y-35406D01*
X51686Y-35434D01*
X51686Y-35591D01*
X51943Y-35577D02*
X51914Y-35591D01*
X51857Y-35591D01*
X51828Y-35577D01*
X51814Y-35549D01*
X51814Y-35434D01*
X51828Y-35406D01*
X51857Y-35391D01*
X51914Y-35391D01*
X51943Y-35406D01*
X51957Y-35434D01*
X51957Y-35463D01*
X51814Y-35491D01*
X52286Y-35291D02*
X52486Y-35291D01*
X52286Y-35591D01*
X52486Y-35591D01*
X55071Y-47691D02*
X55071Y-47934D01*
X55086Y-47963D01*
X55100Y-47977D01*
X55129Y-47991D01*
X55186Y-47991D01*
X55214Y-47977D01*
X55229Y-47963D01*
X55243Y-47934D01*
X55243Y-47691D01*
X55357Y-47691D02*
X55543Y-47691D01*
X55443Y-47806D01*
X55485Y-47806D01*
X55514Y-47820D01*
X55528Y-47834D01*
X55543Y-47863D01*
X55543Y-47934D01*
X55528Y-47963D01*
X55514Y-47977D01*
X55485Y-47991D01*
X55400Y-47991D01*
X55371Y-47977D01*
X55357Y-47963D01*
G54D19*
X60260Y-46713D02*
X60560Y-46713D01*
X60367Y-47313D01*
X60925Y-46913D02*
X60925Y-47313D01*
X60818Y-46684D02*
X60711Y-47113D01*
X60989Y-47113D01*
X61161Y-47313D02*
X61161Y-46713D01*
X61161Y-46999D02*
X61418Y-46999D01*
X61418Y-47313D02*
X61418Y-46713D01*
X61889Y-47256D02*
X61868Y-47284D01*
X61804Y-47313D01*
X61761Y-47313D01*
X61696Y-47284D01*
X61654Y-47227D01*
X61632Y-47170D01*
X61611Y-47056D01*
X61611Y-46970D01*
X61632Y-46856D01*
X61654Y-46799D01*
X61696Y-46741D01*
X61761Y-46713D01*
X61804Y-46713D01*
X61868Y-46741D01*
X61889Y-46770D01*
X62018Y-46713D02*
X62275Y-46713D01*
X62146Y-47313D02*
X62146Y-46713D01*
X62382Y-46713D02*
X62661Y-46713D01*
X62511Y-46941D01*
X62575Y-46941D01*
X62618Y-46970D01*
X62639Y-46999D01*
X62661Y-47056D01*
X62661Y-47199D01*
X62639Y-47256D01*
X62618Y-47284D01*
X62575Y-47313D01*
X62447Y-47313D01*
X62404Y-47284D01*
X62382Y-47256D01*
X63047Y-46713D02*
X62961Y-46713D01*
X62918Y-46741D01*
X62897Y-46770D01*
X62854Y-46856D01*
X62833Y-46970D01*
X62833Y-47199D01*
X62854Y-47256D01*
X62876Y-47284D01*
X62918Y-47313D01*
X63004Y-47313D01*
X63047Y-47284D01*
X63068Y-47256D01*
X63090Y-47199D01*
X63090Y-47056D01*
X63068Y-46999D01*
X63047Y-46970D01*
X63004Y-46941D01*
X62918Y-46941D01*
X62876Y-46970D01*
X62854Y-46999D01*
X62833Y-47056D01*
X63240Y-46713D02*
X63540Y-46713D01*
X63347Y-47313D01*
G54D15*
X58591Y-33013D02*
X58648Y-33032D01*
X58744Y-33032D01*
X58782Y-33013D01*
X58801Y-32994D01*
X58820Y-32956D01*
X58820Y-32918D01*
X58801Y-32880D01*
X58782Y-32860D01*
X58744Y-32841D01*
X58667Y-32822D01*
X58629Y-32803D01*
X58610Y-32784D01*
X58591Y-32746D01*
X58591Y-32708D01*
X58610Y-32670D01*
X58629Y-32651D01*
X58667Y-32632D01*
X58763Y-32632D01*
X58820Y-32651D01*
X58991Y-33032D02*
X58991Y-32632D01*
X59144Y-32632D01*
X59182Y-32651D01*
X59201Y-32670D01*
X59220Y-32708D01*
X59220Y-32765D01*
X59201Y-32803D01*
X59182Y-32822D01*
X59144Y-32841D01*
X58991Y-32841D01*
X59391Y-33032D02*
X59391Y-32632D01*
X59848Y-32632D02*
X60096Y-32632D01*
X59962Y-32784D01*
X60020Y-32784D01*
X60058Y-32803D01*
X60077Y-32822D01*
X60096Y-32860D01*
X60096Y-32956D01*
X60077Y-32994D01*
X60058Y-33013D01*
X60020Y-33032D01*
X59905Y-33032D01*
X59867Y-33013D01*
X59848Y-32994D01*
X60267Y-32994D02*
X60286Y-33013D01*
X60267Y-33032D01*
X60248Y-33013D01*
X60267Y-32994D01*
X60267Y-33032D01*
X60419Y-32632D02*
X60667Y-32632D01*
X60533Y-32784D01*
X60591Y-32784D01*
X60629Y-32803D01*
X60648Y-32822D01*
X60667Y-32860D01*
X60667Y-32956D01*
X60648Y-32994D01*
X60629Y-33013D01*
X60591Y-33032D01*
X60476Y-33032D01*
X60438Y-33013D01*
X60419Y-32994D01*
X60781Y-32632D02*
X60914Y-33032D01*
X61048Y-32632D01*
G54D10*
X56821Y-34242D02*
X56521Y-34242D01*
X56736Y-34142D01*
X56521Y-34042D01*
X56821Y-34042D01*
X56521Y-33841D02*
X56521Y-33784D01*
X56536Y-33756D01*
X56564Y-33727D01*
X56621Y-33713D01*
X56721Y-33713D01*
X56779Y-33727D01*
X56807Y-33756D01*
X56821Y-33784D01*
X56821Y-33841D01*
X56807Y-33870D01*
X56779Y-33899D01*
X56721Y-33913D01*
X56621Y-33913D01*
X56564Y-33899D01*
X56536Y-33870D01*
X56521Y-33841D01*
X56807Y-33599D02*
X56821Y-33556D01*
X56821Y-33485D01*
X56807Y-33456D01*
X56793Y-33442D01*
X56764Y-33427D01*
X56736Y-33427D01*
X56707Y-33442D01*
X56693Y-33456D01*
X56679Y-33485D01*
X56664Y-33542D01*
X56650Y-33570D01*
X56636Y-33585D01*
X56607Y-33599D01*
X56579Y-33599D01*
X56550Y-33585D01*
X56536Y-33570D01*
X56521Y-33542D01*
X56521Y-33470D01*
X56536Y-33427D01*
X56821Y-33299D02*
X56521Y-33299D01*
X57321Y-34242D02*
X57021Y-34242D01*
X57236Y-34142D01*
X57021Y-34042D01*
X57321Y-34042D01*
X57321Y-33899D02*
X57021Y-33899D01*
X57307Y-33770D02*
X57321Y-33727D01*
X57321Y-33656D01*
X57307Y-33627D01*
X57293Y-33613D01*
X57264Y-33598D01*
X57236Y-33598D01*
X57207Y-33613D01*
X57193Y-33627D01*
X57179Y-33656D01*
X57164Y-33713D01*
X57150Y-33741D01*
X57136Y-33756D01*
X57107Y-33770D01*
X57079Y-33770D01*
X57050Y-33756D01*
X57036Y-33741D01*
X57021Y-33713D01*
X57021Y-33641D01*
X57036Y-33598D01*
X57021Y-33412D02*
X57021Y-33355D01*
X57036Y-33327D01*
X57064Y-33298D01*
X57121Y-33284D01*
X57221Y-33284D01*
X57279Y-33298D01*
X57307Y-33327D01*
X57321Y-33355D01*
X57321Y-33412D01*
X57307Y-33441D01*
X57279Y-33470D01*
X57221Y-33484D01*
X57121Y-33484D01*
X57064Y-33470D01*
X57036Y-33441D01*
X57021Y-33412D01*
X56293Y-34050D02*
X56307Y-34064D01*
X56321Y-34107D01*
X56321Y-34136D01*
X56307Y-34179D01*
X56279Y-34207D01*
X56250Y-34222D01*
X56193Y-34236D01*
X56150Y-34236D01*
X56093Y-34222D01*
X56064Y-34207D01*
X56036Y-34179D01*
X56021Y-34136D01*
X56021Y-34107D01*
X56036Y-34064D01*
X56050Y-34050D01*
X56307Y-33936D02*
X56321Y-33893D01*
X56321Y-33822D01*
X56307Y-33793D01*
X56293Y-33779D01*
X56264Y-33764D01*
X56236Y-33764D01*
X56207Y-33779D01*
X56193Y-33793D01*
X56179Y-33822D01*
X56164Y-33879D01*
X56150Y-33907D01*
X56136Y-33922D01*
X56107Y-33936D01*
X56079Y-33936D01*
X56050Y-33922D01*
X56036Y-33907D01*
X56021Y-33879D01*
X56021Y-33807D01*
X56036Y-33764D01*
X55807Y-34237D02*
X55821Y-34194D01*
X55821Y-34123D01*
X55807Y-34094D01*
X55793Y-34080D01*
X55764Y-34065D01*
X55736Y-34065D01*
X55707Y-34080D01*
X55693Y-34094D01*
X55679Y-34123D01*
X55664Y-34180D01*
X55650Y-34208D01*
X55636Y-34223D01*
X55607Y-34237D01*
X55579Y-34237D01*
X55550Y-34223D01*
X55536Y-34208D01*
X55521Y-34180D01*
X55521Y-34108D01*
X55536Y-34065D01*
X55793Y-33765D02*
X55807Y-33779D01*
X55821Y-33822D01*
X55821Y-33851D01*
X55807Y-33894D01*
X55779Y-33922D01*
X55750Y-33937D01*
X55693Y-33951D01*
X55650Y-33951D01*
X55593Y-33937D01*
X55564Y-33922D01*
X55536Y-33894D01*
X55521Y-33851D01*
X55521Y-33822D01*
X55536Y-33779D01*
X55550Y-33765D01*
X55821Y-33494D02*
X55821Y-33637D01*
X55521Y-33637D01*
X55821Y-33394D02*
X55521Y-33394D01*
X55821Y-33222D02*
X55650Y-33351D01*
X55521Y-33222D02*
X55693Y-33394D01*
G54D15*
X69443Y-46755D02*
X69443Y-47041D01*
X69729Y-47070D01*
X69700Y-47041D01*
X69671Y-46984D01*
X69671Y-46841D01*
X69700Y-46784D01*
X69729Y-46755D01*
X69786Y-46727D01*
X69929Y-46727D01*
X69986Y-46755D01*
X70014Y-46784D01*
X70043Y-46841D01*
X70043Y-46984D01*
X70014Y-47041D01*
X69986Y-47070D01*
X69643Y-46527D02*
X70043Y-46384D01*
X69643Y-46242D01*
G54D14*
X69914Y-47898D02*
X69914Y-47441D01*
X69914Y-45898D02*
X69914Y-45441D01*
X70143Y-45670D02*
X69686Y-45670D01*
G54D10*
X55071Y-43491D02*
X55071Y-43734D01*
X55086Y-43763D01*
X55100Y-43777D01*
X55129Y-43791D01*
X55186Y-43791D01*
X55214Y-43777D01*
X55229Y-43763D01*
X55243Y-43734D01*
X55243Y-43491D01*
X55371Y-43520D02*
X55385Y-43506D01*
X55414Y-43491D01*
X55485Y-43491D01*
X55514Y-43506D01*
X55528Y-43520D01*
X55543Y-43549D01*
X55543Y-43577D01*
X55528Y-43620D01*
X55357Y-43791D01*
X55543Y-43791D01*
G54D19*
X60260Y-42513D02*
X60560Y-42513D01*
X60367Y-43113D01*
X60925Y-42713D02*
X60925Y-43113D01*
X60818Y-42484D02*
X60711Y-42913D01*
X60989Y-42913D01*
X61161Y-43113D02*
X61161Y-42513D01*
X61161Y-42799D02*
X61418Y-42799D01*
X61418Y-43113D02*
X61418Y-42513D01*
X61889Y-43056D02*
X61868Y-43084D01*
X61804Y-43113D01*
X61761Y-43113D01*
X61696Y-43084D01*
X61654Y-43027D01*
X61632Y-42970D01*
X61611Y-42856D01*
X61611Y-42770D01*
X61632Y-42656D01*
X61654Y-42599D01*
X61696Y-42541D01*
X61761Y-42513D01*
X61804Y-42513D01*
X61868Y-42541D01*
X61889Y-42570D01*
X62018Y-42513D02*
X62275Y-42513D01*
X62146Y-43113D02*
X62146Y-42513D01*
X62382Y-42513D02*
X62661Y-42513D01*
X62511Y-42741D01*
X62575Y-42741D01*
X62618Y-42770D01*
X62639Y-42799D01*
X62661Y-42856D01*
X62661Y-42999D01*
X62639Y-43056D01*
X62618Y-43084D01*
X62575Y-43113D01*
X62447Y-43113D01*
X62404Y-43084D01*
X62382Y-43056D01*
X63047Y-42513D02*
X62961Y-42513D01*
X62918Y-42541D01*
X62897Y-42570D01*
X62854Y-42656D01*
X62833Y-42770D01*
X62833Y-42999D01*
X62854Y-43056D01*
X62876Y-43084D01*
X62918Y-43113D01*
X63004Y-43113D01*
X63047Y-43084D01*
X63068Y-43056D01*
X63090Y-42999D01*
X63090Y-42856D01*
X63068Y-42799D01*
X63047Y-42770D01*
X63004Y-42741D01*
X62918Y-42741D01*
X62876Y-42770D01*
X62854Y-42799D01*
X62833Y-42856D01*
X63240Y-42513D02*
X63540Y-42513D01*
X63347Y-43113D01*
G54D10*
X55171Y-38341D02*
X55171Y-38584D01*
X55186Y-38613D01*
X55200Y-38627D01*
X55229Y-38641D01*
X55286Y-38641D01*
X55314Y-38627D01*
X55329Y-38613D01*
X55343Y-38584D01*
X55343Y-38341D01*
X55643Y-38641D02*
X55471Y-38641D01*
X55557Y-38641D02*
X55557Y-38341D01*
X55528Y-38384D01*
X55500Y-38413D01*
X55471Y-38427D01*
G54D19*
X63345Y-37913D02*
X63345Y-37313D01*
X63517Y-37313D01*
X63559Y-37341D01*
X63581Y-37370D01*
X63602Y-37427D01*
X63602Y-37513D01*
X63581Y-37570D01*
X63559Y-37599D01*
X63517Y-37627D01*
X63345Y-37627D01*
X63795Y-37913D02*
X63795Y-37313D01*
X64266Y-37856D02*
X64245Y-37884D01*
X64181Y-37913D01*
X64138Y-37913D01*
X64073Y-37884D01*
X64031Y-37827D01*
X64009Y-37770D01*
X63988Y-37656D01*
X63988Y-37570D01*
X64009Y-37456D01*
X64031Y-37399D01*
X64073Y-37341D01*
X64138Y-37313D01*
X64181Y-37313D01*
X64245Y-37341D01*
X64266Y-37370D01*
X64416Y-37313D02*
X64695Y-37313D01*
X64545Y-37541D01*
X64609Y-37541D01*
X64652Y-37570D01*
X64673Y-37599D01*
X64695Y-37656D01*
X64695Y-37799D01*
X64673Y-37856D01*
X64652Y-37884D01*
X64609Y-37913D01*
X64481Y-37913D01*
X64438Y-37884D01*
X64416Y-37856D01*
X64867Y-37370D02*
X64888Y-37341D01*
X64931Y-37313D01*
X65038Y-37313D01*
X65081Y-37341D01*
X65102Y-37370D01*
X65124Y-37427D01*
X65124Y-37484D01*
X65102Y-37570D01*
X64845Y-37913D01*
X65124Y-37913D01*
X65317Y-37913D02*
X65317Y-37313D01*
X65467Y-37741D01*
X65617Y-37313D01*
X65617Y-37913D01*
X65788Y-37313D02*
X66088Y-37913D01*
X66088Y-37313D02*
X65788Y-37913D01*
X66496Y-37913D02*
X66239Y-37913D01*
X66367Y-37913D02*
X66367Y-37313D01*
X66324Y-37399D01*
X66282Y-37456D01*
X66239Y-37484D01*
X66903Y-37313D02*
X66689Y-37313D01*
X66668Y-37599D01*
X66689Y-37570D01*
X66732Y-37541D01*
X66839Y-37541D01*
X66882Y-37570D01*
X66903Y-37599D01*
X66925Y-37656D01*
X66925Y-37799D01*
X66903Y-37856D01*
X66882Y-37884D01*
X66839Y-37913D01*
X66732Y-37913D01*
X66689Y-37884D01*
X66668Y-37856D01*
X67204Y-37313D02*
X67247Y-37313D01*
X67290Y-37341D01*
X67311Y-37370D01*
X67332Y-37427D01*
X67354Y-37541D01*
X67354Y-37684D01*
X67332Y-37799D01*
X67311Y-37856D01*
X67290Y-37884D01*
X67247Y-37913D01*
X67204Y-37913D01*
X67161Y-37884D01*
X67140Y-37856D01*
X67118Y-37799D01*
X67097Y-37684D01*
X67097Y-37541D01*
X67118Y-37427D01*
X67140Y-37370D01*
X67161Y-37341D01*
X67204Y-37313D01*
X67697Y-37599D02*
X67547Y-37599D01*
X67547Y-37913D02*
X67547Y-37313D01*
X67761Y-37313D01*
X68169Y-37913D02*
X67912Y-37913D01*
X68040Y-37913D02*
X68040Y-37313D01*
X67997Y-37399D01*
X67955Y-37456D01*
X67912Y-37484D01*
X68341Y-37370D02*
X68362Y-37341D01*
X68405Y-37313D01*
X68512Y-37313D01*
X68555Y-37341D01*
X68576Y-37370D01*
X68598Y-37427D01*
X68598Y-37484D01*
X68576Y-37570D01*
X68319Y-37913D01*
X68598Y-37913D01*
X68855Y-37570D02*
X68813Y-37541D01*
X68791Y-37513D01*
X68770Y-37456D01*
X68770Y-37427D01*
X68791Y-37370D01*
X68813Y-37341D01*
X68855Y-37313D01*
X68941Y-37313D01*
X68984Y-37341D01*
X69005Y-37370D01*
X69027Y-37427D01*
X69027Y-37456D01*
X69005Y-37513D01*
X68984Y-37541D01*
X68941Y-37570D01*
X68855Y-37570D01*
X68813Y-37599D01*
X68791Y-37627D01*
X68770Y-37684D01*
X68770Y-37799D01*
X68791Y-37856D01*
X68813Y-37884D01*
X68855Y-37913D01*
X68941Y-37913D01*
X68984Y-37884D01*
X69005Y-37856D01*
X69027Y-37799D01*
X69027Y-37684D01*
X69005Y-37627D01*
X68984Y-37599D01*
X68941Y-37570D01*
X69370Y-37599D02*
X69434Y-37627D01*
X69456Y-37656D01*
X69477Y-37713D01*
X69477Y-37799D01*
X69456Y-37856D01*
X69434Y-37884D01*
X69392Y-37913D01*
X69220Y-37913D01*
X69220Y-37313D01*
X69370Y-37313D01*
X69413Y-37341D01*
X69434Y-37370D01*
X69456Y-37427D01*
X69456Y-37484D01*
X69434Y-37541D01*
X69413Y-37570D01*
X69370Y-37599D01*
X69220Y-37599D01*
G54D18*
X63983Y-50647D02*
X63973Y-50659D01*
X63945Y-50671D01*
X63926Y-50671D01*
X63897Y-50659D01*
X63878Y-50635D01*
X63869Y-50612D01*
X63859Y-50564D01*
X63859Y-50528D01*
X63869Y-50481D01*
X63878Y-50457D01*
X63897Y-50433D01*
X63926Y-50421D01*
X63945Y-50421D01*
X63973Y-50433D01*
X63983Y-50445D01*
X64183Y-50647D02*
X64173Y-50659D01*
X64145Y-50671D01*
X64126Y-50671D01*
X64097Y-50659D01*
X64078Y-50635D01*
X64069Y-50612D01*
X64059Y-50564D01*
X64059Y-50528D01*
X64069Y-50481D01*
X64078Y-50457D01*
X64097Y-50433D01*
X64126Y-50421D01*
X64145Y-50421D01*
X64173Y-50433D01*
X64183Y-50445D01*
X64487Y-50540D02*
X64516Y-50552D01*
X64525Y-50564D01*
X64535Y-50588D01*
X64535Y-50624D01*
X64525Y-50647D01*
X64516Y-50659D01*
X64497Y-50671D01*
X64421Y-50671D01*
X64421Y-50421D01*
X64487Y-50421D01*
X64506Y-50433D01*
X64516Y-50445D01*
X64525Y-50469D01*
X64525Y-50493D01*
X64516Y-50516D01*
X64506Y-50528D01*
X64487Y-50540D01*
X64421Y-50540D01*
X64659Y-50552D02*
X64659Y-50671D01*
X64592Y-50421D02*
X64659Y-50552D01*
X64725Y-50421D01*
X64792Y-50576D02*
X64944Y-50576D01*
X65030Y-50659D02*
X65059Y-50671D01*
X65106Y-50671D01*
X65125Y-50659D01*
X65135Y-50647D01*
X65144Y-50624D01*
X65144Y-50600D01*
X65135Y-50576D01*
X65125Y-50564D01*
X65106Y-50552D01*
X65068Y-50540D01*
X65049Y-50528D01*
X65040Y-50516D01*
X65030Y-50493D01*
X65030Y-50469D01*
X65040Y-50445D01*
X65049Y-50433D01*
X65068Y-50421D01*
X65116Y-50421D01*
X65144Y-50433D01*
X65220Y-50600D02*
X65315Y-50600D01*
X65201Y-50671D02*
X65268Y-50421D01*
X65334Y-50671D01*
X65534Y-50421D02*
X65657Y-50421D01*
X65591Y-50516D01*
X65619Y-50516D01*
X65638Y-50528D01*
X65648Y-50540D01*
X65657Y-50564D01*
X65657Y-50624D01*
X65648Y-50647D01*
X65638Y-50659D01*
X65619Y-50671D01*
X65562Y-50671D01*
X65543Y-50659D01*
X65534Y-50647D01*
X65743Y-50647D02*
X65752Y-50659D01*
X65743Y-50671D01*
X65733Y-50659D01*
X65743Y-50647D01*
X65743Y-50671D01*
X65876Y-50421D02*
X65895Y-50421D01*
X65914Y-50433D01*
X65923Y-50445D01*
X65933Y-50469D01*
X65942Y-50516D01*
X65942Y-50576D01*
X65933Y-50624D01*
X65923Y-50647D01*
X65914Y-50659D01*
X65895Y-50671D01*
X65876Y-50671D01*
X65857Y-50659D01*
X65847Y-50647D01*
X65838Y-50624D01*
X65828Y-50576D01*
X65828Y-50516D01*
X65838Y-50469D01*
X65847Y-50445D01*
X65857Y-50433D01*
X65876Y-50421D01*
G54D15*
X62010Y-40432D02*
X62010Y-40032D01*
X62429Y-40394D02*
X62410Y-40413D01*
X62353Y-40432D01*
X62315Y-40432D01*
X62257Y-40413D01*
X62219Y-40375D01*
X62200Y-40337D01*
X62181Y-40260D01*
X62181Y-40203D01*
X62200Y-40127D01*
X62219Y-40089D01*
X62257Y-40051D01*
X62315Y-40032D01*
X62353Y-40032D01*
X62410Y-40051D01*
X62429Y-40070D01*
X62581Y-40413D02*
X62638Y-40432D01*
X62734Y-40432D01*
X62772Y-40413D01*
X62791Y-40394D01*
X62810Y-40356D01*
X62810Y-40318D01*
X62791Y-40280D01*
X62772Y-40260D01*
X62734Y-40241D01*
X62657Y-40222D01*
X62619Y-40203D01*
X62600Y-40184D01*
X62581Y-40146D01*
X62581Y-40108D01*
X62600Y-40070D01*
X62619Y-40051D01*
X62657Y-40032D01*
X62753Y-40032D01*
X62810Y-40051D01*
X62981Y-40432D02*
X62981Y-40032D01*
X63134Y-40032D01*
X63172Y-40051D01*
X63191Y-40070D01*
X63210Y-40108D01*
X63210Y-40165D01*
X63191Y-40203D01*
X63172Y-40222D01*
X63134Y-40241D01*
X62981Y-40241D01*
G54D10*
X69500Y-40013D02*
X69486Y-40027D01*
X69443Y-40041D01*
X69414Y-40041D01*
X69371Y-40027D01*
X69343Y-39999D01*
X69328Y-39970D01*
X69314Y-39913D01*
X69314Y-39870D01*
X69328Y-39813D01*
X69343Y-39784D01*
X69371Y-39756D01*
X69414Y-39741D01*
X69443Y-39741D01*
X69486Y-39756D01*
X69500Y-39770D01*
X69600Y-39741D02*
X69786Y-39741D01*
X69686Y-39856D01*
X69728Y-39856D01*
X69757Y-39870D01*
X69771Y-39884D01*
X69786Y-39913D01*
X69786Y-39984D01*
X69771Y-40013D01*
X69757Y-40027D01*
X69728Y-40041D01*
X69643Y-40041D01*
X69614Y-40027D01*
X69600Y-40013D01*
X64950Y-47191D02*
X64850Y-47049D01*
X64778Y-47191D02*
X64778Y-46891D01*
X64893Y-46891D01*
X64921Y-46906D01*
X64936Y-46920D01*
X64950Y-46949D01*
X64950Y-46991D01*
X64936Y-47020D01*
X64921Y-47034D01*
X64893Y-47049D01*
X64778Y-47049D01*
X65236Y-47191D02*
X65064Y-47191D01*
X65150Y-47191D02*
X65150Y-46891D01*
X65121Y-46934D01*
X65093Y-46963D01*
X65064Y-46977D01*
X50950Y-34591D02*
X50850Y-34449D01*
X50778Y-34591D02*
X50778Y-34291D01*
X50893Y-34291D01*
X50921Y-34306D01*
X50936Y-34320D01*
X50950Y-34349D01*
X50950Y-34391D01*
X50936Y-34420D01*
X50921Y-34434D01*
X50893Y-34449D01*
X50778Y-34449D01*
X51064Y-34320D02*
X51078Y-34306D01*
X51107Y-34291D01*
X51178Y-34291D01*
X51207Y-34306D01*
X51221Y-34320D01*
X51236Y-34349D01*
X51236Y-34377D01*
X51221Y-34420D01*
X51050Y-34591D01*
X51236Y-34591D01*
X53150Y-36391D02*
X53050Y-36249D01*
X52978Y-36391D02*
X52978Y-36091D01*
X53093Y-36091D01*
X53121Y-36106D01*
X53136Y-36120D01*
X53150Y-36149D01*
X53150Y-36191D01*
X53136Y-36220D01*
X53121Y-36234D01*
X53093Y-36249D01*
X52978Y-36249D01*
X53250Y-36091D02*
X53436Y-36091D01*
X53336Y-36206D01*
X53378Y-36206D01*
X53407Y-36220D01*
X53421Y-36234D01*
X53436Y-36263D01*
X53436Y-36334D01*
X53421Y-36363D01*
X53407Y-36377D01*
X53378Y-36391D01*
X53293Y-36391D01*
X53264Y-36377D01*
X53250Y-36363D01*
X53950Y-36391D02*
X53850Y-36249D01*
X53778Y-36391D02*
X53778Y-36091D01*
X53893Y-36091D01*
X53921Y-36106D01*
X53936Y-36120D01*
X53950Y-36149D01*
X53950Y-36191D01*
X53936Y-36220D01*
X53921Y-36234D01*
X53893Y-36249D01*
X53778Y-36249D01*
X54207Y-36191D02*
X54207Y-36391D01*
X54136Y-36077D02*
X54064Y-36291D01*
X54250Y-36291D01*
X54600Y-39041D02*
X54500Y-38899D01*
X54428Y-39041D02*
X54428Y-38741D01*
X54543Y-38741D01*
X54571Y-38756D01*
X54586Y-38770D01*
X54600Y-38799D01*
X54600Y-38841D01*
X54586Y-38870D01*
X54571Y-38884D01*
X54543Y-38899D01*
X54428Y-38899D01*
X54857Y-38741D02*
X54800Y-38741D01*
X54771Y-38756D01*
X54757Y-38770D01*
X54728Y-38813D01*
X54714Y-38870D01*
X54714Y-38984D01*
X54728Y-39013D01*
X54743Y-39027D01*
X54771Y-39041D01*
X54828Y-39041D01*
X54857Y-39027D01*
X54871Y-39013D01*
X54886Y-38984D01*
X54886Y-38913D01*
X54871Y-38884D01*
X54857Y-38870D01*
X54828Y-38856D01*
X54771Y-38856D01*
X54743Y-38870D01*
X54728Y-38884D01*
X54714Y-38913D01*
X53150Y-39491D02*
X53050Y-39349D01*
X52978Y-39491D02*
X52978Y-39191D01*
X53093Y-39191D01*
X53121Y-39206D01*
X53136Y-39220D01*
X53150Y-39249D01*
X53150Y-39291D01*
X53136Y-39320D01*
X53121Y-39334D01*
X53093Y-39349D01*
X52978Y-39349D01*
X53250Y-39191D02*
X53450Y-39191D01*
X53321Y-39491D01*
X54150Y-34791D02*
X54050Y-34649D01*
X53978Y-34791D02*
X53978Y-34491D01*
X54093Y-34491D01*
X54121Y-34506D01*
X54136Y-34520D01*
X54150Y-34549D01*
X54150Y-34591D01*
X54136Y-34620D01*
X54121Y-34634D01*
X54093Y-34649D01*
X53978Y-34649D01*
X54321Y-34620D02*
X54293Y-34606D01*
X54278Y-34591D01*
X54264Y-34563D01*
X54264Y-34549D01*
X54278Y-34520D01*
X54293Y-34506D01*
X54321Y-34491D01*
X54378Y-34491D01*
X54407Y-34506D01*
X54421Y-34520D01*
X54436Y-34549D01*
X54436Y-34563D01*
X54421Y-34591D01*
X54407Y-34606D01*
X54378Y-34620D01*
X54321Y-34620D01*
X54293Y-34634D01*
X54278Y-34649D01*
X54264Y-34677D01*
X54264Y-34734D01*
X54278Y-34763D01*
X54293Y-34777D01*
X54321Y-34791D01*
X54378Y-34791D01*
X54407Y-34777D01*
X54421Y-34763D01*
X54436Y-34734D01*
X54436Y-34677D01*
X54421Y-34649D01*
X54407Y-34634D01*
X54378Y-34620D01*
X54150Y-33991D02*
X54050Y-33849D01*
X53978Y-33991D02*
X53978Y-33691D01*
X54093Y-33691D01*
X54121Y-33706D01*
X54136Y-33720D01*
X54150Y-33749D01*
X54150Y-33791D01*
X54136Y-33820D01*
X54121Y-33834D01*
X54093Y-33849D01*
X53978Y-33849D01*
X54293Y-33991D02*
X54350Y-33991D01*
X54378Y-33977D01*
X54393Y-33963D01*
X54421Y-33920D01*
X54436Y-33863D01*
X54436Y-33749D01*
X54421Y-33720D01*
X54407Y-33706D01*
X54378Y-33691D01*
X54321Y-33691D01*
X54293Y-33706D01*
X54278Y-33720D01*
X54264Y-33749D01*
X54264Y-33820D01*
X54278Y-33849D01*
X54293Y-33863D01*
X54321Y-33877D01*
X54378Y-33877D01*
X54407Y-33863D01*
X54421Y-33849D01*
X54436Y-33820D01*
X55007Y-41041D02*
X54907Y-40899D01*
X54835Y-41041D02*
X54835Y-40741D01*
X54950Y-40741D01*
X54978Y-40756D01*
X54993Y-40770D01*
X55007Y-40799D01*
X55007Y-40841D01*
X54993Y-40870D01*
X54978Y-40884D01*
X54950Y-40899D01*
X54835Y-40899D01*
X55293Y-41041D02*
X55121Y-41041D01*
X55207Y-41041D02*
X55207Y-40741D01*
X55178Y-40784D01*
X55150Y-40813D01*
X55121Y-40827D01*
X55479Y-40741D02*
X55507Y-40741D01*
X55536Y-40756D01*
X55550Y-40770D01*
X55564Y-40799D01*
X55579Y-40856D01*
X55579Y-40927D01*
X55564Y-40984D01*
X55550Y-41013D01*
X55536Y-41027D01*
X55507Y-41041D01*
X55479Y-41041D01*
X55450Y-41027D01*
X55436Y-41013D01*
X55421Y-40984D01*
X55407Y-40927D01*
X55407Y-40856D01*
X55421Y-40799D01*
X55436Y-40770D01*
X55450Y-40756D01*
X55479Y-40741D01*
X54750Y-36391D02*
X54650Y-36249D01*
X54578Y-36391D02*
X54578Y-36091D01*
X54693Y-36091D01*
X54721Y-36106D01*
X54736Y-36120D01*
X54750Y-36149D01*
X54750Y-36191D01*
X54736Y-36220D01*
X54721Y-36234D01*
X54693Y-36249D01*
X54578Y-36249D01*
X55021Y-36091D02*
X54878Y-36091D01*
X54864Y-36234D01*
X54878Y-36220D01*
X54907Y-36206D01*
X54978Y-36206D01*
X55007Y-36220D01*
X55021Y-36234D01*
X55036Y-36263D01*
X55036Y-36334D01*
X55021Y-36363D01*
X55007Y-36377D01*
X54978Y-36391D01*
X54907Y-36391D01*
X54878Y-36377D01*
X54864Y-36363D01*
X63550Y-35163D02*
X63536Y-35177D01*
X63493Y-35191D01*
X63464Y-35191D01*
X63421Y-35177D01*
X63393Y-35149D01*
X63378Y-35120D01*
X63364Y-35063D01*
X63364Y-35020D01*
X63378Y-34963D01*
X63393Y-34934D01*
X63421Y-34906D01*
X63464Y-34891D01*
X63493Y-34891D01*
X63536Y-34906D01*
X63550Y-34920D01*
X63836Y-35191D02*
X63664Y-35191D01*
X63750Y-35191D02*
X63750Y-34891D01*
X63721Y-34934D01*
X63693Y-34963D01*
X63664Y-34977D01*
X65350Y-43863D02*
X65336Y-43877D01*
X65293Y-43891D01*
X65264Y-43891D01*
X65221Y-43877D01*
X65193Y-43849D01*
X65178Y-43820D01*
X65164Y-43763D01*
X65164Y-43720D01*
X65178Y-43663D01*
X65193Y-43634D01*
X65221Y-43606D01*
X65264Y-43591D01*
X65293Y-43591D01*
X65336Y-43606D01*
X65350Y-43620D01*
X65607Y-43591D02*
X65550Y-43591D01*
X65521Y-43606D01*
X65507Y-43620D01*
X65478Y-43663D01*
X65464Y-43720D01*
X65464Y-43834D01*
X65478Y-43863D01*
X65493Y-43877D01*
X65521Y-43891D01*
X65578Y-43891D01*
X65607Y-43877D01*
X65621Y-43863D01*
X65636Y-43834D01*
X65636Y-43763D01*
X65621Y-43734D01*
X65607Y-43720D01*
X65578Y-43706D01*
X65521Y-43706D01*
X65493Y-43720D01*
X65478Y-43734D01*
X65464Y-43763D01*
X66071Y-41391D02*
X66071Y-41634D01*
X66086Y-41663D01*
X66100Y-41677D01*
X66129Y-41691D01*
X66186Y-41691D01*
X66214Y-41677D01*
X66229Y-41663D01*
X66243Y-41634D01*
X66243Y-41391D01*
X66514Y-41491D02*
X66514Y-41691D01*
X66443Y-41377D02*
X66371Y-41591D01*
X66557Y-41591D01*
X53978Y-33191D02*
X53978Y-32891D01*
X54050Y-32891D01*
X54093Y-32906D01*
X54121Y-32934D01*
X54136Y-32963D01*
X54150Y-33020D01*
X54150Y-33063D01*
X54136Y-33120D01*
X54121Y-33149D01*
X54093Y-33177D01*
X54050Y-33191D01*
X53978Y-33191D01*
X54264Y-32920D02*
X54278Y-32906D01*
X54307Y-32891D01*
X54378Y-32891D01*
X54407Y-32906D01*
X54421Y-32920D01*
X54436Y-32949D01*
X54436Y-32977D01*
X54421Y-33020D01*
X54250Y-33191D01*
X54436Y-33191D01*
X64778Y-45591D02*
X64778Y-45291D01*
X64850Y-45291D01*
X64893Y-45306D01*
X64921Y-45334D01*
X64936Y-45363D01*
X64950Y-45420D01*
X64950Y-45463D01*
X64936Y-45520D01*
X64921Y-45549D01*
X64893Y-45577D01*
X64850Y-45591D01*
X64778Y-45591D01*
X65236Y-45591D02*
X65064Y-45591D01*
X65150Y-45591D02*
X65150Y-45291D01*
X65121Y-45334D01*
X65093Y-45363D01*
X65064Y-45377D01*
X55650Y-35363D02*
X55636Y-35377D01*
X55593Y-35391D01*
X55564Y-35391D01*
X55521Y-35377D01*
X55493Y-35349D01*
X55478Y-35320D01*
X55464Y-35263D01*
X55464Y-35220D01*
X55478Y-35163D01*
X55493Y-35134D01*
X55521Y-35106D01*
X55564Y-35091D01*
X55593Y-35091D01*
X55636Y-35106D01*
X55650Y-35120D01*
X55764Y-35120D02*
X55778Y-35106D01*
X55807Y-35091D01*
X55878Y-35091D01*
X55907Y-35106D01*
X55921Y-35120D01*
X55936Y-35149D01*
X55936Y-35177D01*
X55921Y-35220D01*
X55750Y-35391D01*
X55936Y-35391D01*
X54550Y-41863D02*
X54536Y-41877D01*
X54493Y-41891D01*
X54464Y-41891D01*
X54421Y-41877D01*
X54393Y-41849D01*
X54378Y-41820D01*
X54364Y-41763D01*
X54364Y-41720D01*
X54378Y-41663D01*
X54393Y-41634D01*
X54421Y-41606D01*
X54464Y-41591D01*
X54493Y-41591D01*
X54536Y-41606D01*
X54550Y-41620D01*
X54807Y-41691D02*
X54807Y-41891D01*
X54736Y-41577D02*
X54664Y-41791D01*
X54850Y-41791D01*
X54550Y-46063D02*
X54536Y-46077D01*
X54493Y-46091D01*
X54464Y-46091D01*
X54421Y-46077D01*
X54393Y-46049D01*
X54378Y-46020D01*
X54364Y-45963D01*
X54364Y-45920D01*
X54378Y-45863D01*
X54393Y-45834D01*
X54421Y-45806D01*
X54464Y-45791D01*
X54493Y-45791D01*
X54536Y-45806D01*
X54550Y-45820D01*
X54821Y-45791D02*
X54678Y-45791D01*
X54664Y-45934D01*
X54678Y-45920D01*
X54707Y-45906D01*
X54778Y-45906D01*
X54807Y-45920D01*
X54821Y-45934D01*
X54836Y-45963D01*
X54836Y-46034D01*
X54821Y-46063D01*
X54807Y-46077D01*
X54778Y-46091D01*
X54707Y-46091D01*
X54678Y-46077D01*
X54664Y-46063D01*
X53457Y-40641D02*
X53357Y-40499D01*
X53285Y-40641D02*
X53285Y-40341D01*
X53400Y-40341D01*
X53428Y-40356D01*
X53443Y-40370D01*
X53457Y-40399D01*
X53457Y-40441D01*
X53443Y-40470D01*
X53428Y-40484D01*
X53400Y-40499D01*
X53285Y-40499D01*
X53743Y-40641D02*
X53571Y-40641D01*
X53657Y-40641D02*
X53657Y-40341D01*
X53628Y-40384D01*
X53600Y-40413D01*
X53571Y-40427D01*
X54029Y-40641D02*
X53857Y-40641D01*
X53943Y-40641D02*
X53943Y-40341D01*
X53914Y-40384D01*
X53886Y-40413D01*
X53857Y-40427D01*
%LPC*%
G54D20*
X70792Y-50020D02*
X70770Y-50241D01*
X70705Y-50455D01*
X70601Y-50651D01*
X70460Y-50824D01*
X70288Y-50966D01*
X70092Y-51072D01*
X69879Y-51138D01*
X69657Y-51161D01*
X69437Y-51141D01*
X69223Y-51078D01*
X69025Y-50975D01*
X68851Y-50835D01*
X68708Y-50665D01*
X68601Y-50469D01*
X68533Y-50257D01*
X68509Y-50035D01*
X68527Y-49814D01*
X68589Y-49600D01*
X68691Y-49402D01*
X68829Y-49227D01*
X68999Y-49083D01*
X69193Y-48974D01*
X69405Y-48905D01*
X69627Y-48879D01*
X69848Y-48896D01*
X70062Y-48956D01*
X70261Y-49056D01*
X70437Y-49193D01*
X70583Y-49362D01*
X70693Y-49556D01*
X70763Y-49767D01*
X70791Y-49989D01*
X70792Y-50020D01*
X70792Y-33320D02*
X70770Y-33541D01*
X70705Y-33755D01*
X70601Y-33951D01*
X70460Y-34124D01*
X70288Y-34266D01*
X70092Y-34372D01*
X69879Y-34438D01*
X69657Y-34461D01*
X69437Y-34441D01*
X69223Y-34378D01*
X69025Y-34275D01*
X68851Y-34135D01*
X68708Y-33965D01*
X68601Y-33769D01*
X68533Y-33557D01*
X68509Y-33335D01*
X68527Y-33114D01*
X68589Y-32900D01*
X68691Y-32702D01*
X68829Y-32527D01*
X68999Y-32383D01*
X69193Y-32274D01*
X69405Y-32205D01*
X69627Y-32179D01*
X69848Y-32196D01*
X70062Y-32256D01*
X70261Y-32356D01*
X70437Y-32493D01*
X70583Y-32662D01*
X70693Y-32856D01*
X70763Y-33067D01*
X70791Y-33289D01*
X70792Y-33320D01*
X50792Y-50020D02*
X50770Y-50241D01*
X50705Y-50455D01*
X50601Y-50651D01*
X50460Y-50824D01*
X50288Y-50966D01*
X50092Y-51072D01*
X49879Y-51138D01*
X49657Y-51161D01*
X49437Y-51141D01*
X49223Y-51078D01*
X49025Y-50975D01*
X48851Y-50835D01*
X48708Y-50665D01*
X48601Y-50469D01*
X48533Y-50257D01*
X48509Y-50035D01*
X48527Y-49814D01*
X48589Y-49600D01*
X48691Y-49402D01*
X48829Y-49227D01*
X48999Y-49083D01*
X49193Y-48974D01*
X49405Y-48905D01*
X49627Y-48879D01*
X49848Y-48896D01*
X50062Y-48956D01*
X50261Y-49056D01*
X50437Y-49193D01*
X50583Y-49362D01*
X50693Y-49556D01*
X50763Y-49767D01*
X50791Y-49989D01*
X50792Y-50020D01*
X50792Y-33320D02*
X50770Y-33541D01*
X50705Y-33755D01*
X50601Y-33951D01*
X50460Y-34124D01*
X50288Y-34266D01*
X50092Y-34372D01*
X49879Y-34438D01*
X49657Y-34461D01*
X49437Y-34441D01*
X49223Y-34378D01*
X49025Y-34275D01*
X48851Y-34135D01*
X48708Y-33965D01*
X48601Y-33769D01*
X48533Y-33557D01*
X48509Y-33335D01*
X48527Y-33114D01*
X48589Y-32900D01*
X48691Y-32702D01*
X48829Y-32527D01*
X48999Y-32383D01*
X49193Y-32274D01*
X49405Y-32205D01*
X49627Y-32179D01*
X49848Y-32196D01*
X50062Y-32256D01*
X50261Y-32356D01*
X50437Y-32493D01*
X50583Y-32662D01*
X50693Y-32856D01*
X50763Y-33067D01*
X50791Y-33289D01*
X50792Y-33320D01*
G54D21*
X45450Y-47970D03*
X45450Y-46870D03*
X45450Y-45820D03*
X45450Y-44720D03*
X45450Y-43670D03*
X45450Y-42570D03*
X45450Y-41470D03*
X45450Y-40420D03*
X45450Y-39320D03*
X45450Y-38270D03*
X45450Y-37170D03*
X45450Y-36070D03*
X45450Y-35020D03*
G54D22*
X67950Y-40870D03*
X69250Y-40870D03*
G54D23*
X62500Y-33850D03*
G54D24*
X63500Y-33690D03*
X64500Y-33850D03*
X65500Y-33690D03*
X66500Y-33850D03*
X67500Y-33690D03*
G54D23*
X50100Y-47470D03*
G54D24*
X49100Y-47470D03*
X50100Y-46470D03*
X49100Y-46470D03*
X50100Y-45470D03*
X49100Y-45470D03*
X50100Y-44470D03*
X49100Y-44470D03*
X50100Y-43470D03*
X49100Y-43470D03*
X50100Y-42470D03*
X49100Y-42470D03*
X50100Y-41470D03*
X49100Y-41470D03*
X50100Y-40470D03*
X49100Y-40470D03*
X50100Y-39470D03*
X49100Y-39470D03*
X50100Y-38470D03*
X49100Y-38470D03*
X50100Y-37470D03*
X49100Y-37470D03*
X50100Y-36470D03*
X49100Y-36470D03*
X50100Y-35470D03*
X49100Y-35470D03*
G54D25*
X56300Y-48570D03*
G54D26*
X57300Y-48570D03*
X58300Y-48570D03*
X59300Y-48570D03*
X60300Y-48570D03*
X61300Y-48570D03*
X62300Y-48570D03*
X63300Y-48570D03*
X63300Y-45570D03*
X62300Y-45570D03*
X61300Y-45570D03*
X60300Y-45570D03*
X59300Y-45570D03*
X58300Y-45570D03*
X57300Y-45570D03*
X56300Y-45570D03*
G54D23*
X58300Y-34770D03*
G54D24*
X58300Y-33770D03*
X59300Y-34770D03*
X59300Y-33770D03*
X60300Y-34770D03*
X60300Y-33770D03*
X61300Y-34770D03*
X61300Y-33770D03*
G54D27*
X68200Y-45702D03*
X68200Y-47670D03*
G54D25*
X56300Y-44370D03*
G54D26*
X57300Y-44370D03*
X58300Y-44370D03*
X59300Y-44370D03*
X60300Y-44370D03*
X61300Y-44370D03*
X62300Y-44370D03*
X63300Y-44370D03*
X63300Y-41370D03*
X62300Y-41370D03*
X61300Y-41370D03*
X60300Y-41370D03*
X59300Y-41370D03*
X58300Y-41370D03*
X57300Y-41370D03*
X56300Y-41370D03*
X57300Y-39170D03*
X58300Y-39170D03*
X59300Y-39170D03*
X60300Y-39170D03*
X61300Y-39170D03*
X62300Y-39170D03*
X63300Y-39170D03*
X64300Y-39170D03*
X65300Y-39170D03*
X66300Y-39170D03*
X67300Y-39170D03*
X68300Y-39170D03*
X69300Y-39170D03*
G54D25*
X56300Y-39170D03*
G54D26*
X69300Y-36170D03*
X68300Y-36170D03*
X67300Y-36170D03*
X66300Y-36170D03*
X65300Y-36170D03*
X64300Y-36170D03*
X63300Y-36170D03*
X62300Y-36170D03*
X61300Y-36170D03*
X60300Y-36170D03*
X59300Y-36170D03*
X58300Y-36170D03*
X57300Y-36170D03*
X56300Y-36170D03*
G54D23*
X56300Y-40350D03*
G54D24*
X57300Y-40190D03*
X58300Y-40350D03*
X59300Y-40190D03*
X60300Y-40350D03*
X61300Y-40190D03*
G54D28*
X68225Y-39870D03*
X68975Y-39870D03*
G54D29*
X65600Y-47445D03*
X65600Y-46695D03*
X51700Y-34445D03*
X51700Y-33695D03*
X53200Y-37445D03*
X53200Y-36695D03*
X54000Y-37445D03*
X54000Y-36695D03*
X54000Y-38095D03*
X54000Y-38845D03*
X53200Y-38095D03*
X53200Y-38845D03*
G54D28*
X53375Y-34670D03*
X52625Y-34670D03*
X53375Y-33870D03*
X52625Y-33870D03*
G54D29*
X55200Y-40445D03*
X55200Y-39695D03*
X54800Y-37445D03*
X54800Y-36695D03*
G54D22*
X64350Y-35070D03*
X65650Y-35070D03*
G54D30*
X66200Y-43520D03*
X66200Y-42220D03*
G54D31*
X69900Y-42870D03*
G54D32*
X67300Y-42870D03*
X67300Y-43770D03*
X67300Y-41970D03*
G54D33*
X53559Y-33070D03*
X52441Y-33070D03*
G54D34*
X65600Y-44911D03*
X65600Y-46029D03*
G54D28*
X57075Y-35270D03*
X56325Y-35270D03*
G54D29*
X55275Y-41370D03*
X55275Y-42120D03*
X55275Y-45570D03*
X55275Y-46320D03*
X54400Y-39695D03*
X54400Y-40445D03*
M02*
