G04 (created by PCBNEW-RS274X (2012-apr-16-27)-stable) date Tuesday 03,June,2014 02:57:51 PM SGT*
G01*
G70*
G90*
%MOIN*%
G04 Gerber Fmt 3.4, Leading zero omitted, Abs format*
%FSLAX34Y34*%
G04 APERTURE LIST*
%ADD10C,0.006000*%
%ADD11R,0.220000X0.080000*%
%ADD12R,0.080000X0.080000*%
%ADD13C,0.080000*%
%ADD14R,0.075000X0.075000*%
%ADD15C,0.075000*%
%ADD16C,0.120000*%
G04 APERTURE END LIST*
G54D10*
G54D11*
X45450Y-47420D03*
X45450Y-46370D03*
X45450Y-45270D03*
X45450Y-44170D03*
X45450Y-43120D03*
X45450Y-42020D03*
X45450Y-40970D03*
X45450Y-39870D03*
X45450Y-38770D03*
X45450Y-37720D03*
X45450Y-36620D03*
X45450Y-35570D03*
G54D12*
X62500Y-33850D03*
G54D13*
X63500Y-33690D03*
X64500Y-33850D03*
X65500Y-33690D03*
X66500Y-33850D03*
X67500Y-33690D03*
G54D12*
X50100Y-47470D03*
G54D13*
X49100Y-47470D03*
X50100Y-46470D03*
X49100Y-46470D03*
X50100Y-45470D03*
X49100Y-45470D03*
X50100Y-44470D03*
X49100Y-44470D03*
X50100Y-43470D03*
X49100Y-43470D03*
X50100Y-42470D03*
X49100Y-42470D03*
X50100Y-41470D03*
X49100Y-41470D03*
X50100Y-40470D03*
X49100Y-40470D03*
X50100Y-39470D03*
X49100Y-39470D03*
X50100Y-38470D03*
X49100Y-38470D03*
X50100Y-37470D03*
X49100Y-37470D03*
X50100Y-36470D03*
X49100Y-36470D03*
X50100Y-35470D03*
X49100Y-35470D03*
G54D14*
X56300Y-48570D03*
G54D15*
X57300Y-48570D03*
X58300Y-48570D03*
X59300Y-48570D03*
X60300Y-48570D03*
X61300Y-48570D03*
X62300Y-48570D03*
X63300Y-48570D03*
X63300Y-45570D03*
X62300Y-45570D03*
X61300Y-45570D03*
X60300Y-45570D03*
X59300Y-45570D03*
X58300Y-45570D03*
X57300Y-45570D03*
X56300Y-45570D03*
G54D12*
X58300Y-34770D03*
G54D13*
X58300Y-33770D03*
X59300Y-34770D03*
X59300Y-33770D03*
X60300Y-34770D03*
X60300Y-33770D03*
X61300Y-34770D03*
X61300Y-33770D03*
G54D16*
X68200Y-45702D03*
X68200Y-47670D03*
G54D14*
X56300Y-44370D03*
G54D15*
X57300Y-44370D03*
X58300Y-44370D03*
X59300Y-44370D03*
X60300Y-44370D03*
X61300Y-44370D03*
X62300Y-44370D03*
X63300Y-44370D03*
X63300Y-41370D03*
X62300Y-41370D03*
X61300Y-41370D03*
X60300Y-41370D03*
X59300Y-41370D03*
X58300Y-41370D03*
X57300Y-41370D03*
X56300Y-41370D03*
X57300Y-39170D03*
X58300Y-39170D03*
X59300Y-39170D03*
X60300Y-39170D03*
X61300Y-39170D03*
X62300Y-39170D03*
X63300Y-39170D03*
X64300Y-39170D03*
X65300Y-39170D03*
X66300Y-39170D03*
X67300Y-39170D03*
X68300Y-39170D03*
X69300Y-39170D03*
G54D14*
X56300Y-39170D03*
G54D15*
X69300Y-36170D03*
X68300Y-36170D03*
X67300Y-36170D03*
X66300Y-36170D03*
X65300Y-36170D03*
X64300Y-36170D03*
X63300Y-36170D03*
X62300Y-36170D03*
X61300Y-36170D03*
X60300Y-36170D03*
X59300Y-36170D03*
X58300Y-36170D03*
X57300Y-36170D03*
X56300Y-36170D03*
G54D12*
X56300Y-40350D03*
G54D13*
X57300Y-40190D03*
X58300Y-40350D03*
X59300Y-40190D03*
X60300Y-40350D03*
X61300Y-40190D03*
M02*
