M48
INCH,TZ
T1C0.012
T2C0.032
T3C0.040
T4C0.059
T5C0.114
%
G90
G05
T1
X50380Y-35000
X50560Y-41010
X50980Y-46980
X51320Y-42130
X51470Y-42880
X52030Y-44010
X52200Y-34170
X52310Y-43460
X53600Y-37070
X53700Y-35195
X54400Y-37070
X54400Y-38470
X55600Y-40070
T2
X50100Y-47470
X56300Y-36170
X56300Y-39170
X56300Y-41370
X56300Y-44370
X56300Y-45570
X56300Y-48570
X57300Y-36170
X57300Y-39170
X57300Y-41370
X57300Y-44370
X57300Y-45570
X57300Y-48570
X58300Y-36170
X58300Y-39170
X58300Y-41370
X58300Y-44370
X58300Y-45570
X58300Y-48570
X59300Y-36170
X59300Y-39170
X59300Y-41370
X59300Y-44370
X59300Y-45570
X59300Y-48570
X60300Y-36170
X60300Y-39170
X60300Y-41370
X60300Y-44370
X60300Y-45570
X60300Y-48570
X61300Y-36170
X61300Y-39170
X61300Y-41370
X61300Y-44370
X61300Y-45570
X61300Y-48570
X62300Y-36170
X62300Y-39170
X62300Y-41370
X62300Y-44370
X62300Y-45570
X62300Y-48570
X63300Y-36170
X63300Y-39170
X63300Y-41370
X63300Y-44370
X63300Y-45570
X63300Y-48570
X64300Y-36170
X64300Y-39170
X65300Y-36170
X65300Y-39170
X66300Y-36170
X66300Y-39170
X67300Y-36170
X67300Y-39170
X68300Y-36170
X68300Y-39170
X69300Y-36170
X69300Y-39170
T3
X49100Y-35470
X49100Y-36470
X49100Y-37470
X49100Y-38470
X49100Y-39470
X49100Y-40470
X49100Y-41470
X49100Y-42470
X49100Y-43470
X49100Y-44470
X49100Y-45470
X49100Y-46470
X49100Y-47470
X50100Y-35470
X50100Y-36470
X50100Y-37470
X50100Y-38470
X50100Y-39470
X50100Y-40470
X50100Y-41470
X50100Y-42470
X50100Y-43470
X50100Y-44470
X50100Y-45470
X50100Y-46470
X56300Y-40350
X57300Y-40190
X58300Y-33770
X58300Y-34770
X58300Y-40350
X59300Y-33770
X59300Y-34770
X59300Y-40190
X60300Y-33770
X60300Y-34770
X60300Y-40350
X61300Y-33770
X61300Y-34770
X61300Y-40190
X62500Y-33850
X63500Y-33690
X64500Y-33850
X65500Y-33690
X66500Y-33850
X67500Y-33690
T4
X68200Y-45702
X68200Y-47670
T5
X49650Y-33320
X49650Y-50020
X69650Y-33320
X69650Y-50020
T0
M30
