G04 (created by PCBNEW-RS274X (2012-apr-16-27)-stable) date Saturday 07,June,2014 10:26:27 PM SGT*
G01*
G70*
G90*
%MOIN*%
G04 Gerber Fmt 3.4, Leading zero omitted, Abs format*
%FSLAX34Y34*%
G04 APERTURE LIST*
%ADD10C,0.006000*%
%ADD11R,0.200000X0.060000*%
%ADD12R,0.060000X0.060000*%
%ADD13C,0.060000*%
%ADD14R,0.055000X0.055000*%
%ADD15C,0.055000*%
%ADD16C,0.100000*%
%ADD17C,0.024000*%
%ADD18C,0.032000*%
%ADD19C,0.010000*%
%ADD20C,0.016000*%
G04 APERTURE END LIST*
G54D10*
G54D11*
X45450Y-47420D03*
X45450Y-46370D03*
X45450Y-45270D03*
X45450Y-44170D03*
X45450Y-43120D03*
X45450Y-42020D03*
X45450Y-40970D03*
X45450Y-39870D03*
X45450Y-38770D03*
X45450Y-37720D03*
X45450Y-36620D03*
X45450Y-35570D03*
G54D12*
X62500Y-33850D03*
G54D13*
X63500Y-33690D03*
X64500Y-33850D03*
X65500Y-33690D03*
X66500Y-33850D03*
X67500Y-33690D03*
G54D12*
X50100Y-47470D03*
G54D13*
X49100Y-47470D03*
X50100Y-46470D03*
X49100Y-46470D03*
X50100Y-45470D03*
X49100Y-45470D03*
X50100Y-44470D03*
X49100Y-44470D03*
X50100Y-43470D03*
X49100Y-43470D03*
X50100Y-42470D03*
X49100Y-42470D03*
X50100Y-41470D03*
X49100Y-41470D03*
X50100Y-40470D03*
X49100Y-40470D03*
X50100Y-39470D03*
X49100Y-39470D03*
X50100Y-38470D03*
X49100Y-38470D03*
X50100Y-37470D03*
X49100Y-37470D03*
X50100Y-36470D03*
X49100Y-36470D03*
X50100Y-35470D03*
X49100Y-35470D03*
G54D14*
X56300Y-48570D03*
G54D15*
X57300Y-48570D03*
X58300Y-48570D03*
X59300Y-48570D03*
X60300Y-48570D03*
X61300Y-48570D03*
X62300Y-48570D03*
X63300Y-48570D03*
X63300Y-45570D03*
X62300Y-45570D03*
X61300Y-45570D03*
X60300Y-45570D03*
X59300Y-45570D03*
X58300Y-45570D03*
X57300Y-45570D03*
X56300Y-45570D03*
G54D12*
X58300Y-34770D03*
G54D13*
X58300Y-33770D03*
X59300Y-34770D03*
X59300Y-33770D03*
X60300Y-34770D03*
X60300Y-33770D03*
X61300Y-34770D03*
X61300Y-33770D03*
G54D16*
X68200Y-45702D03*
X68200Y-47670D03*
G54D14*
X56300Y-44370D03*
G54D15*
X57300Y-44370D03*
X58300Y-44370D03*
X59300Y-44370D03*
X60300Y-44370D03*
X61300Y-44370D03*
X62300Y-44370D03*
X63300Y-44370D03*
X63300Y-41370D03*
X62300Y-41370D03*
X61300Y-41370D03*
X60300Y-41370D03*
X59300Y-41370D03*
X58300Y-41370D03*
X57300Y-41370D03*
X56300Y-41370D03*
X57300Y-39170D03*
X58300Y-39170D03*
X59300Y-39170D03*
X60300Y-39170D03*
X61300Y-39170D03*
X62300Y-39170D03*
X63300Y-39170D03*
X64300Y-39170D03*
X65300Y-39170D03*
X66300Y-39170D03*
X67300Y-39170D03*
X68300Y-39170D03*
X69300Y-39170D03*
G54D14*
X56300Y-39170D03*
G54D15*
X69300Y-36170D03*
X68300Y-36170D03*
X67300Y-36170D03*
X66300Y-36170D03*
X65300Y-36170D03*
X64300Y-36170D03*
X63300Y-36170D03*
X62300Y-36170D03*
X61300Y-36170D03*
X60300Y-36170D03*
X59300Y-36170D03*
X58300Y-36170D03*
X57300Y-36170D03*
X56300Y-36170D03*
G54D12*
X56300Y-40350D03*
G54D13*
X57300Y-40190D03*
X58300Y-40350D03*
X59300Y-40190D03*
X60300Y-40350D03*
X61300Y-40190D03*
G54D17*
X55600Y-40070D03*
X50560Y-41010D03*
X52310Y-43460D03*
X51320Y-42130D03*
X53700Y-35195D03*
X54400Y-38470D03*
X53600Y-37070D03*
X54400Y-37070D03*
X51470Y-42880D03*
X52030Y-44010D03*
X50380Y-35000D03*
X50980Y-46980D03*
X52200Y-34170D03*
G54D18*
X56820Y-37970D02*
X67730Y-37970D01*
X56300Y-37450D02*
X56820Y-37970D01*
G54D19*
X56840Y-39730D02*
X56840Y-37990D01*
G54D18*
X56300Y-36170D02*
X56300Y-37450D01*
G54D19*
X56840Y-37990D02*
X56820Y-37970D01*
G54D18*
X67730Y-37970D02*
X68300Y-38540D01*
G54D19*
X55780Y-39890D02*
X57000Y-39890D01*
X55600Y-40070D02*
X55780Y-39890D01*
X57300Y-40190D02*
X57000Y-39890D01*
X57000Y-39890D02*
X56840Y-39730D01*
G54D18*
X68300Y-38540D02*
X68300Y-39170D01*
G54D20*
X63500Y-40910D02*
X68200Y-45610D01*
X56760Y-40910D02*
X63500Y-40910D01*
X56300Y-41370D02*
X56760Y-40910D01*
X68200Y-45610D02*
X68200Y-45702D01*
G54D19*
X59663Y-43733D02*
X51649Y-43733D01*
X50560Y-42644D02*
X50560Y-41010D01*
X51649Y-43733D02*
X50560Y-42644D01*
X60300Y-44370D02*
X59663Y-43733D01*
X61490Y-43180D02*
X51382Y-43180D01*
X50490Y-40470D02*
X50100Y-40470D01*
X50840Y-42638D02*
X50840Y-40820D01*
X50840Y-40820D02*
X50490Y-40470D01*
X63300Y-41370D02*
X61490Y-43180D01*
X51382Y-43180D02*
X50840Y-42638D01*
X62300Y-43998D02*
X61830Y-43528D01*
X53848Y-43531D02*
X53848Y-43528D01*
X52310Y-43460D02*
X52381Y-43531D01*
X52381Y-43531D02*
X53848Y-43531D01*
X53848Y-43528D02*
X53848Y-43528D01*
X61830Y-43528D02*
X53848Y-43528D01*
X62300Y-44370D02*
X62300Y-43998D01*
X60240Y-42978D02*
X52168Y-42978D01*
X52168Y-42978D02*
X51320Y-42130D01*
X48800Y-44170D02*
X45450Y-44170D01*
X61300Y-41918D02*
X60240Y-42978D01*
X61300Y-41370D02*
X61300Y-41918D01*
X49100Y-44470D02*
X48800Y-44170D01*
X49560Y-46010D02*
X49560Y-39360D01*
X53700Y-35970D02*
X54675Y-36945D01*
X49100Y-46470D02*
X45550Y-46470D01*
X49100Y-46470D02*
X49560Y-46010D01*
X49560Y-39360D02*
X49950Y-38970D01*
X53900Y-38970D02*
X54400Y-38470D01*
X49950Y-38970D02*
X53900Y-38970D01*
X54675Y-38195D02*
X54400Y-38470D01*
X54675Y-36945D02*
X54675Y-38195D01*
X45550Y-46470D02*
X45450Y-46370D01*
X53700Y-35195D02*
X53700Y-35970D01*
X53600Y-37070D02*
X53000Y-36470D01*
X53000Y-36470D02*
X50100Y-36470D01*
X54400Y-37070D02*
X54400Y-36956D01*
X54400Y-36956D02*
X52914Y-35470D01*
X52914Y-35470D02*
X50100Y-35470D01*
X51200Y-41850D02*
X51042Y-42008D01*
X51042Y-42452D02*
X51470Y-42880D01*
X51430Y-41850D02*
X51200Y-41850D01*
X48900Y-45270D02*
X49100Y-45470D01*
X59300Y-41370D02*
X59300Y-42326D01*
X59300Y-42326D02*
X58850Y-42776D01*
X51042Y-42008D02*
X51042Y-42452D01*
X58850Y-42776D02*
X52356Y-42776D01*
X52356Y-42776D02*
X51430Y-41850D01*
X45450Y-45270D02*
X48900Y-45270D01*
X49100Y-47470D02*
X45500Y-47470D01*
X52105Y-43935D02*
X52030Y-44010D01*
X58300Y-44370D02*
X57865Y-43935D01*
X57865Y-43935D02*
X52105Y-43935D01*
X45500Y-47470D02*
X45450Y-47420D01*
X49640Y-38010D02*
X49640Y-35250D01*
X50100Y-38470D02*
X49640Y-38010D01*
X49890Y-35000D02*
X50380Y-35000D01*
X49640Y-35250D02*
X49890Y-35000D01*
X50852Y-46222D02*
X50100Y-45470D01*
X59952Y-46222D02*
X50852Y-46222D01*
X62300Y-48570D02*
X59952Y-46222D01*
X60300Y-48570D02*
X58154Y-46424D01*
X50146Y-46424D02*
X50100Y-46470D01*
X58154Y-46424D02*
X50146Y-46424D01*
X60870Y-45140D02*
X51770Y-45140D01*
X61300Y-45570D02*
X60870Y-45140D01*
X51770Y-45140D02*
X50100Y-43470D01*
X59300Y-45570D02*
X58850Y-46020D01*
X51650Y-46020D02*
X50100Y-44470D01*
X58850Y-46020D02*
X51650Y-46020D01*
X51334Y-46626D02*
X50980Y-46980D01*
X58300Y-48570D02*
X56356Y-46626D01*
X56356Y-46626D02*
X51334Y-46626D01*
X63300Y-45570D02*
X62668Y-44938D01*
X62668Y-44938D02*
X52568Y-44938D01*
X52568Y-44938D02*
X50100Y-42470D01*
G54D10*
G36*
X70550Y-48365D02*
X70523Y-48504D01*
X70447Y-48617D01*
X70334Y-48693D01*
X70195Y-48720D01*
X69744Y-48720D01*
X69744Y-39259D01*
X69744Y-39082D01*
X69744Y-36259D01*
X69744Y-36082D01*
X69677Y-35919D01*
X69552Y-35794D01*
X69389Y-35726D01*
X69212Y-35726D01*
X69049Y-35793D01*
X68924Y-35918D01*
X68856Y-36081D01*
X68856Y-36258D01*
X68923Y-36421D01*
X69048Y-36546D01*
X69211Y-36614D01*
X69388Y-36614D01*
X69551Y-36547D01*
X69676Y-36422D01*
X69744Y-36259D01*
X69744Y-39082D01*
X69677Y-38919D01*
X69552Y-38794D01*
X69389Y-38726D01*
X69212Y-38726D01*
X69049Y-38793D01*
X68924Y-38918D01*
X68856Y-39081D01*
X68856Y-39258D01*
X68923Y-39421D01*
X69048Y-39546D01*
X69211Y-39614D01*
X69388Y-39614D01*
X69551Y-39547D01*
X69676Y-39422D01*
X69744Y-39259D01*
X69744Y-48720D01*
X68946Y-48720D01*
X68946Y-47592D01*
X68919Y-47457D01*
X68829Y-47394D01*
X68554Y-47670D01*
X68829Y-47946D01*
X68919Y-47883D01*
X68946Y-47592D01*
X68946Y-48720D01*
X68795Y-48720D01*
X68628Y-48753D01*
X68481Y-48851D01*
X68476Y-48858D01*
X68476Y-48299D01*
X68476Y-47041D01*
X68413Y-46951D01*
X68122Y-46924D01*
X67987Y-46951D01*
X67924Y-47041D01*
X68200Y-47316D01*
X68476Y-47041D01*
X68476Y-48299D01*
X68200Y-48024D01*
X67924Y-48299D01*
X67987Y-48389D01*
X68278Y-48416D01*
X68413Y-48389D01*
X68476Y-48299D01*
X68476Y-48858D01*
X68383Y-48998D01*
X68350Y-49165D01*
X68350Y-50665D01*
X68323Y-50804D01*
X68247Y-50917D01*
X68134Y-50993D01*
X67995Y-51020D01*
X67846Y-51020D01*
X67846Y-47670D01*
X67571Y-47394D01*
X67481Y-47457D01*
X67454Y-47748D01*
X67481Y-47883D01*
X67571Y-47946D01*
X67846Y-47670D01*
X67846Y-51020D01*
X63824Y-51020D01*
X63824Y-48555D01*
X63824Y-44355D01*
X63789Y-44183D01*
X63709Y-44154D01*
X63516Y-44347D01*
X63516Y-43961D01*
X63487Y-43881D01*
X63285Y-43846D01*
X63113Y-43881D01*
X63084Y-43961D01*
X63300Y-44176D01*
X63516Y-43961D01*
X63516Y-44347D01*
X63494Y-44370D01*
X63709Y-44586D01*
X63789Y-44557D01*
X63824Y-44355D01*
X63824Y-48555D01*
X63789Y-48383D01*
X63709Y-48354D01*
X63516Y-48547D01*
X63516Y-48161D01*
X63487Y-48081D01*
X63285Y-48046D01*
X63113Y-48081D01*
X63084Y-48161D01*
X63300Y-48376D01*
X63516Y-48161D01*
X63516Y-48547D01*
X63494Y-48570D01*
X63709Y-48786D01*
X63789Y-48757D01*
X63824Y-48555D01*
X63824Y-51020D01*
X63516Y-51020D01*
X63516Y-48979D01*
X63300Y-48764D01*
X63106Y-48957D01*
X63106Y-48570D01*
X62891Y-48354D01*
X62811Y-48383D01*
X62776Y-48585D01*
X62811Y-48757D01*
X62891Y-48786D01*
X63106Y-48570D01*
X63106Y-48957D01*
X63084Y-48979D01*
X63113Y-49059D01*
X63315Y-49094D01*
X63487Y-49059D01*
X63516Y-48979D01*
X63516Y-51020D01*
X61744Y-51020D01*
X61744Y-48659D01*
X61744Y-48482D01*
X61677Y-48319D01*
X61552Y-48194D01*
X61389Y-48126D01*
X61212Y-48126D01*
X61049Y-48193D01*
X60924Y-48318D01*
X60856Y-48481D01*
X60856Y-48658D01*
X60923Y-48821D01*
X61048Y-48946D01*
X61211Y-49014D01*
X61388Y-49014D01*
X61551Y-48947D01*
X61676Y-48822D01*
X61744Y-48659D01*
X61744Y-51020D01*
X59744Y-51020D01*
X59744Y-48659D01*
X59744Y-48482D01*
X59677Y-48319D01*
X59552Y-48194D01*
X59389Y-48126D01*
X59212Y-48126D01*
X59049Y-48193D01*
X58924Y-48318D01*
X58856Y-48481D01*
X58856Y-48658D01*
X58923Y-48821D01*
X59048Y-48946D01*
X59211Y-49014D01*
X59388Y-49014D01*
X59551Y-48947D01*
X59676Y-48822D01*
X59744Y-48659D01*
X59744Y-51020D01*
X57744Y-51020D01*
X57744Y-48659D01*
X57744Y-48482D01*
X57677Y-48319D01*
X57552Y-48194D01*
X57389Y-48126D01*
X57212Y-48126D01*
X57049Y-48193D01*
X56924Y-48318D01*
X56856Y-48481D01*
X56856Y-48658D01*
X56923Y-48821D01*
X57048Y-48946D01*
X57211Y-49014D01*
X57388Y-49014D01*
X57551Y-48947D01*
X57676Y-48822D01*
X57744Y-48659D01*
X57744Y-51020D01*
X56745Y-51020D01*
X56745Y-48879D01*
X56745Y-48811D01*
X56745Y-48261D01*
X56719Y-48199D01*
X56671Y-48151D01*
X56641Y-48138D01*
X56609Y-48125D01*
X56541Y-48125D01*
X55991Y-48125D01*
X55929Y-48151D01*
X55881Y-48199D01*
X55855Y-48261D01*
X55855Y-48329D01*
X55855Y-48879D01*
X55881Y-48941D01*
X55929Y-48989D01*
X55991Y-49015D01*
X56059Y-49015D01*
X56609Y-49015D01*
X56641Y-49001D01*
X56671Y-48989D01*
X56719Y-48941D01*
X56745Y-48879D01*
X56745Y-51020D01*
X56641Y-51020D01*
X56300Y-51020D01*
X51305Y-51020D01*
X51166Y-50993D01*
X51053Y-50917D01*
X50977Y-50804D01*
X50950Y-50665D01*
X50950Y-49165D01*
X50917Y-48998D01*
X50819Y-48851D01*
X50672Y-48753D01*
X50550Y-48728D01*
X50505Y-48720D01*
X49699Y-48720D01*
X48795Y-48720D01*
X48628Y-48753D01*
X48481Y-48851D01*
X48383Y-48998D01*
X48350Y-49165D01*
X48350Y-50665D01*
X48323Y-50804D01*
X48247Y-50917D01*
X48134Y-50993D01*
X47995Y-51020D01*
X44805Y-51020D01*
X44666Y-50993D01*
X44553Y-50917D01*
X44477Y-50804D01*
X44450Y-50665D01*
X44450Y-47890D01*
X44484Y-47890D01*
X46484Y-47890D01*
X46546Y-47864D01*
X46594Y-47816D01*
X46620Y-47754D01*
X46620Y-47690D01*
X48682Y-47690D01*
X48701Y-47736D01*
X48833Y-47868D01*
X49006Y-47940D01*
X49193Y-47940D01*
X49366Y-47869D01*
X49427Y-47807D01*
X49429Y-47809D01*
X49552Y-47892D01*
X49694Y-47920D01*
X49718Y-47920D01*
X49766Y-47940D01*
X49834Y-47940D01*
X50434Y-47940D01*
X50496Y-47914D01*
X50544Y-47866D01*
X50550Y-47851D01*
X50570Y-47804D01*
X50570Y-47736D01*
X50570Y-47136D01*
X50550Y-47088D01*
X50550Y-47064D01*
X50522Y-46922D01*
X50439Y-46799D01*
X50437Y-46797D01*
X50498Y-46737D01*
X50536Y-46644D01*
X51004Y-46644D01*
X50957Y-46691D01*
X50923Y-46691D01*
X50817Y-46735D01*
X50735Y-46816D01*
X50691Y-46922D01*
X50691Y-47037D01*
X50735Y-47143D01*
X50816Y-47225D01*
X50922Y-47269D01*
X51037Y-47269D01*
X51143Y-47225D01*
X51225Y-47144D01*
X51269Y-47038D01*
X51269Y-47002D01*
X51425Y-46846D01*
X56264Y-46846D01*
X56641Y-47222D01*
X57868Y-48450D01*
X57856Y-48481D01*
X57856Y-48658D01*
X57923Y-48821D01*
X58048Y-48946D01*
X58211Y-49014D01*
X58388Y-49014D01*
X58551Y-48947D01*
X58676Y-48822D01*
X58744Y-48659D01*
X58744Y-48482D01*
X58677Y-48319D01*
X58552Y-48194D01*
X58389Y-48126D01*
X58212Y-48126D01*
X58180Y-48139D01*
X56685Y-46644D01*
X58062Y-46644D01*
X59868Y-48450D01*
X59856Y-48481D01*
X59856Y-48658D01*
X59923Y-48821D01*
X60048Y-48946D01*
X60211Y-49014D01*
X60388Y-49014D01*
X60551Y-48947D01*
X60676Y-48822D01*
X60744Y-48659D01*
X60744Y-48482D01*
X60677Y-48319D01*
X60552Y-48194D01*
X60389Y-48126D01*
X60212Y-48126D01*
X60180Y-48139D01*
X58483Y-46442D01*
X59860Y-46442D01*
X61868Y-48450D01*
X61856Y-48481D01*
X61856Y-48658D01*
X61923Y-48821D01*
X62048Y-48946D01*
X62211Y-49014D01*
X62388Y-49014D01*
X62551Y-48947D01*
X62676Y-48822D01*
X62744Y-48659D01*
X62744Y-48482D01*
X62677Y-48319D01*
X62552Y-48194D01*
X62389Y-48126D01*
X62212Y-48126D01*
X62180Y-48139D01*
X60108Y-46066D01*
X60036Y-46019D01*
X59952Y-46001D01*
X59947Y-46002D01*
X59417Y-46002D01*
X59551Y-45947D01*
X59676Y-45822D01*
X59744Y-45659D01*
X59744Y-45482D01*
X59693Y-45360D01*
X59906Y-45360D01*
X59856Y-45481D01*
X59856Y-45658D01*
X59923Y-45821D01*
X60048Y-45946D01*
X60211Y-46014D01*
X60388Y-46014D01*
X60551Y-45947D01*
X60676Y-45822D01*
X60744Y-45659D01*
X60744Y-45482D01*
X60693Y-45360D01*
X60778Y-45360D01*
X60868Y-45450D01*
X60856Y-45481D01*
X60856Y-45658D01*
X60923Y-45821D01*
X61048Y-45946D01*
X61211Y-46014D01*
X61388Y-46014D01*
X61551Y-45947D01*
X61676Y-45822D01*
X61744Y-45659D01*
X61744Y-45482D01*
X61677Y-45319D01*
X61552Y-45194D01*
X61465Y-45158D01*
X62134Y-45158D01*
X62049Y-45193D01*
X61924Y-45318D01*
X61856Y-45481D01*
X61856Y-45658D01*
X61923Y-45821D01*
X62048Y-45946D01*
X62211Y-46014D01*
X62388Y-46014D01*
X62551Y-45947D01*
X62676Y-45822D01*
X62744Y-45659D01*
X62744Y-45482D01*
X62677Y-45319D01*
X62552Y-45194D01*
X62465Y-45158D01*
X62576Y-45158D01*
X62868Y-45450D01*
X62856Y-45481D01*
X62856Y-45658D01*
X62923Y-45821D01*
X63048Y-45946D01*
X63211Y-46014D01*
X63388Y-46014D01*
X63551Y-45947D01*
X63676Y-45822D01*
X63744Y-45659D01*
X63744Y-45482D01*
X63677Y-45319D01*
X63552Y-45194D01*
X63516Y-45178D01*
X63516Y-44779D01*
X63300Y-44564D01*
X63106Y-44757D01*
X63106Y-44370D01*
X62891Y-44154D01*
X62811Y-44183D01*
X62776Y-44385D01*
X62811Y-44557D01*
X62891Y-44586D01*
X63106Y-44370D01*
X63106Y-44757D01*
X63084Y-44779D01*
X63113Y-44859D01*
X63315Y-44894D01*
X63487Y-44859D01*
X63516Y-44779D01*
X63516Y-45178D01*
X63389Y-45126D01*
X63212Y-45126D01*
X63180Y-45138D01*
X62824Y-44782D01*
X62752Y-44735D01*
X62668Y-44717D01*
X62663Y-44718D01*
X62580Y-44718D01*
X62676Y-44622D01*
X62744Y-44459D01*
X62744Y-44282D01*
X62677Y-44119D01*
X62552Y-43994D01*
X62516Y-43979D01*
X62515Y-43978D01*
X62503Y-43914D01*
X62502Y-43913D01*
X62456Y-43842D01*
X62453Y-43840D01*
X61986Y-43372D01*
X61914Y-43325D01*
X61830Y-43307D01*
X61825Y-43308D01*
X61673Y-43308D01*
X63180Y-41801D01*
X63211Y-41814D01*
X63388Y-41814D01*
X63551Y-41747D01*
X63676Y-41622D01*
X63729Y-41493D01*
X67610Y-45373D01*
X67530Y-45568D01*
X67530Y-45835D01*
X67632Y-46081D01*
X67820Y-46270D01*
X68066Y-46372D01*
X68333Y-46372D01*
X68579Y-46270D01*
X68768Y-46082D01*
X68870Y-45836D01*
X68870Y-45569D01*
X68768Y-45323D01*
X68580Y-45134D01*
X68334Y-45032D01*
X68067Y-45032D01*
X68002Y-45058D01*
X67744Y-44800D01*
X67744Y-39259D01*
X67744Y-39082D01*
X67677Y-38919D01*
X67552Y-38794D01*
X67389Y-38726D01*
X67212Y-38726D01*
X67049Y-38793D01*
X66924Y-38918D01*
X66856Y-39081D01*
X66856Y-39258D01*
X66923Y-39421D01*
X67048Y-39546D01*
X67211Y-39614D01*
X67388Y-39614D01*
X67551Y-39547D01*
X67676Y-39422D01*
X67744Y-39259D01*
X67744Y-44800D01*
X66744Y-43800D01*
X66744Y-39259D01*
X66744Y-39082D01*
X66677Y-38919D01*
X66552Y-38794D01*
X66389Y-38726D01*
X66212Y-38726D01*
X66049Y-38793D01*
X65924Y-38918D01*
X65856Y-39081D01*
X65856Y-39258D01*
X65923Y-39421D01*
X66048Y-39546D01*
X66211Y-39614D01*
X66388Y-39614D01*
X66551Y-39547D01*
X66676Y-39422D01*
X66744Y-39259D01*
X66744Y-43800D01*
X65744Y-42800D01*
X65744Y-39259D01*
X65744Y-39082D01*
X65677Y-38919D01*
X65552Y-38794D01*
X65389Y-38726D01*
X65212Y-38726D01*
X65049Y-38793D01*
X64924Y-38918D01*
X64856Y-39081D01*
X64856Y-39258D01*
X64923Y-39421D01*
X65048Y-39546D01*
X65211Y-39614D01*
X65388Y-39614D01*
X65551Y-39547D01*
X65676Y-39422D01*
X65744Y-39259D01*
X65744Y-42800D01*
X64744Y-41800D01*
X64744Y-39259D01*
X64744Y-39082D01*
X64677Y-38919D01*
X64552Y-38794D01*
X64389Y-38726D01*
X64212Y-38726D01*
X64049Y-38793D01*
X63924Y-38918D01*
X63856Y-39081D01*
X63856Y-39258D01*
X63923Y-39421D01*
X64048Y-39546D01*
X64211Y-39614D01*
X64388Y-39614D01*
X64551Y-39547D01*
X64676Y-39422D01*
X64744Y-39259D01*
X64744Y-41800D01*
X63824Y-40880D01*
X63824Y-39155D01*
X63789Y-38983D01*
X63709Y-38954D01*
X63516Y-39147D01*
X63516Y-38761D01*
X63487Y-38681D01*
X63285Y-38646D01*
X63113Y-38681D01*
X63084Y-38761D01*
X63300Y-38976D01*
X63516Y-38761D01*
X63516Y-39147D01*
X63494Y-39170D01*
X63709Y-39386D01*
X63789Y-39357D01*
X63824Y-39155D01*
X63824Y-40880D01*
X63677Y-40733D01*
X63596Y-40679D01*
X63516Y-40663D01*
X63516Y-39579D01*
X63300Y-39364D01*
X63106Y-39557D01*
X63106Y-39170D01*
X62891Y-38954D01*
X62811Y-38983D01*
X62776Y-39185D01*
X62811Y-39357D01*
X62891Y-39386D01*
X63106Y-39170D01*
X63106Y-39557D01*
X63084Y-39579D01*
X63113Y-39659D01*
X63315Y-39694D01*
X63487Y-39659D01*
X63516Y-39579D01*
X63516Y-40663D01*
X63500Y-40660D01*
X62744Y-40660D01*
X62744Y-39259D01*
X62744Y-39082D01*
X62677Y-38919D01*
X62552Y-38794D01*
X62389Y-38726D01*
X62212Y-38726D01*
X62049Y-38793D01*
X61924Y-38918D01*
X61856Y-39081D01*
X61856Y-39258D01*
X61923Y-39421D01*
X62048Y-39546D01*
X62211Y-39614D01*
X62388Y-39614D01*
X62551Y-39547D01*
X62676Y-39422D01*
X62744Y-39259D01*
X62744Y-40660D01*
X61393Y-40660D01*
X61566Y-40589D01*
X61698Y-40457D01*
X61770Y-40284D01*
X61770Y-40097D01*
X61744Y-40033D01*
X61744Y-39259D01*
X61744Y-39082D01*
X61677Y-38919D01*
X61552Y-38794D01*
X61389Y-38726D01*
X61212Y-38726D01*
X61049Y-38793D01*
X60924Y-38918D01*
X60856Y-39081D01*
X60856Y-39258D01*
X60923Y-39421D01*
X61048Y-39546D01*
X61211Y-39614D01*
X61388Y-39614D01*
X61551Y-39547D01*
X61676Y-39422D01*
X61744Y-39259D01*
X61744Y-40033D01*
X61699Y-39924D01*
X61567Y-39792D01*
X61394Y-39720D01*
X61207Y-39720D01*
X61034Y-39791D01*
X60902Y-39923D01*
X60830Y-40096D01*
X60830Y-40283D01*
X60901Y-40456D01*
X61033Y-40588D01*
X61206Y-40660D01*
X60655Y-40660D01*
X60698Y-40617D01*
X60770Y-40444D01*
X60770Y-40257D01*
X60744Y-40193D01*
X60744Y-39259D01*
X60744Y-39082D01*
X60677Y-38919D01*
X60552Y-38794D01*
X60389Y-38726D01*
X60212Y-38726D01*
X60049Y-38793D01*
X59924Y-38918D01*
X59856Y-39081D01*
X59856Y-39258D01*
X59923Y-39421D01*
X60048Y-39546D01*
X60211Y-39614D01*
X60388Y-39614D01*
X60551Y-39547D01*
X60676Y-39422D01*
X60744Y-39259D01*
X60744Y-40193D01*
X60699Y-40084D01*
X60567Y-39952D01*
X60394Y-39880D01*
X60207Y-39880D01*
X60034Y-39951D01*
X59902Y-40083D01*
X59830Y-40256D01*
X59830Y-40443D01*
X59901Y-40616D01*
X59945Y-40660D01*
X59393Y-40660D01*
X59566Y-40589D01*
X59698Y-40457D01*
X59770Y-40284D01*
X59770Y-40097D01*
X59744Y-40033D01*
X59744Y-39259D01*
X59744Y-39082D01*
X59677Y-38919D01*
X59552Y-38794D01*
X59389Y-38726D01*
X59212Y-38726D01*
X59049Y-38793D01*
X58924Y-38918D01*
X58856Y-39081D01*
X58856Y-39258D01*
X58923Y-39421D01*
X59048Y-39546D01*
X59211Y-39614D01*
X59388Y-39614D01*
X59551Y-39547D01*
X59676Y-39422D01*
X59744Y-39259D01*
X59744Y-40033D01*
X59699Y-39924D01*
X59567Y-39792D01*
X59394Y-39720D01*
X59207Y-39720D01*
X59034Y-39791D01*
X58902Y-39923D01*
X58830Y-40096D01*
X58830Y-40231D01*
X58816Y-40160D01*
X58744Y-40131D01*
X58744Y-39259D01*
X58744Y-39082D01*
X58677Y-38919D01*
X58552Y-38794D01*
X58389Y-38726D01*
X58212Y-38726D01*
X58049Y-38793D01*
X57924Y-38918D01*
X57856Y-39081D01*
X57856Y-39258D01*
X57923Y-39421D01*
X58048Y-39546D01*
X58211Y-39614D01*
X58388Y-39614D01*
X58551Y-39547D01*
X58676Y-39422D01*
X58744Y-39259D01*
X58744Y-40131D01*
X58734Y-40128D01*
X58522Y-40340D01*
X58522Y-39916D01*
X58490Y-39834D01*
X58278Y-39801D01*
X58110Y-39834D01*
X58078Y-39916D01*
X58300Y-40138D01*
X58522Y-39916D01*
X58522Y-40340D01*
X58512Y-40350D01*
X58583Y-40421D01*
X58371Y-40633D01*
X58300Y-40562D01*
X58229Y-40633D01*
X58017Y-40421D01*
X58088Y-40350D01*
X57866Y-40128D01*
X57784Y-40160D01*
X57770Y-40249D01*
X57770Y-40097D01*
X57699Y-39924D01*
X57567Y-39792D01*
X57394Y-39720D01*
X57207Y-39720D01*
X57160Y-39738D01*
X57156Y-39734D01*
X57153Y-39732D01*
X57060Y-39638D01*
X57060Y-39551D01*
X57211Y-39614D01*
X57388Y-39614D01*
X57551Y-39547D01*
X57676Y-39422D01*
X57744Y-39259D01*
X57744Y-39082D01*
X57677Y-38919D01*
X57552Y-38794D01*
X57389Y-38726D01*
X57212Y-38726D01*
X57060Y-38788D01*
X57060Y-38300D01*
X67594Y-38300D01*
X67970Y-38676D01*
X67970Y-38872D01*
X67924Y-38918D01*
X67856Y-39081D01*
X67856Y-39258D01*
X67923Y-39421D01*
X68048Y-39546D01*
X68211Y-39614D01*
X68388Y-39614D01*
X68551Y-39547D01*
X68676Y-39422D01*
X68744Y-39259D01*
X68744Y-39082D01*
X68744Y-36259D01*
X68744Y-36082D01*
X68677Y-35919D01*
X68552Y-35794D01*
X68389Y-35726D01*
X68212Y-35726D01*
X68049Y-35793D01*
X68049Y-33668D01*
X68016Y-33500D01*
X67934Y-33468D01*
X67722Y-33680D01*
X67722Y-33256D01*
X67690Y-33174D01*
X67478Y-33141D01*
X67310Y-33174D01*
X67278Y-33256D01*
X67500Y-33478D01*
X67722Y-33256D01*
X67722Y-33680D01*
X67712Y-33690D01*
X67934Y-33912D01*
X68016Y-33880D01*
X68049Y-33668D01*
X68049Y-35793D01*
X67924Y-35918D01*
X67856Y-36081D01*
X67856Y-36258D01*
X67923Y-36421D01*
X68048Y-36546D01*
X68211Y-36614D01*
X68388Y-36614D01*
X68551Y-36547D01*
X68676Y-36422D01*
X68744Y-36259D01*
X68744Y-39082D01*
X68677Y-38919D01*
X68630Y-38872D01*
X68630Y-38540D01*
X68608Y-38434D01*
X68605Y-38414D01*
X68605Y-38413D01*
X68533Y-38307D01*
X67963Y-37737D01*
X67857Y-37665D01*
X67744Y-37642D01*
X67744Y-36259D01*
X67744Y-36082D01*
X67722Y-36028D01*
X67722Y-34124D01*
X67500Y-33902D01*
X67288Y-34114D01*
X67288Y-33690D01*
X67066Y-33468D01*
X66984Y-33500D01*
X66951Y-33711D01*
X66899Y-33584D01*
X66767Y-33452D01*
X66594Y-33380D01*
X66407Y-33380D01*
X66234Y-33451D01*
X66102Y-33583D01*
X66030Y-33756D01*
X66030Y-33943D01*
X66101Y-34116D01*
X66233Y-34248D01*
X66406Y-34320D01*
X66593Y-34320D01*
X66766Y-34249D01*
X66898Y-34117D01*
X66970Y-33944D01*
X66970Y-33808D01*
X66984Y-33880D01*
X67066Y-33912D01*
X67288Y-33690D01*
X67288Y-34114D01*
X67278Y-34124D01*
X67310Y-34206D01*
X67522Y-34239D01*
X67690Y-34206D01*
X67722Y-34124D01*
X67722Y-36028D01*
X67677Y-35919D01*
X67552Y-35794D01*
X67389Y-35726D01*
X67212Y-35726D01*
X67049Y-35793D01*
X66924Y-35918D01*
X66856Y-36081D01*
X66856Y-36258D01*
X66923Y-36421D01*
X67048Y-36546D01*
X67211Y-36614D01*
X67388Y-36614D01*
X67551Y-36547D01*
X67676Y-36422D01*
X67744Y-36259D01*
X67744Y-37642D01*
X67730Y-37640D01*
X66744Y-37640D01*
X66744Y-36259D01*
X66744Y-36082D01*
X66677Y-35919D01*
X66552Y-35794D01*
X66389Y-35726D01*
X66212Y-35726D01*
X66049Y-35793D01*
X65970Y-35872D01*
X65970Y-33784D01*
X65970Y-33597D01*
X65899Y-33424D01*
X65767Y-33292D01*
X65594Y-33220D01*
X65407Y-33220D01*
X65234Y-33291D01*
X65102Y-33423D01*
X65030Y-33596D01*
X65030Y-33783D01*
X65101Y-33956D01*
X65233Y-34088D01*
X65406Y-34160D01*
X65593Y-34160D01*
X65766Y-34089D01*
X65898Y-33957D01*
X65970Y-33784D01*
X65970Y-35872D01*
X65924Y-35918D01*
X65856Y-36081D01*
X65856Y-36258D01*
X65923Y-36421D01*
X66048Y-36546D01*
X66211Y-36614D01*
X66388Y-36614D01*
X66551Y-36547D01*
X66676Y-36422D01*
X66744Y-36259D01*
X66744Y-37640D01*
X65824Y-37640D01*
X65824Y-36155D01*
X65789Y-35983D01*
X65709Y-35954D01*
X65516Y-36147D01*
X65516Y-35761D01*
X65487Y-35681D01*
X65285Y-35646D01*
X65113Y-35681D01*
X65084Y-35761D01*
X65300Y-35976D01*
X65516Y-35761D01*
X65516Y-36147D01*
X65494Y-36170D01*
X65709Y-36386D01*
X65789Y-36357D01*
X65824Y-36155D01*
X65824Y-37640D01*
X65516Y-37640D01*
X65516Y-36579D01*
X65300Y-36364D01*
X65106Y-36557D01*
X65106Y-36170D01*
X64970Y-36033D01*
X64970Y-33944D01*
X64970Y-33757D01*
X64899Y-33584D01*
X64767Y-33452D01*
X64594Y-33380D01*
X64407Y-33380D01*
X64234Y-33451D01*
X64102Y-33583D01*
X64030Y-33756D01*
X64030Y-33943D01*
X64101Y-34116D01*
X64233Y-34248D01*
X64406Y-34320D01*
X64593Y-34320D01*
X64766Y-34249D01*
X64898Y-34117D01*
X64970Y-33944D01*
X64970Y-36033D01*
X64891Y-35954D01*
X64811Y-35983D01*
X64776Y-36185D01*
X64811Y-36357D01*
X64891Y-36386D01*
X65106Y-36170D01*
X65106Y-36557D01*
X65084Y-36579D01*
X65113Y-36659D01*
X65315Y-36694D01*
X65487Y-36659D01*
X65516Y-36579D01*
X65516Y-37640D01*
X64744Y-37640D01*
X64744Y-36259D01*
X64744Y-36082D01*
X64677Y-35919D01*
X64552Y-35794D01*
X64389Y-35726D01*
X64212Y-35726D01*
X64049Y-35793D01*
X63970Y-35872D01*
X63970Y-33784D01*
X63970Y-33597D01*
X63899Y-33424D01*
X63767Y-33292D01*
X63594Y-33220D01*
X63407Y-33220D01*
X63234Y-33291D01*
X63102Y-33423D01*
X63030Y-33596D01*
X63030Y-33783D01*
X63101Y-33956D01*
X63233Y-34088D01*
X63406Y-34160D01*
X63593Y-34160D01*
X63766Y-34089D01*
X63898Y-33957D01*
X63970Y-33784D01*
X63970Y-35872D01*
X63924Y-35918D01*
X63856Y-36081D01*
X63856Y-36258D01*
X63923Y-36421D01*
X64048Y-36546D01*
X64211Y-36614D01*
X64388Y-36614D01*
X64551Y-36547D01*
X64676Y-36422D01*
X64744Y-36259D01*
X64744Y-37640D01*
X63744Y-37640D01*
X63744Y-36259D01*
X63744Y-36082D01*
X63677Y-35919D01*
X63552Y-35794D01*
X63389Y-35726D01*
X63212Y-35726D01*
X63049Y-35793D01*
X62970Y-35872D01*
X62970Y-34184D01*
X62970Y-34116D01*
X62970Y-33516D01*
X62944Y-33454D01*
X62896Y-33406D01*
X62834Y-33380D01*
X62766Y-33380D01*
X62166Y-33380D01*
X62104Y-33406D01*
X62056Y-33454D01*
X62030Y-33516D01*
X62030Y-33584D01*
X62030Y-34184D01*
X62056Y-34246D01*
X62104Y-34294D01*
X62166Y-34320D01*
X62234Y-34320D01*
X62834Y-34320D01*
X62896Y-34294D01*
X62944Y-34246D01*
X62970Y-34184D01*
X62970Y-35872D01*
X62924Y-35918D01*
X62856Y-36081D01*
X62856Y-36258D01*
X62923Y-36421D01*
X63048Y-36546D01*
X63211Y-36614D01*
X63388Y-36614D01*
X63551Y-36547D01*
X63676Y-36422D01*
X63744Y-36259D01*
X63744Y-37640D01*
X62744Y-37640D01*
X62744Y-36259D01*
X62744Y-36082D01*
X62677Y-35919D01*
X62552Y-35794D01*
X62389Y-35726D01*
X62212Y-35726D01*
X62049Y-35793D01*
X61924Y-35918D01*
X61856Y-36081D01*
X61856Y-36258D01*
X61923Y-36421D01*
X62048Y-36546D01*
X62211Y-36614D01*
X62388Y-36614D01*
X62551Y-36547D01*
X62676Y-36422D01*
X62744Y-36259D01*
X62744Y-37640D01*
X61849Y-37640D01*
X61849Y-33748D01*
X61816Y-33580D01*
X61734Y-33548D01*
X61522Y-33760D01*
X61522Y-33336D01*
X61490Y-33254D01*
X61278Y-33221D01*
X61110Y-33254D01*
X61078Y-33336D01*
X61300Y-33558D01*
X61522Y-33336D01*
X61522Y-33760D01*
X61512Y-33770D01*
X61734Y-33992D01*
X61816Y-33960D01*
X61849Y-33748D01*
X61849Y-37640D01*
X61770Y-37640D01*
X61770Y-34864D01*
X61770Y-34677D01*
X61699Y-34504D01*
X61567Y-34372D01*
X61401Y-34303D01*
X61490Y-34286D01*
X61522Y-34204D01*
X61300Y-33982D01*
X61088Y-34194D01*
X61088Y-33770D01*
X60866Y-33548D01*
X60800Y-33573D01*
X60734Y-33548D01*
X60522Y-33760D01*
X60522Y-33336D01*
X60490Y-33254D01*
X60278Y-33221D01*
X60110Y-33254D01*
X60078Y-33336D01*
X60300Y-33558D01*
X60522Y-33336D01*
X60522Y-33760D01*
X60512Y-33770D01*
X60734Y-33992D01*
X60800Y-33966D01*
X60866Y-33992D01*
X61088Y-33770D01*
X61088Y-34194D01*
X61078Y-34204D01*
X61110Y-34286D01*
X61205Y-34300D01*
X61034Y-34371D01*
X60902Y-34503D01*
X60830Y-34676D01*
X60830Y-34863D01*
X60901Y-35036D01*
X61033Y-35168D01*
X61206Y-35240D01*
X61393Y-35240D01*
X61566Y-35169D01*
X61698Y-35037D01*
X61770Y-34864D01*
X61770Y-37640D01*
X61744Y-37640D01*
X61744Y-36259D01*
X61744Y-36082D01*
X61677Y-35919D01*
X61552Y-35794D01*
X61389Y-35726D01*
X61212Y-35726D01*
X61049Y-35793D01*
X60924Y-35918D01*
X60856Y-36081D01*
X60856Y-36258D01*
X60923Y-36421D01*
X61048Y-36546D01*
X61211Y-36614D01*
X61388Y-36614D01*
X61551Y-36547D01*
X61676Y-36422D01*
X61744Y-36259D01*
X61744Y-37640D01*
X60770Y-37640D01*
X60770Y-34864D01*
X60770Y-34677D01*
X60699Y-34504D01*
X60567Y-34372D01*
X60401Y-34303D01*
X60490Y-34286D01*
X60522Y-34204D01*
X60300Y-33982D01*
X60088Y-34194D01*
X60088Y-33770D01*
X59866Y-33548D01*
X59800Y-33573D01*
X59734Y-33548D01*
X59522Y-33760D01*
X59522Y-33336D01*
X59490Y-33254D01*
X59278Y-33221D01*
X59110Y-33254D01*
X59078Y-33336D01*
X59300Y-33558D01*
X59522Y-33336D01*
X59522Y-33760D01*
X59512Y-33770D01*
X59734Y-33992D01*
X59800Y-33966D01*
X59866Y-33992D01*
X60088Y-33770D01*
X60088Y-34194D01*
X60078Y-34204D01*
X60110Y-34286D01*
X60205Y-34300D01*
X60034Y-34371D01*
X59902Y-34503D01*
X59830Y-34676D01*
X59830Y-34863D01*
X59901Y-35036D01*
X60033Y-35168D01*
X60206Y-35240D01*
X60393Y-35240D01*
X60566Y-35169D01*
X60698Y-35037D01*
X60770Y-34864D01*
X60770Y-37640D01*
X60744Y-37640D01*
X60744Y-36259D01*
X60744Y-36082D01*
X60677Y-35919D01*
X60552Y-35794D01*
X60389Y-35726D01*
X60212Y-35726D01*
X60049Y-35793D01*
X59924Y-35918D01*
X59856Y-36081D01*
X59856Y-36258D01*
X59923Y-36421D01*
X60048Y-36546D01*
X60211Y-36614D01*
X60388Y-36614D01*
X60551Y-36547D01*
X60676Y-36422D01*
X60744Y-36259D01*
X60744Y-37640D01*
X59770Y-37640D01*
X59770Y-34864D01*
X59770Y-34677D01*
X59699Y-34504D01*
X59567Y-34372D01*
X59401Y-34303D01*
X59490Y-34286D01*
X59522Y-34204D01*
X59300Y-33982D01*
X59088Y-34194D01*
X59088Y-33770D01*
X58866Y-33548D01*
X58800Y-33573D01*
X58734Y-33548D01*
X58522Y-33760D01*
X58522Y-33336D01*
X58490Y-33254D01*
X58278Y-33221D01*
X58110Y-33254D01*
X58078Y-33336D01*
X58300Y-33558D01*
X58522Y-33336D01*
X58522Y-33760D01*
X58512Y-33770D01*
X58734Y-33992D01*
X58800Y-33966D01*
X58866Y-33992D01*
X59088Y-33770D01*
X59088Y-34194D01*
X59078Y-34204D01*
X59110Y-34286D01*
X59205Y-34300D01*
X59034Y-34371D01*
X58902Y-34503D01*
X58830Y-34676D01*
X58830Y-34863D01*
X58901Y-35036D01*
X59033Y-35168D01*
X59206Y-35240D01*
X59393Y-35240D01*
X59566Y-35169D01*
X59698Y-35037D01*
X59770Y-34864D01*
X59770Y-37640D01*
X59744Y-37640D01*
X59744Y-36259D01*
X59744Y-36082D01*
X59677Y-35919D01*
X59552Y-35794D01*
X59389Y-35726D01*
X59212Y-35726D01*
X59049Y-35793D01*
X58924Y-35918D01*
X58856Y-36081D01*
X58856Y-36258D01*
X58923Y-36421D01*
X59048Y-36546D01*
X59211Y-36614D01*
X59388Y-36614D01*
X59551Y-36547D01*
X59676Y-36422D01*
X59744Y-36259D01*
X59744Y-37640D01*
X58770Y-37640D01*
X58770Y-35104D01*
X58770Y-35036D01*
X58770Y-34436D01*
X58744Y-34374D01*
X58696Y-34326D01*
X58634Y-34300D01*
X58566Y-34300D01*
X58418Y-34300D01*
X58490Y-34286D01*
X58522Y-34204D01*
X58300Y-33982D01*
X58088Y-34194D01*
X58088Y-33770D01*
X57866Y-33548D01*
X57784Y-33580D01*
X57751Y-33792D01*
X57784Y-33960D01*
X57866Y-33992D01*
X58088Y-33770D01*
X58088Y-34194D01*
X58078Y-34204D01*
X58110Y-34286D01*
X58199Y-34300D01*
X57966Y-34300D01*
X57904Y-34326D01*
X57856Y-34374D01*
X57830Y-34436D01*
X57830Y-34504D01*
X57830Y-35104D01*
X57856Y-35166D01*
X57904Y-35214D01*
X57966Y-35240D01*
X58034Y-35240D01*
X58634Y-35240D01*
X58696Y-35214D01*
X58744Y-35166D01*
X58770Y-35104D01*
X58770Y-37640D01*
X58744Y-37640D01*
X58744Y-36259D01*
X58744Y-36082D01*
X58677Y-35919D01*
X58552Y-35794D01*
X58389Y-35726D01*
X58212Y-35726D01*
X58049Y-35793D01*
X57924Y-35918D01*
X57856Y-36081D01*
X57856Y-36258D01*
X57923Y-36421D01*
X58048Y-36546D01*
X58211Y-36614D01*
X58388Y-36614D01*
X58551Y-36547D01*
X58676Y-36422D01*
X58744Y-36259D01*
X58744Y-37640D01*
X57824Y-37640D01*
X57824Y-36155D01*
X57789Y-35983D01*
X57709Y-35954D01*
X57516Y-36147D01*
X57516Y-35761D01*
X57487Y-35681D01*
X57285Y-35646D01*
X57113Y-35681D01*
X57084Y-35761D01*
X57300Y-35976D01*
X57516Y-35761D01*
X57516Y-36147D01*
X57494Y-36170D01*
X57709Y-36386D01*
X57789Y-36357D01*
X57824Y-36155D01*
X57824Y-37640D01*
X57516Y-37640D01*
X57516Y-36579D01*
X57300Y-36364D01*
X57106Y-36557D01*
X57106Y-36170D01*
X56891Y-35954D01*
X56811Y-35983D01*
X56776Y-36185D01*
X56811Y-36357D01*
X56891Y-36386D01*
X57106Y-36170D01*
X57106Y-36557D01*
X57084Y-36579D01*
X57113Y-36659D01*
X57315Y-36694D01*
X57487Y-36659D01*
X57516Y-36579D01*
X57516Y-37640D01*
X56956Y-37640D01*
X56630Y-37313D01*
X56630Y-36468D01*
X56676Y-36422D01*
X56744Y-36259D01*
X56744Y-36082D01*
X56677Y-35919D01*
X56552Y-35794D01*
X56389Y-35726D01*
X56212Y-35726D01*
X56049Y-35793D01*
X55924Y-35918D01*
X55856Y-36081D01*
X55856Y-36258D01*
X55923Y-36421D01*
X55970Y-36468D01*
X55970Y-37450D01*
X55995Y-37577D01*
X56067Y-37683D01*
X56586Y-38203D01*
X56587Y-38203D01*
X56620Y-38225D01*
X56620Y-38729D01*
X56609Y-38725D01*
X56541Y-38725D01*
X55991Y-38725D01*
X55929Y-38751D01*
X55881Y-38799D01*
X55855Y-38861D01*
X55855Y-38929D01*
X55855Y-39479D01*
X55881Y-39541D01*
X55929Y-39589D01*
X55991Y-39615D01*
X56059Y-39615D01*
X56609Y-39615D01*
X56620Y-39610D01*
X56620Y-39670D01*
X55780Y-39670D01*
X55695Y-39687D01*
X55666Y-39705D01*
X55624Y-39734D01*
X55622Y-39736D01*
X55577Y-39781D01*
X55543Y-39781D01*
X55437Y-39825D01*
X55355Y-39906D01*
X55311Y-40012D01*
X55311Y-40127D01*
X55355Y-40233D01*
X55436Y-40315D01*
X55542Y-40359D01*
X55657Y-40359D01*
X55763Y-40315D01*
X55830Y-40248D01*
X55830Y-40684D01*
X55856Y-40746D01*
X55904Y-40794D01*
X55966Y-40820D01*
X56034Y-40820D01*
X56496Y-40820D01*
X56390Y-40926D01*
X56389Y-40926D01*
X56212Y-40926D01*
X56049Y-40993D01*
X55924Y-41118D01*
X55856Y-41281D01*
X55856Y-41458D01*
X55923Y-41621D01*
X56048Y-41746D01*
X56211Y-41814D01*
X56388Y-41814D01*
X56551Y-41747D01*
X56676Y-41622D01*
X56744Y-41459D01*
X56744Y-41282D01*
X56743Y-41280D01*
X56863Y-41160D01*
X56906Y-41160D01*
X56856Y-41281D01*
X56856Y-41458D01*
X56923Y-41621D01*
X57048Y-41746D01*
X57211Y-41814D01*
X57388Y-41814D01*
X57551Y-41747D01*
X57676Y-41622D01*
X57744Y-41459D01*
X57744Y-41282D01*
X57693Y-41160D01*
X57906Y-41160D01*
X57856Y-41281D01*
X57856Y-41458D01*
X57923Y-41621D01*
X58048Y-41746D01*
X58211Y-41814D01*
X58388Y-41814D01*
X58551Y-41747D01*
X58676Y-41622D01*
X58744Y-41459D01*
X58744Y-41282D01*
X58693Y-41160D01*
X58906Y-41160D01*
X58856Y-41281D01*
X58856Y-41458D01*
X58923Y-41621D01*
X59048Y-41746D01*
X59080Y-41759D01*
X59080Y-42234D01*
X58758Y-42556D01*
X52447Y-42556D01*
X51586Y-41694D01*
X51514Y-41647D01*
X51430Y-41629D01*
X51425Y-41630D01*
X51200Y-41630D01*
X51116Y-41647D01*
X51060Y-41683D01*
X51060Y-40820D01*
X51059Y-40819D01*
X51060Y-40819D01*
X51056Y-40802D01*
X51043Y-40736D01*
X51042Y-40735D01*
X50996Y-40664D01*
X50993Y-40662D01*
X50646Y-40314D01*
X50574Y-40267D01*
X50520Y-40255D01*
X50499Y-40204D01*
X50367Y-40072D01*
X50194Y-40000D01*
X50007Y-40000D01*
X49834Y-40071D01*
X49780Y-40125D01*
X49780Y-39815D01*
X49833Y-39868D01*
X50006Y-39940D01*
X50193Y-39940D01*
X50366Y-39869D01*
X50498Y-39737D01*
X50570Y-39564D01*
X50570Y-39377D01*
X50499Y-39204D01*
X50485Y-39190D01*
X53895Y-39190D01*
X53900Y-39191D01*
X53900Y-39190D01*
X53984Y-39173D01*
X54056Y-39126D01*
X54422Y-38759D01*
X54457Y-38759D01*
X54563Y-38715D01*
X54645Y-38634D01*
X54689Y-38528D01*
X54689Y-38492D01*
X54828Y-38352D01*
X54830Y-38351D01*
X54831Y-38351D01*
X54877Y-38280D01*
X54878Y-38279D01*
X54891Y-38213D01*
X54895Y-38196D01*
X54894Y-38195D01*
X54895Y-38195D01*
X54895Y-36945D01*
X54894Y-36944D01*
X54895Y-36944D01*
X54891Y-36927D01*
X54878Y-36861D01*
X54877Y-36860D01*
X54831Y-36789D01*
X54828Y-36787D01*
X53920Y-35878D01*
X53920Y-35383D01*
X53945Y-35359D01*
X53989Y-35253D01*
X53989Y-35138D01*
X53945Y-35032D01*
X53864Y-34950D01*
X53758Y-34906D01*
X53643Y-34906D01*
X53537Y-34950D01*
X53455Y-35031D01*
X53411Y-35137D01*
X53411Y-35252D01*
X53455Y-35358D01*
X53480Y-35383D01*
X53480Y-35724D01*
X53070Y-35314D01*
X52998Y-35267D01*
X52914Y-35249D01*
X52909Y-35250D01*
X50530Y-35250D01*
X50543Y-35245D01*
X50625Y-35164D01*
X50669Y-35058D01*
X50669Y-34943D01*
X50625Y-34837D01*
X50544Y-34755D01*
X50438Y-34711D01*
X50323Y-34711D01*
X50217Y-34755D01*
X50191Y-34780D01*
X49890Y-34780D01*
X49805Y-34797D01*
X49776Y-34815D01*
X49734Y-34844D01*
X49732Y-34846D01*
X49484Y-35094D01*
X49446Y-35151D01*
X49367Y-35072D01*
X49194Y-35000D01*
X49007Y-35000D01*
X48834Y-35071D01*
X48702Y-35203D01*
X48630Y-35376D01*
X48630Y-35563D01*
X48701Y-35736D01*
X48833Y-35868D01*
X48998Y-35936D01*
X48910Y-35954D01*
X48878Y-36036D01*
X49100Y-36258D01*
X49171Y-36187D01*
X49383Y-36399D01*
X49312Y-36470D01*
X49383Y-36541D01*
X49171Y-36753D01*
X49100Y-36682D01*
X48888Y-36894D01*
X48888Y-36470D01*
X48666Y-36248D01*
X48584Y-36280D01*
X48551Y-36492D01*
X48584Y-36660D01*
X48666Y-36692D01*
X48888Y-36470D01*
X48888Y-36894D01*
X48878Y-36904D01*
X48903Y-36970D01*
X48878Y-37036D01*
X49100Y-37258D01*
X49171Y-37187D01*
X49322Y-37338D01*
X49383Y-37399D01*
X49322Y-37460D01*
X49312Y-37470D01*
X49383Y-37541D01*
X49171Y-37753D01*
X49100Y-37682D01*
X48888Y-37894D01*
X48888Y-37470D01*
X48666Y-37248D01*
X48584Y-37280D01*
X48551Y-37492D01*
X48584Y-37660D01*
X48666Y-37692D01*
X48888Y-37470D01*
X48888Y-37894D01*
X48878Y-37904D01*
X48903Y-37970D01*
X48878Y-38036D01*
X49100Y-38258D01*
X49171Y-38187D01*
X49322Y-38338D01*
X49383Y-38399D01*
X49322Y-38460D01*
X49312Y-38470D01*
X49534Y-38692D01*
X49616Y-38660D01*
X49630Y-38564D01*
X49701Y-38736D01*
X49786Y-38821D01*
X49404Y-39204D01*
X49357Y-39276D01*
X49339Y-39360D01*
X49340Y-39364D01*
X49340Y-39442D01*
X49322Y-39460D01*
X49322Y-39036D01*
X49296Y-38970D01*
X49322Y-38904D01*
X49100Y-38682D01*
X48888Y-38894D01*
X48888Y-38470D01*
X48666Y-38248D01*
X48584Y-38280D01*
X48551Y-38492D01*
X48584Y-38660D01*
X48666Y-38692D01*
X48888Y-38470D01*
X48888Y-38894D01*
X48878Y-38904D01*
X48903Y-38970D01*
X48878Y-39036D01*
X49100Y-39258D01*
X49322Y-39036D01*
X49322Y-39460D01*
X49312Y-39470D01*
X49340Y-39498D01*
X49340Y-39584D01*
X49171Y-39753D01*
X49100Y-39682D01*
X48888Y-39894D01*
X48888Y-39470D01*
X48666Y-39248D01*
X48584Y-39280D01*
X48551Y-39492D01*
X48584Y-39660D01*
X48666Y-39692D01*
X48888Y-39470D01*
X48888Y-39894D01*
X48878Y-39904D01*
X48903Y-39970D01*
X48878Y-40036D01*
X49100Y-40258D01*
X49171Y-40187D01*
X49322Y-40338D01*
X49340Y-40356D01*
X49340Y-40442D01*
X49322Y-40460D01*
X49312Y-40470D01*
X49340Y-40498D01*
X49340Y-40584D01*
X49171Y-40753D01*
X49100Y-40682D01*
X48888Y-40894D01*
X48888Y-40470D01*
X48666Y-40248D01*
X48584Y-40280D01*
X48551Y-40492D01*
X48584Y-40660D01*
X48666Y-40692D01*
X48888Y-40470D01*
X48888Y-40894D01*
X48878Y-40904D01*
X48903Y-40970D01*
X48878Y-41036D01*
X49100Y-41258D01*
X49171Y-41187D01*
X49322Y-41338D01*
X49340Y-41356D01*
X49340Y-41442D01*
X49322Y-41460D01*
X49312Y-41470D01*
X49340Y-41498D01*
X49340Y-41584D01*
X49171Y-41753D01*
X49100Y-41682D01*
X48888Y-41894D01*
X48888Y-41470D01*
X48666Y-41248D01*
X48584Y-41280D01*
X48551Y-41492D01*
X48584Y-41660D01*
X48666Y-41692D01*
X48888Y-41470D01*
X48888Y-41894D01*
X48878Y-41904D01*
X48903Y-41970D01*
X48878Y-42036D01*
X49100Y-42258D01*
X49171Y-42187D01*
X49322Y-42338D01*
X49340Y-42356D01*
X49340Y-42442D01*
X49322Y-42460D01*
X49312Y-42470D01*
X49340Y-42498D01*
X49340Y-42584D01*
X49171Y-42753D01*
X49100Y-42682D01*
X48888Y-42894D01*
X48888Y-42470D01*
X48666Y-42248D01*
X48584Y-42280D01*
X48551Y-42492D01*
X48584Y-42660D01*
X48666Y-42692D01*
X48888Y-42470D01*
X48888Y-42894D01*
X48878Y-42904D01*
X48903Y-42970D01*
X48878Y-43036D01*
X49100Y-43258D01*
X49171Y-43187D01*
X49322Y-43338D01*
X49340Y-43356D01*
X49340Y-43442D01*
X49322Y-43460D01*
X49312Y-43470D01*
X49340Y-43498D01*
X49340Y-43584D01*
X49171Y-43753D01*
X49100Y-43682D01*
X48888Y-43894D01*
X48888Y-43470D01*
X48666Y-43248D01*
X48584Y-43280D01*
X48551Y-43492D01*
X48584Y-43660D01*
X48666Y-43692D01*
X48888Y-43470D01*
X48888Y-43894D01*
X48878Y-43904D01*
X48908Y-43983D01*
X48884Y-43967D01*
X48800Y-43949D01*
X48795Y-43950D01*
X46700Y-43950D01*
X46700Y-43332D01*
X46700Y-42908D01*
X46699Y-42869D01*
X46699Y-42770D01*
X46661Y-42679D01*
X46591Y-42609D01*
X46499Y-42571D01*
X45762Y-42570D01*
X46499Y-42569D01*
X46591Y-42531D01*
X46661Y-42461D01*
X46699Y-42370D01*
X46699Y-42271D01*
X46700Y-42232D01*
X46700Y-41808D01*
X46699Y-41769D01*
X46699Y-41670D01*
X46661Y-41579D01*
X46591Y-41509D01*
X46557Y-41495D01*
X46591Y-41481D01*
X46661Y-41411D01*
X46699Y-41320D01*
X46699Y-41221D01*
X46700Y-41182D01*
X46700Y-40758D01*
X46699Y-40719D01*
X46699Y-40620D01*
X46661Y-40529D01*
X46591Y-40459D01*
X46499Y-40421D01*
X45762Y-40420D01*
X46499Y-40419D01*
X46591Y-40381D01*
X46661Y-40311D01*
X46699Y-40220D01*
X46699Y-40121D01*
X46700Y-40082D01*
X46700Y-39658D01*
X46699Y-39619D01*
X46699Y-39520D01*
X46661Y-39429D01*
X46591Y-39359D01*
X46499Y-39321D01*
X45762Y-39320D01*
X46499Y-39319D01*
X46591Y-39281D01*
X46661Y-39211D01*
X46699Y-39120D01*
X46699Y-39021D01*
X46700Y-38982D01*
X46700Y-38558D01*
X46699Y-38519D01*
X46699Y-38420D01*
X46661Y-38329D01*
X46591Y-38259D01*
X46557Y-38245D01*
X46591Y-38231D01*
X46661Y-38161D01*
X46699Y-38070D01*
X46699Y-37971D01*
X46700Y-37932D01*
X46700Y-37508D01*
X46699Y-37469D01*
X46699Y-37370D01*
X46661Y-37279D01*
X46591Y-37209D01*
X46499Y-37171D01*
X45762Y-37170D01*
X46499Y-37169D01*
X46591Y-37131D01*
X46661Y-37061D01*
X46699Y-36970D01*
X46699Y-36871D01*
X46700Y-36832D01*
X46700Y-36408D01*
X46699Y-36369D01*
X46699Y-36270D01*
X46661Y-36179D01*
X46591Y-36109D01*
X46557Y-36095D01*
X46591Y-36081D01*
X46661Y-36011D01*
X46699Y-35920D01*
X46699Y-35821D01*
X46700Y-35782D01*
X46700Y-35358D01*
X46699Y-35319D01*
X46699Y-35220D01*
X46661Y-35129D01*
X46591Y-35059D01*
X46499Y-35021D01*
X45762Y-35020D01*
X45700Y-35082D01*
X45700Y-35420D01*
X46638Y-35420D01*
X46700Y-35358D01*
X46700Y-35782D01*
X46638Y-35720D01*
X45700Y-35720D01*
X45700Y-36058D01*
X45737Y-36095D01*
X45700Y-36132D01*
X45700Y-36470D01*
X46638Y-36470D01*
X46700Y-36408D01*
X46700Y-36832D01*
X46638Y-36770D01*
X45700Y-36770D01*
X45700Y-37108D01*
X45762Y-37170D01*
X45700Y-37232D01*
X45700Y-37570D01*
X46638Y-37570D01*
X46700Y-37508D01*
X46700Y-37932D01*
X46638Y-37870D01*
X45700Y-37870D01*
X45700Y-38208D01*
X45737Y-38245D01*
X45700Y-38282D01*
X45700Y-38620D01*
X46638Y-38620D01*
X46700Y-38558D01*
X46700Y-38982D01*
X46638Y-38920D01*
X45700Y-38920D01*
X45700Y-39258D01*
X45762Y-39320D01*
X45700Y-39382D01*
X45700Y-39720D01*
X46638Y-39720D01*
X46700Y-39658D01*
X46700Y-40082D01*
X46638Y-40020D01*
X45700Y-40020D01*
X45700Y-40358D01*
X45762Y-40420D01*
X45700Y-40482D01*
X45700Y-40820D01*
X46638Y-40820D01*
X46700Y-40758D01*
X46700Y-41182D01*
X46638Y-41120D01*
X45700Y-41120D01*
X45700Y-41458D01*
X45737Y-41495D01*
X45700Y-41532D01*
X45700Y-41870D01*
X46638Y-41870D01*
X46700Y-41808D01*
X46700Y-42232D01*
X46638Y-42170D01*
X45700Y-42170D01*
X45700Y-42508D01*
X45762Y-42570D01*
X45700Y-42632D01*
X45700Y-42970D01*
X46638Y-42970D01*
X46700Y-42908D01*
X46700Y-43332D01*
X46638Y-43270D01*
X45700Y-43270D01*
X45700Y-43608D01*
X45762Y-43670D01*
X46499Y-43669D01*
X46591Y-43631D01*
X46661Y-43561D01*
X46699Y-43470D01*
X46699Y-43371D01*
X46700Y-43332D01*
X46700Y-43950D01*
X46620Y-43950D01*
X46620Y-43836D01*
X46594Y-43774D01*
X46546Y-43726D01*
X46484Y-43700D01*
X46416Y-43700D01*
X44450Y-43700D01*
X44450Y-43669D01*
X45138Y-43670D01*
X45200Y-43608D01*
X45200Y-43420D01*
X45200Y-43270D01*
X45200Y-42970D01*
X45200Y-42820D01*
X45200Y-42632D01*
X45138Y-42570D01*
X45200Y-42508D01*
X45200Y-42320D01*
X45200Y-42170D01*
X45200Y-41870D01*
X45200Y-41720D01*
X45200Y-41532D01*
X45163Y-41495D01*
X45200Y-41458D01*
X45200Y-41270D01*
X45200Y-41120D01*
X45200Y-40820D01*
X45200Y-40670D01*
X45200Y-40482D01*
X45138Y-40420D01*
X45200Y-40358D01*
X45200Y-40170D01*
X45200Y-40020D01*
X45200Y-39720D01*
X45200Y-39570D01*
X45200Y-39382D01*
X45138Y-39320D01*
X45200Y-39258D01*
X45200Y-39070D01*
X45200Y-38920D01*
X45200Y-38620D01*
X45200Y-38470D01*
X45200Y-38282D01*
X45163Y-38245D01*
X45200Y-38208D01*
X45200Y-38020D01*
X45200Y-37870D01*
X45200Y-37570D01*
X45200Y-37420D01*
X45200Y-37232D01*
X45138Y-37170D01*
X45200Y-37108D01*
X45200Y-36920D01*
X45200Y-36770D01*
X45200Y-36470D01*
X45200Y-36320D01*
X45200Y-36132D01*
X45163Y-36095D01*
X45200Y-36058D01*
X45200Y-35870D01*
X45200Y-35720D01*
X45200Y-35420D01*
X45200Y-35270D01*
X45200Y-35082D01*
X45138Y-35020D01*
X44450Y-35020D01*
X44450Y-32675D01*
X44477Y-32536D01*
X44553Y-32423D01*
X44666Y-32347D01*
X44805Y-32320D01*
X47995Y-32320D01*
X48134Y-32347D01*
X48247Y-32423D01*
X48323Y-32536D01*
X48350Y-32675D01*
X48350Y-34175D01*
X48383Y-34342D01*
X48481Y-34489D01*
X48628Y-34587D01*
X48795Y-34620D01*
X50505Y-34620D01*
X50672Y-34587D01*
X50819Y-34489D01*
X50917Y-34342D01*
X50950Y-34175D01*
X50950Y-32675D01*
X50977Y-32536D01*
X51053Y-32423D01*
X51166Y-32347D01*
X51305Y-32320D01*
X67995Y-32320D01*
X68134Y-32347D01*
X68247Y-32423D01*
X68323Y-32536D01*
X68350Y-32675D01*
X68350Y-34175D01*
X68383Y-34342D01*
X68481Y-34489D01*
X68628Y-34587D01*
X68795Y-34620D01*
X70195Y-34620D01*
X70334Y-34647D01*
X70447Y-34723D01*
X70523Y-34836D01*
X70550Y-34975D01*
X70550Y-48365D01*
X70550Y-48365D01*
G37*
G54D19*
X70550Y-48365D02*
X70523Y-48504D01*
X70447Y-48617D01*
X70334Y-48693D01*
X70195Y-48720D01*
X69744Y-48720D01*
X69744Y-39259D01*
X69744Y-39082D01*
X69744Y-36259D01*
X69744Y-36082D01*
X69677Y-35919D01*
X69552Y-35794D01*
X69389Y-35726D01*
X69212Y-35726D01*
X69049Y-35793D01*
X68924Y-35918D01*
X68856Y-36081D01*
X68856Y-36258D01*
X68923Y-36421D01*
X69048Y-36546D01*
X69211Y-36614D01*
X69388Y-36614D01*
X69551Y-36547D01*
X69676Y-36422D01*
X69744Y-36259D01*
X69744Y-39082D01*
X69677Y-38919D01*
X69552Y-38794D01*
X69389Y-38726D01*
X69212Y-38726D01*
X69049Y-38793D01*
X68924Y-38918D01*
X68856Y-39081D01*
X68856Y-39258D01*
X68923Y-39421D01*
X69048Y-39546D01*
X69211Y-39614D01*
X69388Y-39614D01*
X69551Y-39547D01*
X69676Y-39422D01*
X69744Y-39259D01*
X69744Y-48720D01*
X68946Y-48720D01*
X68946Y-47592D01*
X68919Y-47457D01*
X68829Y-47394D01*
X68554Y-47670D01*
X68829Y-47946D01*
X68919Y-47883D01*
X68946Y-47592D01*
X68946Y-48720D01*
X68795Y-48720D01*
X68628Y-48753D01*
X68481Y-48851D01*
X68476Y-48858D01*
X68476Y-48299D01*
X68476Y-47041D01*
X68413Y-46951D01*
X68122Y-46924D01*
X67987Y-46951D01*
X67924Y-47041D01*
X68200Y-47316D01*
X68476Y-47041D01*
X68476Y-48299D01*
X68200Y-48024D01*
X67924Y-48299D01*
X67987Y-48389D01*
X68278Y-48416D01*
X68413Y-48389D01*
X68476Y-48299D01*
X68476Y-48858D01*
X68383Y-48998D01*
X68350Y-49165D01*
X68350Y-50665D01*
X68323Y-50804D01*
X68247Y-50917D01*
X68134Y-50993D01*
X67995Y-51020D01*
X67846Y-51020D01*
X67846Y-47670D01*
X67571Y-47394D01*
X67481Y-47457D01*
X67454Y-47748D01*
X67481Y-47883D01*
X67571Y-47946D01*
X67846Y-47670D01*
X67846Y-51020D01*
X63824Y-51020D01*
X63824Y-48555D01*
X63824Y-44355D01*
X63789Y-44183D01*
X63709Y-44154D01*
X63516Y-44347D01*
X63516Y-43961D01*
X63487Y-43881D01*
X63285Y-43846D01*
X63113Y-43881D01*
X63084Y-43961D01*
X63300Y-44176D01*
X63516Y-43961D01*
X63516Y-44347D01*
X63494Y-44370D01*
X63709Y-44586D01*
X63789Y-44557D01*
X63824Y-44355D01*
X63824Y-48555D01*
X63789Y-48383D01*
X63709Y-48354D01*
X63516Y-48547D01*
X63516Y-48161D01*
X63487Y-48081D01*
X63285Y-48046D01*
X63113Y-48081D01*
X63084Y-48161D01*
X63300Y-48376D01*
X63516Y-48161D01*
X63516Y-48547D01*
X63494Y-48570D01*
X63709Y-48786D01*
X63789Y-48757D01*
X63824Y-48555D01*
X63824Y-51020D01*
X63516Y-51020D01*
X63516Y-48979D01*
X63300Y-48764D01*
X63106Y-48957D01*
X63106Y-48570D01*
X62891Y-48354D01*
X62811Y-48383D01*
X62776Y-48585D01*
X62811Y-48757D01*
X62891Y-48786D01*
X63106Y-48570D01*
X63106Y-48957D01*
X63084Y-48979D01*
X63113Y-49059D01*
X63315Y-49094D01*
X63487Y-49059D01*
X63516Y-48979D01*
X63516Y-51020D01*
X61744Y-51020D01*
X61744Y-48659D01*
X61744Y-48482D01*
X61677Y-48319D01*
X61552Y-48194D01*
X61389Y-48126D01*
X61212Y-48126D01*
X61049Y-48193D01*
X60924Y-48318D01*
X60856Y-48481D01*
X60856Y-48658D01*
X60923Y-48821D01*
X61048Y-48946D01*
X61211Y-49014D01*
X61388Y-49014D01*
X61551Y-48947D01*
X61676Y-48822D01*
X61744Y-48659D01*
X61744Y-51020D01*
X59744Y-51020D01*
X59744Y-48659D01*
X59744Y-48482D01*
X59677Y-48319D01*
X59552Y-48194D01*
X59389Y-48126D01*
X59212Y-48126D01*
X59049Y-48193D01*
X58924Y-48318D01*
X58856Y-48481D01*
X58856Y-48658D01*
X58923Y-48821D01*
X59048Y-48946D01*
X59211Y-49014D01*
X59388Y-49014D01*
X59551Y-48947D01*
X59676Y-48822D01*
X59744Y-48659D01*
X59744Y-51020D01*
X57744Y-51020D01*
X57744Y-48659D01*
X57744Y-48482D01*
X57677Y-48319D01*
X57552Y-48194D01*
X57389Y-48126D01*
X57212Y-48126D01*
X57049Y-48193D01*
X56924Y-48318D01*
X56856Y-48481D01*
X56856Y-48658D01*
X56923Y-48821D01*
X57048Y-48946D01*
X57211Y-49014D01*
X57388Y-49014D01*
X57551Y-48947D01*
X57676Y-48822D01*
X57744Y-48659D01*
X57744Y-51020D01*
X56745Y-51020D01*
X56745Y-48879D01*
X56745Y-48811D01*
X56745Y-48261D01*
X56719Y-48199D01*
X56671Y-48151D01*
X56641Y-48138D01*
X56609Y-48125D01*
X56541Y-48125D01*
X55991Y-48125D01*
X55929Y-48151D01*
X55881Y-48199D01*
X55855Y-48261D01*
X55855Y-48329D01*
X55855Y-48879D01*
X55881Y-48941D01*
X55929Y-48989D01*
X55991Y-49015D01*
X56059Y-49015D01*
X56609Y-49015D01*
X56641Y-49001D01*
X56671Y-48989D01*
X56719Y-48941D01*
X56745Y-48879D01*
X56745Y-51020D01*
X56641Y-51020D01*
X56300Y-51020D01*
X51305Y-51020D01*
X51166Y-50993D01*
X51053Y-50917D01*
X50977Y-50804D01*
X50950Y-50665D01*
X50950Y-49165D01*
X50917Y-48998D01*
X50819Y-48851D01*
X50672Y-48753D01*
X50550Y-48728D01*
X50505Y-48720D01*
X49699Y-48720D01*
X48795Y-48720D01*
X48628Y-48753D01*
X48481Y-48851D01*
X48383Y-48998D01*
X48350Y-49165D01*
X48350Y-50665D01*
X48323Y-50804D01*
X48247Y-50917D01*
X48134Y-50993D01*
X47995Y-51020D01*
X44805Y-51020D01*
X44666Y-50993D01*
X44553Y-50917D01*
X44477Y-50804D01*
X44450Y-50665D01*
X44450Y-47890D01*
X44484Y-47890D01*
X46484Y-47890D01*
X46546Y-47864D01*
X46594Y-47816D01*
X46620Y-47754D01*
X46620Y-47690D01*
X48682Y-47690D01*
X48701Y-47736D01*
X48833Y-47868D01*
X49006Y-47940D01*
X49193Y-47940D01*
X49366Y-47869D01*
X49427Y-47807D01*
X49429Y-47809D01*
X49552Y-47892D01*
X49694Y-47920D01*
X49718Y-47920D01*
X49766Y-47940D01*
X49834Y-47940D01*
X50434Y-47940D01*
X50496Y-47914D01*
X50544Y-47866D01*
X50550Y-47851D01*
X50570Y-47804D01*
X50570Y-47736D01*
X50570Y-47136D01*
X50550Y-47088D01*
X50550Y-47064D01*
X50522Y-46922D01*
X50439Y-46799D01*
X50437Y-46797D01*
X50498Y-46737D01*
X50536Y-46644D01*
X51004Y-46644D01*
X50957Y-46691D01*
X50923Y-46691D01*
X50817Y-46735D01*
X50735Y-46816D01*
X50691Y-46922D01*
X50691Y-47037D01*
X50735Y-47143D01*
X50816Y-47225D01*
X50922Y-47269D01*
X51037Y-47269D01*
X51143Y-47225D01*
X51225Y-47144D01*
X51269Y-47038D01*
X51269Y-47002D01*
X51425Y-46846D01*
X56264Y-46846D01*
X56641Y-47222D01*
X57868Y-48450D01*
X57856Y-48481D01*
X57856Y-48658D01*
X57923Y-48821D01*
X58048Y-48946D01*
X58211Y-49014D01*
X58388Y-49014D01*
X58551Y-48947D01*
X58676Y-48822D01*
X58744Y-48659D01*
X58744Y-48482D01*
X58677Y-48319D01*
X58552Y-48194D01*
X58389Y-48126D01*
X58212Y-48126D01*
X58180Y-48139D01*
X56685Y-46644D01*
X58062Y-46644D01*
X59868Y-48450D01*
X59856Y-48481D01*
X59856Y-48658D01*
X59923Y-48821D01*
X60048Y-48946D01*
X60211Y-49014D01*
X60388Y-49014D01*
X60551Y-48947D01*
X60676Y-48822D01*
X60744Y-48659D01*
X60744Y-48482D01*
X60677Y-48319D01*
X60552Y-48194D01*
X60389Y-48126D01*
X60212Y-48126D01*
X60180Y-48139D01*
X58483Y-46442D01*
X59860Y-46442D01*
X61868Y-48450D01*
X61856Y-48481D01*
X61856Y-48658D01*
X61923Y-48821D01*
X62048Y-48946D01*
X62211Y-49014D01*
X62388Y-49014D01*
X62551Y-48947D01*
X62676Y-48822D01*
X62744Y-48659D01*
X62744Y-48482D01*
X62677Y-48319D01*
X62552Y-48194D01*
X62389Y-48126D01*
X62212Y-48126D01*
X62180Y-48139D01*
X60108Y-46066D01*
X60036Y-46019D01*
X59952Y-46001D01*
X59947Y-46002D01*
X59417Y-46002D01*
X59551Y-45947D01*
X59676Y-45822D01*
X59744Y-45659D01*
X59744Y-45482D01*
X59693Y-45360D01*
X59906Y-45360D01*
X59856Y-45481D01*
X59856Y-45658D01*
X59923Y-45821D01*
X60048Y-45946D01*
X60211Y-46014D01*
X60388Y-46014D01*
X60551Y-45947D01*
X60676Y-45822D01*
X60744Y-45659D01*
X60744Y-45482D01*
X60693Y-45360D01*
X60778Y-45360D01*
X60868Y-45450D01*
X60856Y-45481D01*
X60856Y-45658D01*
X60923Y-45821D01*
X61048Y-45946D01*
X61211Y-46014D01*
X61388Y-46014D01*
X61551Y-45947D01*
X61676Y-45822D01*
X61744Y-45659D01*
X61744Y-45482D01*
X61677Y-45319D01*
X61552Y-45194D01*
X61465Y-45158D01*
X62134Y-45158D01*
X62049Y-45193D01*
X61924Y-45318D01*
X61856Y-45481D01*
X61856Y-45658D01*
X61923Y-45821D01*
X62048Y-45946D01*
X62211Y-46014D01*
X62388Y-46014D01*
X62551Y-45947D01*
X62676Y-45822D01*
X62744Y-45659D01*
X62744Y-45482D01*
X62677Y-45319D01*
X62552Y-45194D01*
X62465Y-45158D01*
X62576Y-45158D01*
X62868Y-45450D01*
X62856Y-45481D01*
X62856Y-45658D01*
X62923Y-45821D01*
X63048Y-45946D01*
X63211Y-46014D01*
X63388Y-46014D01*
X63551Y-45947D01*
X63676Y-45822D01*
X63744Y-45659D01*
X63744Y-45482D01*
X63677Y-45319D01*
X63552Y-45194D01*
X63516Y-45178D01*
X63516Y-44779D01*
X63300Y-44564D01*
X63106Y-44757D01*
X63106Y-44370D01*
X62891Y-44154D01*
X62811Y-44183D01*
X62776Y-44385D01*
X62811Y-44557D01*
X62891Y-44586D01*
X63106Y-44370D01*
X63106Y-44757D01*
X63084Y-44779D01*
X63113Y-44859D01*
X63315Y-44894D01*
X63487Y-44859D01*
X63516Y-44779D01*
X63516Y-45178D01*
X63389Y-45126D01*
X63212Y-45126D01*
X63180Y-45138D01*
X62824Y-44782D01*
X62752Y-44735D01*
X62668Y-44717D01*
X62663Y-44718D01*
X62580Y-44718D01*
X62676Y-44622D01*
X62744Y-44459D01*
X62744Y-44282D01*
X62677Y-44119D01*
X62552Y-43994D01*
X62516Y-43979D01*
X62515Y-43978D01*
X62503Y-43914D01*
X62502Y-43913D01*
X62456Y-43842D01*
X62453Y-43840D01*
X61986Y-43372D01*
X61914Y-43325D01*
X61830Y-43307D01*
X61825Y-43308D01*
X61673Y-43308D01*
X63180Y-41801D01*
X63211Y-41814D01*
X63388Y-41814D01*
X63551Y-41747D01*
X63676Y-41622D01*
X63729Y-41493D01*
X67610Y-45373D01*
X67530Y-45568D01*
X67530Y-45835D01*
X67632Y-46081D01*
X67820Y-46270D01*
X68066Y-46372D01*
X68333Y-46372D01*
X68579Y-46270D01*
X68768Y-46082D01*
X68870Y-45836D01*
X68870Y-45569D01*
X68768Y-45323D01*
X68580Y-45134D01*
X68334Y-45032D01*
X68067Y-45032D01*
X68002Y-45058D01*
X67744Y-44800D01*
X67744Y-39259D01*
X67744Y-39082D01*
X67677Y-38919D01*
X67552Y-38794D01*
X67389Y-38726D01*
X67212Y-38726D01*
X67049Y-38793D01*
X66924Y-38918D01*
X66856Y-39081D01*
X66856Y-39258D01*
X66923Y-39421D01*
X67048Y-39546D01*
X67211Y-39614D01*
X67388Y-39614D01*
X67551Y-39547D01*
X67676Y-39422D01*
X67744Y-39259D01*
X67744Y-44800D01*
X66744Y-43800D01*
X66744Y-39259D01*
X66744Y-39082D01*
X66677Y-38919D01*
X66552Y-38794D01*
X66389Y-38726D01*
X66212Y-38726D01*
X66049Y-38793D01*
X65924Y-38918D01*
X65856Y-39081D01*
X65856Y-39258D01*
X65923Y-39421D01*
X66048Y-39546D01*
X66211Y-39614D01*
X66388Y-39614D01*
X66551Y-39547D01*
X66676Y-39422D01*
X66744Y-39259D01*
X66744Y-43800D01*
X65744Y-42800D01*
X65744Y-39259D01*
X65744Y-39082D01*
X65677Y-38919D01*
X65552Y-38794D01*
X65389Y-38726D01*
X65212Y-38726D01*
X65049Y-38793D01*
X64924Y-38918D01*
X64856Y-39081D01*
X64856Y-39258D01*
X64923Y-39421D01*
X65048Y-39546D01*
X65211Y-39614D01*
X65388Y-39614D01*
X65551Y-39547D01*
X65676Y-39422D01*
X65744Y-39259D01*
X65744Y-42800D01*
X64744Y-41800D01*
X64744Y-39259D01*
X64744Y-39082D01*
X64677Y-38919D01*
X64552Y-38794D01*
X64389Y-38726D01*
X64212Y-38726D01*
X64049Y-38793D01*
X63924Y-38918D01*
X63856Y-39081D01*
X63856Y-39258D01*
X63923Y-39421D01*
X64048Y-39546D01*
X64211Y-39614D01*
X64388Y-39614D01*
X64551Y-39547D01*
X64676Y-39422D01*
X64744Y-39259D01*
X64744Y-41800D01*
X63824Y-40880D01*
X63824Y-39155D01*
X63789Y-38983D01*
X63709Y-38954D01*
X63516Y-39147D01*
X63516Y-38761D01*
X63487Y-38681D01*
X63285Y-38646D01*
X63113Y-38681D01*
X63084Y-38761D01*
X63300Y-38976D01*
X63516Y-38761D01*
X63516Y-39147D01*
X63494Y-39170D01*
X63709Y-39386D01*
X63789Y-39357D01*
X63824Y-39155D01*
X63824Y-40880D01*
X63677Y-40733D01*
X63596Y-40679D01*
X63516Y-40663D01*
X63516Y-39579D01*
X63300Y-39364D01*
X63106Y-39557D01*
X63106Y-39170D01*
X62891Y-38954D01*
X62811Y-38983D01*
X62776Y-39185D01*
X62811Y-39357D01*
X62891Y-39386D01*
X63106Y-39170D01*
X63106Y-39557D01*
X63084Y-39579D01*
X63113Y-39659D01*
X63315Y-39694D01*
X63487Y-39659D01*
X63516Y-39579D01*
X63516Y-40663D01*
X63500Y-40660D01*
X62744Y-40660D01*
X62744Y-39259D01*
X62744Y-39082D01*
X62677Y-38919D01*
X62552Y-38794D01*
X62389Y-38726D01*
X62212Y-38726D01*
X62049Y-38793D01*
X61924Y-38918D01*
X61856Y-39081D01*
X61856Y-39258D01*
X61923Y-39421D01*
X62048Y-39546D01*
X62211Y-39614D01*
X62388Y-39614D01*
X62551Y-39547D01*
X62676Y-39422D01*
X62744Y-39259D01*
X62744Y-40660D01*
X61393Y-40660D01*
X61566Y-40589D01*
X61698Y-40457D01*
X61770Y-40284D01*
X61770Y-40097D01*
X61744Y-40033D01*
X61744Y-39259D01*
X61744Y-39082D01*
X61677Y-38919D01*
X61552Y-38794D01*
X61389Y-38726D01*
X61212Y-38726D01*
X61049Y-38793D01*
X60924Y-38918D01*
X60856Y-39081D01*
X60856Y-39258D01*
X60923Y-39421D01*
X61048Y-39546D01*
X61211Y-39614D01*
X61388Y-39614D01*
X61551Y-39547D01*
X61676Y-39422D01*
X61744Y-39259D01*
X61744Y-40033D01*
X61699Y-39924D01*
X61567Y-39792D01*
X61394Y-39720D01*
X61207Y-39720D01*
X61034Y-39791D01*
X60902Y-39923D01*
X60830Y-40096D01*
X60830Y-40283D01*
X60901Y-40456D01*
X61033Y-40588D01*
X61206Y-40660D01*
X60655Y-40660D01*
X60698Y-40617D01*
X60770Y-40444D01*
X60770Y-40257D01*
X60744Y-40193D01*
X60744Y-39259D01*
X60744Y-39082D01*
X60677Y-38919D01*
X60552Y-38794D01*
X60389Y-38726D01*
X60212Y-38726D01*
X60049Y-38793D01*
X59924Y-38918D01*
X59856Y-39081D01*
X59856Y-39258D01*
X59923Y-39421D01*
X60048Y-39546D01*
X60211Y-39614D01*
X60388Y-39614D01*
X60551Y-39547D01*
X60676Y-39422D01*
X60744Y-39259D01*
X60744Y-40193D01*
X60699Y-40084D01*
X60567Y-39952D01*
X60394Y-39880D01*
X60207Y-39880D01*
X60034Y-39951D01*
X59902Y-40083D01*
X59830Y-40256D01*
X59830Y-40443D01*
X59901Y-40616D01*
X59945Y-40660D01*
X59393Y-40660D01*
X59566Y-40589D01*
X59698Y-40457D01*
X59770Y-40284D01*
X59770Y-40097D01*
X59744Y-40033D01*
X59744Y-39259D01*
X59744Y-39082D01*
X59677Y-38919D01*
X59552Y-38794D01*
X59389Y-38726D01*
X59212Y-38726D01*
X59049Y-38793D01*
X58924Y-38918D01*
X58856Y-39081D01*
X58856Y-39258D01*
X58923Y-39421D01*
X59048Y-39546D01*
X59211Y-39614D01*
X59388Y-39614D01*
X59551Y-39547D01*
X59676Y-39422D01*
X59744Y-39259D01*
X59744Y-40033D01*
X59699Y-39924D01*
X59567Y-39792D01*
X59394Y-39720D01*
X59207Y-39720D01*
X59034Y-39791D01*
X58902Y-39923D01*
X58830Y-40096D01*
X58830Y-40231D01*
X58816Y-40160D01*
X58744Y-40131D01*
X58744Y-39259D01*
X58744Y-39082D01*
X58677Y-38919D01*
X58552Y-38794D01*
X58389Y-38726D01*
X58212Y-38726D01*
X58049Y-38793D01*
X57924Y-38918D01*
X57856Y-39081D01*
X57856Y-39258D01*
X57923Y-39421D01*
X58048Y-39546D01*
X58211Y-39614D01*
X58388Y-39614D01*
X58551Y-39547D01*
X58676Y-39422D01*
X58744Y-39259D01*
X58744Y-40131D01*
X58734Y-40128D01*
X58522Y-40340D01*
X58522Y-39916D01*
X58490Y-39834D01*
X58278Y-39801D01*
X58110Y-39834D01*
X58078Y-39916D01*
X58300Y-40138D01*
X58522Y-39916D01*
X58522Y-40340D01*
X58512Y-40350D01*
X58583Y-40421D01*
X58371Y-40633D01*
X58300Y-40562D01*
X58229Y-40633D01*
X58017Y-40421D01*
X58088Y-40350D01*
X57866Y-40128D01*
X57784Y-40160D01*
X57770Y-40249D01*
X57770Y-40097D01*
X57699Y-39924D01*
X57567Y-39792D01*
X57394Y-39720D01*
X57207Y-39720D01*
X57160Y-39738D01*
X57156Y-39734D01*
X57153Y-39732D01*
X57060Y-39638D01*
X57060Y-39551D01*
X57211Y-39614D01*
X57388Y-39614D01*
X57551Y-39547D01*
X57676Y-39422D01*
X57744Y-39259D01*
X57744Y-39082D01*
X57677Y-38919D01*
X57552Y-38794D01*
X57389Y-38726D01*
X57212Y-38726D01*
X57060Y-38788D01*
X57060Y-38300D01*
X67594Y-38300D01*
X67970Y-38676D01*
X67970Y-38872D01*
X67924Y-38918D01*
X67856Y-39081D01*
X67856Y-39258D01*
X67923Y-39421D01*
X68048Y-39546D01*
X68211Y-39614D01*
X68388Y-39614D01*
X68551Y-39547D01*
X68676Y-39422D01*
X68744Y-39259D01*
X68744Y-39082D01*
X68744Y-36259D01*
X68744Y-36082D01*
X68677Y-35919D01*
X68552Y-35794D01*
X68389Y-35726D01*
X68212Y-35726D01*
X68049Y-35793D01*
X68049Y-33668D01*
X68016Y-33500D01*
X67934Y-33468D01*
X67722Y-33680D01*
X67722Y-33256D01*
X67690Y-33174D01*
X67478Y-33141D01*
X67310Y-33174D01*
X67278Y-33256D01*
X67500Y-33478D01*
X67722Y-33256D01*
X67722Y-33680D01*
X67712Y-33690D01*
X67934Y-33912D01*
X68016Y-33880D01*
X68049Y-33668D01*
X68049Y-35793D01*
X67924Y-35918D01*
X67856Y-36081D01*
X67856Y-36258D01*
X67923Y-36421D01*
X68048Y-36546D01*
X68211Y-36614D01*
X68388Y-36614D01*
X68551Y-36547D01*
X68676Y-36422D01*
X68744Y-36259D01*
X68744Y-39082D01*
X68677Y-38919D01*
X68630Y-38872D01*
X68630Y-38540D01*
X68608Y-38434D01*
X68605Y-38414D01*
X68605Y-38413D01*
X68533Y-38307D01*
X67963Y-37737D01*
X67857Y-37665D01*
X67744Y-37642D01*
X67744Y-36259D01*
X67744Y-36082D01*
X67722Y-36028D01*
X67722Y-34124D01*
X67500Y-33902D01*
X67288Y-34114D01*
X67288Y-33690D01*
X67066Y-33468D01*
X66984Y-33500D01*
X66951Y-33711D01*
X66899Y-33584D01*
X66767Y-33452D01*
X66594Y-33380D01*
X66407Y-33380D01*
X66234Y-33451D01*
X66102Y-33583D01*
X66030Y-33756D01*
X66030Y-33943D01*
X66101Y-34116D01*
X66233Y-34248D01*
X66406Y-34320D01*
X66593Y-34320D01*
X66766Y-34249D01*
X66898Y-34117D01*
X66970Y-33944D01*
X66970Y-33808D01*
X66984Y-33880D01*
X67066Y-33912D01*
X67288Y-33690D01*
X67288Y-34114D01*
X67278Y-34124D01*
X67310Y-34206D01*
X67522Y-34239D01*
X67690Y-34206D01*
X67722Y-34124D01*
X67722Y-36028D01*
X67677Y-35919D01*
X67552Y-35794D01*
X67389Y-35726D01*
X67212Y-35726D01*
X67049Y-35793D01*
X66924Y-35918D01*
X66856Y-36081D01*
X66856Y-36258D01*
X66923Y-36421D01*
X67048Y-36546D01*
X67211Y-36614D01*
X67388Y-36614D01*
X67551Y-36547D01*
X67676Y-36422D01*
X67744Y-36259D01*
X67744Y-37642D01*
X67730Y-37640D01*
X66744Y-37640D01*
X66744Y-36259D01*
X66744Y-36082D01*
X66677Y-35919D01*
X66552Y-35794D01*
X66389Y-35726D01*
X66212Y-35726D01*
X66049Y-35793D01*
X65970Y-35872D01*
X65970Y-33784D01*
X65970Y-33597D01*
X65899Y-33424D01*
X65767Y-33292D01*
X65594Y-33220D01*
X65407Y-33220D01*
X65234Y-33291D01*
X65102Y-33423D01*
X65030Y-33596D01*
X65030Y-33783D01*
X65101Y-33956D01*
X65233Y-34088D01*
X65406Y-34160D01*
X65593Y-34160D01*
X65766Y-34089D01*
X65898Y-33957D01*
X65970Y-33784D01*
X65970Y-35872D01*
X65924Y-35918D01*
X65856Y-36081D01*
X65856Y-36258D01*
X65923Y-36421D01*
X66048Y-36546D01*
X66211Y-36614D01*
X66388Y-36614D01*
X66551Y-36547D01*
X66676Y-36422D01*
X66744Y-36259D01*
X66744Y-37640D01*
X65824Y-37640D01*
X65824Y-36155D01*
X65789Y-35983D01*
X65709Y-35954D01*
X65516Y-36147D01*
X65516Y-35761D01*
X65487Y-35681D01*
X65285Y-35646D01*
X65113Y-35681D01*
X65084Y-35761D01*
X65300Y-35976D01*
X65516Y-35761D01*
X65516Y-36147D01*
X65494Y-36170D01*
X65709Y-36386D01*
X65789Y-36357D01*
X65824Y-36155D01*
X65824Y-37640D01*
X65516Y-37640D01*
X65516Y-36579D01*
X65300Y-36364D01*
X65106Y-36557D01*
X65106Y-36170D01*
X64970Y-36033D01*
X64970Y-33944D01*
X64970Y-33757D01*
X64899Y-33584D01*
X64767Y-33452D01*
X64594Y-33380D01*
X64407Y-33380D01*
X64234Y-33451D01*
X64102Y-33583D01*
X64030Y-33756D01*
X64030Y-33943D01*
X64101Y-34116D01*
X64233Y-34248D01*
X64406Y-34320D01*
X64593Y-34320D01*
X64766Y-34249D01*
X64898Y-34117D01*
X64970Y-33944D01*
X64970Y-36033D01*
X64891Y-35954D01*
X64811Y-35983D01*
X64776Y-36185D01*
X64811Y-36357D01*
X64891Y-36386D01*
X65106Y-36170D01*
X65106Y-36557D01*
X65084Y-36579D01*
X65113Y-36659D01*
X65315Y-36694D01*
X65487Y-36659D01*
X65516Y-36579D01*
X65516Y-37640D01*
X64744Y-37640D01*
X64744Y-36259D01*
X64744Y-36082D01*
X64677Y-35919D01*
X64552Y-35794D01*
X64389Y-35726D01*
X64212Y-35726D01*
X64049Y-35793D01*
X63970Y-35872D01*
X63970Y-33784D01*
X63970Y-33597D01*
X63899Y-33424D01*
X63767Y-33292D01*
X63594Y-33220D01*
X63407Y-33220D01*
X63234Y-33291D01*
X63102Y-33423D01*
X63030Y-33596D01*
X63030Y-33783D01*
X63101Y-33956D01*
X63233Y-34088D01*
X63406Y-34160D01*
X63593Y-34160D01*
X63766Y-34089D01*
X63898Y-33957D01*
X63970Y-33784D01*
X63970Y-35872D01*
X63924Y-35918D01*
X63856Y-36081D01*
X63856Y-36258D01*
X63923Y-36421D01*
X64048Y-36546D01*
X64211Y-36614D01*
X64388Y-36614D01*
X64551Y-36547D01*
X64676Y-36422D01*
X64744Y-36259D01*
X64744Y-37640D01*
X63744Y-37640D01*
X63744Y-36259D01*
X63744Y-36082D01*
X63677Y-35919D01*
X63552Y-35794D01*
X63389Y-35726D01*
X63212Y-35726D01*
X63049Y-35793D01*
X62970Y-35872D01*
X62970Y-34184D01*
X62970Y-34116D01*
X62970Y-33516D01*
X62944Y-33454D01*
X62896Y-33406D01*
X62834Y-33380D01*
X62766Y-33380D01*
X62166Y-33380D01*
X62104Y-33406D01*
X62056Y-33454D01*
X62030Y-33516D01*
X62030Y-33584D01*
X62030Y-34184D01*
X62056Y-34246D01*
X62104Y-34294D01*
X62166Y-34320D01*
X62234Y-34320D01*
X62834Y-34320D01*
X62896Y-34294D01*
X62944Y-34246D01*
X62970Y-34184D01*
X62970Y-35872D01*
X62924Y-35918D01*
X62856Y-36081D01*
X62856Y-36258D01*
X62923Y-36421D01*
X63048Y-36546D01*
X63211Y-36614D01*
X63388Y-36614D01*
X63551Y-36547D01*
X63676Y-36422D01*
X63744Y-36259D01*
X63744Y-37640D01*
X62744Y-37640D01*
X62744Y-36259D01*
X62744Y-36082D01*
X62677Y-35919D01*
X62552Y-35794D01*
X62389Y-35726D01*
X62212Y-35726D01*
X62049Y-35793D01*
X61924Y-35918D01*
X61856Y-36081D01*
X61856Y-36258D01*
X61923Y-36421D01*
X62048Y-36546D01*
X62211Y-36614D01*
X62388Y-36614D01*
X62551Y-36547D01*
X62676Y-36422D01*
X62744Y-36259D01*
X62744Y-37640D01*
X61849Y-37640D01*
X61849Y-33748D01*
X61816Y-33580D01*
X61734Y-33548D01*
X61522Y-33760D01*
X61522Y-33336D01*
X61490Y-33254D01*
X61278Y-33221D01*
X61110Y-33254D01*
X61078Y-33336D01*
X61300Y-33558D01*
X61522Y-33336D01*
X61522Y-33760D01*
X61512Y-33770D01*
X61734Y-33992D01*
X61816Y-33960D01*
X61849Y-33748D01*
X61849Y-37640D01*
X61770Y-37640D01*
X61770Y-34864D01*
X61770Y-34677D01*
X61699Y-34504D01*
X61567Y-34372D01*
X61401Y-34303D01*
X61490Y-34286D01*
X61522Y-34204D01*
X61300Y-33982D01*
X61088Y-34194D01*
X61088Y-33770D01*
X60866Y-33548D01*
X60800Y-33573D01*
X60734Y-33548D01*
X60522Y-33760D01*
X60522Y-33336D01*
X60490Y-33254D01*
X60278Y-33221D01*
X60110Y-33254D01*
X60078Y-33336D01*
X60300Y-33558D01*
X60522Y-33336D01*
X60522Y-33760D01*
X60512Y-33770D01*
X60734Y-33992D01*
X60800Y-33966D01*
X60866Y-33992D01*
X61088Y-33770D01*
X61088Y-34194D01*
X61078Y-34204D01*
X61110Y-34286D01*
X61205Y-34300D01*
X61034Y-34371D01*
X60902Y-34503D01*
X60830Y-34676D01*
X60830Y-34863D01*
X60901Y-35036D01*
X61033Y-35168D01*
X61206Y-35240D01*
X61393Y-35240D01*
X61566Y-35169D01*
X61698Y-35037D01*
X61770Y-34864D01*
X61770Y-37640D01*
X61744Y-37640D01*
X61744Y-36259D01*
X61744Y-36082D01*
X61677Y-35919D01*
X61552Y-35794D01*
X61389Y-35726D01*
X61212Y-35726D01*
X61049Y-35793D01*
X60924Y-35918D01*
X60856Y-36081D01*
X60856Y-36258D01*
X60923Y-36421D01*
X61048Y-36546D01*
X61211Y-36614D01*
X61388Y-36614D01*
X61551Y-36547D01*
X61676Y-36422D01*
X61744Y-36259D01*
X61744Y-37640D01*
X60770Y-37640D01*
X60770Y-34864D01*
X60770Y-34677D01*
X60699Y-34504D01*
X60567Y-34372D01*
X60401Y-34303D01*
X60490Y-34286D01*
X60522Y-34204D01*
X60300Y-33982D01*
X60088Y-34194D01*
X60088Y-33770D01*
X59866Y-33548D01*
X59800Y-33573D01*
X59734Y-33548D01*
X59522Y-33760D01*
X59522Y-33336D01*
X59490Y-33254D01*
X59278Y-33221D01*
X59110Y-33254D01*
X59078Y-33336D01*
X59300Y-33558D01*
X59522Y-33336D01*
X59522Y-33760D01*
X59512Y-33770D01*
X59734Y-33992D01*
X59800Y-33966D01*
X59866Y-33992D01*
X60088Y-33770D01*
X60088Y-34194D01*
X60078Y-34204D01*
X60110Y-34286D01*
X60205Y-34300D01*
X60034Y-34371D01*
X59902Y-34503D01*
X59830Y-34676D01*
X59830Y-34863D01*
X59901Y-35036D01*
X60033Y-35168D01*
X60206Y-35240D01*
X60393Y-35240D01*
X60566Y-35169D01*
X60698Y-35037D01*
X60770Y-34864D01*
X60770Y-37640D01*
X60744Y-37640D01*
X60744Y-36259D01*
X60744Y-36082D01*
X60677Y-35919D01*
X60552Y-35794D01*
X60389Y-35726D01*
X60212Y-35726D01*
X60049Y-35793D01*
X59924Y-35918D01*
X59856Y-36081D01*
X59856Y-36258D01*
X59923Y-36421D01*
X60048Y-36546D01*
X60211Y-36614D01*
X60388Y-36614D01*
X60551Y-36547D01*
X60676Y-36422D01*
X60744Y-36259D01*
X60744Y-37640D01*
X59770Y-37640D01*
X59770Y-34864D01*
X59770Y-34677D01*
X59699Y-34504D01*
X59567Y-34372D01*
X59401Y-34303D01*
X59490Y-34286D01*
X59522Y-34204D01*
X59300Y-33982D01*
X59088Y-34194D01*
X59088Y-33770D01*
X58866Y-33548D01*
X58800Y-33573D01*
X58734Y-33548D01*
X58522Y-33760D01*
X58522Y-33336D01*
X58490Y-33254D01*
X58278Y-33221D01*
X58110Y-33254D01*
X58078Y-33336D01*
X58300Y-33558D01*
X58522Y-33336D01*
X58522Y-33760D01*
X58512Y-33770D01*
X58734Y-33992D01*
X58800Y-33966D01*
X58866Y-33992D01*
X59088Y-33770D01*
X59088Y-34194D01*
X59078Y-34204D01*
X59110Y-34286D01*
X59205Y-34300D01*
X59034Y-34371D01*
X58902Y-34503D01*
X58830Y-34676D01*
X58830Y-34863D01*
X58901Y-35036D01*
X59033Y-35168D01*
X59206Y-35240D01*
X59393Y-35240D01*
X59566Y-35169D01*
X59698Y-35037D01*
X59770Y-34864D01*
X59770Y-37640D01*
X59744Y-37640D01*
X59744Y-36259D01*
X59744Y-36082D01*
X59677Y-35919D01*
X59552Y-35794D01*
X59389Y-35726D01*
X59212Y-35726D01*
X59049Y-35793D01*
X58924Y-35918D01*
X58856Y-36081D01*
X58856Y-36258D01*
X58923Y-36421D01*
X59048Y-36546D01*
X59211Y-36614D01*
X59388Y-36614D01*
X59551Y-36547D01*
X59676Y-36422D01*
X59744Y-36259D01*
X59744Y-37640D01*
X58770Y-37640D01*
X58770Y-35104D01*
X58770Y-35036D01*
X58770Y-34436D01*
X58744Y-34374D01*
X58696Y-34326D01*
X58634Y-34300D01*
X58566Y-34300D01*
X58418Y-34300D01*
X58490Y-34286D01*
X58522Y-34204D01*
X58300Y-33982D01*
X58088Y-34194D01*
X58088Y-33770D01*
X57866Y-33548D01*
X57784Y-33580D01*
X57751Y-33792D01*
X57784Y-33960D01*
X57866Y-33992D01*
X58088Y-33770D01*
X58088Y-34194D01*
X58078Y-34204D01*
X58110Y-34286D01*
X58199Y-34300D01*
X57966Y-34300D01*
X57904Y-34326D01*
X57856Y-34374D01*
X57830Y-34436D01*
X57830Y-34504D01*
X57830Y-35104D01*
X57856Y-35166D01*
X57904Y-35214D01*
X57966Y-35240D01*
X58034Y-35240D01*
X58634Y-35240D01*
X58696Y-35214D01*
X58744Y-35166D01*
X58770Y-35104D01*
X58770Y-37640D01*
X58744Y-37640D01*
X58744Y-36259D01*
X58744Y-36082D01*
X58677Y-35919D01*
X58552Y-35794D01*
X58389Y-35726D01*
X58212Y-35726D01*
X58049Y-35793D01*
X57924Y-35918D01*
X57856Y-36081D01*
X57856Y-36258D01*
X57923Y-36421D01*
X58048Y-36546D01*
X58211Y-36614D01*
X58388Y-36614D01*
X58551Y-36547D01*
X58676Y-36422D01*
X58744Y-36259D01*
X58744Y-37640D01*
X57824Y-37640D01*
X57824Y-36155D01*
X57789Y-35983D01*
X57709Y-35954D01*
X57516Y-36147D01*
X57516Y-35761D01*
X57487Y-35681D01*
X57285Y-35646D01*
X57113Y-35681D01*
X57084Y-35761D01*
X57300Y-35976D01*
X57516Y-35761D01*
X57516Y-36147D01*
X57494Y-36170D01*
X57709Y-36386D01*
X57789Y-36357D01*
X57824Y-36155D01*
X57824Y-37640D01*
X57516Y-37640D01*
X57516Y-36579D01*
X57300Y-36364D01*
X57106Y-36557D01*
X57106Y-36170D01*
X56891Y-35954D01*
X56811Y-35983D01*
X56776Y-36185D01*
X56811Y-36357D01*
X56891Y-36386D01*
X57106Y-36170D01*
X57106Y-36557D01*
X57084Y-36579D01*
X57113Y-36659D01*
X57315Y-36694D01*
X57487Y-36659D01*
X57516Y-36579D01*
X57516Y-37640D01*
X56956Y-37640D01*
X56630Y-37313D01*
X56630Y-36468D01*
X56676Y-36422D01*
X56744Y-36259D01*
X56744Y-36082D01*
X56677Y-35919D01*
X56552Y-35794D01*
X56389Y-35726D01*
X56212Y-35726D01*
X56049Y-35793D01*
X55924Y-35918D01*
X55856Y-36081D01*
X55856Y-36258D01*
X55923Y-36421D01*
X55970Y-36468D01*
X55970Y-37450D01*
X55995Y-37577D01*
X56067Y-37683D01*
X56586Y-38203D01*
X56587Y-38203D01*
X56620Y-38225D01*
X56620Y-38729D01*
X56609Y-38725D01*
X56541Y-38725D01*
X55991Y-38725D01*
X55929Y-38751D01*
X55881Y-38799D01*
X55855Y-38861D01*
X55855Y-38929D01*
X55855Y-39479D01*
X55881Y-39541D01*
X55929Y-39589D01*
X55991Y-39615D01*
X56059Y-39615D01*
X56609Y-39615D01*
X56620Y-39610D01*
X56620Y-39670D01*
X55780Y-39670D01*
X55695Y-39687D01*
X55666Y-39705D01*
X55624Y-39734D01*
X55622Y-39736D01*
X55577Y-39781D01*
X55543Y-39781D01*
X55437Y-39825D01*
X55355Y-39906D01*
X55311Y-40012D01*
X55311Y-40127D01*
X55355Y-40233D01*
X55436Y-40315D01*
X55542Y-40359D01*
X55657Y-40359D01*
X55763Y-40315D01*
X55830Y-40248D01*
X55830Y-40684D01*
X55856Y-40746D01*
X55904Y-40794D01*
X55966Y-40820D01*
X56034Y-40820D01*
X56496Y-40820D01*
X56390Y-40926D01*
X56389Y-40926D01*
X56212Y-40926D01*
X56049Y-40993D01*
X55924Y-41118D01*
X55856Y-41281D01*
X55856Y-41458D01*
X55923Y-41621D01*
X56048Y-41746D01*
X56211Y-41814D01*
X56388Y-41814D01*
X56551Y-41747D01*
X56676Y-41622D01*
X56744Y-41459D01*
X56744Y-41282D01*
X56743Y-41280D01*
X56863Y-41160D01*
X56906Y-41160D01*
X56856Y-41281D01*
X56856Y-41458D01*
X56923Y-41621D01*
X57048Y-41746D01*
X57211Y-41814D01*
X57388Y-41814D01*
X57551Y-41747D01*
X57676Y-41622D01*
X57744Y-41459D01*
X57744Y-41282D01*
X57693Y-41160D01*
X57906Y-41160D01*
X57856Y-41281D01*
X57856Y-41458D01*
X57923Y-41621D01*
X58048Y-41746D01*
X58211Y-41814D01*
X58388Y-41814D01*
X58551Y-41747D01*
X58676Y-41622D01*
X58744Y-41459D01*
X58744Y-41282D01*
X58693Y-41160D01*
X58906Y-41160D01*
X58856Y-41281D01*
X58856Y-41458D01*
X58923Y-41621D01*
X59048Y-41746D01*
X59080Y-41759D01*
X59080Y-42234D01*
X58758Y-42556D01*
X52447Y-42556D01*
X51586Y-41694D01*
X51514Y-41647D01*
X51430Y-41629D01*
X51425Y-41630D01*
X51200Y-41630D01*
X51116Y-41647D01*
X51060Y-41683D01*
X51060Y-40820D01*
X51059Y-40819D01*
X51060Y-40819D01*
X51056Y-40802D01*
X51043Y-40736D01*
X51042Y-40735D01*
X50996Y-40664D01*
X50993Y-40662D01*
X50646Y-40314D01*
X50574Y-40267D01*
X50520Y-40255D01*
X50499Y-40204D01*
X50367Y-40072D01*
X50194Y-40000D01*
X50007Y-40000D01*
X49834Y-40071D01*
X49780Y-40125D01*
X49780Y-39815D01*
X49833Y-39868D01*
X50006Y-39940D01*
X50193Y-39940D01*
X50366Y-39869D01*
X50498Y-39737D01*
X50570Y-39564D01*
X50570Y-39377D01*
X50499Y-39204D01*
X50485Y-39190D01*
X53895Y-39190D01*
X53900Y-39191D01*
X53900Y-39190D01*
X53984Y-39173D01*
X54056Y-39126D01*
X54422Y-38759D01*
X54457Y-38759D01*
X54563Y-38715D01*
X54645Y-38634D01*
X54689Y-38528D01*
X54689Y-38492D01*
X54828Y-38352D01*
X54830Y-38351D01*
X54831Y-38351D01*
X54877Y-38280D01*
X54878Y-38279D01*
X54891Y-38213D01*
X54895Y-38196D01*
X54894Y-38195D01*
X54895Y-38195D01*
X54895Y-36945D01*
X54894Y-36944D01*
X54895Y-36944D01*
X54891Y-36927D01*
X54878Y-36861D01*
X54877Y-36860D01*
X54831Y-36789D01*
X54828Y-36787D01*
X53920Y-35878D01*
X53920Y-35383D01*
X53945Y-35359D01*
X53989Y-35253D01*
X53989Y-35138D01*
X53945Y-35032D01*
X53864Y-34950D01*
X53758Y-34906D01*
X53643Y-34906D01*
X53537Y-34950D01*
X53455Y-35031D01*
X53411Y-35137D01*
X53411Y-35252D01*
X53455Y-35358D01*
X53480Y-35383D01*
X53480Y-35724D01*
X53070Y-35314D01*
X52998Y-35267D01*
X52914Y-35249D01*
X52909Y-35250D01*
X50530Y-35250D01*
X50543Y-35245D01*
X50625Y-35164D01*
X50669Y-35058D01*
X50669Y-34943D01*
X50625Y-34837D01*
X50544Y-34755D01*
X50438Y-34711D01*
X50323Y-34711D01*
X50217Y-34755D01*
X50191Y-34780D01*
X49890Y-34780D01*
X49805Y-34797D01*
X49776Y-34815D01*
X49734Y-34844D01*
X49732Y-34846D01*
X49484Y-35094D01*
X49446Y-35151D01*
X49367Y-35072D01*
X49194Y-35000D01*
X49007Y-35000D01*
X48834Y-35071D01*
X48702Y-35203D01*
X48630Y-35376D01*
X48630Y-35563D01*
X48701Y-35736D01*
X48833Y-35868D01*
X48998Y-35936D01*
X48910Y-35954D01*
X48878Y-36036D01*
X49100Y-36258D01*
X49171Y-36187D01*
X49383Y-36399D01*
X49312Y-36470D01*
X49383Y-36541D01*
X49171Y-36753D01*
X49100Y-36682D01*
X48888Y-36894D01*
X48888Y-36470D01*
X48666Y-36248D01*
X48584Y-36280D01*
X48551Y-36492D01*
X48584Y-36660D01*
X48666Y-36692D01*
X48888Y-36470D01*
X48888Y-36894D01*
X48878Y-36904D01*
X48903Y-36970D01*
X48878Y-37036D01*
X49100Y-37258D01*
X49171Y-37187D01*
X49322Y-37338D01*
X49383Y-37399D01*
X49322Y-37460D01*
X49312Y-37470D01*
X49383Y-37541D01*
X49171Y-37753D01*
X49100Y-37682D01*
X48888Y-37894D01*
X48888Y-37470D01*
X48666Y-37248D01*
X48584Y-37280D01*
X48551Y-37492D01*
X48584Y-37660D01*
X48666Y-37692D01*
X48888Y-37470D01*
X48888Y-37894D01*
X48878Y-37904D01*
X48903Y-37970D01*
X48878Y-38036D01*
X49100Y-38258D01*
X49171Y-38187D01*
X49322Y-38338D01*
X49383Y-38399D01*
X49322Y-38460D01*
X49312Y-38470D01*
X49534Y-38692D01*
X49616Y-38660D01*
X49630Y-38564D01*
X49701Y-38736D01*
X49786Y-38821D01*
X49404Y-39204D01*
X49357Y-39276D01*
X49339Y-39360D01*
X49340Y-39364D01*
X49340Y-39442D01*
X49322Y-39460D01*
X49322Y-39036D01*
X49296Y-38970D01*
X49322Y-38904D01*
X49100Y-38682D01*
X48888Y-38894D01*
X48888Y-38470D01*
X48666Y-38248D01*
X48584Y-38280D01*
X48551Y-38492D01*
X48584Y-38660D01*
X48666Y-38692D01*
X48888Y-38470D01*
X48888Y-38894D01*
X48878Y-38904D01*
X48903Y-38970D01*
X48878Y-39036D01*
X49100Y-39258D01*
X49322Y-39036D01*
X49322Y-39460D01*
X49312Y-39470D01*
X49340Y-39498D01*
X49340Y-39584D01*
X49171Y-39753D01*
X49100Y-39682D01*
X48888Y-39894D01*
X48888Y-39470D01*
X48666Y-39248D01*
X48584Y-39280D01*
X48551Y-39492D01*
X48584Y-39660D01*
X48666Y-39692D01*
X48888Y-39470D01*
X48888Y-39894D01*
X48878Y-39904D01*
X48903Y-39970D01*
X48878Y-40036D01*
X49100Y-40258D01*
X49171Y-40187D01*
X49322Y-40338D01*
X49340Y-40356D01*
X49340Y-40442D01*
X49322Y-40460D01*
X49312Y-40470D01*
X49340Y-40498D01*
X49340Y-40584D01*
X49171Y-40753D01*
X49100Y-40682D01*
X48888Y-40894D01*
X48888Y-40470D01*
X48666Y-40248D01*
X48584Y-40280D01*
X48551Y-40492D01*
X48584Y-40660D01*
X48666Y-40692D01*
X48888Y-40470D01*
X48888Y-40894D01*
X48878Y-40904D01*
X48903Y-40970D01*
X48878Y-41036D01*
X49100Y-41258D01*
X49171Y-41187D01*
X49322Y-41338D01*
X49340Y-41356D01*
X49340Y-41442D01*
X49322Y-41460D01*
X49312Y-41470D01*
X49340Y-41498D01*
X49340Y-41584D01*
X49171Y-41753D01*
X49100Y-41682D01*
X48888Y-41894D01*
X48888Y-41470D01*
X48666Y-41248D01*
X48584Y-41280D01*
X48551Y-41492D01*
X48584Y-41660D01*
X48666Y-41692D01*
X48888Y-41470D01*
X48888Y-41894D01*
X48878Y-41904D01*
X48903Y-41970D01*
X48878Y-42036D01*
X49100Y-42258D01*
X49171Y-42187D01*
X49322Y-42338D01*
X49340Y-42356D01*
X49340Y-42442D01*
X49322Y-42460D01*
X49312Y-42470D01*
X49340Y-42498D01*
X49340Y-42584D01*
X49171Y-42753D01*
X49100Y-42682D01*
X48888Y-42894D01*
X48888Y-42470D01*
X48666Y-42248D01*
X48584Y-42280D01*
X48551Y-42492D01*
X48584Y-42660D01*
X48666Y-42692D01*
X48888Y-42470D01*
X48888Y-42894D01*
X48878Y-42904D01*
X48903Y-42970D01*
X48878Y-43036D01*
X49100Y-43258D01*
X49171Y-43187D01*
X49322Y-43338D01*
X49340Y-43356D01*
X49340Y-43442D01*
X49322Y-43460D01*
X49312Y-43470D01*
X49340Y-43498D01*
X49340Y-43584D01*
X49171Y-43753D01*
X49100Y-43682D01*
X48888Y-43894D01*
X48888Y-43470D01*
X48666Y-43248D01*
X48584Y-43280D01*
X48551Y-43492D01*
X48584Y-43660D01*
X48666Y-43692D01*
X48888Y-43470D01*
X48888Y-43894D01*
X48878Y-43904D01*
X48908Y-43983D01*
X48884Y-43967D01*
X48800Y-43949D01*
X48795Y-43950D01*
X46700Y-43950D01*
X46700Y-43332D01*
X46700Y-42908D01*
X46699Y-42869D01*
X46699Y-42770D01*
X46661Y-42679D01*
X46591Y-42609D01*
X46499Y-42571D01*
X45762Y-42570D01*
X46499Y-42569D01*
X46591Y-42531D01*
X46661Y-42461D01*
X46699Y-42370D01*
X46699Y-42271D01*
X46700Y-42232D01*
X46700Y-41808D01*
X46699Y-41769D01*
X46699Y-41670D01*
X46661Y-41579D01*
X46591Y-41509D01*
X46557Y-41495D01*
X46591Y-41481D01*
X46661Y-41411D01*
X46699Y-41320D01*
X46699Y-41221D01*
X46700Y-41182D01*
X46700Y-40758D01*
X46699Y-40719D01*
X46699Y-40620D01*
X46661Y-40529D01*
X46591Y-40459D01*
X46499Y-40421D01*
X45762Y-40420D01*
X46499Y-40419D01*
X46591Y-40381D01*
X46661Y-40311D01*
X46699Y-40220D01*
X46699Y-40121D01*
X46700Y-40082D01*
X46700Y-39658D01*
X46699Y-39619D01*
X46699Y-39520D01*
X46661Y-39429D01*
X46591Y-39359D01*
X46499Y-39321D01*
X45762Y-39320D01*
X46499Y-39319D01*
X46591Y-39281D01*
X46661Y-39211D01*
X46699Y-39120D01*
X46699Y-39021D01*
X46700Y-38982D01*
X46700Y-38558D01*
X46699Y-38519D01*
X46699Y-38420D01*
X46661Y-38329D01*
X46591Y-38259D01*
X46557Y-38245D01*
X46591Y-38231D01*
X46661Y-38161D01*
X46699Y-38070D01*
X46699Y-37971D01*
X46700Y-37932D01*
X46700Y-37508D01*
X46699Y-37469D01*
X46699Y-37370D01*
X46661Y-37279D01*
X46591Y-37209D01*
X46499Y-37171D01*
X45762Y-37170D01*
X46499Y-37169D01*
X46591Y-37131D01*
X46661Y-37061D01*
X46699Y-36970D01*
X46699Y-36871D01*
X46700Y-36832D01*
X46700Y-36408D01*
X46699Y-36369D01*
X46699Y-36270D01*
X46661Y-36179D01*
X46591Y-36109D01*
X46557Y-36095D01*
X46591Y-36081D01*
X46661Y-36011D01*
X46699Y-35920D01*
X46699Y-35821D01*
X46700Y-35782D01*
X46700Y-35358D01*
X46699Y-35319D01*
X46699Y-35220D01*
X46661Y-35129D01*
X46591Y-35059D01*
X46499Y-35021D01*
X45762Y-35020D01*
X45700Y-35082D01*
X45700Y-35420D01*
X46638Y-35420D01*
X46700Y-35358D01*
X46700Y-35782D01*
X46638Y-35720D01*
X45700Y-35720D01*
X45700Y-36058D01*
X45737Y-36095D01*
X45700Y-36132D01*
X45700Y-36470D01*
X46638Y-36470D01*
X46700Y-36408D01*
X46700Y-36832D01*
X46638Y-36770D01*
X45700Y-36770D01*
X45700Y-37108D01*
X45762Y-37170D01*
X45700Y-37232D01*
X45700Y-37570D01*
X46638Y-37570D01*
X46700Y-37508D01*
X46700Y-37932D01*
X46638Y-37870D01*
X45700Y-37870D01*
X45700Y-38208D01*
X45737Y-38245D01*
X45700Y-38282D01*
X45700Y-38620D01*
X46638Y-38620D01*
X46700Y-38558D01*
X46700Y-38982D01*
X46638Y-38920D01*
X45700Y-38920D01*
X45700Y-39258D01*
X45762Y-39320D01*
X45700Y-39382D01*
X45700Y-39720D01*
X46638Y-39720D01*
X46700Y-39658D01*
X46700Y-40082D01*
X46638Y-40020D01*
X45700Y-40020D01*
X45700Y-40358D01*
X45762Y-40420D01*
X45700Y-40482D01*
X45700Y-40820D01*
X46638Y-40820D01*
X46700Y-40758D01*
X46700Y-41182D01*
X46638Y-41120D01*
X45700Y-41120D01*
X45700Y-41458D01*
X45737Y-41495D01*
X45700Y-41532D01*
X45700Y-41870D01*
X46638Y-41870D01*
X46700Y-41808D01*
X46700Y-42232D01*
X46638Y-42170D01*
X45700Y-42170D01*
X45700Y-42508D01*
X45762Y-42570D01*
X45700Y-42632D01*
X45700Y-42970D01*
X46638Y-42970D01*
X46700Y-42908D01*
X46700Y-43332D01*
X46638Y-43270D01*
X45700Y-43270D01*
X45700Y-43608D01*
X45762Y-43670D01*
X46499Y-43669D01*
X46591Y-43631D01*
X46661Y-43561D01*
X46699Y-43470D01*
X46699Y-43371D01*
X46700Y-43332D01*
X46700Y-43950D01*
X46620Y-43950D01*
X46620Y-43836D01*
X46594Y-43774D01*
X46546Y-43726D01*
X46484Y-43700D01*
X46416Y-43700D01*
X44450Y-43700D01*
X44450Y-43669D01*
X45138Y-43670D01*
X45200Y-43608D01*
X45200Y-43420D01*
X45200Y-43270D01*
X45200Y-42970D01*
X45200Y-42820D01*
X45200Y-42632D01*
X45138Y-42570D01*
X45200Y-42508D01*
X45200Y-42320D01*
X45200Y-42170D01*
X45200Y-41870D01*
X45200Y-41720D01*
X45200Y-41532D01*
X45163Y-41495D01*
X45200Y-41458D01*
X45200Y-41270D01*
X45200Y-41120D01*
X45200Y-40820D01*
X45200Y-40670D01*
X45200Y-40482D01*
X45138Y-40420D01*
X45200Y-40358D01*
X45200Y-40170D01*
X45200Y-40020D01*
X45200Y-39720D01*
X45200Y-39570D01*
X45200Y-39382D01*
X45138Y-39320D01*
X45200Y-39258D01*
X45200Y-39070D01*
X45200Y-38920D01*
X45200Y-38620D01*
X45200Y-38470D01*
X45200Y-38282D01*
X45163Y-38245D01*
X45200Y-38208D01*
X45200Y-38020D01*
X45200Y-37870D01*
X45200Y-37570D01*
X45200Y-37420D01*
X45200Y-37232D01*
X45138Y-37170D01*
X45200Y-37108D01*
X45200Y-36920D01*
X45200Y-36770D01*
X45200Y-36470D01*
X45200Y-36320D01*
X45200Y-36132D01*
X45163Y-36095D01*
X45200Y-36058D01*
X45200Y-35870D01*
X45200Y-35720D01*
X45200Y-35420D01*
X45200Y-35270D01*
X45200Y-35082D01*
X45138Y-35020D01*
X44450Y-35020D01*
X44450Y-32675D01*
X44477Y-32536D01*
X44553Y-32423D01*
X44666Y-32347D01*
X44805Y-32320D01*
X47995Y-32320D01*
X48134Y-32347D01*
X48247Y-32423D01*
X48323Y-32536D01*
X48350Y-32675D01*
X48350Y-34175D01*
X48383Y-34342D01*
X48481Y-34489D01*
X48628Y-34587D01*
X48795Y-34620D01*
X50505Y-34620D01*
X50672Y-34587D01*
X50819Y-34489D01*
X50917Y-34342D01*
X50950Y-34175D01*
X50950Y-32675D01*
X50977Y-32536D01*
X51053Y-32423D01*
X51166Y-32347D01*
X51305Y-32320D01*
X67995Y-32320D01*
X68134Y-32347D01*
X68247Y-32423D01*
X68323Y-32536D01*
X68350Y-32675D01*
X68350Y-34175D01*
X68383Y-34342D01*
X68481Y-34489D01*
X68628Y-34587D01*
X68795Y-34620D01*
X70195Y-34620D01*
X70334Y-34647D01*
X70447Y-34723D01*
X70523Y-34836D01*
X70550Y-34975D01*
X70550Y-48365D01*
M02*
