G04 (created by PCBNEW-RS274X (2012-apr-16-27)-stable) date Tuesday 03,June,2014 02:57:05 PM SGT*
G01*
G70*
G90*
%MOIN*%
G04 Gerber Fmt 3.4, Leading zero omitted, Abs format*
%FSLAX34Y34*%
G04 APERTURE LIST*
%ADD10C,0.006000*%
%ADD11C,0.015000*%
%ADD12R,0.055000X0.075000*%
%ADD13R,0.080000X0.080000*%
%ADD14C,0.080000*%
%ADD15C,0.120000*%
%ADD16R,0.090000X0.090000*%
%ADD17C,0.090000*%
%ADD18R,0.075000X0.075000*%
%ADD19C,0.075000*%
%ADD20O,0.157800X0.090900*%
%ADD21R,0.075000X0.055000*%
%ADD22R,0.080000X0.100000*%
%ADD23R,0.100000X0.080000*%
%ADD24R,0.164000X0.100000*%
%ADD25R,0.060000X0.100000*%
%ADD26R,0.082900X0.090900*%
G04 APERTURE END LIST*
G54D10*
G54D11*
X78592Y-46220D02*
X78570Y-46441D01*
X78505Y-46655D01*
X78401Y-46851D01*
X78260Y-47024D01*
X78088Y-47166D01*
X77892Y-47272D01*
X77679Y-47338D01*
X77457Y-47361D01*
X77237Y-47341D01*
X77023Y-47278D01*
X76825Y-47175D01*
X76651Y-47035D01*
X76508Y-46865D01*
X76401Y-46669D01*
X76333Y-46457D01*
X76309Y-46235D01*
X76327Y-46014D01*
X76389Y-45800D01*
X76491Y-45602D01*
X76629Y-45427D01*
X76799Y-45283D01*
X76993Y-45174D01*
X77205Y-45105D01*
X77427Y-45079D01*
X77648Y-45096D01*
X77862Y-45156D01*
X78061Y-45256D01*
X78237Y-45393D01*
X78383Y-45562D01*
X78493Y-45756D01*
X78563Y-45967D01*
X78591Y-46189D01*
X78592Y-46220D01*
X78592Y-29520D02*
X78570Y-29741D01*
X78505Y-29955D01*
X78401Y-30151D01*
X78260Y-30324D01*
X78088Y-30466D01*
X77892Y-30572D01*
X77679Y-30638D01*
X77457Y-30661D01*
X77237Y-30641D01*
X77023Y-30578D01*
X76825Y-30475D01*
X76651Y-30335D01*
X76508Y-30165D01*
X76401Y-29969D01*
X76333Y-29757D01*
X76309Y-29535D01*
X76327Y-29314D01*
X76389Y-29100D01*
X76491Y-28902D01*
X76629Y-28727D01*
X76799Y-28583D01*
X76993Y-28474D01*
X77205Y-28405D01*
X77427Y-28379D01*
X77648Y-28396D01*
X77862Y-28456D01*
X78061Y-28556D01*
X78237Y-28693D01*
X78383Y-28862D01*
X78493Y-29056D01*
X78563Y-29267D01*
X78591Y-29489D01*
X78592Y-29520D01*
X41792Y-46220D02*
X41770Y-46441D01*
X41705Y-46655D01*
X41601Y-46851D01*
X41460Y-47024D01*
X41288Y-47166D01*
X41092Y-47272D01*
X40879Y-47338D01*
X40657Y-47361D01*
X40437Y-47341D01*
X40223Y-47278D01*
X40025Y-47175D01*
X39851Y-47035D01*
X39708Y-46865D01*
X39601Y-46669D01*
X39533Y-46457D01*
X39509Y-46235D01*
X39527Y-46014D01*
X39589Y-45800D01*
X39691Y-45602D01*
X39829Y-45427D01*
X39999Y-45283D01*
X40193Y-45174D01*
X40405Y-45105D01*
X40627Y-45079D01*
X40848Y-45096D01*
X41062Y-45156D01*
X41261Y-45256D01*
X41437Y-45393D01*
X41583Y-45562D01*
X41693Y-45756D01*
X41763Y-45967D01*
X41791Y-46189D01*
X41792Y-46220D01*
X41792Y-29520D02*
X41770Y-29741D01*
X41705Y-29955D01*
X41601Y-30151D01*
X41460Y-30324D01*
X41288Y-30466D01*
X41092Y-30572D01*
X40879Y-30638D01*
X40657Y-30661D01*
X40437Y-30641D01*
X40223Y-30578D01*
X40025Y-30475D01*
X39851Y-30335D01*
X39708Y-30165D01*
X39601Y-29969D01*
X39533Y-29757D01*
X39509Y-29535D01*
X39527Y-29314D01*
X39589Y-29100D01*
X39691Y-28902D01*
X39829Y-28727D01*
X39999Y-28583D01*
X40193Y-28474D01*
X40405Y-28405D01*
X40627Y-28379D01*
X40848Y-28396D01*
X41062Y-28456D01*
X41261Y-28556D01*
X41437Y-28693D01*
X41583Y-28862D01*
X41693Y-29056D01*
X41763Y-29267D01*
X41791Y-29489D01*
X41792Y-29520D01*
G54D12*
X64775Y-31470D03*
X64025Y-31470D03*
X76025Y-36170D03*
X76775Y-36170D03*
G54D13*
X70500Y-29950D03*
G54D14*
X71500Y-29790D03*
X72500Y-29950D03*
X73500Y-29790D03*
X74500Y-29950D03*
X75500Y-29790D03*
G54D13*
X66000Y-30870D03*
G54D14*
X66000Y-29870D03*
X67000Y-30870D03*
X67000Y-29870D03*
X68000Y-30870D03*
X68000Y-29870D03*
X69000Y-30870D03*
X69000Y-29870D03*
G54D15*
X41700Y-34538D03*
X41700Y-32570D03*
X41700Y-38938D03*
X41700Y-36970D03*
G54D13*
X71200Y-45870D03*
G54D14*
X71200Y-44870D03*
X72200Y-45870D03*
X72200Y-44870D03*
X73200Y-45870D03*
X73200Y-44870D03*
X74200Y-45870D03*
X74200Y-44870D03*
X75200Y-45870D03*
X75200Y-44870D03*
G54D13*
X64200Y-45870D03*
G54D14*
X64200Y-44870D03*
X65200Y-45870D03*
X65200Y-44870D03*
X66200Y-45870D03*
X66200Y-44870D03*
X67200Y-45870D03*
X67200Y-44870D03*
X68200Y-45870D03*
X68200Y-44870D03*
X69200Y-45870D03*
X69200Y-44870D03*
G54D13*
X57900Y-44670D03*
G54D14*
X57900Y-45670D03*
X56900Y-44670D03*
X56900Y-45670D03*
X55900Y-44670D03*
X55900Y-45670D03*
G54D13*
X57900Y-35670D03*
G54D14*
X57900Y-36670D03*
X56900Y-35670D03*
X56900Y-36670D03*
X55900Y-35670D03*
X55900Y-36670D03*
G54D13*
X49100Y-35670D03*
G54D14*
X49100Y-36670D03*
X48100Y-35670D03*
X48100Y-36670D03*
X47100Y-35670D03*
X47100Y-36670D03*
G54D13*
X49100Y-44670D03*
G54D14*
X49100Y-45670D03*
X48100Y-44670D03*
X48100Y-45670D03*
X47100Y-44670D03*
X47100Y-45670D03*
G54D16*
X55900Y-39070D03*
G54D17*
X57900Y-39070D03*
G54D16*
X47100Y-39070D03*
G54D17*
X49100Y-39070D03*
G54D16*
X55900Y-30070D03*
G54D17*
X57900Y-30070D03*
G54D16*
X47100Y-30070D03*
G54D17*
X49100Y-30070D03*
G54D18*
X64000Y-41370D03*
G54D19*
X65000Y-41370D03*
X66000Y-41370D03*
X67000Y-41370D03*
X68000Y-41370D03*
X69000Y-41370D03*
X70000Y-41370D03*
X71000Y-41370D03*
X71000Y-38370D03*
X70000Y-38370D03*
X69000Y-38370D03*
X68000Y-38370D03*
X67000Y-38370D03*
X66000Y-38370D03*
X65000Y-38370D03*
X64000Y-38370D03*
X65000Y-35270D03*
X66000Y-35270D03*
X67000Y-35270D03*
X68000Y-35270D03*
X69000Y-35270D03*
X70000Y-35270D03*
X71000Y-35270D03*
X72000Y-35270D03*
X73000Y-35270D03*
X74000Y-35270D03*
X75000Y-35270D03*
X76000Y-35270D03*
X77000Y-35270D03*
G54D18*
X64000Y-35270D03*
G54D19*
X77000Y-32270D03*
X76000Y-32270D03*
X75000Y-32270D03*
X74000Y-32270D03*
X73000Y-32270D03*
X72000Y-32270D03*
X71000Y-32270D03*
X70000Y-32270D03*
X69000Y-32270D03*
X68000Y-32270D03*
X67000Y-32270D03*
X66000Y-32270D03*
X65000Y-32270D03*
X64000Y-32270D03*
G54D20*
X52500Y-43870D03*
X52500Y-42870D03*
X52500Y-41870D03*
X52500Y-40870D03*
X61300Y-43870D03*
X61300Y-42870D03*
X61300Y-41870D03*
X61300Y-40870D03*
X61300Y-34870D03*
X61300Y-33870D03*
X61300Y-32870D03*
X61300Y-31870D03*
X52500Y-34870D03*
X52500Y-33870D03*
X52500Y-32870D03*
X52500Y-31870D03*
G54D13*
X54400Y-29870D03*
G54D14*
X59400Y-29870D03*
X54400Y-30870D03*
X59400Y-30870D03*
X54400Y-31870D03*
X59400Y-31870D03*
X54400Y-32870D03*
X59400Y-32870D03*
X54400Y-33870D03*
X59400Y-33870D03*
X54400Y-34870D03*
X59400Y-34870D03*
X54400Y-35870D03*
X59400Y-35870D03*
X54400Y-36870D03*
X59400Y-36870D03*
G54D13*
X54400Y-38870D03*
G54D14*
X59400Y-38870D03*
X54400Y-39870D03*
X59400Y-39870D03*
X54400Y-40870D03*
X59400Y-40870D03*
X54400Y-41870D03*
X59400Y-41870D03*
X54400Y-42870D03*
X59400Y-42870D03*
X54400Y-43870D03*
X59400Y-43870D03*
X54400Y-44870D03*
X59400Y-44870D03*
X54400Y-45870D03*
X59400Y-45870D03*
G54D13*
X45600Y-29870D03*
G54D14*
X50600Y-29870D03*
X45600Y-30870D03*
X50600Y-30870D03*
X45600Y-31870D03*
X50600Y-31870D03*
X45600Y-32870D03*
X50600Y-32870D03*
X45600Y-33870D03*
X50600Y-33870D03*
X45600Y-34870D03*
X50600Y-34870D03*
X45600Y-35870D03*
X50600Y-35870D03*
X45600Y-36870D03*
X50600Y-36870D03*
G54D13*
X45600Y-38870D03*
G54D14*
X50600Y-38870D03*
X45600Y-39870D03*
X50600Y-39870D03*
X45600Y-40870D03*
X50600Y-40870D03*
X45600Y-41870D03*
X50600Y-41870D03*
X45600Y-42870D03*
X50600Y-42870D03*
X45600Y-43870D03*
X50600Y-43870D03*
X45600Y-44870D03*
X50600Y-44870D03*
X45600Y-45870D03*
X50600Y-45870D03*
G54D13*
X64000Y-36550D03*
G54D14*
X65000Y-36390D03*
X66000Y-36550D03*
X67000Y-36390D03*
X68000Y-36550D03*
X69000Y-36390D03*
G54D21*
X62700Y-38695D03*
X62700Y-39445D03*
G54D12*
X72825Y-39670D03*
X73575Y-39670D03*
X53275Y-39870D03*
X52525Y-39870D03*
X53375Y-30870D03*
X52625Y-30870D03*
X60325Y-45770D03*
X61075Y-45770D03*
X53375Y-30070D03*
X52625Y-30070D03*
G54D21*
X74600Y-40595D03*
X74600Y-41345D03*
X75400Y-40595D03*
X75400Y-41345D03*
X76200Y-40595D03*
X76200Y-41345D03*
X75400Y-39945D03*
X75400Y-39195D03*
X74600Y-39945D03*
X74600Y-39195D03*
X44400Y-43995D03*
X44400Y-44745D03*
G54D12*
X73575Y-38870D03*
X72825Y-38870D03*
X72825Y-41470D03*
X73575Y-41470D03*
X64675Y-37470D03*
X63925Y-37470D03*
G54D22*
X71850Y-31270D03*
X73150Y-31270D03*
G54D23*
X40700Y-42520D03*
X40700Y-43820D03*
X40700Y-41720D03*
X40700Y-40420D03*
G54D24*
X42700Y-43570D03*
G54D25*
X42700Y-40970D03*
X41800Y-40970D03*
X43600Y-40970D03*
G54D26*
X72641Y-40470D03*
X73759Y-40470D03*
X42341Y-44770D03*
X43459Y-44770D03*
G54D18*
X44500Y-33970D03*
G54D19*
X44500Y-31970D03*
M02*
