G04 (created by PCBNEW-RS274X (2012-apr-16-27)-stable) date Tuesday 03,June,2014 02:57:05 PM SGT*
G01*
G70*
G90*
%MOIN*%
G04 Gerber Fmt 3.4, Leading zero omitted, Abs format*
%FSLAX34Y34*%
G04 APERTURE LIST*
%ADD10C,0.006000*%
%ADD11R,0.035000X0.055000*%
%ADD12R,0.060000X0.060000*%
%ADD13C,0.060000*%
%ADD14C,0.100000*%
%ADD15R,0.070000X0.070000*%
%ADD16C,0.070000*%
%ADD17R,0.055000X0.055000*%
%ADD18C,0.055000*%
%ADD19O,0.137800X0.070900*%
%ADD20R,0.055000X0.035000*%
%ADD21R,0.060000X0.080000*%
%ADD22R,0.080000X0.060000*%
%ADD23R,0.144000X0.080000*%
%ADD24R,0.040000X0.080000*%
%ADD25R,0.062900X0.070900*%
%ADD26C,0.045000*%
%ADD27C,0.024000*%
%ADD28C,0.080000*%
%ADD29C,0.010000*%
%ADD30C,0.016000*%
%ADD31C,0.032000*%
%ADD32C,0.020000*%
%ADD33C,0.008000*%
%ADD34C,0.012000*%
G04 APERTURE END LIST*
G54D10*
G54D11*
X64775Y-31470D03*
X64025Y-31470D03*
X76025Y-36170D03*
X76775Y-36170D03*
G54D12*
X70500Y-29950D03*
G54D13*
X71500Y-29790D03*
X72500Y-29950D03*
X73500Y-29790D03*
X74500Y-29950D03*
X75500Y-29790D03*
G54D12*
X66000Y-30870D03*
G54D13*
X66000Y-29870D03*
X67000Y-30870D03*
X67000Y-29870D03*
X68000Y-30870D03*
X68000Y-29870D03*
X69000Y-30870D03*
X69000Y-29870D03*
G54D14*
X41700Y-34538D03*
X41700Y-32570D03*
X41700Y-38938D03*
X41700Y-36970D03*
G54D12*
X71200Y-45870D03*
G54D13*
X71200Y-44870D03*
X72200Y-45870D03*
X72200Y-44870D03*
X73200Y-45870D03*
X73200Y-44870D03*
X74200Y-45870D03*
X74200Y-44870D03*
X75200Y-45870D03*
X75200Y-44870D03*
G54D12*
X64200Y-45870D03*
G54D13*
X64200Y-44870D03*
X65200Y-45870D03*
X65200Y-44870D03*
X66200Y-45870D03*
X66200Y-44870D03*
X67200Y-45870D03*
X67200Y-44870D03*
X68200Y-45870D03*
X68200Y-44870D03*
X69200Y-45870D03*
X69200Y-44870D03*
G54D12*
X57900Y-44670D03*
G54D13*
X57900Y-45670D03*
X56900Y-44670D03*
X56900Y-45670D03*
X55900Y-44670D03*
X55900Y-45670D03*
G54D12*
X57900Y-35670D03*
G54D13*
X57900Y-36670D03*
X56900Y-35670D03*
X56900Y-36670D03*
X55900Y-35670D03*
X55900Y-36670D03*
G54D12*
X49100Y-35670D03*
G54D13*
X49100Y-36670D03*
X48100Y-35670D03*
X48100Y-36670D03*
X47100Y-35670D03*
X47100Y-36670D03*
G54D12*
X49100Y-44670D03*
G54D13*
X49100Y-45670D03*
X48100Y-44670D03*
X48100Y-45670D03*
X47100Y-44670D03*
X47100Y-45670D03*
G54D15*
X55900Y-39070D03*
G54D16*
X57900Y-39070D03*
G54D15*
X47100Y-39070D03*
G54D16*
X49100Y-39070D03*
G54D15*
X55900Y-30070D03*
G54D16*
X57900Y-30070D03*
G54D15*
X47100Y-30070D03*
G54D16*
X49100Y-30070D03*
G54D17*
X64000Y-41370D03*
G54D18*
X65000Y-41370D03*
X66000Y-41370D03*
X67000Y-41370D03*
X68000Y-41370D03*
X69000Y-41370D03*
X70000Y-41370D03*
X71000Y-41370D03*
X71000Y-38370D03*
X70000Y-38370D03*
X69000Y-38370D03*
X68000Y-38370D03*
X67000Y-38370D03*
X66000Y-38370D03*
X65000Y-38370D03*
X64000Y-38370D03*
X65000Y-35270D03*
X66000Y-35270D03*
X67000Y-35270D03*
X68000Y-35270D03*
X69000Y-35270D03*
X70000Y-35270D03*
X71000Y-35270D03*
X72000Y-35270D03*
X73000Y-35270D03*
X74000Y-35270D03*
X75000Y-35270D03*
X76000Y-35270D03*
X77000Y-35270D03*
G54D17*
X64000Y-35270D03*
G54D18*
X77000Y-32270D03*
X76000Y-32270D03*
X75000Y-32270D03*
X74000Y-32270D03*
X73000Y-32270D03*
X72000Y-32270D03*
X71000Y-32270D03*
X70000Y-32270D03*
X69000Y-32270D03*
X68000Y-32270D03*
X67000Y-32270D03*
X66000Y-32270D03*
X65000Y-32270D03*
X64000Y-32270D03*
G54D19*
X52500Y-43870D03*
X52500Y-42870D03*
X52500Y-41870D03*
X52500Y-40870D03*
X61300Y-43870D03*
X61300Y-42870D03*
X61300Y-41870D03*
X61300Y-40870D03*
X61300Y-34870D03*
X61300Y-33870D03*
X61300Y-32870D03*
X61300Y-31870D03*
X52500Y-34870D03*
X52500Y-33870D03*
X52500Y-32870D03*
X52500Y-31870D03*
G54D12*
X54400Y-29870D03*
G54D13*
X59400Y-29870D03*
X54400Y-30870D03*
X59400Y-30870D03*
X54400Y-31870D03*
X59400Y-31870D03*
X54400Y-32870D03*
X59400Y-32870D03*
X54400Y-33870D03*
X59400Y-33870D03*
X54400Y-34870D03*
X59400Y-34870D03*
X54400Y-35870D03*
X59400Y-35870D03*
X54400Y-36870D03*
X59400Y-36870D03*
G54D12*
X54400Y-38870D03*
G54D13*
X59400Y-38870D03*
X54400Y-39870D03*
X59400Y-39870D03*
X54400Y-40870D03*
X59400Y-40870D03*
X54400Y-41870D03*
X59400Y-41870D03*
X54400Y-42870D03*
X59400Y-42870D03*
X54400Y-43870D03*
X59400Y-43870D03*
X54400Y-44870D03*
X59400Y-44870D03*
X54400Y-45870D03*
X59400Y-45870D03*
G54D12*
X45600Y-29870D03*
G54D13*
X50600Y-29870D03*
X45600Y-30870D03*
X50600Y-30870D03*
X45600Y-31870D03*
X50600Y-31870D03*
X45600Y-32870D03*
X50600Y-32870D03*
X45600Y-33870D03*
X50600Y-33870D03*
X45600Y-34870D03*
X50600Y-34870D03*
X45600Y-35870D03*
X50600Y-35870D03*
X45600Y-36870D03*
X50600Y-36870D03*
G54D12*
X45600Y-38870D03*
G54D13*
X50600Y-38870D03*
X45600Y-39870D03*
X50600Y-39870D03*
X45600Y-40870D03*
X50600Y-40870D03*
X45600Y-41870D03*
X50600Y-41870D03*
X45600Y-42870D03*
X50600Y-42870D03*
X45600Y-43870D03*
X50600Y-43870D03*
X45600Y-44870D03*
X50600Y-44870D03*
X45600Y-45870D03*
X50600Y-45870D03*
G54D12*
X64000Y-36550D03*
G54D13*
X65000Y-36390D03*
X66000Y-36550D03*
X67000Y-36390D03*
X68000Y-36550D03*
X69000Y-36390D03*
G54D20*
X62700Y-38695D03*
X62700Y-39445D03*
G54D11*
X72825Y-39670D03*
X73575Y-39670D03*
X53275Y-39870D03*
X52525Y-39870D03*
X53375Y-30870D03*
X52625Y-30870D03*
X60325Y-45770D03*
X61075Y-45770D03*
X53375Y-30070D03*
X52625Y-30070D03*
G54D20*
X74600Y-40595D03*
X74600Y-41345D03*
X75400Y-40595D03*
X75400Y-41345D03*
X76200Y-40595D03*
X76200Y-41345D03*
X75400Y-39945D03*
X75400Y-39195D03*
X74600Y-39945D03*
X74600Y-39195D03*
X44400Y-43995D03*
X44400Y-44745D03*
G54D11*
X73575Y-38870D03*
X72825Y-38870D03*
X72825Y-41470D03*
X73575Y-41470D03*
X64675Y-37470D03*
X63925Y-37470D03*
G54D21*
X71850Y-31270D03*
X73150Y-31270D03*
G54D22*
X40700Y-42520D03*
X40700Y-43820D03*
X40700Y-41720D03*
X40700Y-40420D03*
G54D23*
X42700Y-43570D03*
G54D24*
X42700Y-40970D03*
X41800Y-40970D03*
X43600Y-40970D03*
G54D25*
X72641Y-40470D03*
X73759Y-40470D03*
X42341Y-44770D03*
X43459Y-44770D03*
G54D17*
X44500Y-33970D03*
G54D18*
X44500Y-31970D03*
G54D26*
X42700Y-42570D03*
X42700Y-42150D03*
X42700Y-41660D03*
G54D27*
X60600Y-37040D03*
X76055Y-39945D03*
X46540Y-39530D03*
X53450Y-38600D03*
X45200Y-37270D03*
X74600Y-39545D03*
X75400Y-39545D03*
X76200Y-40995D03*
X69110Y-34750D03*
X69030Y-33580D03*
X68220Y-33600D03*
X53430Y-39050D03*
X53780Y-39050D03*
G54D28*
X47800Y-28970D02*
X46200Y-28970D01*
X43700Y-36770D02*
X43700Y-32770D01*
X55000Y-37970D02*
X51500Y-37970D01*
X47100Y-39070D02*
X47100Y-38870D01*
X50600Y-29870D02*
X51500Y-28970D01*
X47100Y-30070D02*
X47100Y-29670D01*
X55900Y-29870D02*
X55000Y-28970D01*
X58500Y-37970D02*
X56800Y-37970D01*
X50600Y-38870D02*
X49700Y-37970D01*
X55900Y-38870D02*
X55000Y-37970D01*
X55900Y-39070D02*
X55900Y-38870D01*
X50600Y-29870D02*
X49700Y-28970D01*
X48000Y-37970D02*
X46200Y-37970D01*
X55900Y-38870D02*
X56800Y-37970D01*
X51246Y-38224D02*
X51500Y-37970D01*
X51500Y-37970D02*
X50600Y-38870D01*
X47100Y-30070D02*
X47100Y-29870D01*
X49954Y-38224D02*
X51246Y-38224D01*
X55900Y-30070D02*
X55900Y-29670D01*
X49700Y-37970D02*
X48000Y-37970D01*
X49700Y-28970D02*
X51500Y-28970D01*
X44500Y-29570D02*
X44500Y-31970D01*
X56800Y-37970D02*
X55000Y-37970D01*
X56600Y-28970D02*
X58500Y-28970D01*
X46200Y-28970D02*
X45100Y-28970D01*
X45100Y-28970D02*
X44500Y-29570D01*
X47100Y-38870D02*
X48000Y-37970D01*
X43700Y-32770D02*
X44500Y-31970D01*
X58500Y-28970D02*
X59400Y-29870D01*
X47100Y-29670D02*
X47800Y-28970D01*
X46200Y-37970D02*
X44900Y-37970D01*
X47100Y-29870D02*
X46200Y-28970D01*
X59400Y-38870D02*
X58500Y-37970D01*
X49700Y-37970D02*
X49954Y-38224D01*
X49700Y-28970D02*
X47800Y-28970D01*
X55000Y-28970D02*
X56600Y-28970D01*
X55900Y-30070D02*
X55900Y-29870D01*
X55900Y-29670D02*
X56600Y-28970D01*
X47100Y-38870D02*
X46200Y-37970D01*
X51500Y-28970D02*
X55000Y-28970D01*
X44900Y-37970D02*
X43700Y-36770D01*
G54D29*
X64630Y-35700D02*
X65000Y-36070D01*
X64675Y-37470D02*
X65000Y-37145D01*
X64520Y-35700D02*
X64630Y-35700D01*
X65000Y-37145D02*
X65000Y-36390D01*
G54D30*
X53700Y-35870D02*
X54200Y-35370D01*
X48100Y-36670D02*
X49100Y-36670D01*
X56900Y-36670D02*
X57900Y-36670D01*
G54D29*
X63390Y-35700D02*
X62050Y-37040D01*
G54D30*
X55900Y-45670D02*
X56900Y-45670D01*
X57900Y-45670D02*
X58700Y-44870D01*
G54D31*
X64000Y-31495D02*
X64025Y-31470D01*
G54D29*
X62050Y-37040D02*
X60600Y-37040D01*
G54D31*
X64000Y-32270D02*
X64000Y-31495D01*
G54D29*
X65000Y-36070D02*
X65000Y-36390D01*
G54D30*
X49100Y-45670D02*
X48100Y-45670D01*
X56900Y-45670D02*
X57900Y-45670D01*
G54D31*
X42700Y-40970D02*
X42700Y-41660D01*
G54D30*
X49900Y-44870D02*
X50600Y-44870D01*
G54D29*
X64500Y-35700D02*
X64520Y-35700D01*
X64520Y-35700D02*
X63390Y-35700D01*
X41800Y-42970D02*
X42375Y-42395D01*
X42341Y-44770D02*
X41800Y-44229D01*
G54D30*
X58700Y-44870D02*
X59400Y-44870D01*
X54190Y-46360D02*
X55210Y-46360D01*
X50600Y-44870D02*
X52700Y-44870D01*
G54D31*
X42380Y-42395D02*
X40825Y-42395D01*
X76000Y-36145D02*
X76025Y-36170D01*
G54D29*
X41800Y-44229D02*
X41800Y-42970D01*
G54D31*
X42380Y-42395D02*
X42455Y-42395D01*
G54D30*
X49800Y-36670D02*
X50600Y-35870D01*
X54600Y-35370D02*
X55900Y-36670D01*
X54200Y-35370D02*
X54600Y-35370D01*
G54D31*
X42455Y-42395D02*
X42700Y-42150D01*
G54D30*
X49100Y-45670D02*
X49900Y-44870D01*
G54D31*
X76000Y-35270D02*
X76000Y-36145D01*
G54D30*
X50600Y-35870D02*
X53700Y-35870D01*
X52700Y-44870D02*
X54190Y-46360D01*
X47100Y-36670D02*
X48100Y-36670D01*
X49100Y-36670D02*
X49800Y-36670D01*
X48100Y-45670D02*
X47100Y-45670D01*
G54D31*
X42700Y-42150D02*
X42700Y-42570D01*
G54D30*
X55900Y-36670D02*
X56900Y-36670D01*
G54D31*
X42375Y-42395D02*
X42380Y-42395D01*
X40825Y-42395D02*
X40700Y-42520D01*
G54D30*
X55210Y-46360D02*
X55900Y-45670D01*
G54D31*
X42700Y-41660D02*
X42700Y-42150D01*
G54D29*
X74600Y-39945D02*
X75400Y-39945D01*
X76055Y-39945D02*
X75400Y-39945D01*
G54D31*
X63025Y-38370D02*
X64000Y-38370D01*
G54D29*
X75400Y-40595D02*
X74600Y-40595D01*
G54D31*
X41800Y-41470D02*
X41800Y-40970D01*
X41800Y-39038D02*
X41700Y-38938D01*
X62700Y-38695D02*
X63025Y-38370D01*
G54D29*
X74600Y-40595D02*
X74600Y-39945D01*
X76200Y-40595D02*
X75400Y-40595D01*
G54D31*
X41550Y-41720D02*
X41800Y-41470D01*
X41800Y-40970D02*
X41800Y-39038D01*
X40700Y-41720D02*
X41550Y-41720D01*
G54D29*
X68000Y-35270D02*
X67570Y-34840D01*
X59680Y-37540D02*
X59110Y-37540D01*
X63270Y-35220D02*
X63270Y-35530D01*
X63650Y-34840D02*
X63270Y-35220D01*
X63270Y-35530D02*
X62051Y-36749D01*
X59110Y-37540D02*
X58902Y-37332D01*
X58902Y-37332D02*
X54862Y-37332D01*
X54862Y-37332D02*
X54400Y-36870D01*
X68000Y-38370D02*
X68000Y-36550D01*
X62051Y-36749D02*
X60471Y-36749D01*
X68000Y-36550D02*
X68000Y-35270D01*
X67570Y-34840D02*
X63650Y-34840D01*
X60471Y-36749D02*
X59680Y-37540D01*
X63566Y-34638D02*
X68198Y-34638D01*
X68500Y-34940D02*
X68500Y-35410D01*
X55660Y-37130D02*
X59000Y-37130D01*
X59000Y-37130D02*
X59200Y-37330D01*
X63068Y-35136D02*
X63566Y-34638D01*
X61967Y-36537D02*
X63068Y-35436D01*
X68198Y-34638D02*
X68500Y-34940D01*
X70000Y-38370D02*
X70000Y-35270D01*
X63068Y-35436D02*
X63068Y-35136D01*
X54400Y-35870D02*
X55660Y-37130D01*
X59200Y-37330D02*
X59590Y-37330D01*
X69540Y-35730D02*
X70000Y-35270D01*
X68500Y-35410D02*
X68820Y-35730D01*
X60383Y-36537D02*
X61967Y-36537D01*
X59590Y-37330D02*
X60383Y-36537D01*
X68820Y-35730D02*
X69540Y-35730D01*
X67000Y-32270D02*
X67000Y-30870D01*
X55466Y-30936D02*
X54400Y-29870D01*
X63488Y-34430D02*
X68280Y-34430D01*
X55466Y-34378D02*
X55894Y-34806D01*
X69600Y-34670D02*
X69000Y-35270D01*
X53620Y-38770D02*
X54300Y-38770D01*
X69000Y-41370D02*
X69000Y-40570D01*
X61886Y-36330D02*
X62866Y-35350D01*
X70500Y-39070D02*
X70500Y-35070D01*
X55466Y-30936D02*
X55466Y-34378D01*
X55894Y-34806D02*
X58536Y-34806D01*
X69000Y-40570D02*
X70500Y-39070D01*
X59210Y-36330D02*
X61886Y-36330D01*
X58940Y-35210D02*
X58940Y-36060D01*
X45600Y-29870D02*
X45052Y-30418D01*
X53450Y-38600D02*
X53620Y-38770D01*
X58940Y-36060D02*
X59210Y-36330D01*
X62866Y-35052D02*
X63488Y-34430D01*
X45600Y-38870D02*
X46260Y-39530D01*
X69000Y-35270D02*
X69000Y-35150D01*
X45052Y-37122D02*
X45200Y-37270D01*
X68280Y-34430D02*
X69000Y-35150D01*
X45052Y-30418D02*
X45052Y-37122D01*
X54300Y-38770D02*
X54400Y-38870D01*
X70500Y-35070D02*
X70100Y-34670D01*
X62866Y-35350D02*
X62866Y-35052D01*
X58536Y-34806D02*
X58940Y-35210D01*
X70100Y-34670D02*
X69600Y-34670D01*
X46260Y-39530D02*
X46540Y-39530D01*
X74600Y-39545D02*
X74600Y-39195D01*
X73660Y-30250D02*
X72800Y-30250D01*
X74000Y-32270D02*
X74000Y-30590D01*
X71500Y-44570D02*
X71200Y-44870D01*
X74000Y-30590D02*
X73660Y-30250D01*
X71500Y-44570D02*
X71500Y-34770D01*
X71500Y-34770D02*
X74000Y-32270D01*
X72800Y-30250D02*
X72500Y-29950D01*
X75400Y-39195D02*
X75400Y-39545D01*
X71702Y-44372D02*
X72200Y-44870D01*
X75000Y-31290D02*
X73500Y-29790D01*
X72500Y-34770D02*
X72500Y-35800D01*
X71702Y-36598D02*
X71702Y-44372D01*
X72500Y-35800D02*
X71702Y-36598D01*
X75000Y-32270D02*
X72500Y-34770D01*
X75000Y-32270D02*
X75000Y-31290D01*
X71904Y-37006D02*
X71904Y-43574D01*
X76000Y-32270D02*
X73500Y-34770D01*
X71904Y-43574D02*
X73200Y-44870D01*
X76000Y-32270D02*
X76000Y-31450D01*
X76000Y-31450D02*
X74500Y-29950D01*
X73500Y-34770D02*
X73500Y-35410D01*
X76200Y-41345D02*
X76200Y-40995D01*
X73500Y-35410D02*
X71904Y-37006D01*
X72110Y-42780D02*
X73200Y-43870D01*
X75400Y-41345D02*
X75050Y-40995D01*
X75050Y-40995D02*
X73275Y-40995D01*
X73200Y-41070D02*
X73200Y-43870D01*
X74500Y-35380D02*
X74180Y-35700D01*
X77000Y-32270D02*
X74500Y-34770D01*
X74180Y-35700D02*
X73510Y-35700D01*
X72110Y-37100D02*
X72110Y-42780D01*
X73200Y-43870D02*
X74200Y-44870D01*
X73275Y-40995D02*
X73200Y-41070D01*
X74500Y-34770D02*
X74500Y-35380D01*
X73510Y-35700D02*
X72110Y-37100D01*
X72312Y-39470D02*
X72312Y-37184D01*
X72825Y-40286D02*
X72825Y-39670D01*
X72825Y-41470D02*
X72825Y-40654D01*
X73586Y-35910D02*
X75090Y-35910D01*
X75800Y-34770D02*
X75500Y-35070D01*
X72825Y-40654D02*
X72641Y-40470D01*
X72312Y-37184D02*
X73586Y-35910D01*
X72512Y-39670D02*
X72312Y-39470D01*
X72825Y-39670D02*
X72512Y-39670D01*
X75090Y-35910D02*
X75500Y-35500D01*
X76500Y-34770D02*
X75800Y-34770D01*
X75500Y-35500D02*
X75500Y-35070D01*
X72641Y-40470D02*
X72825Y-40286D01*
X76500Y-34770D02*
X77000Y-35270D01*
X69110Y-34750D02*
X68510Y-34150D01*
X68510Y-33596D02*
X69406Y-32700D01*
X63925Y-37470D02*
X63925Y-36625D01*
X68510Y-34150D02*
X68510Y-33596D01*
X63925Y-36625D02*
X64000Y-36550D01*
X69406Y-32700D02*
X70180Y-32700D01*
X70180Y-32700D02*
X70430Y-32450D01*
X71500Y-29930D02*
X71500Y-29790D01*
X70430Y-32450D02*
X70430Y-31000D01*
X70430Y-31000D02*
X71500Y-29930D01*
X69000Y-30870D02*
X69920Y-29950D01*
X69920Y-29950D02*
X70500Y-29950D01*
X69000Y-31270D02*
X70000Y-32270D01*
X69000Y-30870D02*
X69000Y-31270D01*
X68000Y-30870D02*
X68000Y-32270D01*
X65500Y-40870D02*
X65500Y-35770D01*
X65500Y-35770D02*
X65000Y-35270D01*
X65000Y-41370D02*
X65500Y-40870D01*
X66500Y-35770D02*
X66000Y-35270D01*
X66500Y-37870D02*
X66500Y-35770D01*
X66000Y-38370D02*
X66500Y-37870D01*
X67500Y-36890D02*
X67000Y-36390D01*
X67000Y-41370D02*
X67500Y-40870D01*
X67000Y-36390D02*
X67000Y-35270D01*
X67500Y-40870D02*
X67500Y-36890D01*
X66000Y-32270D02*
X66000Y-30870D01*
X69030Y-33580D02*
X69030Y-33362D01*
X49928Y-37418D02*
X50182Y-37672D01*
X45600Y-36870D02*
X46148Y-37418D01*
X50182Y-37672D02*
X51018Y-37672D01*
X69030Y-33362D02*
X69490Y-32902D01*
X51018Y-37672D02*
X51272Y-37418D01*
X46148Y-37418D02*
X49928Y-37418D01*
X69490Y-32902D02*
X70368Y-32902D01*
X70368Y-32902D02*
X71000Y-32270D01*
X68220Y-33600D02*
X69000Y-32820D01*
X50934Y-37470D02*
X51188Y-37216D01*
X46093Y-36363D02*
X46093Y-37009D01*
X45600Y-35870D02*
X46093Y-36363D01*
X46300Y-37216D02*
X50012Y-37216D01*
X46093Y-37009D02*
X46300Y-37216D01*
X50012Y-37216D02*
X50266Y-37470D01*
X69000Y-32820D02*
X69000Y-32270D01*
X50266Y-37470D02*
X50934Y-37470D01*
X51188Y-37216D02*
X51500Y-37216D01*
X53738Y-39398D02*
X53738Y-45208D01*
X53430Y-39050D02*
X53430Y-39090D01*
X53430Y-39090D02*
X53738Y-39398D01*
X53738Y-45208D02*
X54400Y-45870D01*
X53780Y-39050D02*
X53940Y-39210D01*
X53940Y-44410D02*
X54400Y-44870D01*
X53940Y-39210D02*
X53940Y-44410D01*
G54D31*
X71000Y-35270D02*
X71000Y-34670D01*
G54D29*
X52625Y-30070D02*
X52625Y-30870D01*
X50600Y-39870D02*
X52525Y-39870D01*
G54D28*
X49900Y-30870D02*
X50600Y-30870D01*
X57900Y-30070D02*
X58700Y-30870D01*
X58700Y-39870D02*
X59400Y-39870D01*
X49100Y-39070D02*
X49900Y-39870D01*
G54D29*
X52625Y-30870D02*
X50600Y-30870D01*
G54D28*
X49100Y-30070D02*
X49900Y-30870D01*
X58700Y-30870D02*
X59400Y-30870D01*
X49900Y-39870D02*
X50600Y-39870D01*
X57900Y-39070D02*
X58700Y-39870D01*
G54D29*
X73200Y-40270D02*
X73400Y-40470D01*
X73200Y-39245D02*
X73200Y-40270D01*
X73400Y-40470D02*
X73759Y-40470D01*
X72825Y-38870D02*
X73200Y-39245D01*
G54D28*
X59400Y-33870D02*
X61300Y-33870D01*
G54D29*
X55062Y-32532D02*
X55062Y-34546D01*
X54400Y-31870D02*
X55062Y-32532D01*
X56440Y-35210D02*
X56900Y-35670D01*
X55726Y-35210D02*
X56440Y-35210D01*
X55062Y-34546D02*
X55726Y-35210D01*
X54400Y-32870D02*
X54860Y-33330D01*
X54860Y-33330D02*
X54860Y-34630D01*
X54860Y-34630D02*
X55900Y-35670D01*
G54D32*
X54400Y-33870D02*
X54400Y-34870D01*
G54D28*
X59400Y-34870D02*
X61300Y-34870D01*
X59400Y-32870D02*
X61300Y-32870D01*
X59400Y-31870D02*
X61300Y-31870D01*
G54D29*
X74475Y-41470D02*
X74600Y-41345D01*
X73575Y-41470D02*
X74475Y-41470D01*
X73575Y-43245D02*
X75200Y-44870D01*
X73575Y-41470D02*
X73575Y-43245D01*
X66200Y-44870D02*
X66200Y-43170D01*
X66200Y-43170D02*
X68000Y-41370D01*
X68200Y-44870D02*
X68200Y-42970D01*
X68200Y-42970D02*
X69500Y-41670D01*
X71000Y-38910D02*
X71000Y-38370D01*
X69500Y-41670D02*
X69500Y-40410D01*
X69500Y-40410D02*
X71000Y-38910D01*
X65200Y-44870D02*
X65200Y-42970D01*
X65200Y-42970D02*
X66500Y-41670D01*
X66500Y-38870D02*
X67000Y-38370D01*
X66500Y-41670D02*
X66500Y-38870D01*
X64200Y-44870D02*
X64200Y-43170D01*
X64200Y-43170D02*
X66000Y-41370D01*
G54D32*
X45600Y-42870D02*
X45600Y-43870D01*
G54D31*
X72000Y-32270D02*
X72000Y-31420D01*
X72000Y-31420D02*
X71850Y-31270D01*
G54D29*
X44375Y-44770D02*
X44400Y-44745D01*
X43459Y-44770D02*
X44375Y-44770D01*
G54D32*
X45600Y-33870D02*
X45600Y-34870D01*
G54D28*
X59400Y-40870D02*
X61300Y-40870D01*
X59400Y-41870D02*
X61300Y-41870D01*
X59400Y-42870D02*
X61300Y-42870D01*
X59400Y-43870D02*
X61300Y-43870D01*
G54D29*
X55058Y-43542D02*
X55526Y-44010D01*
X54400Y-40870D02*
X55058Y-41528D01*
X56240Y-44010D02*
X56900Y-44670D01*
X55058Y-41528D02*
X55058Y-43542D01*
X55526Y-44010D02*
X56240Y-44010D01*
X54400Y-41870D02*
X54856Y-42326D01*
X54856Y-42326D02*
X54856Y-43626D01*
X54856Y-43626D02*
X55900Y-44670D01*
G54D32*
X54400Y-42870D02*
X54400Y-43870D01*
G54D28*
X50600Y-42870D02*
X52500Y-42870D01*
G54D29*
X47500Y-44070D02*
X48100Y-44670D01*
X46262Y-41532D02*
X46262Y-43546D01*
X46786Y-44070D02*
X47500Y-44070D01*
X46262Y-43546D02*
X46786Y-44070D01*
X45600Y-40870D02*
X46262Y-41532D01*
X47100Y-44670D02*
X46060Y-43630D01*
X46060Y-42330D02*
X45600Y-41870D01*
X46060Y-42330D02*
X46060Y-43630D01*
G54D28*
X50600Y-40870D02*
X52500Y-40870D01*
X50600Y-41870D02*
X52500Y-41870D01*
X50600Y-43870D02*
X52500Y-43870D01*
X50600Y-31870D02*
X52500Y-31870D01*
X50600Y-32870D02*
X52500Y-32870D01*
X50600Y-33870D02*
X52500Y-33870D01*
X50600Y-34870D02*
X52500Y-34870D01*
G54D29*
X46256Y-34540D02*
X46736Y-35020D01*
X47450Y-35020D02*
X48100Y-35670D01*
X46256Y-32526D02*
X46256Y-34540D01*
X46736Y-35020D02*
X47450Y-35020D01*
X45600Y-31870D02*
X46256Y-32526D01*
X46054Y-34624D02*
X47100Y-35670D01*
X46054Y-33324D02*
X46054Y-34624D01*
X45600Y-32870D02*
X46054Y-33324D01*
G54D33*
X57900Y-44670D02*
X58158Y-44412D01*
X60325Y-45095D02*
X60325Y-45770D01*
G54D29*
X55610Y-43808D02*
X57038Y-43808D01*
G54D33*
X59642Y-44412D02*
X60325Y-45095D01*
G54D29*
X57038Y-43808D02*
X57900Y-44670D01*
X55260Y-40730D02*
X55260Y-43458D01*
X54400Y-39870D02*
X55260Y-40730D01*
X55260Y-43458D02*
X55610Y-43808D01*
G54D33*
X58158Y-44412D02*
X59642Y-44412D01*
G54D29*
X54400Y-30870D02*
X54175Y-30870D01*
X54175Y-30870D02*
X53375Y-30070D01*
X54400Y-30870D02*
X55264Y-31734D01*
X57238Y-35008D02*
X57900Y-35670D01*
X55264Y-34462D02*
X55810Y-35008D01*
X55810Y-35008D02*
X57238Y-35008D01*
X55264Y-31734D02*
X55264Y-34462D01*
G54D33*
X49100Y-35670D02*
X49350Y-35420D01*
X53050Y-35420D02*
X53375Y-35095D01*
X49350Y-35420D02*
X53050Y-35420D01*
G54D29*
X45600Y-30870D02*
X46458Y-31728D01*
X46458Y-31728D02*
X46458Y-34456D01*
X48248Y-34818D02*
X49100Y-35670D01*
X46820Y-34818D02*
X48248Y-34818D01*
G54D33*
X53375Y-35095D02*
X53375Y-30870D01*
G54D29*
X46458Y-34456D02*
X46820Y-34818D01*
G54D33*
X53050Y-44420D02*
X53400Y-44070D01*
G54D29*
X45600Y-39870D02*
X45920Y-39870D01*
X46500Y-40450D02*
X46500Y-43470D01*
X46500Y-43470D02*
X46836Y-43806D01*
X45920Y-39870D02*
X46500Y-40450D01*
X48236Y-43806D02*
X49100Y-44670D01*
X46500Y-43470D02*
X46500Y-43485D01*
G54D33*
X49350Y-44420D02*
X53050Y-44420D01*
G54D29*
X46836Y-43806D02*
X48236Y-43806D01*
G54D33*
X53400Y-39995D02*
X53275Y-39870D01*
X49100Y-44670D02*
X49350Y-44420D01*
X53400Y-44070D02*
X53400Y-39995D01*
G54D29*
X67200Y-44870D02*
X67200Y-42970D01*
X67200Y-42970D02*
X68500Y-41670D01*
X68500Y-38870D02*
X69000Y-38370D01*
X68500Y-41670D02*
X68500Y-38870D01*
X69200Y-42570D02*
X70000Y-41770D01*
X69200Y-44870D02*
X69200Y-42570D01*
X70000Y-41770D02*
X70000Y-41370D01*
G54D10*
G36*
X66270Y-36620D02*
X66064Y-36826D01*
X66000Y-36762D01*
X65936Y-36826D01*
X65730Y-36620D01*
X65730Y-36608D01*
X65788Y-36550D01*
X65730Y-36492D01*
X65730Y-36480D01*
X65936Y-36274D01*
X66000Y-36338D01*
X66064Y-36274D01*
X66227Y-36437D01*
X66270Y-36480D01*
X66270Y-36492D01*
X66227Y-36535D01*
X66212Y-36550D01*
X66270Y-36608D01*
X66270Y-36620D01*
X66270Y-36620D01*
G37*
G54D34*
X66270Y-36620D02*
X66064Y-36826D01*
X66000Y-36762D01*
X65936Y-36826D01*
X65730Y-36620D01*
X65730Y-36608D01*
X65788Y-36550D01*
X65730Y-36492D01*
X65730Y-36480D01*
X65936Y-36274D01*
X66000Y-36338D01*
X66064Y-36274D01*
X66227Y-36437D01*
X66270Y-36480D01*
X66270Y-36492D01*
X66227Y-36535D01*
X66212Y-36550D01*
X66270Y-36608D01*
X66270Y-36620D01*
G54D10*
G36*
X71267Y-35343D02*
X71073Y-35536D01*
X71000Y-35464D01*
X70926Y-35536D01*
X70733Y-35343D01*
X70806Y-35270D01*
X70733Y-35196D01*
X70926Y-35003D01*
X71000Y-35076D01*
X71073Y-35003D01*
X71221Y-35151D01*
X71266Y-35196D01*
X71221Y-35242D01*
X71194Y-35270D01*
X71267Y-35343D01*
X71267Y-35343D01*
G37*
G54D34*
X71267Y-35343D02*
X71073Y-35536D01*
X71000Y-35464D01*
X70926Y-35536D01*
X70733Y-35343D01*
X70806Y-35270D01*
X70733Y-35196D01*
X70926Y-35003D01*
X71000Y-35076D01*
X71073Y-35003D01*
X71221Y-35151D01*
X71266Y-35196D01*
X71221Y-35242D01*
X71194Y-35270D01*
X71267Y-35343D01*
G54D10*
G36*
X78440Y-44564D02*
X78413Y-44700D01*
X78340Y-44810D01*
X78230Y-44883D01*
X78094Y-44910D01*
X77210Y-44910D01*
X77210Y-36497D01*
X77210Y-36394D01*
X77210Y-36372D01*
X77145Y-36307D01*
X76862Y-36307D01*
X76862Y-36640D01*
X76927Y-36705D01*
X77001Y-36705D01*
X77097Y-36666D01*
X77170Y-36593D01*
X77210Y-36497D01*
X77210Y-44910D01*
X76594Y-44910D01*
X76424Y-44943D01*
X76274Y-45044D01*
X76173Y-45194D01*
X76140Y-45364D01*
X76140Y-46864D01*
X76113Y-47000D01*
X76040Y-47110D01*
X75930Y-47183D01*
X75794Y-47210D01*
X75759Y-47210D01*
X75759Y-45850D01*
X75724Y-45674D01*
X75639Y-45643D01*
X75412Y-45870D01*
X75639Y-46097D01*
X75724Y-46066D01*
X75759Y-45850D01*
X75759Y-47210D01*
X75427Y-47210D01*
X75427Y-46309D01*
X75200Y-46082D01*
X74988Y-46294D01*
X74988Y-45870D01*
X74761Y-45643D01*
X74700Y-45665D01*
X74639Y-45643D01*
X74412Y-45870D01*
X74639Y-46097D01*
X74700Y-46074D01*
X74761Y-46097D01*
X74988Y-45870D01*
X74988Y-46294D01*
X74973Y-46309D01*
X75004Y-46394D01*
X75220Y-46429D01*
X75396Y-46394D01*
X75427Y-46309D01*
X75427Y-47210D01*
X74427Y-47210D01*
X74427Y-46309D01*
X74200Y-46082D01*
X73988Y-46294D01*
X73988Y-45870D01*
X73761Y-45643D01*
X73700Y-45665D01*
X73639Y-45643D01*
X73412Y-45870D01*
X73639Y-46097D01*
X73700Y-46074D01*
X73761Y-46097D01*
X73988Y-45870D01*
X73988Y-46294D01*
X73973Y-46309D01*
X74004Y-46394D01*
X74220Y-46429D01*
X74396Y-46394D01*
X74427Y-46309D01*
X74427Y-47210D01*
X73427Y-47210D01*
X73427Y-46309D01*
X73200Y-46082D01*
X72988Y-46294D01*
X72988Y-45870D01*
X72761Y-45643D01*
X72700Y-45665D01*
X72639Y-45643D01*
X72412Y-45870D01*
X72639Y-46097D01*
X72700Y-46074D01*
X72761Y-46097D01*
X72988Y-45870D01*
X72988Y-46294D01*
X72973Y-46309D01*
X73004Y-46394D01*
X73220Y-46429D01*
X73396Y-46394D01*
X73427Y-46309D01*
X73427Y-47210D01*
X72427Y-47210D01*
X72427Y-46309D01*
X72200Y-46082D01*
X71988Y-46294D01*
X71973Y-46309D01*
X72004Y-46394D01*
X72220Y-46429D01*
X72396Y-46394D01*
X72427Y-46309D01*
X72427Y-47210D01*
X71050Y-47210D01*
X71050Y-46365D01*
X71050Y-46020D01*
X70705Y-46020D01*
X70640Y-46085D01*
X70640Y-46119D01*
X70640Y-46222D01*
X70680Y-46318D01*
X70753Y-46391D01*
X70849Y-46430D01*
X70985Y-46430D01*
X71050Y-46365D01*
X71050Y-47210D01*
X69759Y-47210D01*
X69759Y-45850D01*
X69724Y-45674D01*
X69639Y-45643D01*
X69412Y-45870D01*
X69639Y-46097D01*
X69724Y-46066D01*
X69759Y-45850D01*
X69759Y-47210D01*
X69427Y-47210D01*
X69427Y-46309D01*
X69251Y-46133D01*
X69200Y-46082D01*
X68988Y-46294D01*
X68988Y-45870D01*
X68761Y-45643D01*
X68700Y-45665D01*
X68639Y-45643D01*
X68412Y-45870D01*
X68639Y-46097D01*
X68700Y-46074D01*
X68761Y-46097D01*
X68988Y-45870D01*
X68988Y-46294D01*
X68973Y-46309D01*
X69004Y-46394D01*
X69220Y-46429D01*
X69251Y-46422D01*
X69396Y-46394D01*
X69427Y-46309D01*
X69427Y-47210D01*
X69251Y-47210D01*
X68427Y-47210D01*
X68427Y-46309D01*
X68200Y-46082D01*
X67988Y-46294D01*
X67988Y-45870D01*
X67761Y-45643D01*
X67700Y-45665D01*
X67639Y-45643D01*
X67412Y-45870D01*
X67639Y-46097D01*
X67700Y-46074D01*
X67761Y-46097D01*
X67988Y-45870D01*
X67988Y-46294D01*
X67973Y-46309D01*
X68004Y-46394D01*
X68220Y-46429D01*
X68396Y-46394D01*
X68427Y-46309D01*
X68427Y-47210D01*
X67427Y-47210D01*
X67427Y-46309D01*
X67200Y-46082D01*
X66988Y-46294D01*
X66988Y-45870D01*
X66761Y-45643D01*
X66700Y-45665D01*
X66639Y-45643D01*
X66412Y-45870D01*
X66639Y-46097D01*
X66700Y-46074D01*
X66761Y-46097D01*
X66988Y-45870D01*
X66988Y-46294D01*
X66973Y-46309D01*
X67004Y-46394D01*
X67220Y-46429D01*
X67396Y-46394D01*
X67427Y-46309D01*
X67427Y-47210D01*
X66427Y-47210D01*
X66427Y-46309D01*
X66200Y-46082D01*
X65988Y-46294D01*
X65988Y-45870D01*
X65761Y-45643D01*
X65700Y-45665D01*
X65639Y-45643D01*
X65412Y-45870D01*
X65639Y-46097D01*
X65700Y-46074D01*
X65761Y-46097D01*
X65988Y-45870D01*
X65988Y-46294D01*
X65973Y-46309D01*
X66004Y-46394D01*
X66220Y-46429D01*
X66396Y-46394D01*
X66427Y-46309D01*
X66427Y-47210D01*
X65427Y-47210D01*
X65427Y-46309D01*
X65200Y-46082D01*
X64973Y-46309D01*
X65004Y-46394D01*
X65220Y-46429D01*
X65396Y-46394D01*
X65427Y-46309D01*
X65427Y-47210D01*
X64280Y-47210D01*
X64050Y-47210D01*
X64050Y-46365D01*
X64050Y-46020D01*
X63705Y-46020D01*
X63640Y-46085D01*
X63640Y-46119D01*
X63640Y-46222D01*
X63680Y-46318D01*
X63753Y-46391D01*
X63849Y-46430D01*
X63985Y-46430D01*
X64050Y-46365D01*
X64050Y-47210D01*
X63235Y-47210D01*
X63235Y-39671D01*
X63235Y-39597D01*
X63170Y-39532D01*
X62837Y-39532D01*
X62837Y-39815D01*
X62902Y-39880D01*
X62924Y-39880D01*
X63027Y-39880D01*
X63123Y-39840D01*
X63196Y-39767D01*
X63235Y-39671D01*
X63235Y-47210D01*
X62563Y-47210D01*
X62563Y-39815D01*
X62563Y-39532D01*
X62230Y-39532D01*
X62165Y-39597D01*
X62165Y-39671D01*
X62204Y-39767D01*
X62277Y-39840D01*
X62373Y-39880D01*
X62476Y-39880D01*
X62498Y-39880D01*
X62563Y-39815D01*
X62563Y-47210D01*
X61510Y-47210D01*
X61510Y-46097D01*
X61510Y-45994D01*
X61510Y-45972D01*
X61510Y-45568D01*
X61510Y-45546D01*
X61510Y-45443D01*
X61470Y-45347D01*
X61397Y-45274D01*
X61301Y-45235D01*
X61227Y-45235D01*
X61162Y-45300D01*
X61162Y-45633D01*
X61445Y-45633D01*
X61510Y-45568D01*
X61510Y-45972D01*
X61445Y-45907D01*
X61162Y-45907D01*
X61162Y-46240D01*
X61227Y-46305D01*
X61301Y-46305D01*
X61397Y-46266D01*
X61470Y-46193D01*
X61510Y-46097D01*
X61510Y-47210D01*
X59959Y-47210D01*
X59959Y-45850D01*
X59924Y-45674D01*
X59839Y-45643D01*
X59612Y-45870D01*
X59839Y-46097D01*
X59924Y-46066D01*
X59959Y-45850D01*
X59959Y-47210D01*
X59627Y-47210D01*
X59627Y-46309D01*
X59557Y-46239D01*
X59400Y-46082D01*
X59188Y-46294D01*
X59173Y-46309D01*
X59204Y-46394D01*
X59420Y-46429D01*
X59557Y-46401D01*
X59596Y-46394D01*
X59627Y-46309D01*
X59627Y-47210D01*
X59557Y-47210D01*
X51159Y-47210D01*
X50827Y-47210D01*
X50827Y-46309D01*
X50600Y-46082D01*
X50388Y-46294D01*
X50373Y-46309D01*
X50404Y-46394D01*
X50620Y-46429D01*
X50796Y-46394D01*
X50827Y-46309D01*
X50827Y-47210D01*
X46097Y-47210D01*
X44935Y-47210D01*
X44935Y-44221D01*
X44935Y-44147D01*
X44935Y-43843D01*
X44935Y-43769D01*
X44896Y-43673D01*
X44823Y-43600D01*
X44727Y-43560D01*
X44624Y-43560D01*
X44602Y-43560D01*
X44537Y-43625D01*
X44537Y-43908D01*
X44870Y-43908D01*
X44935Y-43843D01*
X44935Y-44147D01*
X44870Y-44082D01*
X44537Y-44082D01*
X44537Y-44170D01*
X44263Y-44170D01*
X44263Y-44082D01*
X44263Y-43908D01*
X44263Y-43625D01*
X44198Y-43560D01*
X44176Y-43560D01*
X44073Y-43560D01*
X44060Y-43565D01*
X44060Y-41422D01*
X44060Y-41319D01*
X44060Y-41235D01*
X44060Y-40705D01*
X44060Y-40621D01*
X44060Y-40518D01*
X44020Y-40422D01*
X43947Y-40349D01*
X43851Y-40310D01*
X43765Y-40310D01*
X43700Y-40375D01*
X43700Y-40770D01*
X43995Y-40770D01*
X44060Y-40705D01*
X44060Y-41235D01*
X43995Y-41170D01*
X43700Y-41170D01*
X43700Y-41565D01*
X43765Y-41630D01*
X43851Y-41630D01*
X43947Y-41591D01*
X44020Y-41518D01*
X44060Y-41422D01*
X44060Y-43565D01*
X43977Y-43600D01*
X43904Y-43673D01*
X43865Y-43769D01*
X43865Y-43843D01*
X43930Y-43908D01*
X44263Y-43908D01*
X44263Y-44082D01*
X43930Y-44082D01*
X43865Y-44147D01*
X43865Y-44221D01*
X43886Y-44274D01*
X43875Y-44263D01*
X43809Y-44236D01*
X43737Y-44236D01*
X43109Y-44236D01*
X43043Y-44263D01*
X42992Y-44314D01*
X42965Y-44380D01*
X42965Y-44452D01*
X42965Y-45160D01*
X42992Y-45226D01*
X43043Y-45277D01*
X43109Y-45304D01*
X43181Y-45304D01*
X43809Y-45304D01*
X43875Y-45277D01*
X43926Y-45226D01*
X43953Y-45160D01*
X43953Y-45088D01*
X43953Y-45000D01*
X43963Y-45000D01*
X43972Y-45022D01*
X44023Y-45073D01*
X44089Y-45100D01*
X44161Y-45100D01*
X44711Y-45100D01*
X44777Y-45073D01*
X44828Y-45022D01*
X44855Y-44956D01*
X44855Y-44884D01*
X44855Y-44534D01*
X44828Y-44468D01*
X44777Y-44417D01*
X44767Y-44413D01*
X44823Y-44390D01*
X44896Y-44317D01*
X44935Y-44221D01*
X44935Y-47210D01*
X42306Y-47210D01*
X42170Y-47183D01*
X42060Y-47110D01*
X41987Y-47000D01*
X41960Y-46864D01*
X41960Y-45364D01*
X41944Y-45285D01*
X41991Y-45304D01*
X42063Y-45304D01*
X42691Y-45304D01*
X42757Y-45277D01*
X42808Y-45226D01*
X42835Y-45160D01*
X42835Y-45088D01*
X42835Y-44380D01*
X42808Y-44314D01*
X42757Y-44263D01*
X42691Y-44236D01*
X42619Y-44236D01*
X42133Y-44236D01*
X42047Y-44150D01*
X43456Y-44150D01*
X43522Y-44123D01*
X43573Y-44072D01*
X43600Y-44006D01*
X43600Y-43934D01*
X43600Y-43134D01*
X43573Y-43068D01*
X43522Y-43017D01*
X43500Y-43008D01*
X43500Y-41565D01*
X43500Y-41170D01*
X43500Y-40770D01*
X43500Y-40375D01*
X43435Y-40310D01*
X43349Y-40310D01*
X43253Y-40349D01*
X43180Y-40422D01*
X43140Y-40518D01*
X43140Y-40621D01*
X43140Y-40705D01*
X43205Y-40770D01*
X43500Y-40770D01*
X43500Y-41170D01*
X43205Y-41170D01*
X43140Y-41235D01*
X43140Y-41319D01*
X43140Y-41422D01*
X43180Y-41518D01*
X43253Y-41591D01*
X43349Y-41630D01*
X43435Y-41630D01*
X43500Y-41565D01*
X43500Y-43008D01*
X43456Y-42990D01*
X43384Y-42990D01*
X42106Y-42990D01*
X42339Y-42756D01*
X42357Y-42799D01*
X42471Y-42912D01*
X42619Y-42974D01*
X42780Y-42974D01*
X42929Y-42913D01*
X43042Y-42799D01*
X43104Y-42651D01*
X43104Y-42490D01*
X43050Y-42359D01*
X43104Y-42231D01*
X43104Y-42070D01*
X43043Y-41921D01*
X43040Y-41918D01*
X43040Y-41891D01*
X43042Y-41889D01*
X43104Y-41741D01*
X43104Y-41580D01*
X43056Y-41463D01*
X43080Y-41406D01*
X43080Y-41334D01*
X43080Y-40534D01*
X43053Y-40468D01*
X43002Y-40417D01*
X42936Y-40390D01*
X42864Y-40390D01*
X42464Y-40390D01*
X42458Y-40392D01*
X42458Y-36905D01*
X42458Y-32505D01*
X42425Y-32340D01*
X42331Y-32279D01*
X42039Y-32570D01*
X42331Y-32861D01*
X42425Y-32800D01*
X42458Y-32505D01*
X42458Y-36905D01*
X42425Y-36740D01*
X42380Y-36710D01*
X42380Y-34674D01*
X42380Y-34403D01*
X42277Y-34153D01*
X42085Y-33962D01*
X41991Y-33922D01*
X41991Y-33201D01*
X41991Y-31939D01*
X41930Y-31845D01*
X41635Y-31812D01*
X41470Y-31845D01*
X41409Y-31939D01*
X41700Y-32231D01*
X41991Y-31939D01*
X41991Y-33201D01*
X41700Y-32909D01*
X41409Y-33201D01*
X41470Y-33295D01*
X41765Y-33328D01*
X41930Y-33295D01*
X41991Y-33201D01*
X41991Y-33922D01*
X41836Y-33858D01*
X41565Y-33858D01*
X41361Y-33942D01*
X41361Y-32570D01*
X41069Y-32279D01*
X40975Y-32340D01*
X40942Y-32635D01*
X40975Y-32800D01*
X41069Y-32861D01*
X41361Y-32570D01*
X41361Y-33942D01*
X41315Y-33961D01*
X41124Y-34153D01*
X41020Y-34402D01*
X41020Y-34673D01*
X41123Y-34923D01*
X41315Y-35114D01*
X41564Y-35218D01*
X41835Y-35218D01*
X42085Y-35115D01*
X42276Y-34923D01*
X42380Y-34674D01*
X42380Y-36710D01*
X42331Y-36679D01*
X42039Y-36970D01*
X42331Y-37261D01*
X42425Y-37200D01*
X42458Y-36905D01*
X42458Y-40392D01*
X42398Y-40417D01*
X42347Y-40468D01*
X42320Y-40534D01*
X42320Y-40606D01*
X42320Y-41406D01*
X42343Y-41464D01*
X42296Y-41579D01*
X42296Y-41740D01*
X42357Y-41889D01*
X42360Y-41891D01*
X42360Y-41918D01*
X42358Y-41921D01*
X42301Y-42055D01*
X41575Y-42055D01*
X41680Y-42034D01*
X41790Y-41960D01*
X42040Y-41711D01*
X42040Y-41710D01*
X42114Y-41600D01*
X42136Y-41488D01*
X42153Y-41472D01*
X42180Y-41406D01*
X42180Y-41334D01*
X42180Y-40534D01*
X42153Y-40468D01*
X42140Y-40455D01*
X42140Y-39459D01*
X42276Y-39323D01*
X42380Y-39074D01*
X42380Y-38803D01*
X42277Y-38553D01*
X42085Y-38362D01*
X41991Y-38322D01*
X41991Y-37601D01*
X41991Y-36339D01*
X41930Y-36245D01*
X41635Y-36212D01*
X41470Y-36245D01*
X41409Y-36339D01*
X41700Y-36631D01*
X41991Y-36339D01*
X41991Y-37601D01*
X41700Y-37309D01*
X41409Y-37601D01*
X41470Y-37695D01*
X41765Y-37728D01*
X41930Y-37695D01*
X41991Y-37601D01*
X41991Y-38322D01*
X41836Y-38258D01*
X41565Y-38258D01*
X41361Y-38342D01*
X41361Y-36970D01*
X41069Y-36679D01*
X40975Y-36740D01*
X40942Y-37035D01*
X40975Y-37200D01*
X41069Y-37261D01*
X41361Y-36970D01*
X41361Y-38342D01*
X41315Y-38361D01*
X41124Y-38553D01*
X41020Y-38802D01*
X41020Y-39073D01*
X41123Y-39323D01*
X41315Y-39514D01*
X41460Y-39574D01*
X41460Y-40455D01*
X41447Y-40468D01*
X41420Y-40534D01*
X41420Y-40606D01*
X41420Y-41369D01*
X41409Y-41380D01*
X41360Y-41380D01*
X41360Y-40771D01*
X41360Y-40635D01*
X41360Y-40205D01*
X41360Y-40069D01*
X41321Y-39973D01*
X41248Y-39900D01*
X41152Y-39860D01*
X41049Y-39860D01*
X40965Y-39860D01*
X40900Y-39925D01*
X40900Y-40270D01*
X41295Y-40270D01*
X41360Y-40205D01*
X41360Y-40635D01*
X41295Y-40570D01*
X40900Y-40570D01*
X40900Y-40915D01*
X40965Y-40980D01*
X41049Y-40980D01*
X41152Y-40980D01*
X41248Y-40940D01*
X41321Y-40867D01*
X41360Y-40771D01*
X41360Y-41380D01*
X41278Y-41380D01*
X41253Y-41318D01*
X41202Y-41267D01*
X41136Y-41240D01*
X41064Y-41240D01*
X40500Y-41240D01*
X40500Y-40915D01*
X40500Y-40570D01*
X40500Y-40270D01*
X40500Y-39925D01*
X40435Y-39860D01*
X40351Y-39860D01*
X40248Y-39860D01*
X40152Y-39900D01*
X40079Y-39973D01*
X40040Y-40069D01*
X40040Y-40205D01*
X40105Y-40270D01*
X40500Y-40270D01*
X40500Y-40570D01*
X40105Y-40570D01*
X40040Y-40635D01*
X40040Y-40771D01*
X40079Y-40867D01*
X40152Y-40940D01*
X40248Y-40980D01*
X40351Y-40980D01*
X40435Y-40980D01*
X40500Y-40915D01*
X40500Y-41240D01*
X40264Y-41240D01*
X40198Y-41267D01*
X40147Y-41318D01*
X40120Y-41384D01*
X40120Y-41456D01*
X40120Y-42056D01*
X40146Y-42120D01*
X40120Y-42184D01*
X40120Y-42256D01*
X40120Y-42856D01*
X40147Y-42922D01*
X40198Y-42973D01*
X40264Y-43000D01*
X40336Y-43000D01*
X41136Y-43000D01*
X41202Y-42973D01*
X41253Y-42922D01*
X41280Y-42856D01*
X41280Y-42784D01*
X41280Y-42735D01*
X41709Y-42735D01*
X41637Y-42807D01*
X41588Y-42882D01*
X41569Y-42970D01*
X41570Y-42974D01*
X41570Y-44224D01*
X41569Y-44229D01*
X41588Y-44317D01*
X41637Y-44392D01*
X41847Y-44602D01*
X41847Y-45075D01*
X41826Y-45044D01*
X41676Y-44943D01*
X41506Y-44910D01*
X41360Y-44910D01*
X41360Y-44171D01*
X41360Y-44035D01*
X41360Y-43605D01*
X41360Y-43469D01*
X41321Y-43373D01*
X41248Y-43300D01*
X41152Y-43260D01*
X41049Y-43260D01*
X40965Y-43260D01*
X40900Y-43325D01*
X40900Y-43670D01*
X41295Y-43670D01*
X41360Y-43605D01*
X41360Y-44035D01*
X41295Y-43970D01*
X40900Y-43970D01*
X40900Y-44315D01*
X40965Y-44380D01*
X41049Y-44380D01*
X41152Y-44380D01*
X41248Y-44340D01*
X41321Y-44267D01*
X41360Y-44171D01*
X41360Y-44910D01*
X40500Y-44910D01*
X40500Y-44315D01*
X40500Y-43970D01*
X40500Y-43670D01*
X40500Y-43325D01*
X40435Y-43260D01*
X40351Y-43260D01*
X40248Y-43260D01*
X40152Y-43300D01*
X40079Y-43373D01*
X40040Y-43469D01*
X40040Y-43605D01*
X40105Y-43670D01*
X40500Y-43670D01*
X40500Y-43970D01*
X40105Y-43970D01*
X40040Y-44035D01*
X40040Y-44171D01*
X40079Y-44267D01*
X40152Y-44340D01*
X40248Y-44380D01*
X40351Y-44380D01*
X40435Y-44380D01*
X40500Y-44315D01*
X40500Y-44910D01*
X40006Y-44910D01*
X39870Y-44883D01*
X39760Y-44810D01*
X39687Y-44700D01*
X39660Y-44564D01*
X39660Y-31176D01*
X39687Y-31040D01*
X39760Y-30930D01*
X39870Y-30857D01*
X40006Y-30830D01*
X41506Y-30830D01*
X41676Y-30797D01*
X41826Y-30696D01*
X41927Y-30546D01*
X41960Y-30376D01*
X41960Y-28876D01*
X41987Y-28740D01*
X42060Y-28630D01*
X42170Y-28557D01*
X42306Y-28530D01*
X44734Y-28530D01*
X44690Y-28560D01*
X44090Y-29160D01*
X43964Y-29348D01*
X43920Y-29570D01*
X43920Y-31730D01*
X43290Y-32360D01*
X43164Y-32548D01*
X43120Y-32770D01*
X43120Y-36770D01*
X43164Y-36992D01*
X43290Y-37180D01*
X44490Y-38380D01*
X44678Y-38506D01*
X44900Y-38550D01*
X45120Y-38550D01*
X45120Y-38606D01*
X45120Y-39206D01*
X45147Y-39272D01*
X45198Y-39323D01*
X45264Y-39350D01*
X45336Y-39350D01*
X45601Y-39350D01*
X45601Y-39390D01*
X45505Y-39390D01*
X45329Y-39463D01*
X45193Y-39598D01*
X45120Y-39774D01*
X45120Y-39965D01*
X45193Y-40141D01*
X45328Y-40277D01*
X45504Y-40350D01*
X45607Y-40350D01*
X45607Y-40390D01*
X45505Y-40390D01*
X45329Y-40463D01*
X45193Y-40598D01*
X45120Y-40774D01*
X45120Y-40965D01*
X45193Y-41141D01*
X45328Y-41277D01*
X45504Y-41350D01*
X45613Y-41350D01*
X45613Y-41390D01*
X45505Y-41390D01*
X45329Y-41463D01*
X45193Y-41598D01*
X45120Y-41774D01*
X45120Y-41965D01*
X45193Y-42141D01*
X45328Y-42277D01*
X45504Y-42350D01*
X45619Y-42350D01*
X45620Y-42390D01*
X45505Y-42390D01*
X45329Y-42463D01*
X45193Y-42598D01*
X45120Y-42774D01*
X45120Y-42965D01*
X45193Y-43141D01*
X45320Y-43268D01*
X45320Y-43471D01*
X45193Y-43598D01*
X45120Y-43774D01*
X45120Y-43965D01*
X45193Y-44141D01*
X45328Y-44277D01*
X45504Y-44350D01*
X45632Y-44350D01*
X45632Y-44390D01*
X45505Y-44390D01*
X45329Y-44463D01*
X45193Y-44598D01*
X45120Y-44774D01*
X45120Y-44965D01*
X45193Y-45141D01*
X45328Y-45277D01*
X45504Y-45350D01*
X45695Y-45350D01*
X45731Y-45335D01*
X45773Y-45397D01*
X45870Y-45462D01*
X45696Y-45390D01*
X45505Y-45390D01*
X45329Y-45463D01*
X45193Y-45598D01*
X45120Y-45774D01*
X45120Y-45965D01*
X45193Y-46141D01*
X45328Y-46277D01*
X45504Y-46350D01*
X45695Y-46350D01*
X45871Y-46277D01*
X46007Y-46142D01*
X46080Y-45966D01*
X46080Y-45775D01*
X46007Y-45599D01*
X45873Y-45464D01*
X45922Y-45497D01*
X46091Y-45530D01*
X46638Y-45530D01*
X46620Y-45574D01*
X46620Y-45765D01*
X46693Y-45941D01*
X46828Y-46077D01*
X47004Y-46150D01*
X47195Y-46150D01*
X47371Y-46077D01*
X47507Y-45942D01*
X47511Y-45930D01*
X47688Y-45930D01*
X47693Y-45941D01*
X47828Y-46077D01*
X48004Y-46150D01*
X48195Y-46150D01*
X48371Y-46077D01*
X48507Y-45942D01*
X48511Y-45930D01*
X48688Y-45930D01*
X48693Y-45941D01*
X48828Y-46077D01*
X49004Y-46150D01*
X49195Y-46150D01*
X49371Y-46077D01*
X49507Y-45942D01*
X49580Y-45766D01*
X49580Y-45575D01*
X49575Y-45562D01*
X49608Y-45530D01*
X50136Y-45530D01*
X49986Y-45680D01*
X50062Y-45756D01*
X50041Y-45890D01*
X50076Y-46066D01*
X50161Y-46097D01*
X50388Y-45870D01*
X50324Y-45806D01*
X50536Y-45594D01*
X50600Y-45658D01*
X50664Y-45594D01*
X50876Y-45806D01*
X50812Y-45870D01*
X51039Y-46097D01*
X51124Y-46066D01*
X51159Y-45850D01*
X51139Y-45754D01*
X51214Y-45680D01*
X51064Y-45530D01*
X52992Y-45530D01*
X54006Y-46544D01*
X54090Y-46600D01*
X54091Y-46600D01*
X54190Y-46620D01*
X55210Y-46620D01*
X55309Y-46600D01*
X55310Y-46600D01*
X55394Y-46544D01*
X55792Y-46145D01*
X55804Y-46150D01*
X55995Y-46150D01*
X56171Y-46077D01*
X56307Y-45942D01*
X56311Y-45930D01*
X56488Y-45930D01*
X56493Y-45941D01*
X56628Y-46077D01*
X56804Y-46150D01*
X56995Y-46150D01*
X57171Y-46077D01*
X57307Y-45942D01*
X57311Y-45930D01*
X57488Y-45930D01*
X57493Y-45941D01*
X57628Y-46077D01*
X57804Y-46150D01*
X57995Y-46150D01*
X58171Y-46077D01*
X58307Y-45942D01*
X58380Y-45766D01*
X58380Y-45575D01*
X58375Y-45562D01*
X58408Y-45530D01*
X58936Y-45530D01*
X58786Y-45680D01*
X58862Y-45756D01*
X58841Y-45890D01*
X58876Y-46066D01*
X58961Y-46097D01*
X59188Y-45870D01*
X59124Y-45806D01*
X59336Y-45594D01*
X59400Y-45658D01*
X59557Y-45501D01*
X59627Y-45431D01*
X59596Y-45346D01*
X59557Y-45339D01*
X59530Y-45335D01*
X59557Y-45324D01*
X59671Y-45277D01*
X59807Y-45142D01*
X59880Y-44966D01*
X59880Y-44961D01*
X60105Y-45186D01*
X60105Y-45318D01*
X60048Y-45342D01*
X59997Y-45393D01*
X59970Y-45459D01*
X59970Y-45531D01*
X59970Y-46081D01*
X59997Y-46147D01*
X60048Y-46198D01*
X60114Y-46225D01*
X60186Y-46225D01*
X60536Y-46225D01*
X60602Y-46198D01*
X60653Y-46147D01*
X60656Y-46137D01*
X60680Y-46193D01*
X60753Y-46266D01*
X60849Y-46305D01*
X60923Y-46305D01*
X60988Y-46240D01*
X60988Y-45907D01*
X60900Y-45907D01*
X60900Y-45633D01*
X60988Y-45633D01*
X60988Y-45300D01*
X60923Y-45235D01*
X60849Y-45235D01*
X60753Y-45274D01*
X60680Y-45347D01*
X60656Y-45402D01*
X60653Y-45393D01*
X60602Y-45342D01*
X60545Y-45318D01*
X60545Y-45095D01*
X60544Y-45094D01*
X60545Y-45094D01*
X60541Y-45077D01*
X60528Y-45011D01*
X60527Y-45010D01*
X60481Y-44939D01*
X60478Y-44937D01*
X59991Y-44450D01*
X61300Y-44450D01*
X61522Y-44406D01*
X61539Y-44394D01*
X61756Y-44394D01*
X61949Y-44314D01*
X62096Y-44167D01*
X62176Y-43974D01*
X62176Y-43766D01*
X62096Y-43573D01*
X61949Y-43426D01*
X61813Y-43370D01*
X61949Y-43314D01*
X62096Y-43167D01*
X62176Y-42974D01*
X62176Y-42766D01*
X62096Y-42573D01*
X61949Y-42426D01*
X61813Y-42370D01*
X61949Y-42314D01*
X62096Y-42167D01*
X62176Y-41974D01*
X62176Y-41766D01*
X62096Y-41573D01*
X61949Y-41426D01*
X61813Y-41370D01*
X61949Y-41314D01*
X62096Y-41167D01*
X62176Y-40974D01*
X62176Y-40766D01*
X62096Y-40573D01*
X61949Y-40426D01*
X61756Y-40346D01*
X61548Y-40346D01*
X61539Y-40346D01*
X61522Y-40334D01*
X61300Y-40290D01*
X59959Y-40290D01*
X59959Y-39850D01*
X59924Y-39674D01*
X59839Y-39643D01*
X59612Y-39870D01*
X59839Y-40097D01*
X59924Y-40066D01*
X59959Y-39850D01*
X59959Y-40290D01*
X59608Y-40290D01*
X59526Y-40208D01*
X59522Y-39535D01*
X59627Y-39431D01*
X59617Y-39405D01*
X59621Y-39405D01*
X59810Y-39280D01*
X59935Y-39091D01*
X59979Y-38869D01*
X59935Y-38647D01*
X59810Y-38459D01*
X59513Y-38163D01*
X59511Y-37770D01*
X59675Y-37770D01*
X59680Y-37771D01*
X59680Y-37770D01*
X59768Y-37752D01*
X59843Y-37703D01*
X60343Y-37202D01*
X60346Y-37209D01*
X60430Y-37293D01*
X60540Y-37339D01*
X60659Y-37339D01*
X60769Y-37294D01*
X60793Y-37270D01*
X62045Y-37270D01*
X62050Y-37271D01*
X62050Y-37270D01*
X62138Y-37252D01*
X62213Y-37203D01*
X63486Y-35930D01*
X64500Y-35930D01*
X64520Y-35930D01*
X64534Y-35930D01*
X64657Y-36053D01*
X64593Y-36118D01*
X64520Y-36294D01*
X64520Y-36485D01*
X64593Y-36661D01*
X64728Y-36797D01*
X64770Y-36814D01*
X64770Y-37015D01*
X64480Y-37015D01*
X64480Y-36886D01*
X64480Y-36814D01*
X64480Y-36214D01*
X64453Y-36148D01*
X64402Y-36097D01*
X64336Y-36070D01*
X64264Y-36070D01*
X63664Y-36070D01*
X63598Y-36097D01*
X63547Y-36148D01*
X63520Y-36214D01*
X63520Y-36286D01*
X63520Y-36886D01*
X63547Y-36952D01*
X63598Y-37003D01*
X63664Y-37030D01*
X63677Y-37030D01*
X63648Y-37042D01*
X63597Y-37093D01*
X63570Y-37159D01*
X63570Y-37231D01*
X63570Y-37781D01*
X63597Y-37847D01*
X63648Y-37898D01*
X63714Y-37925D01*
X63786Y-37925D01*
X63888Y-37925D01*
X63743Y-37985D01*
X63698Y-38030D01*
X63025Y-38030D01*
X62915Y-38051D01*
X62894Y-38056D01*
X62784Y-38130D01*
X62574Y-38340D01*
X62389Y-38340D01*
X62323Y-38367D01*
X62272Y-38418D01*
X62245Y-38484D01*
X62245Y-38556D01*
X62245Y-38906D01*
X62272Y-38972D01*
X62323Y-39023D01*
X62332Y-39026D01*
X62277Y-39050D01*
X62204Y-39123D01*
X62165Y-39219D01*
X62165Y-39293D01*
X62230Y-39358D01*
X62563Y-39358D01*
X62563Y-39270D01*
X62837Y-39270D01*
X62837Y-39358D01*
X63170Y-39358D01*
X63235Y-39293D01*
X63235Y-39219D01*
X63196Y-39123D01*
X63123Y-39050D01*
X63067Y-39026D01*
X63077Y-39023D01*
X63128Y-38972D01*
X63155Y-38906D01*
X63155Y-38834D01*
X63155Y-38720D01*
X63165Y-38710D01*
X63698Y-38710D01*
X63743Y-38755D01*
X63909Y-38824D01*
X64090Y-38824D01*
X64257Y-38755D01*
X64385Y-38627D01*
X64454Y-38461D01*
X64454Y-38280D01*
X64385Y-38113D01*
X64257Y-37985D01*
X64112Y-37925D01*
X64136Y-37925D01*
X64202Y-37898D01*
X64253Y-37847D01*
X64280Y-37781D01*
X64280Y-37709D01*
X64280Y-37159D01*
X64253Y-37093D01*
X64202Y-37042D01*
X64172Y-37030D01*
X64336Y-37030D01*
X64402Y-37003D01*
X64453Y-36952D01*
X64480Y-36886D01*
X64480Y-37015D01*
X64464Y-37015D01*
X64398Y-37042D01*
X64347Y-37093D01*
X64320Y-37159D01*
X64320Y-37231D01*
X64320Y-37781D01*
X64347Y-37847D01*
X64398Y-37898D01*
X64464Y-37925D01*
X64536Y-37925D01*
X64789Y-37925D01*
X64779Y-37956D01*
X65000Y-38176D01*
X65073Y-38103D01*
X65266Y-38296D01*
X65194Y-38370D01*
X65267Y-38443D01*
X65073Y-38636D01*
X65000Y-38564D01*
X64806Y-38757D01*
X64806Y-38370D01*
X64586Y-38149D01*
X64501Y-38177D01*
X64465Y-38383D01*
X64501Y-38563D01*
X64586Y-38591D01*
X64806Y-38370D01*
X64806Y-38757D01*
X64779Y-38784D01*
X64807Y-38869D01*
X65013Y-38905D01*
X65094Y-38888D01*
X65173Y-38967D01*
X65221Y-38919D01*
X65270Y-38870D01*
X65270Y-40774D01*
X65221Y-40822D01*
X65117Y-40926D01*
X65091Y-40916D01*
X64910Y-40916D01*
X64743Y-40985D01*
X64615Y-41113D01*
X64546Y-41279D01*
X64546Y-41460D01*
X64615Y-41627D01*
X64743Y-41755D01*
X64909Y-41824D01*
X65090Y-41824D01*
X65257Y-41755D01*
X65385Y-41627D01*
X65454Y-41461D01*
X65454Y-41430D01*
X65546Y-41430D01*
X65546Y-41460D01*
X65557Y-41487D01*
X64535Y-42509D01*
X64535Y-41697D01*
X64535Y-41594D01*
X64535Y-41572D01*
X64535Y-41168D01*
X64535Y-41146D01*
X64535Y-41043D01*
X64495Y-40947D01*
X64422Y-40874D01*
X64326Y-40835D01*
X64202Y-40835D01*
X64137Y-40900D01*
X64137Y-41233D01*
X64470Y-41233D01*
X64535Y-41168D01*
X64535Y-41572D01*
X64470Y-41507D01*
X64137Y-41507D01*
X64137Y-41840D01*
X64202Y-41905D01*
X64326Y-41905D01*
X64422Y-41866D01*
X64495Y-41793D01*
X64535Y-41697D01*
X64535Y-42509D01*
X64037Y-43007D01*
X63988Y-43082D01*
X63969Y-43170D01*
X63970Y-43174D01*
X63970Y-44445D01*
X63929Y-44463D01*
X63863Y-44528D01*
X63863Y-41840D01*
X63863Y-41507D01*
X63863Y-41233D01*
X63863Y-40900D01*
X63798Y-40835D01*
X63674Y-40835D01*
X63578Y-40874D01*
X63505Y-40947D01*
X63465Y-41043D01*
X63465Y-41146D01*
X63465Y-41168D01*
X63530Y-41233D01*
X63863Y-41233D01*
X63863Y-41507D01*
X63530Y-41507D01*
X63465Y-41572D01*
X63465Y-41594D01*
X63465Y-41697D01*
X63505Y-41793D01*
X63578Y-41866D01*
X63674Y-41905D01*
X63798Y-41905D01*
X63863Y-41840D01*
X63863Y-44528D01*
X63793Y-44598D01*
X63720Y-44774D01*
X63720Y-44965D01*
X63793Y-45141D01*
X63928Y-45277D01*
X64007Y-45310D01*
X63985Y-45310D01*
X63900Y-45310D01*
X63849Y-45310D01*
X63753Y-45349D01*
X63680Y-45422D01*
X63640Y-45518D01*
X63640Y-45621D01*
X63640Y-45655D01*
X63705Y-45720D01*
X64050Y-45720D01*
X64050Y-45630D01*
X64350Y-45630D01*
X64350Y-45720D01*
X64440Y-45720D01*
X64440Y-46020D01*
X64350Y-46020D01*
X64350Y-46365D01*
X64415Y-46430D01*
X64551Y-46430D01*
X64647Y-46391D01*
X64720Y-46318D01*
X64760Y-46222D01*
X64760Y-46170D01*
X64760Y-46119D01*
X64760Y-46096D01*
X64761Y-46097D01*
X64988Y-45870D01*
X64761Y-45643D01*
X64760Y-45643D01*
X64760Y-45621D01*
X64760Y-45570D01*
X64760Y-45518D01*
X64720Y-45422D01*
X64708Y-45410D01*
X64980Y-45410D01*
X64973Y-45431D01*
X65200Y-45658D01*
X65427Y-45431D01*
X65419Y-45410D01*
X65980Y-45410D01*
X65973Y-45431D01*
X66200Y-45658D01*
X66427Y-45431D01*
X66419Y-45410D01*
X66980Y-45410D01*
X66973Y-45431D01*
X67200Y-45658D01*
X67427Y-45431D01*
X67419Y-45410D01*
X67980Y-45410D01*
X67973Y-45431D01*
X68200Y-45658D01*
X68427Y-45431D01*
X68419Y-45410D01*
X68980Y-45410D01*
X68973Y-45431D01*
X69200Y-45658D01*
X69251Y-45607D01*
X69427Y-45431D01*
X69396Y-45346D01*
X69330Y-45335D01*
X69471Y-45277D01*
X69607Y-45142D01*
X69680Y-44966D01*
X69680Y-44775D01*
X69607Y-44599D01*
X69472Y-44463D01*
X69430Y-44445D01*
X69430Y-42665D01*
X70160Y-41934D01*
X70162Y-41933D01*
X70163Y-41933D01*
X70212Y-41858D01*
X70230Y-41770D01*
X70230Y-41766D01*
X70257Y-41755D01*
X70385Y-41627D01*
X70454Y-41461D01*
X70454Y-41280D01*
X70385Y-41113D01*
X70257Y-40985D01*
X70091Y-40916D01*
X69910Y-40916D01*
X69743Y-40985D01*
X69730Y-40998D01*
X69730Y-40505D01*
X71160Y-39074D01*
X71162Y-39073D01*
X71163Y-39073D01*
X71212Y-38998D01*
X71230Y-38910D01*
X71230Y-38766D01*
X71257Y-38755D01*
X71270Y-38742D01*
X71270Y-40870D01*
X71173Y-40773D01*
X71092Y-40853D01*
X70987Y-40835D01*
X70807Y-40871D01*
X70779Y-40956D01*
X71000Y-41176D01*
X71073Y-41103D01*
X71221Y-41251D01*
X71266Y-41296D01*
X71221Y-41342D01*
X71194Y-41370D01*
X71267Y-41443D01*
X71073Y-41636D01*
X71000Y-41564D01*
X70806Y-41757D01*
X70806Y-41370D01*
X70586Y-41149D01*
X70501Y-41177D01*
X70465Y-41383D01*
X70501Y-41563D01*
X70586Y-41591D01*
X70806Y-41370D01*
X70806Y-41757D01*
X70779Y-41784D01*
X70807Y-41869D01*
X71013Y-41905D01*
X71094Y-41888D01*
X71173Y-41967D01*
X71221Y-41919D01*
X71270Y-41870D01*
X71270Y-44390D01*
X71221Y-44390D01*
X71105Y-44390D01*
X70929Y-44463D01*
X70793Y-44598D01*
X70720Y-44774D01*
X70720Y-44965D01*
X70793Y-45141D01*
X70928Y-45277D01*
X71007Y-45310D01*
X70985Y-45310D01*
X70900Y-45310D01*
X70849Y-45310D01*
X70753Y-45349D01*
X70680Y-45422D01*
X70640Y-45518D01*
X70640Y-45621D01*
X70640Y-45655D01*
X70705Y-45720D01*
X71050Y-45720D01*
X71050Y-45630D01*
X71350Y-45630D01*
X71350Y-45720D01*
X71440Y-45720D01*
X71440Y-46020D01*
X71350Y-46020D01*
X71350Y-46365D01*
X71415Y-46430D01*
X71551Y-46430D01*
X71647Y-46391D01*
X71720Y-46318D01*
X71760Y-46222D01*
X71760Y-46170D01*
X71760Y-46119D01*
X71760Y-46096D01*
X71761Y-46097D01*
X71988Y-45870D01*
X71761Y-45643D01*
X71760Y-45643D01*
X71760Y-45621D01*
X71760Y-45570D01*
X71760Y-45518D01*
X71720Y-45422D01*
X71647Y-45349D01*
X71551Y-45310D01*
X71500Y-45310D01*
X71415Y-45310D01*
X71391Y-45310D01*
X71471Y-45277D01*
X71607Y-45142D01*
X71680Y-44966D01*
X71680Y-44775D01*
X71662Y-44733D01*
X71663Y-44733D01*
X71692Y-44688D01*
X71737Y-44732D01*
X71720Y-44774D01*
X71720Y-44965D01*
X71793Y-45141D01*
X71928Y-45277D01*
X72065Y-45333D01*
X72004Y-45346D01*
X71973Y-45431D01*
X72200Y-45658D01*
X72427Y-45431D01*
X72396Y-45346D01*
X72330Y-45335D01*
X72471Y-45277D01*
X72607Y-45142D01*
X72680Y-44966D01*
X72680Y-44775D01*
X72609Y-44604D01*
X72737Y-44732D01*
X72720Y-44774D01*
X72720Y-44965D01*
X72793Y-45141D01*
X72928Y-45277D01*
X73065Y-45333D01*
X73004Y-45346D01*
X72973Y-45431D01*
X73200Y-45658D01*
X73427Y-45431D01*
X73396Y-45346D01*
X73330Y-45335D01*
X73471Y-45277D01*
X73607Y-45142D01*
X73680Y-44966D01*
X73680Y-44775D01*
X73609Y-44604D01*
X73737Y-44732D01*
X73720Y-44774D01*
X73720Y-44965D01*
X73793Y-45141D01*
X73928Y-45277D01*
X74065Y-45333D01*
X74004Y-45346D01*
X73973Y-45431D01*
X74200Y-45658D01*
X74427Y-45431D01*
X74396Y-45346D01*
X74330Y-45335D01*
X74471Y-45277D01*
X74607Y-45142D01*
X74680Y-44966D01*
X74680Y-44775D01*
X74609Y-44605D01*
X74737Y-44733D01*
X74720Y-44774D01*
X74720Y-44965D01*
X74793Y-45141D01*
X74928Y-45277D01*
X75065Y-45333D01*
X75004Y-45346D01*
X74973Y-45431D01*
X75200Y-45658D01*
X75427Y-45431D01*
X75396Y-45346D01*
X75330Y-45335D01*
X75471Y-45277D01*
X75607Y-45142D01*
X75680Y-44966D01*
X75680Y-44775D01*
X75607Y-44599D01*
X75472Y-44463D01*
X75296Y-44390D01*
X75105Y-44390D01*
X75063Y-44407D01*
X73805Y-43149D01*
X73805Y-41917D01*
X73852Y-41898D01*
X73903Y-41847D01*
X73930Y-41781D01*
X73930Y-41709D01*
X73930Y-41700D01*
X74289Y-41700D01*
X74361Y-41700D01*
X74470Y-41700D01*
X74475Y-41701D01*
X74475Y-41700D01*
X74479Y-41700D01*
X74911Y-41700D01*
X74977Y-41673D01*
X75000Y-41650D01*
X75023Y-41673D01*
X75089Y-41700D01*
X75161Y-41700D01*
X75711Y-41700D01*
X75777Y-41673D01*
X75800Y-41650D01*
X75823Y-41673D01*
X75889Y-41700D01*
X75961Y-41700D01*
X76511Y-41700D01*
X76577Y-41673D01*
X76628Y-41622D01*
X76655Y-41556D01*
X76655Y-41484D01*
X76655Y-41134D01*
X76628Y-41068D01*
X76577Y-41017D01*
X76511Y-40990D01*
X76499Y-40990D01*
X76499Y-40950D01*
X76511Y-40950D01*
X76577Y-40923D01*
X76628Y-40872D01*
X76655Y-40806D01*
X76655Y-40734D01*
X76655Y-40384D01*
X76628Y-40318D01*
X76577Y-40267D01*
X76511Y-40240D01*
X76439Y-40240D01*
X76123Y-40240D01*
X76224Y-40199D01*
X76308Y-40115D01*
X76354Y-40005D01*
X76354Y-39886D01*
X76309Y-39776D01*
X76225Y-39692D01*
X76115Y-39646D01*
X75996Y-39646D01*
X75886Y-39691D01*
X75862Y-39715D01*
X75847Y-39715D01*
X75828Y-39668D01*
X75777Y-39617D01*
X75711Y-39590D01*
X75699Y-39590D01*
X75699Y-39550D01*
X75711Y-39550D01*
X75777Y-39523D01*
X75828Y-39472D01*
X75855Y-39406D01*
X75855Y-39334D01*
X75855Y-38984D01*
X75828Y-38918D01*
X75777Y-38867D01*
X75711Y-38840D01*
X75639Y-38840D01*
X75089Y-38840D01*
X75023Y-38867D01*
X75000Y-38890D01*
X74977Y-38867D01*
X74911Y-38840D01*
X74839Y-38840D01*
X74289Y-38840D01*
X74223Y-38867D01*
X74172Y-38918D01*
X74145Y-38984D01*
X74145Y-39056D01*
X74145Y-39406D01*
X74172Y-39472D01*
X74223Y-39523D01*
X74289Y-39550D01*
X74301Y-39550D01*
X74301Y-39590D01*
X74289Y-39590D01*
X74223Y-39617D01*
X74172Y-39668D01*
X74145Y-39734D01*
X74145Y-39806D01*
X74145Y-39950D01*
X74109Y-39936D01*
X74037Y-39936D01*
X74010Y-39936D01*
X74010Y-39894D01*
X74010Y-39872D01*
X74010Y-39468D01*
X74010Y-39446D01*
X74010Y-39343D01*
X73979Y-39270D01*
X74010Y-39197D01*
X74010Y-39094D01*
X74010Y-39072D01*
X74010Y-38668D01*
X74010Y-38646D01*
X74010Y-38543D01*
X73970Y-38447D01*
X73897Y-38374D01*
X73801Y-38335D01*
X73727Y-38335D01*
X73662Y-38400D01*
X73662Y-38733D01*
X73945Y-38733D01*
X74010Y-38668D01*
X74010Y-39072D01*
X73945Y-39007D01*
X73662Y-39007D01*
X73662Y-39200D01*
X73662Y-39340D01*
X73662Y-39533D01*
X73945Y-39533D01*
X74010Y-39468D01*
X74010Y-39872D01*
X73945Y-39807D01*
X73662Y-39807D01*
X73662Y-39910D01*
X73488Y-39910D01*
X73488Y-39807D01*
X73430Y-39807D01*
X73430Y-39533D01*
X73488Y-39533D01*
X73488Y-39340D01*
X73488Y-39200D01*
X73488Y-39007D01*
X73400Y-39007D01*
X73400Y-38733D01*
X73488Y-38733D01*
X73488Y-38400D01*
X73423Y-38335D01*
X73349Y-38335D01*
X73253Y-38374D01*
X73180Y-38447D01*
X73156Y-38502D01*
X73153Y-38493D01*
X73102Y-38442D01*
X73036Y-38415D01*
X72964Y-38415D01*
X72614Y-38415D01*
X72548Y-38442D01*
X72542Y-38448D01*
X72542Y-37279D01*
X73681Y-36140D01*
X75085Y-36140D01*
X75090Y-36141D01*
X75090Y-36140D01*
X75178Y-36122D01*
X75253Y-36073D01*
X75660Y-35665D01*
X75660Y-36145D01*
X75670Y-36195D01*
X75670Y-36481D01*
X75697Y-36547D01*
X75748Y-36598D01*
X75814Y-36625D01*
X75886Y-36625D01*
X76236Y-36625D01*
X76302Y-36598D01*
X76353Y-36547D01*
X76356Y-36537D01*
X76380Y-36593D01*
X76453Y-36666D01*
X76549Y-36705D01*
X76623Y-36705D01*
X76688Y-36640D01*
X76688Y-36307D01*
X76600Y-36307D01*
X76600Y-36033D01*
X76688Y-36033D01*
X76688Y-35930D01*
X76862Y-35930D01*
X76862Y-36033D01*
X77145Y-36033D01*
X77210Y-35968D01*
X77210Y-35946D01*
X77210Y-35843D01*
X77170Y-35747D01*
X77130Y-35707D01*
X77257Y-35655D01*
X77385Y-35527D01*
X77454Y-35361D01*
X77454Y-35180D01*
X77385Y-35013D01*
X77257Y-34885D01*
X77091Y-34816D01*
X76910Y-34816D01*
X76883Y-34827D01*
X76663Y-34607D01*
X76588Y-34558D01*
X76500Y-34539D01*
X76495Y-34540D01*
X75800Y-34540D01*
X75712Y-34558D01*
X75637Y-34607D01*
X75635Y-34609D01*
X75337Y-34907D01*
X75314Y-34942D01*
X75257Y-34885D01*
X75091Y-34816D01*
X74910Y-34816D01*
X74743Y-34885D01*
X74730Y-34898D01*
X74730Y-34865D01*
X76882Y-32712D01*
X76909Y-32724D01*
X77090Y-32724D01*
X77257Y-32655D01*
X77385Y-32527D01*
X77454Y-32361D01*
X77454Y-32180D01*
X77385Y-32013D01*
X77257Y-31885D01*
X77091Y-31816D01*
X76910Y-31816D01*
X76743Y-31885D01*
X76615Y-32013D01*
X76546Y-32179D01*
X76546Y-32360D01*
X76557Y-32387D01*
X74337Y-34607D01*
X74288Y-34682D01*
X74269Y-34770D01*
X74270Y-34774D01*
X74270Y-34898D01*
X74257Y-34885D01*
X74091Y-34816D01*
X73910Y-34816D01*
X73743Y-34885D01*
X73730Y-34898D01*
X73730Y-34865D01*
X75882Y-32712D01*
X75909Y-32724D01*
X76090Y-32724D01*
X76257Y-32655D01*
X76385Y-32527D01*
X76454Y-32361D01*
X76454Y-32180D01*
X76385Y-32013D01*
X76257Y-31885D01*
X76230Y-31873D01*
X76230Y-31450D01*
X76212Y-31362D01*
X76163Y-31287D01*
X76160Y-31285D01*
X76059Y-31184D01*
X76059Y-29770D01*
X76024Y-29594D01*
X75939Y-29563D01*
X75727Y-29775D01*
X75727Y-29351D01*
X75696Y-29266D01*
X75480Y-29231D01*
X75304Y-29266D01*
X75273Y-29351D01*
X75500Y-29578D01*
X75727Y-29351D01*
X75727Y-29775D01*
X75712Y-29790D01*
X75939Y-30017D01*
X76024Y-29986D01*
X76059Y-29770D01*
X76059Y-31184D01*
X75727Y-30852D01*
X75727Y-30229D01*
X75500Y-30002D01*
X75273Y-30229D01*
X75304Y-30314D01*
X75520Y-30349D01*
X75696Y-30314D01*
X75727Y-30229D01*
X75727Y-30852D01*
X74962Y-30087D01*
X74980Y-30046D01*
X74980Y-29987D01*
X75061Y-30017D01*
X75288Y-29790D01*
X75061Y-29563D01*
X74976Y-29594D01*
X74946Y-29774D01*
X74907Y-29679D01*
X74772Y-29543D01*
X74596Y-29470D01*
X74405Y-29470D01*
X74229Y-29543D01*
X74093Y-29678D01*
X74020Y-29854D01*
X74020Y-29984D01*
X73962Y-29927D01*
X73980Y-29886D01*
X73980Y-29695D01*
X73907Y-29519D01*
X73772Y-29383D01*
X73596Y-29310D01*
X73405Y-29310D01*
X73229Y-29383D01*
X73093Y-29518D01*
X73020Y-29694D01*
X73020Y-29885D01*
X73075Y-30020D01*
X72980Y-30020D01*
X72980Y-29855D01*
X72907Y-29679D01*
X72772Y-29543D01*
X72596Y-29470D01*
X72405Y-29470D01*
X72229Y-29543D01*
X72093Y-29678D01*
X72020Y-29854D01*
X72020Y-30045D01*
X72093Y-30221D01*
X72228Y-30357D01*
X72404Y-30430D01*
X72595Y-30430D01*
X72636Y-30412D01*
X72637Y-30413D01*
X72712Y-30462D01*
X72800Y-30480D01*
X73564Y-30480D01*
X73770Y-30685D01*
X73770Y-31873D01*
X73743Y-31885D01*
X73710Y-31918D01*
X73615Y-32013D01*
X73585Y-32085D01*
X73430Y-31930D01*
X73501Y-31930D01*
X73597Y-31891D01*
X73670Y-31818D01*
X73710Y-31722D01*
X73710Y-31619D01*
X73710Y-31535D01*
X73710Y-31005D01*
X73710Y-30921D01*
X73710Y-30818D01*
X73670Y-30722D01*
X73597Y-30649D01*
X73501Y-30610D01*
X73365Y-30610D01*
X73300Y-30675D01*
X73300Y-31070D01*
X73645Y-31070D01*
X73710Y-31005D01*
X73710Y-31535D01*
X73645Y-31470D01*
X73300Y-31470D01*
X73300Y-31800D01*
X73173Y-31673D01*
X73092Y-31753D01*
X73000Y-31737D01*
X73000Y-31470D01*
X73000Y-31070D01*
X73000Y-30675D01*
X72935Y-30610D01*
X72799Y-30610D01*
X72703Y-30649D01*
X72630Y-30722D01*
X72590Y-30818D01*
X72590Y-30921D01*
X72590Y-31005D01*
X72655Y-31070D01*
X73000Y-31070D01*
X73000Y-31470D01*
X72655Y-31470D01*
X72590Y-31535D01*
X72590Y-31619D01*
X72590Y-31722D01*
X72630Y-31818D01*
X72703Y-31891D01*
X72799Y-31930D01*
X72853Y-31930D01*
X73000Y-32076D01*
X73073Y-32003D01*
X73221Y-32151D01*
X73266Y-32196D01*
X73221Y-32242D01*
X73194Y-32270D01*
X73266Y-32343D01*
X73073Y-32536D01*
X73000Y-32464D01*
X72806Y-32657D01*
X72806Y-32270D01*
X72586Y-32049D01*
X72501Y-32077D01*
X72465Y-32283D01*
X72501Y-32463D01*
X72586Y-32491D01*
X72806Y-32270D01*
X72806Y-32657D01*
X72779Y-32684D01*
X72807Y-32769D01*
X73013Y-32805D01*
X73094Y-32788D01*
X73125Y-32819D01*
X72454Y-33490D01*
X72454Y-32361D01*
X72454Y-32180D01*
X72385Y-32013D01*
X72340Y-31968D01*
X72340Y-31420D01*
X72330Y-31373D01*
X72330Y-31370D01*
X72330Y-30834D01*
X72303Y-30768D01*
X72252Y-30717D01*
X72186Y-30690D01*
X72114Y-30690D01*
X71514Y-30690D01*
X71448Y-30717D01*
X71397Y-30768D01*
X71370Y-30834D01*
X71370Y-30906D01*
X71370Y-31706D01*
X71397Y-31772D01*
X71448Y-31823D01*
X71514Y-31850D01*
X71586Y-31850D01*
X71660Y-31850D01*
X71660Y-31968D01*
X71615Y-32013D01*
X71546Y-32179D01*
X71546Y-32360D01*
X71615Y-32527D01*
X71743Y-32655D01*
X71909Y-32724D01*
X72090Y-32724D01*
X72257Y-32655D01*
X72385Y-32527D01*
X72454Y-32361D01*
X72454Y-33490D01*
X71337Y-34607D01*
X71288Y-34682D01*
X71269Y-34769D01*
X71173Y-34673D01*
X71092Y-34753D01*
X70987Y-34735D01*
X70905Y-34751D01*
X70827Y-34673D01*
X70627Y-34872D01*
X70263Y-34507D01*
X70188Y-34458D01*
X70100Y-34439D01*
X70095Y-34440D01*
X69600Y-34440D01*
X69512Y-34458D01*
X69437Y-34507D01*
X69435Y-34509D01*
X69363Y-34580D01*
X69280Y-34497D01*
X69170Y-34451D01*
X69136Y-34451D01*
X68740Y-34054D01*
X68740Y-33692D01*
X68749Y-33683D01*
X68776Y-33749D01*
X68860Y-33833D01*
X68970Y-33879D01*
X69089Y-33879D01*
X69199Y-33834D01*
X69283Y-33750D01*
X69329Y-33640D01*
X69329Y-33521D01*
X69290Y-33427D01*
X69585Y-33132D01*
X70363Y-33132D01*
X70368Y-33133D01*
X70368Y-33132D01*
X70456Y-33114D01*
X70531Y-33065D01*
X70882Y-32712D01*
X70909Y-32724D01*
X71090Y-32724D01*
X71257Y-32655D01*
X71385Y-32527D01*
X71454Y-32361D01*
X71454Y-32180D01*
X71385Y-32013D01*
X71257Y-31885D01*
X71091Y-31816D01*
X70910Y-31816D01*
X70743Y-31885D01*
X70660Y-31968D01*
X70660Y-31095D01*
X71485Y-30270D01*
X71595Y-30270D01*
X71771Y-30197D01*
X71907Y-30062D01*
X71980Y-29886D01*
X71980Y-29695D01*
X71907Y-29519D01*
X71772Y-29383D01*
X71596Y-29310D01*
X71405Y-29310D01*
X71229Y-29383D01*
X71093Y-29518D01*
X71020Y-29694D01*
X71020Y-29885D01*
X71078Y-30026D01*
X70980Y-30124D01*
X70980Y-29614D01*
X70953Y-29548D01*
X70902Y-29497D01*
X70836Y-29470D01*
X70764Y-29470D01*
X70164Y-29470D01*
X70098Y-29497D01*
X70047Y-29548D01*
X70020Y-29614D01*
X70020Y-29686D01*
X70020Y-29720D01*
X69920Y-29720D01*
X69832Y-29738D01*
X69757Y-29787D01*
X69548Y-29994D01*
X69536Y-29982D01*
X69559Y-29850D01*
X69524Y-29674D01*
X69439Y-29643D01*
X69227Y-29855D01*
X69227Y-29431D01*
X69196Y-29346D01*
X68980Y-29311D01*
X68804Y-29346D01*
X68773Y-29431D01*
X69000Y-29658D01*
X69227Y-29431D01*
X69227Y-29855D01*
X69212Y-29870D01*
X69276Y-29934D01*
X69064Y-30146D01*
X69000Y-30082D01*
X68788Y-30294D01*
X68788Y-29870D01*
X68561Y-29643D01*
X68500Y-29665D01*
X68439Y-29643D01*
X68227Y-29855D01*
X68227Y-29431D01*
X68196Y-29346D01*
X67980Y-29311D01*
X67804Y-29346D01*
X67773Y-29431D01*
X68000Y-29658D01*
X68227Y-29431D01*
X68227Y-29855D01*
X68212Y-29870D01*
X68439Y-30097D01*
X68500Y-30074D01*
X68561Y-30097D01*
X68788Y-29870D01*
X68788Y-30294D01*
X68773Y-30309D01*
X68804Y-30394D01*
X68869Y-30404D01*
X68729Y-30463D01*
X68593Y-30598D01*
X68520Y-30774D01*
X68520Y-30965D01*
X68593Y-31141D01*
X68728Y-31277D01*
X68774Y-31296D01*
X68788Y-31358D01*
X68837Y-31433D01*
X69557Y-32152D01*
X69546Y-32179D01*
X69546Y-32360D01*
X69591Y-32470D01*
X69408Y-32470D01*
X69454Y-32361D01*
X69454Y-32180D01*
X69385Y-32013D01*
X69257Y-31885D01*
X69091Y-31816D01*
X68910Y-31816D01*
X68743Y-31885D01*
X68615Y-32013D01*
X68546Y-32179D01*
X68546Y-32360D01*
X68615Y-32527D01*
X68743Y-32655D01*
X68770Y-32666D01*
X68770Y-32724D01*
X68480Y-33014D01*
X68480Y-30966D01*
X68480Y-30775D01*
X68407Y-30599D01*
X68272Y-30463D01*
X68134Y-30406D01*
X68196Y-30394D01*
X68227Y-30309D01*
X68000Y-30082D01*
X67788Y-30294D01*
X67788Y-29870D01*
X67561Y-29643D01*
X67500Y-29665D01*
X67439Y-29643D01*
X67227Y-29855D01*
X67227Y-29431D01*
X67196Y-29346D01*
X66980Y-29311D01*
X66804Y-29346D01*
X66773Y-29431D01*
X67000Y-29658D01*
X67227Y-29431D01*
X67227Y-29855D01*
X67212Y-29870D01*
X67439Y-30097D01*
X67500Y-30074D01*
X67561Y-30097D01*
X67788Y-29870D01*
X67788Y-30294D01*
X67773Y-30309D01*
X67804Y-30394D01*
X67869Y-30404D01*
X67729Y-30463D01*
X67593Y-30598D01*
X67520Y-30774D01*
X67520Y-30965D01*
X67593Y-31141D01*
X67728Y-31277D01*
X67770Y-31294D01*
X67770Y-31873D01*
X67743Y-31885D01*
X67615Y-32013D01*
X67546Y-32179D01*
X67546Y-32360D01*
X67615Y-32527D01*
X67743Y-32655D01*
X67909Y-32724D01*
X68090Y-32724D01*
X68257Y-32655D01*
X68385Y-32527D01*
X68454Y-32361D01*
X68454Y-32180D01*
X68385Y-32013D01*
X68257Y-31885D01*
X68230Y-31873D01*
X68230Y-31294D01*
X68271Y-31277D01*
X68407Y-31142D01*
X68480Y-30966D01*
X68480Y-33014D01*
X68193Y-33301D01*
X68161Y-33301D01*
X68051Y-33346D01*
X67967Y-33430D01*
X67921Y-33540D01*
X67921Y-33659D01*
X67966Y-33769D01*
X68050Y-33853D01*
X68160Y-33899D01*
X68279Y-33899D01*
X68280Y-33898D01*
X68280Y-34145D01*
X68279Y-34150D01*
X68290Y-34201D01*
X68280Y-34199D01*
X68275Y-34200D01*
X67480Y-34200D01*
X67480Y-30966D01*
X67480Y-30775D01*
X67407Y-30599D01*
X67272Y-30463D01*
X67134Y-30406D01*
X67196Y-30394D01*
X67227Y-30309D01*
X67000Y-30082D01*
X66788Y-30294D01*
X66788Y-29870D01*
X66561Y-29643D01*
X66500Y-29665D01*
X66439Y-29643D01*
X66227Y-29855D01*
X66227Y-29431D01*
X66196Y-29346D01*
X65980Y-29311D01*
X65804Y-29346D01*
X65773Y-29431D01*
X66000Y-29658D01*
X66227Y-29431D01*
X66227Y-29855D01*
X66212Y-29870D01*
X66439Y-30097D01*
X66500Y-30074D01*
X66561Y-30097D01*
X66788Y-29870D01*
X66788Y-30294D01*
X66773Y-30309D01*
X66804Y-30394D01*
X66869Y-30404D01*
X66729Y-30463D01*
X66593Y-30598D01*
X66520Y-30774D01*
X66520Y-30965D01*
X66593Y-31141D01*
X66728Y-31277D01*
X66770Y-31294D01*
X66770Y-31873D01*
X66743Y-31885D01*
X66615Y-32013D01*
X66546Y-32179D01*
X66546Y-32360D01*
X66615Y-32527D01*
X66743Y-32655D01*
X66909Y-32724D01*
X67090Y-32724D01*
X67257Y-32655D01*
X67385Y-32527D01*
X67454Y-32361D01*
X67454Y-32180D01*
X67385Y-32013D01*
X67257Y-31885D01*
X67230Y-31873D01*
X67230Y-31294D01*
X67271Y-31277D01*
X67407Y-31142D01*
X67480Y-30966D01*
X67480Y-34200D01*
X66480Y-34200D01*
X66480Y-31206D01*
X66480Y-31134D01*
X66480Y-30534D01*
X66453Y-30468D01*
X66402Y-30417D01*
X66336Y-30390D01*
X66264Y-30390D01*
X66197Y-30390D01*
X66227Y-30309D01*
X66000Y-30082D01*
X65788Y-30294D01*
X65788Y-29870D01*
X65561Y-29643D01*
X65476Y-29674D01*
X65441Y-29890D01*
X65476Y-30066D01*
X65561Y-30097D01*
X65788Y-29870D01*
X65788Y-30294D01*
X65773Y-30309D01*
X65802Y-30390D01*
X65664Y-30390D01*
X65598Y-30417D01*
X65547Y-30468D01*
X65520Y-30534D01*
X65520Y-30606D01*
X65520Y-31206D01*
X65547Y-31272D01*
X65598Y-31323D01*
X65664Y-31350D01*
X65736Y-31350D01*
X65770Y-31350D01*
X65770Y-31873D01*
X65743Y-31885D01*
X65615Y-32013D01*
X65546Y-32179D01*
X65546Y-32360D01*
X65615Y-32527D01*
X65743Y-32655D01*
X65909Y-32724D01*
X66090Y-32724D01*
X66257Y-32655D01*
X66385Y-32527D01*
X66454Y-32361D01*
X66454Y-32180D01*
X66385Y-32013D01*
X66257Y-31885D01*
X66230Y-31873D01*
X66230Y-31350D01*
X66336Y-31350D01*
X66402Y-31323D01*
X66453Y-31272D01*
X66480Y-31206D01*
X66480Y-34200D01*
X65535Y-34200D01*
X65535Y-32257D01*
X65499Y-32077D01*
X65414Y-32049D01*
X65221Y-32242D01*
X65221Y-31856D01*
X65205Y-31808D01*
X65210Y-31797D01*
X65210Y-31694D01*
X65210Y-31672D01*
X65210Y-31268D01*
X65210Y-31246D01*
X65210Y-31143D01*
X65170Y-31047D01*
X65097Y-30974D01*
X65001Y-30935D01*
X64927Y-30935D01*
X64862Y-31000D01*
X64862Y-31333D01*
X65145Y-31333D01*
X65210Y-31268D01*
X65210Y-31672D01*
X65145Y-31607D01*
X64862Y-31607D01*
X64862Y-31708D01*
X64827Y-31673D01*
X64688Y-31812D01*
X64688Y-31607D01*
X64600Y-31607D01*
X64600Y-31333D01*
X64688Y-31333D01*
X64688Y-31000D01*
X64623Y-30935D01*
X64549Y-30935D01*
X64453Y-30974D01*
X64380Y-31047D01*
X64356Y-31102D01*
X64353Y-31093D01*
X64302Y-31042D01*
X64236Y-31015D01*
X64164Y-31015D01*
X63814Y-31015D01*
X63748Y-31042D01*
X63697Y-31093D01*
X63670Y-31159D01*
X63670Y-31231D01*
X63670Y-31445D01*
X63660Y-31495D01*
X63660Y-31968D01*
X63615Y-32013D01*
X63546Y-32179D01*
X63546Y-32360D01*
X63615Y-32527D01*
X63743Y-32655D01*
X63909Y-32724D01*
X64090Y-32724D01*
X64257Y-32655D01*
X64385Y-32527D01*
X64454Y-32361D01*
X64454Y-32180D01*
X64431Y-32125D01*
X64483Y-32177D01*
X64465Y-32283D01*
X64501Y-32463D01*
X64586Y-32491D01*
X64806Y-32270D01*
X64733Y-32196D01*
X64926Y-32004D01*
X64927Y-32005D01*
X64928Y-32005D01*
X65000Y-32076D01*
X65221Y-31856D01*
X65221Y-32242D01*
X65194Y-32270D01*
X65414Y-32491D01*
X65499Y-32463D01*
X65535Y-32257D01*
X65535Y-34200D01*
X65221Y-34200D01*
X65221Y-32684D01*
X65000Y-32464D01*
X64806Y-32657D01*
X64779Y-32684D01*
X64807Y-32769D01*
X65013Y-32805D01*
X65193Y-32769D01*
X65221Y-32684D01*
X65221Y-34200D01*
X63488Y-34200D01*
X63400Y-34218D01*
X63325Y-34267D01*
X63323Y-34269D01*
X62703Y-34889D01*
X62654Y-34964D01*
X62635Y-35052D01*
X62636Y-35056D01*
X62636Y-35254D01*
X61790Y-36100D01*
X59824Y-36100D01*
X59880Y-35966D01*
X59880Y-35775D01*
X59807Y-35599D01*
X59672Y-35463D01*
X59640Y-35450D01*
X61300Y-35450D01*
X61522Y-35406D01*
X61539Y-35394D01*
X61756Y-35394D01*
X61949Y-35314D01*
X62096Y-35167D01*
X62176Y-34974D01*
X62176Y-34766D01*
X62096Y-34573D01*
X61949Y-34426D01*
X61813Y-34370D01*
X61949Y-34314D01*
X62096Y-34167D01*
X62176Y-33974D01*
X62176Y-33766D01*
X62096Y-33573D01*
X61949Y-33426D01*
X61813Y-33370D01*
X61949Y-33314D01*
X62096Y-33167D01*
X62176Y-32974D01*
X62176Y-32766D01*
X62096Y-32573D01*
X61949Y-32426D01*
X61813Y-32370D01*
X61949Y-32314D01*
X62096Y-32167D01*
X62176Y-31974D01*
X62176Y-31766D01*
X62096Y-31573D01*
X61949Y-31426D01*
X61756Y-31346D01*
X61548Y-31346D01*
X61539Y-31346D01*
X61522Y-31334D01*
X61300Y-31290D01*
X59959Y-31290D01*
X59959Y-30850D01*
X59924Y-30674D01*
X59839Y-30643D01*
X59612Y-30870D01*
X59839Y-31097D01*
X59924Y-31066D01*
X59959Y-30850D01*
X59959Y-31290D01*
X59608Y-31290D01*
X59469Y-31151D01*
X59466Y-30591D01*
X59627Y-30431D01*
X59617Y-30405D01*
X59621Y-30405D01*
X59810Y-30280D01*
X59935Y-30091D01*
X59979Y-29869D01*
X59935Y-29647D01*
X59810Y-29459D01*
X58910Y-28560D01*
X58865Y-28530D01*
X75794Y-28530D01*
X75930Y-28557D01*
X76040Y-28630D01*
X76113Y-28740D01*
X76140Y-28876D01*
X76140Y-30376D01*
X76173Y-30546D01*
X76274Y-30696D01*
X76424Y-30797D01*
X76594Y-30830D01*
X78094Y-30830D01*
X78230Y-30857D01*
X78340Y-30930D01*
X78413Y-31040D01*
X78440Y-31176D01*
X78440Y-44564D01*
X78440Y-44564D01*
G37*
G54D34*
X78440Y-44564D02*
X78413Y-44700D01*
X78340Y-44810D01*
X78230Y-44883D01*
X78094Y-44910D01*
X77210Y-44910D01*
X77210Y-36497D01*
X77210Y-36394D01*
X77210Y-36372D01*
X77145Y-36307D01*
X76862Y-36307D01*
X76862Y-36640D01*
X76927Y-36705D01*
X77001Y-36705D01*
X77097Y-36666D01*
X77170Y-36593D01*
X77210Y-36497D01*
X77210Y-44910D01*
X76594Y-44910D01*
X76424Y-44943D01*
X76274Y-45044D01*
X76173Y-45194D01*
X76140Y-45364D01*
X76140Y-46864D01*
X76113Y-47000D01*
X76040Y-47110D01*
X75930Y-47183D01*
X75794Y-47210D01*
X75759Y-47210D01*
X75759Y-45850D01*
X75724Y-45674D01*
X75639Y-45643D01*
X75412Y-45870D01*
X75639Y-46097D01*
X75724Y-46066D01*
X75759Y-45850D01*
X75759Y-47210D01*
X75427Y-47210D01*
X75427Y-46309D01*
X75200Y-46082D01*
X74988Y-46294D01*
X74988Y-45870D01*
X74761Y-45643D01*
X74700Y-45665D01*
X74639Y-45643D01*
X74412Y-45870D01*
X74639Y-46097D01*
X74700Y-46074D01*
X74761Y-46097D01*
X74988Y-45870D01*
X74988Y-46294D01*
X74973Y-46309D01*
X75004Y-46394D01*
X75220Y-46429D01*
X75396Y-46394D01*
X75427Y-46309D01*
X75427Y-47210D01*
X74427Y-47210D01*
X74427Y-46309D01*
X74200Y-46082D01*
X73988Y-46294D01*
X73988Y-45870D01*
X73761Y-45643D01*
X73700Y-45665D01*
X73639Y-45643D01*
X73412Y-45870D01*
X73639Y-46097D01*
X73700Y-46074D01*
X73761Y-46097D01*
X73988Y-45870D01*
X73988Y-46294D01*
X73973Y-46309D01*
X74004Y-46394D01*
X74220Y-46429D01*
X74396Y-46394D01*
X74427Y-46309D01*
X74427Y-47210D01*
X73427Y-47210D01*
X73427Y-46309D01*
X73200Y-46082D01*
X72988Y-46294D01*
X72988Y-45870D01*
X72761Y-45643D01*
X72700Y-45665D01*
X72639Y-45643D01*
X72412Y-45870D01*
X72639Y-46097D01*
X72700Y-46074D01*
X72761Y-46097D01*
X72988Y-45870D01*
X72988Y-46294D01*
X72973Y-46309D01*
X73004Y-46394D01*
X73220Y-46429D01*
X73396Y-46394D01*
X73427Y-46309D01*
X73427Y-47210D01*
X72427Y-47210D01*
X72427Y-46309D01*
X72200Y-46082D01*
X71988Y-46294D01*
X71973Y-46309D01*
X72004Y-46394D01*
X72220Y-46429D01*
X72396Y-46394D01*
X72427Y-46309D01*
X72427Y-47210D01*
X71050Y-47210D01*
X71050Y-46365D01*
X71050Y-46020D01*
X70705Y-46020D01*
X70640Y-46085D01*
X70640Y-46119D01*
X70640Y-46222D01*
X70680Y-46318D01*
X70753Y-46391D01*
X70849Y-46430D01*
X70985Y-46430D01*
X71050Y-46365D01*
X71050Y-47210D01*
X69759Y-47210D01*
X69759Y-45850D01*
X69724Y-45674D01*
X69639Y-45643D01*
X69412Y-45870D01*
X69639Y-46097D01*
X69724Y-46066D01*
X69759Y-45850D01*
X69759Y-47210D01*
X69427Y-47210D01*
X69427Y-46309D01*
X69251Y-46133D01*
X69200Y-46082D01*
X68988Y-46294D01*
X68988Y-45870D01*
X68761Y-45643D01*
X68700Y-45665D01*
X68639Y-45643D01*
X68412Y-45870D01*
X68639Y-46097D01*
X68700Y-46074D01*
X68761Y-46097D01*
X68988Y-45870D01*
X68988Y-46294D01*
X68973Y-46309D01*
X69004Y-46394D01*
X69220Y-46429D01*
X69251Y-46422D01*
X69396Y-46394D01*
X69427Y-46309D01*
X69427Y-47210D01*
X69251Y-47210D01*
X68427Y-47210D01*
X68427Y-46309D01*
X68200Y-46082D01*
X67988Y-46294D01*
X67988Y-45870D01*
X67761Y-45643D01*
X67700Y-45665D01*
X67639Y-45643D01*
X67412Y-45870D01*
X67639Y-46097D01*
X67700Y-46074D01*
X67761Y-46097D01*
X67988Y-45870D01*
X67988Y-46294D01*
X67973Y-46309D01*
X68004Y-46394D01*
X68220Y-46429D01*
X68396Y-46394D01*
X68427Y-46309D01*
X68427Y-47210D01*
X67427Y-47210D01*
X67427Y-46309D01*
X67200Y-46082D01*
X66988Y-46294D01*
X66988Y-45870D01*
X66761Y-45643D01*
X66700Y-45665D01*
X66639Y-45643D01*
X66412Y-45870D01*
X66639Y-46097D01*
X66700Y-46074D01*
X66761Y-46097D01*
X66988Y-45870D01*
X66988Y-46294D01*
X66973Y-46309D01*
X67004Y-46394D01*
X67220Y-46429D01*
X67396Y-46394D01*
X67427Y-46309D01*
X67427Y-47210D01*
X66427Y-47210D01*
X66427Y-46309D01*
X66200Y-46082D01*
X65988Y-46294D01*
X65988Y-45870D01*
X65761Y-45643D01*
X65700Y-45665D01*
X65639Y-45643D01*
X65412Y-45870D01*
X65639Y-46097D01*
X65700Y-46074D01*
X65761Y-46097D01*
X65988Y-45870D01*
X65988Y-46294D01*
X65973Y-46309D01*
X66004Y-46394D01*
X66220Y-46429D01*
X66396Y-46394D01*
X66427Y-46309D01*
X66427Y-47210D01*
X65427Y-47210D01*
X65427Y-46309D01*
X65200Y-46082D01*
X64973Y-46309D01*
X65004Y-46394D01*
X65220Y-46429D01*
X65396Y-46394D01*
X65427Y-46309D01*
X65427Y-47210D01*
X64280Y-47210D01*
X64050Y-47210D01*
X64050Y-46365D01*
X64050Y-46020D01*
X63705Y-46020D01*
X63640Y-46085D01*
X63640Y-46119D01*
X63640Y-46222D01*
X63680Y-46318D01*
X63753Y-46391D01*
X63849Y-46430D01*
X63985Y-46430D01*
X64050Y-46365D01*
X64050Y-47210D01*
X63235Y-47210D01*
X63235Y-39671D01*
X63235Y-39597D01*
X63170Y-39532D01*
X62837Y-39532D01*
X62837Y-39815D01*
X62902Y-39880D01*
X62924Y-39880D01*
X63027Y-39880D01*
X63123Y-39840D01*
X63196Y-39767D01*
X63235Y-39671D01*
X63235Y-47210D01*
X62563Y-47210D01*
X62563Y-39815D01*
X62563Y-39532D01*
X62230Y-39532D01*
X62165Y-39597D01*
X62165Y-39671D01*
X62204Y-39767D01*
X62277Y-39840D01*
X62373Y-39880D01*
X62476Y-39880D01*
X62498Y-39880D01*
X62563Y-39815D01*
X62563Y-47210D01*
X61510Y-47210D01*
X61510Y-46097D01*
X61510Y-45994D01*
X61510Y-45972D01*
X61510Y-45568D01*
X61510Y-45546D01*
X61510Y-45443D01*
X61470Y-45347D01*
X61397Y-45274D01*
X61301Y-45235D01*
X61227Y-45235D01*
X61162Y-45300D01*
X61162Y-45633D01*
X61445Y-45633D01*
X61510Y-45568D01*
X61510Y-45972D01*
X61445Y-45907D01*
X61162Y-45907D01*
X61162Y-46240D01*
X61227Y-46305D01*
X61301Y-46305D01*
X61397Y-46266D01*
X61470Y-46193D01*
X61510Y-46097D01*
X61510Y-47210D01*
X59959Y-47210D01*
X59959Y-45850D01*
X59924Y-45674D01*
X59839Y-45643D01*
X59612Y-45870D01*
X59839Y-46097D01*
X59924Y-46066D01*
X59959Y-45850D01*
X59959Y-47210D01*
X59627Y-47210D01*
X59627Y-46309D01*
X59557Y-46239D01*
X59400Y-46082D01*
X59188Y-46294D01*
X59173Y-46309D01*
X59204Y-46394D01*
X59420Y-46429D01*
X59557Y-46401D01*
X59596Y-46394D01*
X59627Y-46309D01*
X59627Y-47210D01*
X59557Y-47210D01*
X51159Y-47210D01*
X50827Y-47210D01*
X50827Y-46309D01*
X50600Y-46082D01*
X50388Y-46294D01*
X50373Y-46309D01*
X50404Y-46394D01*
X50620Y-46429D01*
X50796Y-46394D01*
X50827Y-46309D01*
X50827Y-47210D01*
X46097Y-47210D01*
X44935Y-47210D01*
X44935Y-44221D01*
X44935Y-44147D01*
X44935Y-43843D01*
X44935Y-43769D01*
X44896Y-43673D01*
X44823Y-43600D01*
X44727Y-43560D01*
X44624Y-43560D01*
X44602Y-43560D01*
X44537Y-43625D01*
X44537Y-43908D01*
X44870Y-43908D01*
X44935Y-43843D01*
X44935Y-44147D01*
X44870Y-44082D01*
X44537Y-44082D01*
X44537Y-44170D01*
X44263Y-44170D01*
X44263Y-44082D01*
X44263Y-43908D01*
X44263Y-43625D01*
X44198Y-43560D01*
X44176Y-43560D01*
X44073Y-43560D01*
X44060Y-43565D01*
X44060Y-41422D01*
X44060Y-41319D01*
X44060Y-41235D01*
X44060Y-40705D01*
X44060Y-40621D01*
X44060Y-40518D01*
X44020Y-40422D01*
X43947Y-40349D01*
X43851Y-40310D01*
X43765Y-40310D01*
X43700Y-40375D01*
X43700Y-40770D01*
X43995Y-40770D01*
X44060Y-40705D01*
X44060Y-41235D01*
X43995Y-41170D01*
X43700Y-41170D01*
X43700Y-41565D01*
X43765Y-41630D01*
X43851Y-41630D01*
X43947Y-41591D01*
X44020Y-41518D01*
X44060Y-41422D01*
X44060Y-43565D01*
X43977Y-43600D01*
X43904Y-43673D01*
X43865Y-43769D01*
X43865Y-43843D01*
X43930Y-43908D01*
X44263Y-43908D01*
X44263Y-44082D01*
X43930Y-44082D01*
X43865Y-44147D01*
X43865Y-44221D01*
X43886Y-44274D01*
X43875Y-44263D01*
X43809Y-44236D01*
X43737Y-44236D01*
X43109Y-44236D01*
X43043Y-44263D01*
X42992Y-44314D01*
X42965Y-44380D01*
X42965Y-44452D01*
X42965Y-45160D01*
X42992Y-45226D01*
X43043Y-45277D01*
X43109Y-45304D01*
X43181Y-45304D01*
X43809Y-45304D01*
X43875Y-45277D01*
X43926Y-45226D01*
X43953Y-45160D01*
X43953Y-45088D01*
X43953Y-45000D01*
X43963Y-45000D01*
X43972Y-45022D01*
X44023Y-45073D01*
X44089Y-45100D01*
X44161Y-45100D01*
X44711Y-45100D01*
X44777Y-45073D01*
X44828Y-45022D01*
X44855Y-44956D01*
X44855Y-44884D01*
X44855Y-44534D01*
X44828Y-44468D01*
X44777Y-44417D01*
X44767Y-44413D01*
X44823Y-44390D01*
X44896Y-44317D01*
X44935Y-44221D01*
X44935Y-47210D01*
X42306Y-47210D01*
X42170Y-47183D01*
X42060Y-47110D01*
X41987Y-47000D01*
X41960Y-46864D01*
X41960Y-45364D01*
X41944Y-45285D01*
X41991Y-45304D01*
X42063Y-45304D01*
X42691Y-45304D01*
X42757Y-45277D01*
X42808Y-45226D01*
X42835Y-45160D01*
X42835Y-45088D01*
X42835Y-44380D01*
X42808Y-44314D01*
X42757Y-44263D01*
X42691Y-44236D01*
X42619Y-44236D01*
X42133Y-44236D01*
X42047Y-44150D01*
X43456Y-44150D01*
X43522Y-44123D01*
X43573Y-44072D01*
X43600Y-44006D01*
X43600Y-43934D01*
X43600Y-43134D01*
X43573Y-43068D01*
X43522Y-43017D01*
X43500Y-43008D01*
X43500Y-41565D01*
X43500Y-41170D01*
X43500Y-40770D01*
X43500Y-40375D01*
X43435Y-40310D01*
X43349Y-40310D01*
X43253Y-40349D01*
X43180Y-40422D01*
X43140Y-40518D01*
X43140Y-40621D01*
X43140Y-40705D01*
X43205Y-40770D01*
X43500Y-40770D01*
X43500Y-41170D01*
X43205Y-41170D01*
X43140Y-41235D01*
X43140Y-41319D01*
X43140Y-41422D01*
X43180Y-41518D01*
X43253Y-41591D01*
X43349Y-41630D01*
X43435Y-41630D01*
X43500Y-41565D01*
X43500Y-43008D01*
X43456Y-42990D01*
X43384Y-42990D01*
X42106Y-42990D01*
X42339Y-42756D01*
X42357Y-42799D01*
X42471Y-42912D01*
X42619Y-42974D01*
X42780Y-42974D01*
X42929Y-42913D01*
X43042Y-42799D01*
X43104Y-42651D01*
X43104Y-42490D01*
X43050Y-42359D01*
X43104Y-42231D01*
X43104Y-42070D01*
X43043Y-41921D01*
X43040Y-41918D01*
X43040Y-41891D01*
X43042Y-41889D01*
X43104Y-41741D01*
X43104Y-41580D01*
X43056Y-41463D01*
X43080Y-41406D01*
X43080Y-41334D01*
X43080Y-40534D01*
X43053Y-40468D01*
X43002Y-40417D01*
X42936Y-40390D01*
X42864Y-40390D01*
X42464Y-40390D01*
X42458Y-40392D01*
X42458Y-36905D01*
X42458Y-32505D01*
X42425Y-32340D01*
X42331Y-32279D01*
X42039Y-32570D01*
X42331Y-32861D01*
X42425Y-32800D01*
X42458Y-32505D01*
X42458Y-36905D01*
X42425Y-36740D01*
X42380Y-36710D01*
X42380Y-34674D01*
X42380Y-34403D01*
X42277Y-34153D01*
X42085Y-33962D01*
X41991Y-33922D01*
X41991Y-33201D01*
X41991Y-31939D01*
X41930Y-31845D01*
X41635Y-31812D01*
X41470Y-31845D01*
X41409Y-31939D01*
X41700Y-32231D01*
X41991Y-31939D01*
X41991Y-33201D01*
X41700Y-32909D01*
X41409Y-33201D01*
X41470Y-33295D01*
X41765Y-33328D01*
X41930Y-33295D01*
X41991Y-33201D01*
X41991Y-33922D01*
X41836Y-33858D01*
X41565Y-33858D01*
X41361Y-33942D01*
X41361Y-32570D01*
X41069Y-32279D01*
X40975Y-32340D01*
X40942Y-32635D01*
X40975Y-32800D01*
X41069Y-32861D01*
X41361Y-32570D01*
X41361Y-33942D01*
X41315Y-33961D01*
X41124Y-34153D01*
X41020Y-34402D01*
X41020Y-34673D01*
X41123Y-34923D01*
X41315Y-35114D01*
X41564Y-35218D01*
X41835Y-35218D01*
X42085Y-35115D01*
X42276Y-34923D01*
X42380Y-34674D01*
X42380Y-36710D01*
X42331Y-36679D01*
X42039Y-36970D01*
X42331Y-37261D01*
X42425Y-37200D01*
X42458Y-36905D01*
X42458Y-40392D01*
X42398Y-40417D01*
X42347Y-40468D01*
X42320Y-40534D01*
X42320Y-40606D01*
X42320Y-41406D01*
X42343Y-41464D01*
X42296Y-41579D01*
X42296Y-41740D01*
X42357Y-41889D01*
X42360Y-41891D01*
X42360Y-41918D01*
X42358Y-41921D01*
X42301Y-42055D01*
X41575Y-42055D01*
X41680Y-42034D01*
X41790Y-41960D01*
X42040Y-41711D01*
X42040Y-41710D01*
X42114Y-41600D01*
X42136Y-41488D01*
X42153Y-41472D01*
X42180Y-41406D01*
X42180Y-41334D01*
X42180Y-40534D01*
X42153Y-40468D01*
X42140Y-40455D01*
X42140Y-39459D01*
X42276Y-39323D01*
X42380Y-39074D01*
X42380Y-38803D01*
X42277Y-38553D01*
X42085Y-38362D01*
X41991Y-38322D01*
X41991Y-37601D01*
X41991Y-36339D01*
X41930Y-36245D01*
X41635Y-36212D01*
X41470Y-36245D01*
X41409Y-36339D01*
X41700Y-36631D01*
X41991Y-36339D01*
X41991Y-37601D01*
X41700Y-37309D01*
X41409Y-37601D01*
X41470Y-37695D01*
X41765Y-37728D01*
X41930Y-37695D01*
X41991Y-37601D01*
X41991Y-38322D01*
X41836Y-38258D01*
X41565Y-38258D01*
X41361Y-38342D01*
X41361Y-36970D01*
X41069Y-36679D01*
X40975Y-36740D01*
X40942Y-37035D01*
X40975Y-37200D01*
X41069Y-37261D01*
X41361Y-36970D01*
X41361Y-38342D01*
X41315Y-38361D01*
X41124Y-38553D01*
X41020Y-38802D01*
X41020Y-39073D01*
X41123Y-39323D01*
X41315Y-39514D01*
X41460Y-39574D01*
X41460Y-40455D01*
X41447Y-40468D01*
X41420Y-40534D01*
X41420Y-40606D01*
X41420Y-41369D01*
X41409Y-41380D01*
X41360Y-41380D01*
X41360Y-40771D01*
X41360Y-40635D01*
X41360Y-40205D01*
X41360Y-40069D01*
X41321Y-39973D01*
X41248Y-39900D01*
X41152Y-39860D01*
X41049Y-39860D01*
X40965Y-39860D01*
X40900Y-39925D01*
X40900Y-40270D01*
X41295Y-40270D01*
X41360Y-40205D01*
X41360Y-40635D01*
X41295Y-40570D01*
X40900Y-40570D01*
X40900Y-40915D01*
X40965Y-40980D01*
X41049Y-40980D01*
X41152Y-40980D01*
X41248Y-40940D01*
X41321Y-40867D01*
X41360Y-40771D01*
X41360Y-41380D01*
X41278Y-41380D01*
X41253Y-41318D01*
X41202Y-41267D01*
X41136Y-41240D01*
X41064Y-41240D01*
X40500Y-41240D01*
X40500Y-40915D01*
X40500Y-40570D01*
X40500Y-40270D01*
X40500Y-39925D01*
X40435Y-39860D01*
X40351Y-39860D01*
X40248Y-39860D01*
X40152Y-39900D01*
X40079Y-39973D01*
X40040Y-40069D01*
X40040Y-40205D01*
X40105Y-40270D01*
X40500Y-40270D01*
X40500Y-40570D01*
X40105Y-40570D01*
X40040Y-40635D01*
X40040Y-40771D01*
X40079Y-40867D01*
X40152Y-40940D01*
X40248Y-40980D01*
X40351Y-40980D01*
X40435Y-40980D01*
X40500Y-40915D01*
X40500Y-41240D01*
X40264Y-41240D01*
X40198Y-41267D01*
X40147Y-41318D01*
X40120Y-41384D01*
X40120Y-41456D01*
X40120Y-42056D01*
X40146Y-42120D01*
X40120Y-42184D01*
X40120Y-42256D01*
X40120Y-42856D01*
X40147Y-42922D01*
X40198Y-42973D01*
X40264Y-43000D01*
X40336Y-43000D01*
X41136Y-43000D01*
X41202Y-42973D01*
X41253Y-42922D01*
X41280Y-42856D01*
X41280Y-42784D01*
X41280Y-42735D01*
X41709Y-42735D01*
X41637Y-42807D01*
X41588Y-42882D01*
X41569Y-42970D01*
X41570Y-42974D01*
X41570Y-44224D01*
X41569Y-44229D01*
X41588Y-44317D01*
X41637Y-44392D01*
X41847Y-44602D01*
X41847Y-45075D01*
X41826Y-45044D01*
X41676Y-44943D01*
X41506Y-44910D01*
X41360Y-44910D01*
X41360Y-44171D01*
X41360Y-44035D01*
X41360Y-43605D01*
X41360Y-43469D01*
X41321Y-43373D01*
X41248Y-43300D01*
X41152Y-43260D01*
X41049Y-43260D01*
X40965Y-43260D01*
X40900Y-43325D01*
X40900Y-43670D01*
X41295Y-43670D01*
X41360Y-43605D01*
X41360Y-44035D01*
X41295Y-43970D01*
X40900Y-43970D01*
X40900Y-44315D01*
X40965Y-44380D01*
X41049Y-44380D01*
X41152Y-44380D01*
X41248Y-44340D01*
X41321Y-44267D01*
X41360Y-44171D01*
X41360Y-44910D01*
X40500Y-44910D01*
X40500Y-44315D01*
X40500Y-43970D01*
X40500Y-43670D01*
X40500Y-43325D01*
X40435Y-43260D01*
X40351Y-43260D01*
X40248Y-43260D01*
X40152Y-43300D01*
X40079Y-43373D01*
X40040Y-43469D01*
X40040Y-43605D01*
X40105Y-43670D01*
X40500Y-43670D01*
X40500Y-43970D01*
X40105Y-43970D01*
X40040Y-44035D01*
X40040Y-44171D01*
X40079Y-44267D01*
X40152Y-44340D01*
X40248Y-44380D01*
X40351Y-44380D01*
X40435Y-44380D01*
X40500Y-44315D01*
X40500Y-44910D01*
X40006Y-44910D01*
X39870Y-44883D01*
X39760Y-44810D01*
X39687Y-44700D01*
X39660Y-44564D01*
X39660Y-31176D01*
X39687Y-31040D01*
X39760Y-30930D01*
X39870Y-30857D01*
X40006Y-30830D01*
X41506Y-30830D01*
X41676Y-30797D01*
X41826Y-30696D01*
X41927Y-30546D01*
X41960Y-30376D01*
X41960Y-28876D01*
X41987Y-28740D01*
X42060Y-28630D01*
X42170Y-28557D01*
X42306Y-28530D01*
X44734Y-28530D01*
X44690Y-28560D01*
X44090Y-29160D01*
X43964Y-29348D01*
X43920Y-29570D01*
X43920Y-31730D01*
X43290Y-32360D01*
X43164Y-32548D01*
X43120Y-32770D01*
X43120Y-36770D01*
X43164Y-36992D01*
X43290Y-37180D01*
X44490Y-38380D01*
X44678Y-38506D01*
X44900Y-38550D01*
X45120Y-38550D01*
X45120Y-38606D01*
X45120Y-39206D01*
X45147Y-39272D01*
X45198Y-39323D01*
X45264Y-39350D01*
X45336Y-39350D01*
X45601Y-39350D01*
X45601Y-39390D01*
X45505Y-39390D01*
X45329Y-39463D01*
X45193Y-39598D01*
X45120Y-39774D01*
X45120Y-39965D01*
X45193Y-40141D01*
X45328Y-40277D01*
X45504Y-40350D01*
X45607Y-40350D01*
X45607Y-40390D01*
X45505Y-40390D01*
X45329Y-40463D01*
X45193Y-40598D01*
X45120Y-40774D01*
X45120Y-40965D01*
X45193Y-41141D01*
X45328Y-41277D01*
X45504Y-41350D01*
X45613Y-41350D01*
X45613Y-41390D01*
X45505Y-41390D01*
X45329Y-41463D01*
X45193Y-41598D01*
X45120Y-41774D01*
X45120Y-41965D01*
X45193Y-42141D01*
X45328Y-42277D01*
X45504Y-42350D01*
X45619Y-42350D01*
X45620Y-42390D01*
X45505Y-42390D01*
X45329Y-42463D01*
X45193Y-42598D01*
X45120Y-42774D01*
X45120Y-42965D01*
X45193Y-43141D01*
X45320Y-43268D01*
X45320Y-43471D01*
X45193Y-43598D01*
X45120Y-43774D01*
X45120Y-43965D01*
X45193Y-44141D01*
X45328Y-44277D01*
X45504Y-44350D01*
X45632Y-44350D01*
X45632Y-44390D01*
X45505Y-44390D01*
X45329Y-44463D01*
X45193Y-44598D01*
X45120Y-44774D01*
X45120Y-44965D01*
X45193Y-45141D01*
X45328Y-45277D01*
X45504Y-45350D01*
X45695Y-45350D01*
X45731Y-45335D01*
X45773Y-45397D01*
X45870Y-45462D01*
X45696Y-45390D01*
X45505Y-45390D01*
X45329Y-45463D01*
X45193Y-45598D01*
X45120Y-45774D01*
X45120Y-45965D01*
X45193Y-46141D01*
X45328Y-46277D01*
X45504Y-46350D01*
X45695Y-46350D01*
X45871Y-46277D01*
X46007Y-46142D01*
X46080Y-45966D01*
X46080Y-45775D01*
X46007Y-45599D01*
X45873Y-45464D01*
X45922Y-45497D01*
X46091Y-45530D01*
X46638Y-45530D01*
X46620Y-45574D01*
X46620Y-45765D01*
X46693Y-45941D01*
X46828Y-46077D01*
X47004Y-46150D01*
X47195Y-46150D01*
X47371Y-46077D01*
X47507Y-45942D01*
X47511Y-45930D01*
X47688Y-45930D01*
X47693Y-45941D01*
X47828Y-46077D01*
X48004Y-46150D01*
X48195Y-46150D01*
X48371Y-46077D01*
X48507Y-45942D01*
X48511Y-45930D01*
X48688Y-45930D01*
X48693Y-45941D01*
X48828Y-46077D01*
X49004Y-46150D01*
X49195Y-46150D01*
X49371Y-46077D01*
X49507Y-45942D01*
X49580Y-45766D01*
X49580Y-45575D01*
X49575Y-45562D01*
X49608Y-45530D01*
X50136Y-45530D01*
X49986Y-45680D01*
X50062Y-45756D01*
X50041Y-45890D01*
X50076Y-46066D01*
X50161Y-46097D01*
X50388Y-45870D01*
X50324Y-45806D01*
X50536Y-45594D01*
X50600Y-45658D01*
X50664Y-45594D01*
X50876Y-45806D01*
X50812Y-45870D01*
X51039Y-46097D01*
X51124Y-46066D01*
X51159Y-45850D01*
X51139Y-45754D01*
X51214Y-45680D01*
X51064Y-45530D01*
X52992Y-45530D01*
X54006Y-46544D01*
X54090Y-46600D01*
X54091Y-46600D01*
X54190Y-46620D01*
X55210Y-46620D01*
X55309Y-46600D01*
X55310Y-46600D01*
X55394Y-46544D01*
X55792Y-46145D01*
X55804Y-46150D01*
X55995Y-46150D01*
X56171Y-46077D01*
X56307Y-45942D01*
X56311Y-45930D01*
X56488Y-45930D01*
X56493Y-45941D01*
X56628Y-46077D01*
X56804Y-46150D01*
X56995Y-46150D01*
X57171Y-46077D01*
X57307Y-45942D01*
X57311Y-45930D01*
X57488Y-45930D01*
X57493Y-45941D01*
X57628Y-46077D01*
X57804Y-46150D01*
X57995Y-46150D01*
X58171Y-46077D01*
X58307Y-45942D01*
X58380Y-45766D01*
X58380Y-45575D01*
X58375Y-45562D01*
X58408Y-45530D01*
X58936Y-45530D01*
X58786Y-45680D01*
X58862Y-45756D01*
X58841Y-45890D01*
X58876Y-46066D01*
X58961Y-46097D01*
X59188Y-45870D01*
X59124Y-45806D01*
X59336Y-45594D01*
X59400Y-45658D01*
X59557Y-45501D01*
X59627Y-45431D01*
X59596Y-45346D01*
X59557Y-45339D01*
X59530Y-45335D01*
X59557Y-45324D01*
X59671Y-45277D01*
X59807Y-45142D01*
X59880Y-44966D01*
X59880Y-44961D01*
X60105Y-45186D01*
X60105Y-45318D01*
X60048Y-45342D01*
X59997Y-45393D01*
X59970Y-45459D01*
X59970Y-45531D01*
X59970Y-46081D01*
X59997Y-46147D01*
X60048Y-46198D01*
X60114Y-46225D01*
X60186Y-46225D01*
X60536Y-46225D01*
X60602Y-46198D01*
X60653Y-46147D01*
X60656Y-46137D01*
X60680Y-46193D01*
X60753Y-46266D01*
X60849Y-46305D01*
X60923Y-46305D01*
X60988Y-46240D01*
X60988Y-45907D01*
X60900Y-45907D01*
X60900Y-45633D01*
X60988Y-45633D01*
X60988Y-45300D01*
X60923Y-45235D01*
X60849Y-45235D01*
X60753Y-45274D01*
X60680Y-45347D01*
X60656Y-45402D01*
X60653Y-45393D01*
X60602Y-45342D01*
X60545Y-45318D01*
X60545Y-45095D01*
X60544Y-45094D01*
X60545Y-45094D01*
X60541Y-45077D01*
X60528Y-45011D01*
X60527Y-45010D01*
X60481Y-44939D01*
X60478Y-44937D01*
X59991Y-44450D01*
X61300Y-44450D01*
X61522Y-44406D01*
X61539Y-44394D01*
X61756Y-44394D01*
X61949Y-44314D01*
X62096Y-44167D01*
X62176Y-43974D01*
X62176Y-43766D01*
X62096Y-43573D01*
X61949Y-43426D01*
X61813Y-43370D01*
X61949Y-43314D01*
X62096Y-43167D01*
X62176Y-42974D01*
X62176Y-42766D01*
X62096Y-42573D01*
X61949Y-42426D01*
X61813Y-42370D01*
X61949Y-42314D01*
X62096Y-42167D01*
X62176Y-41974D01*
X62176Y-41766D01*
X62096Y-41573D01*
X61949Y-41426D01*
X61813Y-41370D01*
X61949Y-41314D01*
X62096Y-41167D01*
X62176Y-40974D01*
X62176Y-40766D01*
X62096Y-40573D01*
X61949Y-40426D01*
X61756Y-40346D01*
X61548Y-40346D01*
X61539Y-40346D01*
X61522Y-40334D01*
X61300Y-40290D01*
X59959Y-40290D01*
X59959Y-39850D01*
X59924Y-39674D01*
X59839Y-39643D01*
X59612Y-39870D01*
X59839Y-40097D01*
X59924Y-40066D01*
X59959Y-39850D01*
X59959Y-40290D01*
X59608Y-40290D01*
X59526Y-40208D01*
X59522Y-39535D01*
X59627Y-39431D01*
X59617Y-39405D01*
X59621Y-39405D01*
X59810Y-39280D01*
X59935Y-39091D01*
X59979Y-38869D01*
X59935Y-38647D01*
X59810Y-38459D01*
X59513Y-38163D01*
X59511Y-37770D01*
X59675Y-37770D01*
X59680Y-37771D01*
X59680Y-37770D01*
X59768Y-37752D01*
X59843Y-37703D01*
X60343Y-37202D01*
X60346Y-37209D01*
X60430Y-37293D01*
X60540Y-37339D01*
X60659Y-37339D01*
X60769Y-37294D01*
X60793Y-37270D01*
X62045Y-37270D01*
X62050Y-37271D01*
X62050Y-37270D01*
X62138Y-37252D01*
X62213Y-37203D01*
X63486Y-35930D01*
X64500Y-35930D01*
X64520Y-35930D01*
X64534Y-35930D01*
X64657Y-36053D01*
X64593Y-36118D01*
X64520Y-36294D01*
X64520Y-36485D01*
X64593Y-36661D01*
X64728Y-36797D01*
X64770Y-36814D01*
X64770Y-37015D01*
X64480Y-37015D01*
X64480Y-36886D01*
X64480Y-36814D01*
X64480Y-36214D01*
X64453Y-36148D01*
X64402Y-36097D01*
X64336Y-36070D01*
X64264Y-36070D01*
X63664Y-36070D01*
X63598Y-36097D01*
X63547Y-36148D01*
X63520Y-36214D01*
X63520Y-36286D01*
X63520Y-36886D01*
X63547Y-36952D01*
X63598Y-37003D01*
X63664Y-37030D01*
X63677Y-37030D01*
X63648Y-37042D01*
X63597Y-37093D01*
X63570Y-37159D01*
X63570Y-37231D01*
X63570Y-37781D01*
X63597Y-37847D01*
X63648Y-37898D01*
X63714Y-37925D01*
X63786Y-37925D01*
X63888Y-37925D01*
X63743Y-37985D01*
X63698Y-38030D01*
X63025Y-38030D01*
X62915Y-38051D01*
X62894Y-38056D01*
X62784Y-38130D01*
X62574Y-38340D01*
X62389Y-38340D01*
X62323Y-38367D01*
X62272Y-38418D01*
X62245Y-38484D01*
X62245Y-38556D01*
X62245Y-38906D01*
X62272Y-38972D01*
X62323Y-39023D01*
X62332Y-39026D01*
X62277Y-39050D01*
X62204Y-39123D01*
X62165Y-39219D01*
X62165Y-39293D01*
X62230Y-39358D01*
X62563Y-39358D01*
X62563Y-39270D01*
X62837Y-39270D01*
X62837Y-39358D01*
X63170Y-39358D01*
X63235Y-39293D01*
X63235Y-39219D01*
X63196Y-39123D01*
X63123Y-39050D01*
X63067Y-39026D01*
X63077Y-39023D01*
X63128Y-38972D01*
X63155Y-38906D01*
X63155Y-38834D01*
X63155Y-38720D01*
X63165Y-38710D01*
X63698Y-38710D01*
X63743Y-38755D01*
X63909Y-38824D01*
X64090Y-38824D01*
X64257Y-38755D01*
X64385Y-38627D01*
X64454Y-38461D01*
X64454Y-38280D01*
X64385Y-38113D01*
X64257Y-37985D01*
X64112Y-37925D01*
X64136Y-37925D01*
X64202Y-37898D01*
X64253Y-37847D01*
X64280Y-37781D01*
X64280Y-37709D01*
X64280Y-37159D01*
X64253Y-37093D01*
X64202Y-37042D01*
X64172Y-37030D01*
X64336Y-37030D01*
X64402Y-37003D01*
X64453Y-36952D01*
X64480Y-36886D01*
X64480Y-37015D01*
X64464Y-37015D01*
X64398Y-37042D01*
X64347Y-37093D01*
X64320Y-37159D01*
X64320Y-37231D01*
X64320Y-37781D01*
X64347Y-37847D01*
X64398Y-37898D01*
X64464Y-37925D01*
X64536Y-37925D01*
X64789Y-37925D01*
X64779Y-37956D01*
X65000Y-38176D01*
X65073Y-38103D01*
X65266Y-38296D01*
X65194Y-38370D01*
X65267Y-38443D01*
X65073Y-38636D01*
X65000Y-38564D01*
X64806Y-38757D01*
X64806Y-38370D01*
X64586Y-38149D01*
X64501Y-38177D01*
X64465Y-38383D01*
X64501Y-38563D01*
X64586Y-38591D01*
X64806Y-38370D01*
X64806Y-38757D01*
X64779Y-38784D01*
X64807Y-38869D01*
X65013Y-38905D01*
X65094Y-38888D01*
X65173Y-38967D01*
X65221Y-38919D01*
X65270Y-38870D01*
X65270Y-40774D01*
X65221Y-40822D01*
X65117Y-40926D01*
X65091Y-40916D01*
X64910Y-40916D01*
X64743Y-40985D01*
X64615Y-41113D01*
X64546Y-41279D01*
X64546Y-41460D01*
X64615Y-41627D01*
X64743Y-41755D01*
X64909Y-41824D01*
X65090Y-41824D01*
X65257Y-41755D01*
X65385Y-41627D01*
X65454Y-41461D01*
X65454Y-41430D01*
X65546Y-41430D01*
X65546Y-41460D01*
X65557Y-41487D01*
X64535Y-42509D01*
X64535Y-41697D01*
X64535Y-41594D01*
X64535Y-41572D01*
X64535Y-41168D01*
X64535Y-41146D01*
X64535Y-41043D01*
X64495Y-40947D01*
X64422Y-40874D01*
X64326Y-40835D01*
X64202Y-40835D01*
X64137Y-40900D01*
X64137Y-41233D01*
X64470Y-41233D01*
X64535Y-41168D01*
X64535Y-41572D01*
X64470Y-41507D01*
X64137Y-41507D01*
X64137Y-41840D01*
X64202Y-41905D01*
X64326Y-41905D01*
X64422Y-41866D01*
X64495Y-41793D01*
X64535Y-41697D01*
X64535Y-42509D01*
X64037Y-43007D01*
X63988Y-43082D01*
X63969Y-43170D01*
X63970Y-43174D01*
X63970Y-44445D01*
X63929Y-44463D01*
X63863Y-44528D01*
X63863Y-41840D01*
X63863Y-41507D01*
X63863Y-41233D01*
X63863Y-40900D01*
X63798Y-40835D01*
X63674Y-40835D01*
X63578Y-40874D01*
X63505Y-40947D01*
X63465Y-41043D01*
X63465Y-41146D01*
X63465Y-41168D01*
X63530Y-41233D01*
X63863Y-41233D01*
X63863Y-41507D01*
X63530Y-41507D01*
X63465Y-41572D01*
X63465Y-41594D01*
X63465Y-41697D01*
X63505Y-41793D01*
X63578Y-41866D01*
X63674Y-41905D01*
X63798Y-41905D01*
X63863Y-41840D01*
X63863Y-44528D01*
X63793Y-44598D01*
X63720Y-44774D01*
X63720Y-44965D01*
X63793Y-45141D01*
X63928Y-45277D01*
X64007Y-45310D01*
X63985Y-45310D01*
X63900Y-45310D01*
X63849Y-45310D01*
X63753Y-45349D01*
X63680Y-45422D01*
X63640Y-45518D01*
X63640Y-45621D01*
X63640Y-45655D01*
X63705Y-45720D01*
X64050Y-45720D01*
X64050Y-45630D01*
X64350Y-45630D01*
X64350Y-45720D01*
X64440Y-45720D01*
X64440Y-46020D01*
X64350Y-46020D01*
X64350Y-46365D01*
X64415Y-46430D01*
X64551Y-46430D01*
X64647Y-46391D01*
X64720Y-46318D01*
X64760Y-46222D01*
X64760Y-46170D01*
X64760Y-46119D01*
X64760Y-46096D01*
X64761Y-46097D01*
X64988Y-45870D01*
X64761Y-45643D01*
X64760Y-45643D01*
X64760Y-45621D01*
X64760Y-45570D01*
X64760Y-45518D01*
X64720Y-45422D01*
X64708Y-45410D01*
X64980Y-45410D01*
X64973Y-45431D01*
X65200Y-45658D01*
X65427Y-45431D01*
X65419Y-45410D01*
X65980Y-45410D01*
X65973Y-45431D01*
X66200Y-45658D01*
X66427Y-45431D01*
X66419Y-45410D01*
X66980Y-45410D01*
X66973Y-45431D01*
X67200Y-45658D01*
X67427Y-45431D01*
X67419Y-45410D01*
X67980Y-45410D01*
X67973Y-45431D01*
X68200Y-45658D01*
X68427Y-45431D01*
X68419Y-45410D01*
X68980Y-45410D01*
X68973Y-45431D01*
X69200Y-45658D01*
X69251Y-45607D01*
X69427Y-45431D01*
X69396Y-45346D01*
X69330Y-45335D01*
X69471Y-45277D01*
X69607Y-45142D01*
X69680Y-44966D01*
X69680Y-44775D01*
X69607Y-44599D01*
X69472Y-44463D01*
X69430Y-44445D01*
X69430Y-42665D01*
X70160Y-41934D01*
X70162Y-41933D01*
X70163Y-41933D01*
X70212Y-41858D01*
X70230Y-41770D01*
X70230Y-41766D01*
X70257Y-41755D01*
X70385Y-41627D01*
X70454Y-41461D01*
X70454Y-41280D01*
X70385Y-41113D01*
X70257Y-40985D01*
X70091Y-40916D01*
X69910Y-40916D01*
X69743Y-40985D01*
X69730Y-40998D01*
X69730Y-40505D01*
X71160Y-39074D01*
X71162Y-39073D01*
X71163Y-39073D01*
X71212Y-38998D01*
X71230Y-38910D01*
X71230Y-38766D01*
X71257Y-38755D01*
X71270Y-38742D01*
X71270Y-40870D01*
X71173Y-40773D01*
X71092Y-40853D01*
X70987Y-40835D01*
X70807Y-40871D01*
X70779Y-40956D01*
X71000Y-41176D01*
X71073Y-41103D01*
X71221Y-41251D01*
X71266Y-41296D01*
X71221Y-41342D01*
X71194Y-41370D01*
X71267Y-41443D01*
X71073Y-41636D01*
X71000Y-41564D01*
X70806Y-41757D01*
X70806Y-41370D01*
X70586Y-41149D01*
X70501Y-41177D01*
X70465Y-41383D01*
X70501Y-41563D01*
X70586Y-41591D01*
X70806Y-41370D01*
X70806Y-41757D01*
X70779Y-41784D01*
X70807Y-41869D01*
X71013Y-41905D01*
X71094Y-41888D01*
X71173Y-41967D01*
X71221Y-41919D01*
X71270Y-41870D01*
X71270Y-44390D01*
X71221Y-44390D01*
X71105Y-44390D01*
X70929Y-44463D01*
X70793Y-44598D01*
X70720Y-44774D01*
X70720Y-44965D01*
X70793Y-45141D01*
X70928Y-45277D01*
X71007Y-45310D01*
X70985Y-45310D01*
X70900Y-45310D01*
X70849Y-45310D01*
X70753Y-45349D01*
X70680Y-45422D01*
X70640Y-45518D01*
X70640Y-45621D01*
X70640Y-45655D01*
X70705Y-45720D01*
X71050Y-45720D01*
X71050Y-45630D01*
X71350Y-45630D01*
X71350Y-45720D01*
X71440Y-45720D01*
X71440Y-46020D01*
X71350Y-46020D01*
X71350Y-46365D01*
X71415Y-46430D01*
X71551Y-46430D01*
X71647Y-46391D01*
X71720Y-46318D01*
X71760Y-46222D01*
X71760Y-46170D01*
X71760Y-46119D01*
X71760Y-46096D01*
X71761Y-46097D01*
X71988Y-45870D01*
X71761Y-45643D01*
X71760Y-45643D01*
X71760Y-45621D01*
X71760Y-45570D01*
X71760Y-45518D01*
X71720Y-45422D01*
X71647Y-45349D01*
X71551Y-45310D01*
X71500Y-45310D01*
X71415Y-45310D01*
X71391Y-45310D01*
X71471Y-45277D01*
X71607Y-45142D01*
X71680Y-44966D01*
X71680Y-44775D01*
X71662Y-44733D01*
X71663Y-44733D01*
X71692Y-44688D01*
X71737Y-44732D01*
X71720Y-44774D01*
X71720Y-44965D01*
X71793Y-45141D01*
X71928Y-45277D01*
X72065Y-45333D01*
X72004Y-45346D01*
X71973Y-45431D01*
X72200Y-45658D01*
X72427Y-45431D01*
X72396Y-45346D01*
X72330Y-45335D01*
X72471Y-45277D01*
X72607Y-45142D01*
X72680Y-44966D01*
X72680Y-44775D01*
X72609Y-44604D01*
X72737Y-44732D01*
X72720Y-44774D01*
X72720Y-44965D01*
X72793Y-45141D01*
X72928Y-45277D01*
X73065Y-45333D01*
X73004Y-45346D01*
X72973Y-45431D01*
X73200Y-45658D01*
X73427Y-45431D01*
X73396Y-45346D01*
X73330Y-45335D01*
X73471Y-45277D01*
X73607Y-45142D01*
X73680Y-44966D01*
X73680Y-44775D01*
X73609Y-44604D01*
X73737Y-44732D01*
X73720Y-44774D01*
X73720Y-44965D01*
X73793Y-45141D01*
X73928Y-45277D01*
X74065Y-45333D01*
X74004Y-45346D01*
X73973Y-45431D01*
X74200Y-45658D01*
X74427Y-45431D01*
X74396Y-45346D01*
X74330Y-45335D01*
X74471Y-45277D01*
X74607Y-45142D01*
X74680Y-44966D01*
X74680Y-44775D01*
X74609Y-44605D01*
X74737Y-44733D01*
X74720Y-44774D01*
X74720Y-44965D01*
X74793Y-45141D01*
X74928Y-45277D01*
X75065Y-45333D01*
X75004Y-45346D01*
X74973Y-45431D01*
X75200Y-45658D01*
X75427Y-45431D01*
X75396Y-45346D01*
X75330Y-45335D01*
X75471Y-45277D01*
X75607Y-45142D01*
X75680Y-44966D01*
X75680Y-44775D01*
X75607Y-44599D01*
X75472Y-44463D01*
X75296Y-44390D01*
X75105Y-44390D01*
X75063Y-44407D01*
X73805Y-43149D01*
X73805Y-41917D01*
X73852Y-41898D01*
X73903Y-41847D01*
X73930Y-41781D01*
X73930Y-41709D01*
X73930Y-41700D01*
X74289Y-41700D01*
X74361Y-41700D01*
X74470Y-41700D01*
X74475Y-41701D01*
X74475Y-41700D01*
X74479Y-41700D01*
X74911Y-41700D01*
X74977Y-41673D01*
X75000Y-41650D01*
X75023Y-41673D01*
X75089Y-41700D01*
X75161Y-41700D01*
X75711Y-41700D01*
X75777Y-41673D01*
X75800Y-41650D01*
X75823Y-41673D01*
X75889Y-41700D01*
X75961Y-41700D01*
X76511Y-41700D01*
X76577Y-41673D01*
X76628Y-41622D01*
X76655Y-41556D01*
X76655Y-41484D01*
X76655Y-41134D01*
X76628Y-41068D01*
X76577Y-41017D01*
X76511Y-40990D01*
X76499Y-40990D01*
X76499Y-40950D01*
X76511Y-40950D01*
X76577Y-40923D01*
X76628Y-40872D01*
X76655Y-40806D01*
X76655Y-40734D01*
X76655Y-40384D01*
X76628Y-40318D01*
X76577Y-40267D01*
X76511Y-40240D01*
X76439Y-40240D01*
X76123Y-40240D01*
X76224Y-40199D01*
X76308Y-40115D01*
X76354Y-40005D01*
X76354Y-39886D01*
X76309Y-39776D01*
X76225Y-39692D01*
X76115Y-39646D01*
X75996Y-39646D01*
X75886Y-39691D01*
X75862Y-39715D01*
X75847Y-39715D01*
X75828Y-39668D01*
X75777Y-39617D01*
X75711Y-39590D01*
X75699Y-39590D01*
X75699Y-39550D01*
X75711Y-39550D01*
X75777Y-39523D01*
X75828Y-39472D01*
X75855Y-39406D01*
X75855Y-39334D01*
X75855Y-38984D01*
X75828Y-38918D01*
X75777Y-38867D01*
X75711Y-38840D01*
X75639Y-38840D01*
X75089Y-38840D01*
X75023Y-38867D01*
X75000Y-38890D01*
X74977Y-38867D01*
X74911Y-38840D01*
X74839Y-38840D01*
X74289Y-38840D01*
X74223Y-38867D01*
X74172Y-38918D01*
X74145Y-38984D01*
X74145Y-39056D01*
X74145Y-39406D01*
X74172Y-39472D01*
X74223Y-39523D01*
X74289Y-39550D01*
X74301Y-39550D01*
X74301Y-39590D01*
X74289Y-39590D01*
X74223Y-39617D01*
X74172Y-39668D01*
X74145Y-39734D01*
X74145Y-39806D01*
X74145Y-39950D01*
X74109Y-39936D01*
X74037Y-39936D01*
X74010Y-39936D01*
X74010Y-39894D01*
X74010Y-39872D01*
X74010Y-39468D01*
X74010Y-39446D01*
X74010Y-39343D01*
X73979Y-39270D01*
X74010Y-39197D01*
X74010Y-39094D01*
X74010Y-39072D01*
X74010Y-38668D01*
X74010Y-38646D01*
X74010Y-38543D01*
X73970Y-38447D01*
X73897Y-38374D01*
X73801Y-38335D01*
X73727Y-38335D01*
X73662Y-38400D01*
X73662Y-38733D01*
X73945Y-38733D01*
X74010Y-38668D01*
X74010Y-39072D01*
X73945Y-39007D01*
X73662Y-39007D01*
X73662Y-39200D01*
X73662Y-39340D01*
X73662Y-39533D01*
X73945Y-39533D01*
X74010Y-39468D01*
X74010Y-39872D01*
X73945Y-39807D01*
X73662Y-39807D01*
X73662Y-39910D01*
X73488Y-39910D01*
X73488Y-39807D01*
X73430Y-39807D01*
X73430Y-39533D01*
X73488Y-39533D01*
X73488Y-39340D01*
X73488Y-39200D01*
X73488Y-39007D01*
X73400Y-39007D01*
X73400Y-38733D01*
X73488Y-38733D01*
X73488Y-38400D01*
X73423Y-38335D01*
X73349Y-38335D01*
X73253Y-38374D01*
X73180Y-38447D01*
X73156Y-38502D01*
X73153Y-38493D01*
X73102Y-38442D01*
X73036Y-38415D01*
X72964Y-38415D01*
X72614Y-38415D01*
X72548Y-38442D01*
X72542Y-38448D01*
X72542Y-37279D01*
X73681Y-36140D01*
X75085Y-36140D01*
X75090Y-36141D01*
X75090Y-36140D01*
X75178Y-36122D01*
X75253Y-36073D01*
X75660Y-35665D01*
X75660Y-36145D01*
X75670Y-36195D01*
X75670Y-36481D01*
X75697Y-36547D01*
X75748Y-36598D01*
X75814Y-36625D01*
X75886Y-36625D01*
X76236Y-36625D01*
X76302Y-36598D01*
X76353Y-36547D01*
X76356Y-36537D01*
X76380Y-36593D01*
X76453Y-36666D01*
X76549Y-36705D01*
X76623Y-36705D01*
X76688Y-36640D01*
X76688Y-36307D01*
X76600Y-36307D01*
X76600Y-36033D01*
X76688Y-36033D01*
X76688Y-35930D01*
X76862Y-35930D01*
X76862Y-36033D01*
X77145Y-36033D01*
X77210Y-35968D01*
X77210Y-35946D01*
X77210Y-35843D01*
X77170Y-35747D01*
X77130Y-35707D01*
X77257Y-35655D01*
X77385Y-35527D01*
X77454Y-35361D01*
X77454Y-35180D01*
X77385Y-35013D01*
X77257Y-34885D01*
X77091Y-34816D01*
X76910Y-34816D01*
X76883Y-34827D01*
X76663Y-34607D01*
X76588Y-34558D01*
X76500Y-34539D01*
X76495Y-34540D01*
X75800Y-34540D01*
X75712Y-34558D01*
X75637Y-34607D01*
X75635Y-34609D01*
X75337Y-34907D01*
X75314Y-34942D01*
X75257Y-34885D01*
X75091Y-34816D01*
X74910Y-34816D01*
X74743Y-34885D01*
X74730Y-34898D01*
X74730Y-34865D01*
X76882Y-32712D01*
X76909Y-32724D01*
X77090Y-32724D01*
X77257Y-32655D01*
X77385Y-32527D01*
X77454Y-32361D01*
X77454Y-32180D01*
X77385Y-32013D01*
X77257Y-31885D01*
X77091Y-31816D01*
X76910Y-31816D01*
X76743Y-31885D01*
X76615Y-32013D01*
X76546Y-32179D01*
X76546Y-32360D01*
X76557Y-32387D01*
X74337Y-34607D01*
X74288Y-34682D01*
X74269Y-34770D01*
X74270Y-34774D01*
X74270Y-34898D01*
X74257Y-34885D01*
X74091Y-34816D01*
X73910Y-34816D01*
X73743Y-34885D01*
X73730Y-34898D01*
X73730Y-34865D01*
X75882Y-32712D01*
X75909Y-32724D01*
X76090Y-32724D01*
X76257Y-32655D01*
X76385Y-32527D01*
X76454Y-32361D01*
X76454Y-32180D01*
X76385Y-32013D01*
X76257Y-31885D01*
X76230Y-31873D01*
X76230Y-31450D01*
X76212Y-31362D01*
X76163Y-31287D01*
X76160Y-31285D01*
X76059Y-31184D01*
X76059Y-29770D01*
X76024Y-29594D01*
X75939Y-29563D01*
X75727Y-29775D01*
X75727Y-29351D01*
X75696Y-29266D01*
X75480Y-29231D01*
X75304Y-29266D01*
X75273Y-29351D01*
X75500Y-29578D01*
X75727Y-29351D01*
X75727Y-29775D01*
X75712Y-29790D01*
X75939Y-30017D01*
X76024Y-29986D01*
X76059Y-29770D01*
X76059Y-31184D01*
X75727Y-30852D01*
X75727Y-30229D01*
X75500Y-30002D01*
X75273Y-30229D01*
X75304Y-30314D01*
X75520Y-30349D01*
X75696Y-30314D01*
X75727Y-30229D01*
X75727Y-30852D01*
X74962Y-30087D01*
X74980Y-30046D01*
X74980Y-29987D01*
X75061Y-30017D01*
X75288Y-29790D01*
X75061Y-29563D01*
X74976Y-29594D01*
X74946Y-29774D01*
X74907Y-29679D01*
X74772Y-29543D01*
X74596Y-29470D01*
X74405Y-29470D01*
X74229Y-29543D01*
X74093Y-29678D01*
X74020Y-29854D01*
X74020Y-29984D01*
X73962Y-29927D01*
X73980Y-29886D01*
X73980Y-29695D01*
X73907Y-29519D01*
X73772Y-29383D01*
X73596Y-29310D01*
X73405Y-29310D01*
X73229Y-29383D01*
X73093Y-29518D01*
X73020Y-29694D01*
X73020Y-29885D01*
X73075Y-30020D01*
X72980Y-30020D01*
X72980Y-29855D01*
X72907Y-29679D01*
X72772Y-29543D01*
X72596Y-29470D01*
X72405Y-29470D01*
X72229Y-29543D01*
X72093Y-29678D01*
X72020Y-29854D01*
X72020Y-30045D01*
X72093Y-30221D01*
X72228Y-30357D01*
X72404Y-30430D01*
X72595Y-30430D01*
X72636Y-30412D01*
X72637Y-30413D01*
X72712Y-30462D01*
X72800Y-30480D01*
X73564Y-30480D01*
X73770Y-30685D01*
X73770Y-31873D01*
X73743Y-31885D01*
X73710Y-31918D01*
X73615Y-32013D01*
X73585Y-32085D01*
X73430Y-31930D01*
X73501Y-31930D01*
X73597Y-31891D01*
X73670Y-31818D01*
X73710Y-31722D01*
X73710Y-31619D01*
X73710Y-31535D01*
X73710Y-31005D01*
X73710Y-30921D01*
X73710Y-30818D01*
X73670Y-30722D01*
X73597Y-30649D01*
X73501Y-30610D01*
X73365Y-30610D01*
X73300Y-30675D01*
X73300Y-31070D01*
X73645Y-31070D01*
X73710Y-31005D01*
X73710Y-31535D01*
X73645Y-31470D01*
X73300Y-31470D01*
X73300Y-31800D01*
X73173Y-31673D01*
X73092Y-31753D01*
X73000Y-31737D01*
X73000Y-31470D01*
X73000Y-31070D01*
X73000Y-30675D01*
X72935Y-30610D01*
X72799Y-30610D01*
X72703Y-30649D01*
X72630Y-30722D01*
X72590Y-30818D01*
X72590Y-30921D01*
X72590Y-31005D01*
X72655Y-31070D01*
X73000Y-31070D01*
X73000Y-31470D01*
X72655Y-31470D01*
X72590Y-31535D01*
X72590Y-31619D01*
X72590Y-31722D01*
X72630Y-31818D01*
X72703Y-31891D01*
X72799Y-31930D01*
X72853Y-31930D01*
X73000Y-32076D01*
X73073Y-32003D01*
X73221Y-32151D01*
X73266Y-32196D01*
X73221Y-32242D01*
X73194Y-32270D01*
X73266Y-32343D01*
X73073Y-32536D01*
X73000Y-32464D01*
X72806Y-32657D01*
X72806Y-32270D01*
X72586Y-32049D01*
X72501Y-32077D01*
X72465Y-32283D01*
X72501Y-32463D01*
X72586Y-32491D01*
X72806Y-32270D01*
X72806Y-32657D01*
X72779Y-32684D01*
X72807Y-32769D01*
X73013Y-32805D01*
X73094Y-32788D01*
X73125Y-32819D01*
X72454Y-33490D01*
X72454Y-32361D01*
X72454Y-32180D01*
X72385Y-32013D01*
X72340Y-31968D01*
X72340Y-31420D01*
X72330Y-31373D01*
X72330Y-31370D01*
X72330Y-30834D01*
X72303Y-30768D01*
X72252Y-30717D01*
X72186Y-30690D01*
X72114Y-30690D01*
X71514Y-30690D01*
X71448Y-30717D01*
X71397Y-30768D01*
X71370Y-30834D01*
X71370Y-30906D01*
X71370Y-31706D01*
X71397Y-31772D01*
X71448Y-31823D01*
X71514Y-31850D01*
X71586Y-31850D01*
X71660Y-31850D01*
X71660Y-31968D01*
X71615Y-32013D01*
X71546Y-32179D01*
X71546Y-32360D01*
X71615Y-32527D01*
X71743Y-32655D01*
X71909Y-32724D01*
X72090Y-32724D01*
X72257Y-32655D01*
X72385Y-32527D01*
X72454Y-32361D01*
X72454Y-33490D01*
X71337Y-34607D01*
X71288Y-34682D01*
X71269Y-34769D01*
X71173Y-34673D01*
X71092Y-34753D01*
X70987Y-34735D01*
X70905Y-34751D01*
X70827Y-34673D01*
X70627Y-34872D01*
X70263Y-34507D01*
X70188Y-34458D01*
X70100Y-34439D01*
X70095Y-34440D01*
X69600Y-34440D01*
X69512Y-34458D01*
X69437Y-34507D01*
X69435Y-34509D01*
X69363Y-34580D01*
X69280Y-34497D01*
X69170Y-34451D01*
X69136Y-34451D01*
X68740Y-34054D01*
X68740Y-33692D01*
X68749Y-33683D01*
X68776Y-33749D01*
X68860Y-33833D01*
X68970Y-33879D01*
X69089Y-33879D01*
X69199Y-33834D01*
X69283Y-33750D01*
X69329Y-33640D01*
X69329Y-33521D01*
X69290Y-33427D01*
X69585Y-33132D01*
X70363Y-33132D01*
X70368Y-33133D01*
X70368Y-33132D01*
X70456Y-33114D01*
X70531Y-33065D01*
X70882Y-32712D01*
X70909Y-32724D01*
X71090Y-32724D01*
X71257Y-32655D01*
X71385Y-32527D01*
X71454Y-32361D01*
X71454Y-32180D01*
X71385Y-32013D01*
X71257Y-31885D01*
X71091Y-31816D01*
X70910Y-31816D01*
X70743Y-31885D01*
X70660Y-31968D01*
X70660Y-31095D01*
X71485Y-30270D01*
X71595Y-30270D01*
X71771Y-30197D01*
X71907Y-30062D01*
X71980Y-29886D01*
X71980Y-29695D01*
X71907Y-29519D01*
X71772Y-29383D01*
X71596Y-29310D01*
X71405Y-29310D01*
X71229Y-29383D01*
X71093Y-29518D01*
X71020Y-29694D01*
X71020Y-29885D01*
X71078Y-30026D01*
X70980Y-30124D01*
X70980Y-29614D01*
X70953Y-29548D01*
X70902Y-29497D01*
X70836Y-29470D01*
X70764Y-29470D01*
X70164Y-29470D01*
X70098Y-29497D01*
X70047Y-29548D01*
X70020Y-29614D01*
X70020Y-29686D01*
X70020Y-29720D01*
X69920Y-29720D01*
X69832Y-29738D01*
X69757Y-29787D01*
X69548Y-29994D01*
X69536Y-29982D01*
X69559Y-29850D01*
X69524Y-29674D01*
X69439Y-29643D01*
X69227Y-29855D01*
X69227Y-29431D01*
X69196Y-29346D01*
X68980Y-29311D01*
X68804Y-29346D01*
X68773Y-29431D01*
X69000Y-29658D01*
X69227Y-29431D01*
X69227Y-29855D01*
X69212Y-29870D01*
X69276Y-29934D01*
X69064Y-30146D01*
X69000Y-30082D01*
X68788Y-30294D01*
X68788Y-29870D01*
X68561Y-29643D01*
X68500Y-29665D01*
X68439Y-29643D01*
X68227Y-29855D01*
X68227Y-29431D01*
X68196Y-29346D01*
X67980Y-29311D01*
X67804Y-29346D01*
X67773Y-29431D01*
X68000Y-29658D01*
X68227Y-29431D01*
X68227Y-29855D01*
X68212Y-29870D01*
X68439Y-30097D01*
X68500Y-30074D01*
X68561Y-30097D01*
X68788Y-29870D01*
X68788Y-30294D01*
X68773Y-30309D01*
X68804Y-30394D01*
X68869Y-30404D01*
X68729Y-30463D01*
X68593Y-30598D01*
X68520Y-30774D01*
X68520Y-30965D01*
X68593Y-31141D01*
X68728Y-31277D01*
X68774Y-31296D01*
X68788Y-31358D01*
X68837Y-31433D01*
X69557Y-32152D01*
X69546Y-32179D01*
X69546Y-32360D01*
X69591Y-32470D01*
X69408Y-32470D01*
X69454Y-32361D01*
X69454Y-32180D01*
X69385Y-32013D01*
X69257Y-31885D01*
X69091Y-31816D01*
X68910Y-31816D01*
X68743Y-31885D01*
X68615Y-32013D01*
X68546Y-32179D01*
X68546Y-32360D01*
X68615Y-32527D01*
X68743Y-32655D01*
X68770Y-32666D01*
X68770Y-32724D01*
X68480Y-33014D01*
X68480Y-30966D01*
X68480Y-30775D01*
X68407Y-30599D01*
X68272Y-30463D01*
X68134Y-30406D01*
X68196Y-30394D01*
X68227Y-30309D01*
X68000Y-30082D01*
X67788Y-30294D01*
X67788Y-29870D01*
X67561Y-29643D01*
X67500Y-29665D01*
X67439Y-29643D01*
X67227Y-29855D01*
X67227Y-29431D01*
X67196Y-29346D01*
X66980Y-29311D01*
X66804Y-29346D01*
X66773Y-29431D01*
X67000Y-29658D01*
X67227Y-29431D01*
X67227Y-29855D01*
X67212Y-29870D01*
X67439Y-30097D01*
X67500Y-30074D01*
X67561Y-30097D01*
X67788Y-29870D01*
X67788Y-30294D01*
X67773Y-30309D01*
X67804Y-30394D01*
X67869Y-30404D01*
X67729Y-30463D01*
X67593Y-30598D01*
X67520Y-30774D01*
X67520Y-30965D01*
X67593Y-31141D01*
X67728Y-31277D01*
X67770Y-31294D01*
X67770Y-31873D01*
X67743Y-31885D01*
X67615Y-32013D01*
X67546Y-32179D01*
X67546Y-32360D01*
X67615Y-32527D01*
X67743Y-32655D01*
X67909Y-32724D01*
X68090Y-32724D01*
X68257Y-32655D01*
X68385Y-32527D01*
X68454Y-32361D01*
X68454Y-32180D01*
X68385Y-32013D01*
X68257Y-31885D01*
X68230Y-31873D01*
X68230Y-31294D01*
X68271Y-31277D01*
X68407Y-31142D01*
X68480Y-30966D01*
X68480Y-33014D01*
X68193Y-33301D01*
X68161Y-33301D01*
X68051Y-33346D01*
X67967Y-33430D01*
X67921Y-33540D01*
X67921Y-33659D01*
X67966Y-33769D01*
X68050Y-33853D01*
X68160Y-33899D01*
X68279Y-33899D01*
X68280Y-33898D01*
X68280Y-34145D01*
X68279Y-34150D01*
X68290Y-34201D01*
X68280Y-34199D01*
X68275Y-34200D01*
X67480Y-34200D01*
X67480Y-30966D01*
X67480Y-30775D01*
X67407Y-30599D01*
X67272Y-30463D01*
X67134Y-30406D01*
X67196Y-30394D01*
X67227Y-30309D01*
X67000Y-30082D01*
X66788Y-30294D01*
X66788Y-29870D01*
X66561Y-29643D01*
X66500Y-29665D01*
X66439Y-29643D01*
X66227Y-29855D01*
X66227Y-29431D01*
X66196Y-29346D01*
X65980Y-29311D01*
X65804Y-29346D01*
X65773Y-29431D01*
X66000Y-29658D01*
X66227Y-29431D01*
X66227Y-29855D01*
X66212Y-29870D01*
X66439Y-30097D01*
X66500Y-30074D01*
X66561Y-30097D01*
X66788Y-29870D01*
X66788Y-30294D01*
X66773Y-30309D01*
X66804Y-30394D01*
X66869Y-30404D01*
X66729Y-30463D01*
X66593Y-30598D01*
X66520Y-30774D01*
X66520Y-30965D01*
X66593Y-31141D01*
X66728Y-31277D01*
X66770Y-31294D01*
X66770Y-31873D01*
X66743Y-31885D01*
X66615Y-32013D01*
X66546Y-32179D01*
X66546Y-32360D01*
X66615Y-32527D01*
X66743Y-32655D01*
X66909Y-32724D01*
X67090Y-32724D01*
X67257Y-32655D01*
X67385Y-32527D01*
X67454Y-32361D01*
X67454Y-32180D01*
X67385Y-32013D01*
X67257Y-31885D01*
X67230Y-31873D01*
X67230Y-31294D01*
X67271Y-31277D01*
X67407Y-31142D01*
X67480Y-30966D01*
X67480Y-34200D01*
X66480Y-34200D01*
X66480Y-31206D01*
X66480Y-31134D01*
X66480Y-30534D01*
X66453Y-30468D01*
X66402Y-30417D01*
X66336Y-30390D01*
X66264Y-30390D01*
X66197Y-30390D01*
X66227Y-30309D01*
X66000Y-30082D01*
X65788Y-30294D01*
X65788Y-29870D01*
X65561Y-29643D01*
X65476Y-29674D01*
X65441Y-29890D01*
X65476Y-30066D01*
X65561Y-30097D01*
X65788Y-29870D01*
X65788Y-30294D01*
X65773Y-30309D01*
X65802Y-30390D01*
X65664Y-30390D01*
X65598Y-30417D01*
X65547Y-30468D01*
X65520Y-30534D01*
X65520Y-30606D01*
X65520Y-31206D01*
X65547Y-31272D01*
X65598Y-31323D01*
X65664Y-31350D01*
X65736Y-31350D01*
X65770Y-31350D01*
X65770Y-31873D01*
X65743Y-31885D01*
X65615Y-32013D01*
X65546Y-32179D01*
X65546Y-32360D01*
X65615Y-32527D01*
X65743Y-32655D01*
X65909Y-32724D01*
X66090Y-32724D01*
X66257Y-32655D01*
X66385Y-32527D01*
X66454Y-32361D01*
X66454Y-32180D01*
X66385Y-32013D01*
X66257Y-31885D01*
X66230Y-31873D01*
X66230Y-31350D01*
X66336Y-31350D01*
X66402Y-31323D01*
X66453Y-31272D01*
X66480Y-31206D01*
X66480Y-34200D01*
X65535Y-34200D01*
X65535Y-32257D01*
X65499Y-32077D01*
X65414Y-32049D01*
X65221Y-32242D01*
X65221Y-31856D01*
X65205Y-31808D01*
X65210Y-31797D01*
X65210Y-31694D01*
X65210Y-31672D01*
X65210Y-31268D01*
X65210Y-31246D01*
X65210Y-31143D01*
X65170Y-31047D01*
X65097Y-30974D01*
X65001Y-30935D01*
X64927Y-30935D01*
X64862Y-31000D01*
X64862Y-31333D01*
X65145Y-31333D01*
X65210Y-31268D01*
X65210Y-31672D01*
X65145Y-31607D01*
X64862Y-31607D01*
X64862Y-31708D01*
X64827Y-31673D01*
X64688Y-31812D01*
X64688Y-31607D01*
X64600Y-31607D01*
X64600Y-31333D01*
X64688Y-31333D01*
X64688Y-31000D01*
X64623Y-30935D01*
X64549Y-30935D01*
X64453Y-30974D01*
X64380Y-31047D01*
X64356Y-31102D01*
X64353Y-31093D01*
X64302Y-31042D01*
X64236Y-31015D01*
X64164Y-31015D01*
X63814Y-31015D01*
X63748Y-31042D01*
X63697Y-31093D01*
X63670Y-31159D01*
X63670Y-31231D01*
X63670Y-31445D01*
X63660Y-31495D01*
X63660Y-31968D01*
X63615Y-32013D01*
X63546Y-32179D01*
X63546Y-32360D01*
X63615Y-32527D01*
X63743Y-32655D01*
X63909Y-32724D01*
X64090Y-32724D01*
X64257Y-32655D01*
X64385Y-32527D01*
X64454Y-32361D01*
X64454Y-32180D01*
X64431Y-32125D01*
X64483Y-32177D01*
X64465Y-32283D01*
X64501Y-32463D01*
X64586Y-32491D01*
X64806Y-32270D01*
X64733Y-32196D01*
X64926Y-32004D01*
X64927Y-32005D01*
X64928Y-32005D01*
X65000Y-32076D01*
X65221Y-31856D01*
X65221Y-32242D01*
X65194Y-32270D01*
X65414Y-32491D01*
X65499Y-32463D01*
X65535Y-32257D01*
X65535Y-34200D01*
X65221Y-34200D01*
X65221Y-32684D01*
X65000Y-32464D01*
X64806Y-32657D01*
X64779Y-32684D01*
X64807Y-32769D01*
X65013Y-32805D01*
X65193Y-32769D01*
X65221Y-32684D01*
X65221Y-34200D01*
X63488Y-34200D01*
X63400Y-34218D01*
X63325Y-34267D01*
X63323Y-34269D01*
X62703Y-34889D01*
X62654Y-34964D01*
X62635Y-35052D01*
X62636Y-35056D01*
X62636Y-35254D01*
X61790Y-36100D01*
X59824Y-36100D01*
X59880Y-35966D01*
X59880Y-35775D01*
X59807Y-35599D01*
X59672Y-35463D01*
X59640Y-35450D01*
X61300Y-35450D01*
X61522Y-35406D01*
X61539Y-35394D01*
X61756Y-35394D01*
X61949Y-35314D01*
X62096Y-35167D01*
X62176Y-34974D01*
X62176Y-34766D01*
X62096Y-34573D01*
X61949Y-34426D01*
X61813Y-34370D01*
X61949Y-34314D01*
X62096Y-34167D01*
X62176Y-33974D01*
X62176Y-33766D01*
X62096Y-33573D01*
X61949Y-33426D01*
X61813Y-33370D01*
X61949Y-33314D01*
X62096Y-33167D01*
X62176Y-32974D01*
X62176Y-32766D01*
X62096Y-32573D01*
X61949Y-32426D01*
X61813Y-32370D01*
X61949Y-32314D01*
X62096Y-32167D01*
X62176Y-31974D01*
X62176Y-31766D01*
X62096Y-31573D01*
X61949Y-31426D01*
X61756Y-31346D01*
X61548Y-31346D01*
X61539Y-31346D01*
X61522Y-31334D01*
X61300Y-31290D01*
X59959Y-31290D01*
X59959Y-30850D01*
X59924Y-30674D01*
X59839Y-30643D01*
X59612Y-30870D01*
X59839Y-31097D01*
X59924Y-31066D01*
X59959Y-30850D01*
X59959Y-31290D01*
X59608Y-31290D01*
X59469Y-31151D01*
X59466Y-30591D01*
X59627Y-30431D01*
X59617Y-30405D01*
X59621Y-30405D01*
X59810Y-30280D01*
X59935Y-30091D01*
X59979Y-29869D01*
X59935Y-29647D01*
X59810Y-29459D01*
X58910Y-28560D01*
X58865Y-28530D01*
X75794Y-28530D01*
X75930Y-28557D01*
X76040Y-28630D01*
X76113Y-28740D01*
X76140Y-28876D01*
X76140Y-30376D01*
X76173Y-30546D01*
X76274Y-30696D01*
X76424Y-30797D01*
X76594Y-30830D01*
X78094Y-30830D01*
X78230Y-30857D01*
X78340Y-30930D01*
X78413Y-31040D01*
X78440Y-31176D01*
X78440Y-44564D01*
M02*
