M48
INCH,TZ
T1C0.012
T2C0.025
T3C0.032
T4C0.040
T5C0.047
T6C0.059
T7C0.114
%
G90
G05
T1
X45200Y-37270
X46540Y-39530
X53430Y-39050
X53450Y-38600
X53780Y-39050
X60600Y-37040
X68220Y-33600
X69030Y-33580
X69110Y-34750
X74600Y-39545
X75400Y-39545
X76055Y-39945
X76200Y-40995
T2
X42700Y-41660
X42700Y-42150
X42700Y-42570
T3
X44500Y-31970
X44500Y-33970
X64000Y-32270
X64000Y-35270
X64000Y-38370
X64000Y-41370
X65000Y-32270
X65000Y-35270
X65000Y-38370
X65000Y-41370
X66000Y-32270
X66000Y-35270
X66000Y-38370
X66000Y-41370
X67000Y-32270
X67000Y-35270
X67000Y-38370
X67000Y-41370
X68000Y-32270
X68000Y-35270
X68000Y-38370
X68000Y-41370
X69000Y-32270
X69000Y-35270
X69000Y-38370
X69000Y-41370
X70000Y-32270
X70000Y-35270
X70000Y-38370
X70000Y-41370
X71000Y-32270
X71000Y-35270
X71000Y-38370
X71000Y-41370
X72000Y-32270
X72000Y-35270
X73000Y-32270
X73000Y-35270
X74000Y-32270
X74000Y-35270
X75000Y-32270
X75000Y-35270
X76000Y-32270
X76000Y-35270
X77000Y-32270
X77000Y-35270
T4
X45600Y-29870
X45600Y-30870
X45600Y-31870
X45600Y-32870
X45600Y-33870
X45600Y-34870
X45600Y-35870
X45600Y-36870
X45600Y-38870
X45600Y-39870
X45600Y-40870
X45600Y-41870
X45600Y-42870
X45600Y-43870
X45600Y-44870
X45600Y-45870
X47100Y-30070
X47100Y-35670
X47100Y-36670
X47100Y-39070
X47100Y-44670
X47100Y-45670
X48100Y-35670
X48100Y-36670
X48100Y-44670
X48100Y-45670
X49100Y-30070
X49100Y-35670
X49100Y-36670
X49100Y-39070
X49100Y-44670
X49100Y-45670
X50600Y-29870
X50600Y-30870
X50600Y-31870
X50600Y-32870
X50600Y-33870
X50600Y-34870
X50600Y-35870
X50600Y-36870
X50600Y-38870
X50600Y-39870
X50600Y-40870
X50600Y-41870
X50600Y-42870
X50600Y-43870
X50600Y-44870
X50600Y-45870
X54400Y-29870
X54400Y-30870
X54400Y-31870
X54400Y-32870
X54400Y-33870
X54400Y-34870
X54400Y-35870
X54400Y-36870
X54400Y-38870
X54400Y-39870
X54400Y-40870
X54400Y-41870
X54400Y-42870
X54400Y-43870
X54400Y-44870
X54400Y-45870
X55900Y-30070
X55900Y-35670
X55900Y-36670
X55900Y-39070
X55900Y-44670
X55900Y-45670
X56900Y-35670
X56900Y-36670
X56900Y-44670
X56900Y-45670
X57900Y-30070
X57900Y-35670
X57900Y-36670
X57900Y-39070
X57900Y-44670
X57900Y-45670
X59400Y-29870
X59400Y-30870
X59400Y-31870
X59400Y-32870
X59400Y-33870
X59400Y-34870
X59400Y-35870
X59400Y-36870
X59400Y-38870
X59400Y-39870
X59400Y-40870
X59400Y-41870
X59400Y-42870
X59400Y-43870
X59400Y-44870
X59400Y-45870
X64000Y-36550
X64200Y-44870
X64200Y-45870
X65000Y-36390
X65200Y-44870
X65200Y-45870
X66000Y-29870
X66000Y-30870
X66000Y-36550
X66200Y-44870
X66200Y-45870
X67000Y-29870
X67000Y-30870
X67000Y-36390
X67200Y-44870
X67200Y-45870
X68000Y-29870
X68000Y-30870
X68000Y-36550
X68200Y-44870
X68200Y-45870
X69000Y-29870
X69000Y-30870
X69000Y-36390
X69200Y-44870
X69200Y-45870
X70500Y-29950
X71200Y-44870
X71200Y-45870
X71500Y-29790
X72200Y-44870
X72200Y-45870
X72500Y-29950
X73200Y-44870
X73200Y-45870
X73500Y-29790
X74200Y-44870
X74200Y-45870
X74500Y-29950
X75200Y-44870
X75200Y-45870
X75500Y-29790
T5
X52500Y-31870
X52500Y-32870
X52500Y-33870
X52500Y-34870
X52500Y-40870
X52500Y-41870
X52500Y-42870
X52500Y-43870
X61300Y-31870
X61300Y-32870
X61300Y-33870
X61300Y-34870
X61300Y-40870
X61300Y-41870
X61300Y-42870
X61300Y-43870
T6
X41700Y-32570
X41700Y-34538
X41700Y-36970
X41700Y-38938
T7
X40650Y-29520
X40650Y-46220
X77450Y-29520
X77450Y-46220
T0
M30
