G04 (created by PCBNEW-RS274X (2012-apr-16-27)-stable) date Saturday 07,June,2014 10:26:51 PM SGT*
G01*
G70*
G90*
%MOIN*%
G04 Gerber Fmt 3.4, Leading zero omitted, Abs format*
%FSLAX34Y34*%
G04 APERTURE LIST*
%ADD10C,0.006000*%
%ADD11C,0.000100*%
%ADD12C,0.004000*%
%ADD13C,0.017500*%
%ADD14R,0.080000X0.080000*%
%ADD15C,0.080000*%
%ADD16C,0.120000*%
%ADD17R,0.090000X0.090000*%
%ADD18C,0.090000*%
%ADD19R,0.075000X0.075000*%
%ADD20C,0.075000*%
%ADD21O,0.157800X0.090900*%
G04 APERTURE END LIST*
G54D10*
X75386Y-30632D02*
X75371Y-30603D01*
X75371Y-30560D01*
X75386Y-30517D01*
X75414Y-30489D01*
X75443Y-30474D01*
X75500Y-30460D01*
X75543Y-30460D01*
X75600Y-30474D01*
X75629Y-30489D01*
X75657Y-30517D01*
X75671Y-30560D01*
X75671Y-30589D01*
X75657Y-30632D01*
X75643Y-30646D01*
X75543Y-30646D01*
X75543Y-30589D01*
X75671Y-30774D02*
X75371Y-30774D01*
X75671Y-30946D01*
X75371Y-30946D01*
X75671Y-31088D02*
X75371Y-31088D01*
X75371Y-31160D01*
X75386Y-31203D01*
X75414Y-31231D01*
X75443Y-31246D01*
X75500Y-31260D01*
X75543Y-31260D01*
X75600Y-31246D01*
X75629Y-31231D01*
X75657Y-31203D01*
X75671Y-31160D01*
X75671Y-31088D01*
X70321Y-30470D02*
X70321Y-30641D01*
X70621Y-30555D02*
X70321Y-30555D01*
X70621Y-30741D02*
X70321Y-30741D01*
X70536Y-30841D01*
X70321Y-30941D01*
X70621Y-30941D01*
X70607Y-31070D02*
X70621Y-31113D01*
X70621Y-31184D01*
X70607Y-31213D01*
X70593Y-31227D01*
X70564Y-31242D01*
X70536Y-31242D01*
X70507Y-31227D01*
X70493Y-31213D01*
X70479Y-31184D01*
X70464Y-31127D01*
X70450Y-31099D01*
X70436Y-31084D01*
X70407Y-31070D01*
X70379Y-31070D01*
X70350Y-31084D01*
X70336Y-31099D01*
X70321Y-31127D01*
X70321Y-31199D01*
X70336Y-31242D01*
X74321Y-30463D02*
X74321Y-30634D01*
X74621Y-30548D02*
X74321Y-30548D01*
X74621Y-30734D02*
X74321Y-30734D01*
X74321Y-30806D01*
X74336Y-30849D01*
X74364Y-30877D01*
X74393Y-30892D01*
X74450Y-30906D01*
X74493Y-30906D01*
X74550Y-30892D01*
X74579Y-30877D01*
X74607Y-30849D01*
X74621Y-30806D01*
X74621Y-30734D01*
X74621Y-31034D02*
X74321Y-31034D01*
X73321Y-30465D02*
X73321Y-30636D01*
X73621Y-30550D02*
X73321Y-30550D01*
X73593Y-30908D02*
X73607Y-30894D01*
X73621Y-30851D01*
X73621Y-30822D01*
X73607Y-30779D01*
X73579Y-30751D01*
X73550Y-30736D01*
X73493Y-30722D01*
X73450Y-30722D01*
X73393Y-30736D01*
X73364Y-30751D01*
X73336Y-30779D01*
X73321Y-30822D01*
X73321Y-30851D01*
X73336Y-30894D01*
X73350Y-30908D01*
X73621Y-31036D02*
X73321Y-31036D01*
X73621Y-31208D02*
X73450Y-31079D01*
X73321Y-31208D02*
X73493Y-31036D01*
X72321Y-30468D02*
X72321Y-30639D01*
X72621Y-30553D02*
X72321Y-30553D01*
X72621Y-30739D02*
X72321Y-30739D01*
X72321Y-30811D01*
X72336Y-30854D01*
X72364Y-30882D01*
X72393Y-30897D01*
X72450Y-30911D01*
X72493Y-30911D01*
X72550Y-30897D01*
X72579Y-30882D01*
X72607Y-30854D01*
X72621Y-30811D01*
X72621Y-30739D01*
X72321Y-31097D02*
X72321Y-31154D01*
X72336Y-31182D01*
X72364Y-31211D01*
X72421Y-31225D01*
X72521Y-31225D01*
X72579Y-31211D01*
X72607Y-31182D01*
X72621Y-31154D01*
X72621Y-31097D01*
X72607Y-31068D01*
X72579Y-31039D01*
X72521Y-31025D01*
X72421Y-31025D01*
X72364Y-31039D01*
X72336Y-31068D01*
X72321Y-31097D01*
X71321Y-30467D02*
X71321Y-30638D01*
X71621Y-30552D02*
X71321Y-30552D01*
X71621Y-30910D02*
X71479Y-30810D01*
X71621Y-30738D02*
X71321Y-30738D01*
X71321Y-30853D01*
X71336Y-30881D01*
X71350Y-30896D01*
X71379Y-30910D01*
X71421Y-30910D01*
X71450Y-30896D01*
X71464Y-30881D01*
X71479Y-30853D01*
X71479Y-30738D01*
X71607Y-31024D02*
X71621Y-31067D01*
X71621Y-31138D01*
X71607Y-31167D01*
X71593Y-31181D01*
X71564Y-31196D01*
X71536Y-31196D01*
X71507Y-31181D01*
X71493Y-31167D01*
X71479Y-31138D01*
X71464Y-31081D01*
X71450Y-31053D01*
X71436Y-31038D01*
X71407Y-31024D01*
X71379Y-31024D01*
X71350Y-31038D01*
X71336Y-31053D01*
X71321Y-31081D01*
X71321Y-31153D01*
X71336Y-31196D01*
X71321Y-31282D02*
X71321Y-31453D01*
X71621Y-31367D02*
X71321Y-31367D01*
X73636Y-38191D02*
X73736Y-38049D01*
X73808Y-38191D02*
X73808Y-37891D01*
X73693Y-37891D01*
X73665Y-37906D01*
X73650Y-37920D01*
X73636Y-37949D01*
X73636Y-37991D01*
X73650Y-38020D01*
X73665Y-38034D01*
X73693Y-38049D01*
X73808Y-38049D01*
X73393Y-38177D02*
X73422Y-38191D01*
X73479Y-38191D01*
X73508Y-38177D01*
X73522Y-38149D01*
X73522Y-38034D01*
X73508Y-38006D01*
X73479Y-37991D01*
X73422Y-37991D01*
X73393Y-38006D01*
X73379Y-38034D01*
X73379Y-38063D01*
X73522Y-38091D01*
X73279Y-37991D02*
X73208Y-38191D01*
X73136Y-37991D01*
X72807Y-38106D02*
X72664Y-38106D01*
X72835Y-38191D02*
X72735Y-37891D01*
X72635Y-38191D01*
X72478Y-37891D02*
X72450Y-37891D01*
X72421Y-37906D01*
X72407Y-37920D01*
X72393Y-37949D01*
X72378Y-38006D01*
X72378Y-38077D01*
X72393Y-38134D01*
X72407Y-38163D01*
X72421Y-38177D01*
X72450Y-38191D01*
X72478Y-38191D01*
X72507Y-38177D01*
X72521Y-38163D01*
X72536Y-38134D01*
X72550Y-38077D01*
X72550Y-38006D01*
X72536Y-37949D01*
X72521Y-37920D01*
X72507Y-37906D01*
X72478Y-37891D01*
G54D11*
G36*
X76536Y-44454D02*
X76548Y-44448D01*
X76573Y-44432D01*
X76610Y-44408D01*
X76653Y-44379D01*
X76697Y-44349D01*
X76732Y-44325D01*
X76757Y-44309D01*
X76768Y-44304D01*
X76773Y-44306D01*
X76794Y-44316D01*
X76824Y-44331D01*
X76841Y-44340D01*
X76869Y-44352D01*
X76882Y-44354D01*
X76885Y-44351D01*
X76895Y-44330D01*
X76910Y-44294D01*
X76931Y-44246D01*
X76955Y-44191D01*
X76980Y-44131D01*
X77006Y-44070D01*
X77030Y-44011D01*
X77051Y-43959D01*
X77068Y-43916D01*
X77080Y-43887D01*
X77084Y-43874D01*
X77083Y-43871D01*
X77069Y-43858D01*
X77045Y-43840D01*
X76993Y-43798D01*
X76942Y-43734D01*
X76911Y-43661D01*
X76900Y-43581D01*
X76909Y-43506D01*
X76939Y-43434D01*
X76989Y-43370D01*
X77049Y-43322D01*
X77120Y-43291D01*
X77200Y-43282D01*
X77276Y-43290D01*
X77349Y-43319D01*
X77414Y-43368D01*
X77441Y-43400D01*
X77479Y-43465D01*
X77500Y-43535D01*
X77503Y-43553D01*
X77499Y-43630D01*
X77477Y-43703D01*
X77436Y-43769D01*
X77380Y-43823D01*
X77373Y-43829D01*
X77346Y-43848D01*
X77329Y-43862D01*
X77315Y-43873D01*
X77413Y-44109D01*
X77429Y-44146D01*
X77456Y-44211D01*
X77479Y-44266D01*
X77498Y-44310D01*
X77511Y-44340D01*
X77517Y-44352D01*
X77518Y-44352D01*
X77526Y-44354D01*
X77544Y-44347D01*
X77577Y-44331D01*
X77599Y-44320D01*
X77624Y-44308D01*
X77635Y-44304D01*
X77645Y-44309D01*
X77669Y-44324D01*
X77704Y-44348D01*
X77746Y-44377D01*
X77786Y-44404D01*
X77823Y-44428D01*
X77850Y-44445D01*
X77863Y-44452D01*
X77865Y-44452D01*
X77877Y-44446D01*
X77898Y-44428D01*
X77930Y-44398D01*
X77976Y-44353D01*
X77983Y-44346D01*
X78020Y-44308D01*
X78050Y-44276D01*
X78071Y-44254D01*
X78078Y-44243D01*
X78078Y-44243D01*
X78071Y-44230D01*
X78054Y-44204D01*
X78030Y-44166D01*
X78000Y-44122D01*
X77922Y-44009D01*
X77965Y-43902D01*
X77978Y-43869D01*
X77995Y-43829D01*
X78007Y-43801D01*
X78013Y-43788D01*
X78025Y-43784D01*
X78054Y-43777D01*
X78097Y-43768D01*
X78148Y-43759D01*
X78196Y-43750D01*
X78239Y-43742D01*
X78271Y-43736D01*
X78285Y-43733D01*
X78289Y-43731D01*
X78291Y-43724D01*
X78293Y-43709D01*
X78294Y-43683D01*
X78295Y-43641D01*
X78295Y-43581D01*
X78295Y-43574D01*
X78294Y-43516D01*
X78293Y-43471D01*
X78292Y-43441D01*
X78290Y-43429D01*
X78290Y-43429D01*
X78276Y-43426D01*
X78245Y-43419D01*
X78202Y-43411D01*
X78150Y-43401D01*
X78146Y-43400D01*
X78095Y-43390D01*
X78051Y-43381D01*
X78021Y-43374D01*
X78008Y-43370D01*
X78005Y-43366D01*
X77995Y-43346D01*
X77980Y-43314D01*
X77963Y-43275D01*
X77946Y-43234D01*
X77931Y-43198D01*
X77921Y-43170D01*
X77918Y-43158D01*
X77919Y-43158D01*
X77926Y-43145D01*
X77944Y-43118D01*
X77969Y-43081D01*
X78000Y-43037D01*
X78002Y-43034D01*
X78032Y-42990D01*
X78056Y-42953D01*
X78072Y-42926D01*
X78078Y-42914D01*
X78078Y-42914D01*
X78068Y-42901D01*
X78046Y-42876D01*
X78014Y-42842D01*
X77975Y-42804D01*
X77963Y-42792D01*
X77921Y-42750D01*
X77891Y-42723D01*
X77873Y-42708D01*
X77864Y-42705D01*
X77863Y-42705D01*
X77850Y-42713D01*
X77823Y-42731D01*
X77785Y-42757D01*
X77741Y-42787D01*
X77738Y-42789D01*
X77694Y-42819D01*
X77657Y-42844D01*
X77631Y-42861D01*
X77620Y-42868D01*
X77618Y-42868D01*
X77600Y-42862D01*
X77569Y-42851D01*
X77531Y-42837D01*
X77490Y-42820D01*
X77454Y-42805D01*
X77426Y-42792D01*
X77413Y-42785D01*
X77413Y-42784D01*
X77408Y-42769D01*
X77400Y-42736D01*
X77391Y-42691D01*
X77381Y-42637D01*
X77379Y-42628D01*
X77369Y-42576D01*
X77361Y-42533D01*
X77355Y-42503D01*
X77352Y-42491D01*
X77344Y-42489D01*
X77319Y-42487D01*
X77280Y-42486D01*
X77233Y-42486D01*
X77184Y-42486D01*
X77135Y-42487D01*
X77094Y-42489D01*
X77064Y-42491D01*
X77052Y-42493D01*
X77052Y-42494D01*
X77047Y-42510D01*
X77040Y-42543D01*
X77031Y-42588D01*
X77020Y-42642D01*
X77018Y-42652D01*
X77009Y-42704D01*
X77000Y-42746D01*
X76994Y-42776D01*
X76990Y-42787D01*
X76986Y-42790D01*
X76964Y-42799D01*
X76929Y-42814D01*
X76886Y-42831D01*
X76786Y-42872D01*
X76663Y-42787D01*
X76651Y-42780D01*
X76607Y-42750D01*
X76571Y-42725D01*
X76546Y-42709D01*
X76535Y-42703D01*
X76534Y-42704D01*
X76522Y-42714D01*
X76498Y-42737D01*
X76464Y-42770D01*
X76426Y-42808D01*
X76397Y-42837D01*
X76363Y-42871D01*
X76342Y-42894D01*
X76330Y-42909D01*
X76326Y-42918D01*
X76327Y-42924D01*
X76335Y-42937D01*
X76353Y-42964D01*
X76378Y-43001D01*
X76408Y-43045D01*
X76433Y-43081D01*
X76459Y-43122D01*
X76477Y-43152D01*
X76483Y-43166D01*
X76481Y-43172D01*
X76473Y-43196D01*
X76458Y-43233D01*
X76440Y-43276D01*
X76397Y-43373D01*
X76333Y-43386D01*
X76294Y-43393D01*
X76240Y-43403D01*
X76189Y-43413D01*
X76108Y-43429D01*
X76105Y-43725D01*
X76117Y-43731D01*
X76129Y-43734D01*
X76159Y-43741D01*
X76202Y-43749D01*
X76252Y-43759D01*
X76295Y-43767D01*
X76339Y-43775D01*
X76370Y-43781D01*
X76384Y-43784D01*
X76387Y-43788D01*
X76398Y-43809D01*
X76413Y-43843D01*
X76430Y-43883D01*
X76448Y-43924D01*
X76463Y-43963D01*
X76474Y-43992D01*
X76478Y-44007D01*
X76472Y-44018D01*
X76455Y-44044D01*
X76431Y-44080D01*
X76402Y-44123D01*
X76373Y-44166D01*
X76348Y-44203D01*
X76331Y-44229D01*
X76323Y-44241D01*
X76327Y-44250D01*
X76344Y-44270D01*
X76377Y-44304D01*
X76425Y-44352D01*
X76433Y-44359D01*
X76471Y-44396D01*
X76504Y-44426D01*
X76526Y-44446D01*
X76536Y-44454D01*
X76536Y-44454D01*
G37*
G54D12*
X78117Y-44747D02*
X78127Y-44759D01*
X78155Y-44771D01*
X78174Y-44771D01*
X78203Y-44759D01*
X78222Y-44735D01*
X78231Y-44712D01*
X78241Y-44664D01*
X78241Y-44628D01*
X78231Y-44581D01*
X78222Y-44557D01*
X78203Y-44533D01*
X78174Y-44521D01*
X78155Y-44521D01*
X78127Y-44533D01*
X78117Y-44545D01*
X77917Y-44747D02*
X77927Y-44759D01*
X77955Y-44771D01*
X77974Y-44771D01*
X78003Y-44759D01*
X78022Y-44735D01*
X78031Y-44712D01*
X78041Y-44664D01*
X78041Y-44628D01*
X78031Y-44581D01*
X78022Y-44557D01*
X78003Y-44533D01*
X77974Y-44521D01*
X77955Y-44521D01*
X77927Y-44533D01*
X77917Y-44545D01*
X77613Y-44640D02*
X77584Y-44652D01*
X77575Y-44664D01*
X77565Y-44688D01*
X77565Y-44724D01*
X77575Y-44747D01*
X77584Y-44759D01*
X77603Y-44771D01*
X77679Y-44771D01*
X77679Y-44521D01*
X77613Y-44521D01*
X77594Y-44533D01*
X77584Y-44545D01*
X77575Y-44569D01*
X77575Y-44593D01*
X77584Y-44616D01*
X77594Y-44628D01*
X77613Y-44640D01*
X77679Y-44640D01*
X77441Y-44652D02*
X77441Y-44771D01*
X77508Y-44521D02*
X77441Y-44652D01*
X77375Y-44521D01*
X77308Y-44676D02*
X77156Y-44676D01*
X77070Y-44759D02*
X77041Y-44771D01*
X76994Y-44771D01*
X76975Y-44759D01*
X76965Y-44747D01*
X76956Y-44724D01*
X76956Y-44700D01*
X76965Y-44676D01*
X76975Y-44664D01*
X76994Y-44652D01*
X77032Y-44640D01*
X77051Y-44628D01*
X77060Y-44616D01*
X77070Y-44593D01*
X77070Y-44569D01*
X77060Y-44545D01*
X77051Y-44533D01*
X77032Y-44521D01*
X76984Y-44521D01*
X76956Y-44533D01*
X76880Y-44700D02*
X76785Y-44700D01*
X76899Y-44771D02*
X76832Y-44521D01*
X76766Y-44771D01*
X76566Y-44521D02*
X76443Y-44521D01*
X76509Y-44616D01*
X76481Y-44616D01*
X76462Y-44628D01*
X76452Y-44640D01*
X76443Y-44664D01*
X76443Y-44724D01*
X76452Y-44747D01*
X76462Y-44759D01*
X76481Y-44771D01*
X76538Y-44771D01*
X76557Y-44759D01*
X76566Y-44747D01*
X76357Y-44747D02*
X76348Y-44759D01*
X76357Y-44771D01*
X76367Y-44759D01*
X76357Y-44747D01*
X76357Y-44771D01*
X76224Y-44521D02*
X76205Y-44521D01*
X76186Y-44533D01*
X76177Y-44545D01*
X76167Y-44569D01*
X76158Y-44616D01*
X76158Y-44676D01*
X76167Y-44724D01*
X76177Y-44747D01*
X76186Y-44759D01*
X76205Y-44771D01*
X76224Y-44771D01*
X76243Y-44759D01*
X76253Y-44747D01*
X76262Y-44724D01*
X76272Y-44676D01*
X76272Y-44616D01*
X76262Y-44569D01*
X76253Y-44545D01*
X76243Y-44533D01*
X76224Y-44521D01*
G54D13*
X77916Y-37694D02*
X77916Y-36894D01*
X77650Y-36894D01*
X77583Y-36932D01*
X77550Y-36970D01*
X77516Y-37046D01*
X77516Y-37160D01*
X77550Y-37237D01*
X77583Y-37275D01*
X77650Y-37313D01*
X77916Y-37313D01*
X77216Y-37694D02*
X77216Y-36894D01*
X76483Y-37618D02*
X76517Y-37656D01*
X76617Y-37694D01*
X76683Y-37694D01*
X76783Y-37656D01*
X76850Y-37580D01*
X76883Y-37503D01*
X76917Y-37351D01*
X76917Y-37237D01*
X76883Y-37084D01*
X76850Y-37008D01*
X76783Y-36932D01*
X76683Y-36894D01*
X76617Y-36894D01*
X76517Y-36932D01*
X76483Y-36970D01*
X76183Y-37160D02*
X76183Y-37694D01*
X76183Y-37237D02*
X76150Y-37199D01*
X76083Y-37160D01*
X75983Y-37160D01*
X75917Y-37199D01*
X75883Y-37275D01*
X75883Y-37694D01*
X75250Y-37656D02*
X75317Y-37694D01*
X75450Y-37694D01*
X75517Y-37656D01*
X75550Y-37618D01*
X75584Y-37541D01*
X75584Y-37313D01*
X75550Y-37237D01*
X75517Y-37199D01*
X75450Y-37160D01*
X75317Y-37160D01*
X75250Y-37199D01*
X74517Y-36894D02*
X74284Y-37694D01*
X74051Y-36894D01*
X73851Y-36970D02*
X73817Y-36932D01*
X73751Y-36894D01*
X73584Y-36894D01*
X73517Y-36932D01*
X73484Y-36970D01*
X73451Y-37046D01*
X73451Y-37122D01*
X73484Y-37237D01*
X73884Y-37694D01*
X73451Y-37694D01*
X73150Y-37618D02*
X73117Y-37656D01*
X73150Y-37694D01*
X73184Y-37656D01*
X73150Y-37618D01*
X73150Y-37694D01*
X72451Y-37694D02*
X72851Y-37694D01*
X72651Y-37694D02*
X72651Y-36894D01*
X72717Y-37008D01*
X72784Y-37084D01*
X72851Y-37122D01*
%LPC*%
G54D14*
X70500Y-29950D03*
G54D15*
X71500Y-29790D03*
X72500Y-29950D03*
X73500Y-29790D03*
X74500Y-29950D03*
X75500Y-29790D03*
G54D14*
X66000Y-30870D03*
G54D15*
X66000Y-29870D03*
X67000Y-30870D03*
X67000Y-29870D03*
X68000Y-30870D03*
X68000Y-29870D03*
X69000Y-30870D03*
X69000Y-29870D03*
G54D16*
X41700Y-34538D03*
X41700Y-32570D03*
X41700Y-38938D03*
X41700Y-36970D03*
G54D14*
X71200Y-45870D03*
G54D15*
X71200Y-44870D03*
X72200Y-45870D03*
X72200Y-44870D03*
X73200Y-45870D03*
X73200Y-44870D03*
X74200Y-45870D03*
X74200Y-44870D03*
X75200Y-45870D03*
X75200Y-44870D03*
G54D14*
X64200Y-45870D03*
G54D15*
X64200Y-44870D03*
X65200Y-45870D03*
X65200Y-44870D03*
X66200Y-45870D03*
X66200Y-44870D03*
X67200Y-45870D03*
X67200Y-44870D03*
X68200Y-45870D03*
X68200Y-44870D03*
X69200Y-45870D03*
X69200Y-44870D03*
G54D14*
X57900Y-44670D03*
G54D15*
X57900Y-45670D03*
X56900Y-44670D03*
X56900Y-45670D03*
X55900Y-44670D03*
X55900Y-45670D03*
G54D14*
X57900Y-35670D03*
G54D15*
X57900Y-36670D03*
X56900Y-35670D03*
X56900Y-36670D03*
X55900Y-35670D03*
X55900Y-36670D03*
G54D14*
X49100Y-35670D03*
G54D15*
X49100Y-36670D03*
X48100Y-35670D03*
X48100Y-36670D03*
X47100Y-35670D03*
X47100Y-36670D03*
G54D14*
X49100Y-44670D03*
G54D15*
X49100Y-45670D03*
X48100Y-44670D03*
X48100Y-45670D03*
X47100Y-44670D03*
X47100Y-45670D03*
G54D17*
X55900Y-39070D03*
G54D18*
X57900Y-39070D03*
G54D17*
X47100Y-39070D03*
G54D18*
X49100Y-39070D03*
G54D17*
X55900Y-30070D03*
G54D18*
X57900Y-30070D03*
G54D17*
X47100Y-30070D03*
G54D18*
X49100Y-30070D03*
G54D19*
X64000Y-41370D03*
G54D20*
X65000Y-41370D03*
X66000Y-41370D03*
X67000Y-41370D03*
X68000Y-41370D03*
X69000Y-41370D03*
X70000Y-41370D03*
X71000Y-41370D03*
X71000Y-38370D03*
X70000Y-38370D03*
X69000Y-38370D03*
X68000Y-38370D03*
X67000Y-38370D03*
X66000Y-38370D03*
X65000Y-38370D03*
X64000Y-38370D03*
X65000Y-35270D03*
X66000Y-35270D03*
X67000Y-35270D03*
X68000Y-35270D03*
X69000Y-35270D03*
X70000Y-35270D03*
X71000Y-35270D03*
X72000Y-35270D03*
X73000Y-35270D03*
X74000Y-35270D03*
X75000Y-35270D03*
X76000Y-35270D03*
X77000Y-35270D03*
G54D19*
X64000Y-35270D03*
G54D20*
X77000Y-32270D03*
X76000Y-32270D03*
X75000Y-32270D03*
X74000Y-32270D03*
X73000Y-32270D03*
X72000Y-32270D03*
X71000Y-32270D03*
X70000Y-32270D03*
X69000Y-32270D03*
X68000Y-32270D03*
X67000Y-32270D03*
X66000Y-32270D03*
X65000Y-32270D03*
X64000Y-32270D03*
G54D21*
X52500Y-43870D03*
X52500Y-42870D03*
X52500Y-41870D03*
X52500Y-40870D03*
X61300Y-43870D03*
X61300Y-42870D03*
X61300Y-41870D03*
X61300Y-40870D03*
X61300Y-34870D03*
X61300Y-33870D03*
X61300Y-32870D03*
X61300Y-31870D03*
X52500Y-34870D03*
X52500Y-33870D03*
X52500Y-32870D03*
X52500Y-31870D03*
G54D14*
X54400Y-29870D03*
G54D15*
X59400Y-29870D03*
X54400Y-30870D03*
X59400Y-30870D03*
X54400Y-31870D03*
X59400Y-31870D03*
X54400Y-32870D03*
X59400Y-32870D03*
X54400Y-33870D03*
X59400Y-33870D03*
X54400Y-34870D03*
X59400Y-34870D03*
X54400Y-35870D03*
X59400Y-35870D03*
X54400Y-36870D03*
X59400Y-36870D03*
G54D14*
X54400Y-38870D03*
G54D15*
X59400Y-38870D03*
X54400Y-39870D03*
X59400Y-39870D03*
X54400Y-40870D03*
X59400Y-40870D03*
X54400Y-41870D03*
X59400Y-41870D03*
X54400Y-42870D03*
X59400Y-42870D03*
X54400Y-43870D03*
X59400Y-43870D03*
X54400Y-44870D03*
X59400Y-44870D03*
X54400Y-45870D03*
X59400Y-45870D03*
G54D14*
X45600Y-29870D03*
G54D15*
X50600Y-29870D03*
X45600Y-30870D03*
X50600Y-30870D03*
X45600Y-31870D03*
X50600Y-31870D03*
X45600Y-32870D03*
X50600Y-32870D03*
X45600Y-33870D03*
X50600Y-33870D03*
X45600Y-34870D03*
X50600Y-34870D03*
X45600Y-35870D03*
X50600Y-35870D03*
X45600Y-36870D03*
X50600Y-36870D03*
G54D14*
X45600Y-38870D03*
G54D15*
X50600Y-38870D03*
X45600Y-39870D03*
X50600Y-39870D03*
X45600Y-40870D03*
X50600Y-40870D03*
X45600Y-41870D03*
X50600Y-41870D03*
X45600Y-42870D03*
X50600Y-42870D03*
X45600Y-43870D03*
X50600Y-43870D03*
X45600Y-44870D03*
X50600Y-44870D03*
X45600Y-45870D03*
X50600Y-45870D03*
G54D14*
X64000Y-36550D03*
G54D15*
X65000Y-36390D03*
X66000Y-36550D03*
X67000Y-36390D03*
X68000Y-36550D03*
X69000Y-36390D03*
G54D19*
X44500Y-33970D03*
G54D20*
X44500Y-31970D03*
M02*
