G04 (created by PCBNEW-RS274X (2012-apr-16-27)-stable) date Saturday 07,June,2014 10:26:51 PM SGT*
G01*
G70*
G90*
%MOIN*%
G04 Gerber Fmt 3.4, Leading zero omitted, Abs format*
%FSLAX34Y34*%
G04 APERTURE LIST*
%ADD10C,0.006000*%
G04 APERTURE END LIST*
G54D10*
X78200Y-47470D02*
X78243Y-47468D01*
X78286Y-47462D01*
X78329Y-47452D01*
X78371Y-47439D01*
X78411Y-47423D01*
X78450Y-47403D01*
X78486Y-47379D01*
X78521Y-47353D01*
X78553Y-47323D01*
X78583Y-47291D01*
X78609Y-47256D01*
X78633Y-47219D01*
X78653Y-47181D01*
X78669Y-47141D01*
X78682Y-47099D01*
X78692Y-47056D01*
X78698Y-47013D01*
X78700Y-46970D01*
X39400Y-46970D02*
X39402Y-47013D01*
X39408Y-47056D01*
X39418Y-47099D01*
X39431Y-47141D01*
X39447Y-47181D01*
X39467Y-47219D01*
X39491Y-47256D01*
X39517Y-47291D01*
X39547Y-47323D01*
X39579Y-47353D01*
X39614Y-47379D01*
X39651Y-47403D01*
X39689Y-47423D01*
X39729Y-47439D01*
X39771Y-47452D01*
X39814Y-47462D01*
X39857Y-47468D01*
X39900Y-47470D01*
X39900Y-28270D02*
X39857Y-28272D01*
X39814Y-28278D01*
X39771Y-28288D01*
X39729Y-28301D01*
X39689Y-28317D01*
X39651Y-28337D01*
X39614Y-28361D01*
X39579Y-28387D01*
X39547Y-28417D01*
X39517Y-28449D01*
X39491Y-28484D01*
X39467Y-28521D01*
X39447Y-28559D01*
X39431Y-28599D01*
X39418Y-28641D01*
X39408Y-28684D01*
X39402Y-28727D01*
X39400Y-28770D01*
X78700Y-28770D02*
X78698Y-28727D01*
X78692Y-28684D01*
X78682Y-28641D01*
X78669Y-28599D01*
X78653Y-28559D01*
X78633Y-28521D01*
X78609Y-28484D01*
X78583Y-28449D01*
X78553Y-28417D01*
X78521Y-28387D01*
X78486Y-28361D01*
X78450Y-28337D01*
X78411Y-28317D01*
X78371Y-28301D01*
X78329Y-28288D01*
X78286Y-28278D01*
X78243Y-28272D01*
X78200Y-28270D01*
X39400Y-46970D02*
X39400Y-28770D01*
X78200Y-47470D02*
X39900Y-47470D01*
X78700Y-28770D02*
X78700Y-46970D01*
X39900Y-28270D02*
X78200Y-28270D01*
M02*
