G04 (created by PCBNEW-RS274X (2012-apr-16-27)-stable) date Saturday 07,June,2014 10:26:51 PM SGT*
G01*
G70*
G90*
%MOIN*%
G04 Gerber Fmt 3.4, Leading zero omitted, Abs format*
%FSLAX34Y34*%
G04 APERTURE LIST*
%ADD10C,0.006000*%
%ADD11R,0.060000X0.060000*%
%ADD12C,0.060000*%
%ADD13C,0.100000*%
%ADD14R,0.070000X0.070000*%
%ADD15C,0.070000*%
%ADD16R,0.055000X0.055000*%
%ADD17C,0.055000*%
%ADD18O,0.137800X0.070900*%
%ADD19C,0.024000*%
%ADD20C,0.045000*%
%ADD21C,0.016000*%
%ADD22C,0.032000*%
%ADD23C,0.010000*%
%ADD24C,0.080000*%
%ADD25C,0.012000*%
G04 APERTURE END LIST*
G54D10*
G54D11*
X70500Y-29950D03*
G54D12*
X71500Y-29790D03*
X72500Y-29950D03*
X73500Y-29790D03*
X74500Y-29950D03*
X75500Y-29790D03*
G54D11*
X66000Y-30870D03*
G54D12*
X66000Y-29870D03*
X67000Y-30870D03*
X67000Y-29870D03*
X68000Y-30870D03*
X68000Y-29870D03*
X69000Y-30870D03*
X69000Y-29870D03*
G54D13*
X41700Y-34538D03*
X41700Y-32570D03*
X41700Y-38938D03*
X41700Y-36970D03*
G54D11*
X71200Y-45870D03*
G54D12*
X71200Y-44870D03*
X72200Y-45870D03*
X72200Y-44870D03*
X73200Y-45870D03*
X73200Y-44870D03*
X74200Y-45870D03*
X74200Y-44870D03*
X75200Y-45870D03*
X75200Y-44870D03*
G54D11*
X64200Y-45870D03*
G54D12*
X64200Y-44870D03*
X65200Y-45870D03*
X65200Y-44870D03*
X66200Y-45870D03*
X66200Y-44870D03*
X67200Y-45870D03*
X67200Y-44870D03*
X68200Y-45870D03*
X68200Y-44870D03*
X69200Y-45870D03*
X69200Y-44870D03*
G54D11*
X57900Y-44670D03*
G54D12*
X57900Y-45670D03*
X56900Y-44670D03*
X56900Y-45670D03*
X55900Y-44670D03*
X55900Y-45670D03*
G54D11*
X57900Y-35670D03*
G54D12*
X57900Y-36670D03*
X56900Y-35670D03*
X56900Y-36670D03*
X55900Y-35670D03*
X55900Y-36670D03*
G54D11*
X49100Y-35670D03*
G54D12*
X49100Y-36670D03*
X48100Y-35670D03*
X48100Y-36670D03*
X47100Y-35670D03*
X47100Y-36670D03*
G54D11*
X49100Y-44670D03*
G54D12*
X49100Y-45670D03*
X48100Y-44670D03*
X48100Y-45670D03*
X47100Y-44670D03*
X47100Y-45670D03*
G54D14*
X55900Y-39070D03*
G54D15*
X57900Y-39070D03*
G54D14*
X47100Y-39070D03*
G54D15*
X49100Y-39070D03*
G54D14*
X55900Y-30070D03*
G54D15*
X57900Y-30070D03*
G54D14*
X47100Y-30070D03*
G54D15*
X49100Y-30070D03*
G54D16*
X64000Y-41370D03*
G54D17*
X65000Y-41370D03*
X66000Y-41370D03*
X67000Y-41370D03*
X68000Y-41370D03*
X69000Y-41370D03*
X70000Y-41370D03*
X71000Y-41370D03*
X71000Y-38370D03*
X70000Y-38370D03*
X69000Y-38370D03*
X68000Y-38370D03*
X67000Y-38370D03*
X66000Y-38370D03*
X65000Y-38370D03*
X64000Y-38370D03*
X65000Y-35270D03*
X66000Y-35270D03*
X67000Y-35270D03*
X68000Y-35270D03*
X69000Y-35270D03*
X70000Y-35270D03*
X71000Y-35270D03*
X72000Y-35270D03*
X73000Y-35270D03*
X74000Y-35270D03*
X75000Y-35270D03*
X76000Y-35270D03*
X77000Y-35270D03*
G54D16*
X64000Y-35270D03*
G54D17*
X77000Y-32270D03*
X76000Y-32270D03*
X75000Y-32270D03*
X74000Y-32270D03*
X73000Y-32270D03*
X72000Y-32270D03*
X71000Y-32270D03*
X70000Y-32270D03*
X69000Y-32270D03*
X68000Y-32270D03*
X67000Y-32270D03*
X66000Y-32270D03*
X65000Y-32270D03*
X64000Y-32270D03*
G54D18*
X52500Y-43870D03*
X52500Y-42870D03*
X52500Y-41870D03*
X52500Y-40870D03*
X61300Y-43870D03*
X61300Y-42870D03*
X61300Y-41870D03*
X61300Y-40870D03*
X61300Y-34870D03*
X61300Y-33870D03*
X61300Y-32870D03*
X61300Y-31870D03*
X52500Y-34870D03*
X52500Y-33870D03*
X52500Y-32870D03*
X52500Y-31870D03*
G54D11*
X54400Y-29870D03*
G54D12*
X59400Y-29870D03*
X54400Y-30870D03*
X59400Y-30870D03*
X54400Y-31870D03*
X59400Y-31870D03*
X54400Y-32870D03*
X59400Y-32870D03*
X54400Y-33870D03*
X59400Y-33870D03*
X54400Y-34870D03*
X59400Y-34870D03*
X54400Y-35870D03*
X59400Y-35870D03*
X54400Y-36870D03*
X59400Y-36870D03*
G54D11*
X54400Y-38870D03*
G54D12*
X59400Y-38870D03*
X54400Y-39870D03*
X59400Y-39870D03*
X54400Y-40870D03*
X59400Y-40870D03*
X54400Y-41870D03*
X59400Y-41870D03*
X54400Y-42870D03*
X59400Y-42870D03*
X54400Y-43870D03*
X59400Y-43870D03*
X54400Y-44870D03*
X59400Y-44870D03*
X54400Y-45870D03*
X59400Y-45870D03*
G54D11*
X45600Y-29870D03*
G54D12*
X50600Y-29870D03*
X45600Y-30870D03*
X50600Y-30870D03*
X45600Y-31870D03*
X50600Y-31870D03*
X45600Y-32870D03*
X50600Y-32870D03*
X45600Y-33870D03*
X50600Y-33870D03*
X45600Y-34870D03*
X50600Y-34870D03*
X45600Y-35870D03*
X50600Y-35870D03*
X45600Y-36870D03*
X50600Y-36870D03*
G54D11*
X45600Y-38870D03*
G54D12*
X50600Y-38870D03*
X45600Y-39870D03*
X50600Y-39870D03*
X45600Y-40870D03*
X50600Y-40870D03*
X45600Y-41870D03*
X50600Y-41870D03*
X45600Y-42870D03*
X50600Y-42870D03*
X45600Y-43870D03*
X50600Y-43870D03*
X45600Y-44870D03*
X50600Y-44870D03*
X45600Y-45870D03*
X50600Y-45870D03*
G54D11*
X64000Y-36550D03*
G54D12*
X65000Y-36390D03*
X66000Y-36550D03*
X67000Y-36390D03*
X68000Y-36550D03*
X69000Y-36390D03*
G54D16*
X44500Y-33970D03*
G54D17*
X44500Y-31970D03*
G54D19*
X60600Y-37040D03*
G54D20*
X42700Y-41660D03*
X42700Y-42150D03*
X42700Y-42570D03*
G54D19*
X76055Y-39945D03*
X45200Y-37270D03*
X53450Y-38600D03*
X46540Y-39530D03*
X74600Y-39545D03*
X75400Y-39545D03*
X76200Y-40995D03*
X69110Y-34750D03*
X69030Y-33580D03*
X68220Y-33600D03*
X53430Y-39050D03*
X53780Y-39050D03*
G54D21*
X62971Y-33771D02*
X64000Y-32742D01*
X69552Y-33632D02*
X74362Y-33632D01*
X43010Y-42080D02*
X42700Y-41770D01*
G54D22*
X42700Y-41660D02*
X42700Y-41770D01*
G54D21*
X62170Y-35520D02*
X62170Y-34572D01*
X60600Y-37040D02*
X59430Y-35870D01*
X60360Y-37330D02*
X62170Y-35520D01*
X44860Y-35900D02*
X44860Y-41920D01*
X47100Y-36650D02*
X45820Y-35370D01*
X60320Y-37370D02*
X60360Y-37330D01*
X44450Y-42150D02*
X44600Y-42150D01*
G54D22*
X42700Y-42150D02*
X43010Y-42150D01*
G54D21*
X43010Y-42150D02*
X43010Y-42080D01*
X63144Y-33598D02*
X67792Y-33598D01*
X67792Y-33598D02*
X68120Y-33270D01*
X62170Y-34572D02*
X62971Y-33771D01*
X43010Y-42150D02*
X43010Y-42260D01*
X43010Y-42260D02*
X42700Y-42570D01*
X64000Y-32742D02*
X64000Y-32270D01*
G54D22*
X42700Y-42570D02*
X42700Y-42150D01*
G54D21*
X60600Y-37090D02*
X60600Y-37040D01*
X44860Y-42410D02*
X44860Y-45900D01*
X44860Y-45900D02*
X45330Y-46370D01*
X45330Y-46370D02*
X46400Y-46370D01*
G54D22*
X42700Y-41770D02*
X42700Y-42150D01*
G54D21*
X69190Y-33270D02*
X69552Y-33632D01*
X45390Y-35370D02*
X44860Y-35900D01*
X44630Y-42150D02*
X44860Y-41920D01*
X44860Y-41920D02*
X44860Y-42410D01*
X59430Y-35870D02*
X59400Y-35870D01*
X45820Y-35370D02*
X45390Y-35370D01*
X62971Y-33771D02*
X63144Y-33598D01*
X47100Y-45670D02*
X46400Y-46370D01*
X44450Y-42150D02*
X44630Y-42150D01*
X59208Y-37370D02*
X60320Y-37370D01*
X44530Y-42150D02*
X44450Y-42150D01*
X44600Y-42150D02*
X44860Y-42410D01*
X47100Y-36670D02*
X47100Y-36650D01*
G54D22*
X43010Y-42150D02*
X44530Y-42150D01*
G54D21*
X68120Y-33270D02*
X69190Y-33270D01*
X58508Y-36670D02*
X59208Y-37370D01*
X74362Y-33632D02*
X76000Y-35270D01*
X57900Y-36670D02*
X58508Y-36670D01*
X60360Y-37330D02*
X60600Y-37090D01*
G54D22*
X44530Y-42150D02*
X44700Y-42150D01*
G54D23*
X61700Y-47220D02*
X63085Y-45835D01*
X41170Y-44920D02*
X41920Y-45670D01*
X39650Y-40120D02*
X39650Y-44600D01*
X41920Y-45670D02*
X41920Y-46860D01*
X41700Y-38938D02*
X40832Y-38938D01*
X41920Y-46860D02*
X42280Y-47220D01*
X63085Y-45835D02*
X63085Y-39285D01*
X63085Y-39285D02*
X64000Y-38370D01*
X75650Y-38920D02*
X64550Y-38920D01*
X64000Y-38370D02*
X64550Y-38920D01*
X76055Y-39325D02*
X75650Y-38920D01*
X39970Y-44920D02*
X41170Y-44920D01*
X39650Y-40120D02*
X40832Y-38938D01*
X76055Y-39945D02*
X76055Y-39325D01*
X42280Y-47220D02*
X61700Y-47220D01*
X39650Y-44600D02*
X39970Y-44920D01*
X45200Y-38470D02*
X45600Y-38870D01*
X46464Y-38522D02*
X46848Y-38138D01*
X46848Y-38138D02*
X52988Y-38138D01*
X53580Y-29050D02*
X54400Y-29870D01*
X46464Y-39454D02*
X46464Y-38522D01*
X52988Y-38138D02*
X53450Y-38600D01*
X46420Y-29050D02*
X53580Y-29050D01*
X45600Y-29870D02*
X46420Y-29050D01*
X45200Y-37270D02*
X45200Y-38470D01*
X46540Y-39530D02*
X46464Y-39454D01*
X74600Y-39545D02*
X74250Y-39545D01*
X71200Y-44870D02*
X71200Y-42595D01*
X74250Y-39545D02*
X71200Y-42595D01*
X75400Y-39545D02*
X72200Y-42745D01*
X72200Y-42745D02*
X72200Y-44870D01*
X73200Y-42822D02*
X73200Y-44870D01*
X76200Y-40995D02*
X75027Y-40995D01*
X75027Y-40995D02*
X73200Y-42822D01*
X69430Y-35070D02*
X69110Y-34750D01*
X64000Y-36550D02*
X64000Y-35270D01*
X64440Y-35710D02*
X69210Y-35710D01*
X69430Y-35490D02*
X69430Y-35070D01*
X69210Y-35710D02*
X69430Y-35490D01*
X64000Y-35270D02*
X64440Y-35710D01*
X67440Y-34436D02*
X67434Y-34436D01*
X58558Y-37936D02*
X58830Y-38208D01*
X46764Y-37936D02*
X58558Y-37936D01*
X46262Y-45208D02*
X46262Y-38438D01*
X68718Y-34066D02*
X72796Y-34066D01*
X67440Y-34436D02*
X63492Y-34436D01*
X67440Y-34436D02*
X68348Y-34436D01*
X68348Y-34436D02*
X68718Y-34066D01*
X63016Y-35922D02*
X63016Y-34912D01*
X63016Y-34912D02*
X63492Y-34436D01*
X46262Y-45208D02*
X45600Y-45870D01*
X58830Y-38208D02*
X60730Y-38208D01*
X46262Y-38438D02*
X46764Y-37936D01*
X74000Y-35270D02*
X72796Y-34066D01*
X60730Y-38208D02*
X63016Y-35922D01*
X58642Y-37734D02*
X58914Y-38006D01*
X45600Y-44870D02*
X46060Y-44410D01*
X46060Y-38344D02*
X46670Y-37734D01*
X46060Y-44410D02*
X46060Y-38344D01*
X62814Y-34828D02*
X63408Y-34234D01*
X58914Y-38006D02*
X60646Y-38006D01*
X73594Y-33864D02*
X75000Y-35270D01*
X62814Y-35838D02*
X62814Y-34828D01*
X68634Y-33864D02*
X73594Y-33864D01*
X60646Y-38006D02*
X62814Y-35838D01*
X46670Y-37734D02*
X58642Y-37734D01*
X63408Y-34234D02*
X68264Y-34234D01*
X68264Y-34234D02*
X68634Y-33864D01*
X46262Y-37532D02*
X58736Y-37532D01*
X60562Y-37804D02*
X62612Y-35754D01*
X58736Y-37532D02*
X59008Y-37804D01*
X59008Y-37804D02*
X60562Y-37804D01*
X68180Y-34032D02*
X68632Y-33580D01*
X66770Y-34032D02*
X66748Y-34032D01*
X66770Y-34032D02*
X68180Y-34032D01*
X45600Y-36870D02*
X46262Y-37532D01*
X62612Y-34744D02*
X63324Y-34032D01*
X68632Y-33580D02*
X69030Y-33580D01*
X63324Y-34032D02*
X66770Y-34032D01*
X62612Y-35754D02*
X62612Y-34744D01*
X63240Y-33830D02*
X67990Y-33830D01*
X58840Y-37330D02*
X59112Y-37602D01*
X67990Y-33830D02*
X68220Y-33600D01*
X62410Y-34660D02*
X63240Y-33830D01*
X46346Y-37330D02*
X58840Y-37330D01*
X62410Y-35670D02*
X62410Y-34660D01*
X46060Y-36330D02*
X46060Y-37044D01*
X45600Y-35870D02*
X46060Y-36330D01*
X60478Y-37602D02*
X62410Y-35670D01*
X46060Y-37044D02*
X46346Y-37330D01*
X59112Y-37602D02*
X60478Y-37602D01*
X67460Y-34638D02*
X68432Y-34638D01*
X63218Y-36026D02*
X63218Y-34996D01*
X53565Y-38875D02*
X53430Y-39010D01*
X53738Y-38702D02*
X53565Y-38875D01*
X54016Y-38138D02*
X58474Y-38138D01*
X67460Y-34638D02*
X63576Y-34638D01*
X53738Y-38416D02*
X53738Y-38702D01*
X53738Y-38416D02*
X54016Y-38138D01*
X53430Y-39010D02*
X53430Y-39050D01*
X67460Y-34638D02*
X67480Y-34638D01*
X53565Y-38875D02*
X53560Y-38880D01*
X60834Y-38410D02*
X63218Y-36026D01*
X71998Y-34268D02*
X73000Y-35270D01*
X58474Y-38138D02*
X58746Y-38410D01*
X63218Y-34996D02*
X63576Y-34638D01*
X68432Y-34638D02*
X68802Y-34268D01*
X58746Y-38410D02*
X60834Y-38410D01*
X68802Y-34268D02*
X71998Y-34268D01*
X58950Y-39100D02*
X59180Y-39330D01*
X63660Y-34840D02*
X67480Y-34840D01*
X63420Y-36150D02*
X63420Y-35080D01*
X68884Y-34470D02*
X71200Y-34470D01*
X53940Y-38890D02*
X53780Y-39050D01*
X60240Y-39330D02*
X63420Y-36150D01*
X68514Y-34840D02*
X68884Y-34470D01*
X58210Y-38340D02*
X58390Y-38340D01*
X59180Y-39330D02*
X60240Y-39330D01*
X53940Y-38500D02*
X53940Y-38890D01*
X58210Y-38340D02*
X54100Y-38340D01*
X67480Y-34840D02*
X67500Y-34840D01*
X71200Y-34470D02*
X72000Y-35270D01*
X58950Y-38900D02*
X58950Y-39100D01*
X63420Y-35080D02*
X63660Y-34840D01*
X58390Y-38340D02*
X58950Y-38900D01*
X53940Y-38500D02*
X54100Y-38340D01*
X58210Y-38340D02*
X58190Y-38340D01*
X67480Y-34840D02*
X68514Y-34840D01*
G54D24*
X41700Y-34538D02*
X43932Y-34538D01*
X43932Y-34538D02*
X44500Y-33970D01*
G54D10*
G36*
X78440Y-44564D02*
X78413Y-44700D01*
X78340Y-44810D01*
X78230Y-44883D01*
X78094Y-44910D01*
X77454Y-44910D01*
X77454Y-35361D01*
X77454Y-35180D01*
X77454Y-32361D01*
X77454Y-32180D01*
X77385Y-32013D01*
X77257Y-31885D01*
X77091Y-31816D01*
X76910Y-31816D01*
X76743Y-31885D01*
X76615Y-32013D01*
X76546Y-32179D01*
X76546Y-32360D01*
X76615Y-32527D01*
X76743Y-32655D01*
X76909Y-32724D01*
X77090Y-32724D01*
X77257Y-32655D01*
X77385Y-32527D01*
X77454Y-32361D01*
X77454Y-35180D01*
X77385Y-35013D01*
X77257Y-34885D01*
X77091Y-34816D01*
X76910Y-34816D01*
X76743Y-34885D01*
X76615Y-35013D01*
X76546Y-35179D01*
X76546Y-35360D01*
X76615Y-35527D01*
X76743Y-35655D01*
X76909Y-35724D01*
X77090Y-35724D01*
X77257Y-35655D01*
X77385Y-35527D01*
X77454Y-35361D01*
X77454Y-44910D01*
X76594Y-44910D01*
X76499Y-44928D01*
X76499Y-41055D01*
X76499Y-40936D01*
X76454Y-40826D01*
X76454Y-35361D01*
X76454Y-35180D01*
X76454Y-32361D01*
X76454Y-32180D01*
X76385Y-32013D01*
X76257Y-31885D01*
X76091Y-31816D01*
X76059Y-31816D01*
X76059Y-29770D01*
X76024Y-29594D01*
X75939Y-29563D01*
X75727Y-29775D01*
X75727Y-29351D01*
X75696Y-29266D01*
X75480Y-29231D01*
X75304Y-29266D01*
X75273Y-29351D01*
X75500Y-29578D01*
X75727Y-29351D01*
X75727Y-29775D01*
X75712Y-29790D01*
X75939Y-30017D01*
X76024Y-29986D01*
X76059Y-29770D01*
X76059Y-31816D01*
X75910Y-31816D01*
X75743Y-31885D01*
X75727Y-31901D01*
X75727Y-30229D01*
X75500Y-30002D01*
X75288Y-30214D01*
X75288Y-29790D01*
X75061Y-29563D01*
X74976Y-29594D01*
X74946Y-29774D01*
X74907Y-29679D01*
X74772Y-29543D01*
X74596Y-29470D01*
X74405Y-29470D01*
X74229Y-29543D01*
X74093Y-29678D01*
X74020Y-29854D01*
X74020Y-30045D01*
X74093Y-30221D01*
X74228Y-30357D01*
X74404Y-30430D01*
X74595Y-30430D01*
X74771Y-30357D01*
X74907Y-30222D01*
X74980Y-30046D01*
X74980Y-29987D01*
X75061Y-30017D01*
X75288Y-29790D01*
X75288Y-30214D01*
X75273Y-30229D01*
X75304Y-30314D01*
X75520Y-30349D01*
X75696Y-30314D01*
X75727Y-30229D01*
X75727Y-31901D01*
X75615Y-32013D01*
X75546Y-32179D01*
X75546Y-32360D01*
X75615Y-32527D01*
X75743Y-32655D01*
X75909Y-32724D01*
X76090Y-32724D01*
X76257Y-32655D01*
X76385Y-32527D01*
X76454Y-32361D01*
X76454Y-35180D01*
X76385Y-35013D01*
X76257Y-34885D01*
X76091Y-34816D01*
X75914Y-34816D01*
X75454Y-34356D01*
X75454Y-32361D01*
X75454Y-32180D01*
X75385Y-32013D01*
X75257Y-31885D01*
X75091Y-31816D01*
X74910Y-31816D01*
X74743Y-31885D01*
X74615Y-32013D01*
X74546Y-32179D01*
X74546Y-32360D01*
X74615Y-32527D01*
X74743Y-32655D01*
X74909Y-32724D01*
X75090Y-32724D01*
X75257Y-32655D01*
X75385Y-32527D01*
X75454Y-32361D01*
X75454Y-34356D01*
X74546Y-33448D01*
X74462Y-33392D01*
X74454Y-33390D01*
X74454Y-32361D01*
X74454Y-32180D01*
X74385Y-32013D01*
X74257Y-31885D01*
X74091Y-31816D01*
X73980Y-31816D01*
X73980Y-29886D01*
X73980Y-29695D01*
X73907Y-29519D01*
X73772Y-29383D01*
X73596Y-29310D01*
X73405Y-29310D01*
X73229Y-29383D01*
X73093Y-29518D01*
X73020Y-29694D01*
X73020Y-29885D01*
X73093Y-30061D01*
X73228Y-30197D01*
X73404Y-30270D01*
X73595Y-30270D01*
X73771Y-30197D01*
X73907Y-30062D01*
X73980Y-29886D01*
X73980Y-31816D01*
X73910Y-31816D01*
X73743Y-31885D01*
X73615Y-32013D01*
X73546Y-32179D01*
X73546Y-32360D01*
X73615Y-32527D01*
X73743Y-32655D01*
X73909Y-32724D01*
X74090Y-32724D01*
X74257Y-32655D01*
X74385Y-32527D01*
X74454Y-32361D01*
X74454Y-33390D01*
X74362Y-33372D01*
X73535Y-33372D01*
X73535Y-32257D01*
X73499Y-32077D01*
X73414Y-32049D01*
X73221Y-32242D01*
X73221Y-31856D01*
X73193Y-31771D01*
X72987Y-31735D01*
X72980Y-31736D01*
X72980Y-30046D01*
X72980Y-29855D01*
X72907Y-29679D01*
X72772Y-29543D01*
X72596Y-29470D01*
X72405Y-29470D01*
X72229Y-29543D01*
X72093Y-29678D01*
X72020Y-29854D01*
X72020Y-30045D01*
X72093Y-30221D01*
X72228Y-30357D01*
X72404Y-30430D01*
X72595Y-30430D01*
X72771Y-30357D01*
X72907Y-30222D01*
X72980Y-30046D01*
X72980Y-31736D01*
X72807Y-31771D01*
X72779Y-31856D01*
X73000Y-32076D01*
X73221Y-31856D01*
X73221Y-32242D01*
X73194Y-32270D01*
X73414Y-32491D01*
X73499Y-32463D01*
X73535Y-32257D01*
X73535Y-33372D01*
X73221Y-33372D01*
X73221Y-32684D01*
X73000Y-32464D01*
X72806Y-32657D01*
X72806Y-32270D01*
X72586Y-32049D01*
X72501Y-32077D01*
X72465Y-32283D01*
X72501Y-32463D01*
X72586Y-32491D01*
X72806Y-32270D01*
X72806Y-32657D01*
X72779Y-32684D01*
X72807Y-32769D01*
X73013Y-32805D01*
X73193Y-32769D01*
X73221Y-32684D01*
X73221Y-33372D01*
X72454Y-33372D01*
X72454Y-32361D01*
X72454Y-32180D01*
X72385Y-32013D01*
X72257Y-31885D01*
X72091Y-31816D01*
X71980Y-31816D01*
X71980Y-29886D01*
X71980Y-29695D01*
X71907Y-29519D01*
X71772Y-29383D01*
X71596Y-29310D01*
X71405Y-29310D01*
X71229Y-29383D01*
X71093Y-29518D01*
X71020Y-29694D01*
X71020Y-29885D01*
X71093Y-30061D01*
X71228Y-30197D01*
X71404Y-30270D01*
X71595Y-30270D01*
X71771Y-30197D01*
X71907Y-30062D01*
X71980Y-29886D01*
X71980Y-31816D01*
X71910Y-31816D01*
X71743Y-31885D01*
X71615Y-32013D01*
X71546Y-32179D01*
X71546Y-32360D01*
X71615Y-32527D01*
X71743Y-32655D01*
X71909Y-32724D01*
X72090Y-32724D01*
X72257Y-32655D01*
X72385Y-32527D01*
X72454Y-32361D01*
X72454Y-33372D01*
X71454Y-33372D01*
X71454Y-32361D01*
X71454Y-32180D01*
X71385Y-32013D01*
X71257Y-31885D01*
X71091Y-31816D01*
X70980Y-31816D01*
X70980Y-30286D01*
X70980Y-30214D01*
X70980Y-29614D01*
X70953Y-29548D01*
X70902Y-29497D01*
X70836Y-29470D01*
X70764Y-29470D01*
X70164Y-29470D01*
X70098Y-29497D01*
X70047Y-29548D01*
X70020Y-29614D01*
X70020Y-29686D01*
X70020Y-30286D01*
X70047Y-30352D01*
X70098Y-30403D01*
X70164Y-30430D01*
X70236Y-30430D01*
X70836Y-30430D01*
X70902Y-30403D01*
X70953Y-30352D01*
X70980Y-30286D01*
X70980Y-31816D01*
X70910Y-31816D01*
X70743Y-31885D01*
X70615Y-32013D01*
X70546Y-32179D01*
X70546Y-32360D01*
X70615Y-32527D01*
X70743Y-32655D01*
X70909Y-32724D01*
X71090Y-32724D01*
X71257Y-32655D01*
X71385Y-32527D01*
X71454Y-32361D01*
X71454Y-33372D01*
X70454Y-33372D01*
X70454Y-32361D01*
X70454Y-32180D01*
X70385Y-32013D01*
X70257Y-31885D01*
X70091Y-31816D01*
X69910Y-31816D01*
X69743Y-31885D01*
X69615Y-32013D01*
X69559Y-32147D01*
X69559Y-29850D01*
X69524Y-29674D01*
X69439Y-29643D01*
X69227Y-29855D01*
X69227Y-29431D01*
X69196Y-29346D01*
X68980Y-29311D01*
X68804Y-29346D01*
X68773Y-29431D01*
X69000Y-29658D01*
X69227Y-29431D01*
X69227Y-29855D01*
X69212Y-29870D01*
X69439Y-30097D01*
X69524Y-30066D01*
X69559Y-29850D01*
X69559Y-32147D01*
X69546Y-32179D01*
X69546Y-32360D01*
X69615Y-32527D01*
X69743Y-32655D01*
X69909Y-32724D01*
X70090Y-32724D01*
X70257Y-32655D01*
X70385Y-32527D01*
X70454Y-32361D01*
X70454Y-33372D01*
X69660Y-33372D01*
X69480Y-33192D01*
X69480Y-30966D01*
X69480Y-30775D01*
X69407Y-30599D01*
X69272Y-30463D01*
X69134Y-30406D01*
X69196Y-30394D01*
X69227Y-30309D01*
X69000Y-30082D01*
X68788Y-30294D01*
X68788Y-29870D01*
X68561Y-29643D01*
X68500Y-29665D01*
X68439Y-29643D01*
X68227Y-29855D01*
X68227Y-29431D01*
X68196Y-29346D01*
X67980Y-29311D01*
X67804Y-29346D01*
X67773Y-29431D01*
X68000Y-29658D01*
X68227Y-29431D01*
X68227Y-29855D01*
X68212Y-29870D01*
X68439Y-30097D01*
X68500Y-30074D01*
X68561Y-30097D01*
X68788Y-29870D01*
X68788Y-30294D01*
X68773Y-30309D01*
X68804Y-30394D01*
X68869Y-30404D01*
X68729Y-30463D01*
X68593Y-30598D01*
X68520Y-30774D01*
X68520Y-30965D01*
X68593Y-31141D01*
X68728Y-31277D01*
X68904Y-31350D01*
X69095Y-31350D01*
X69271Y-31277D01*
X69407Y-31142D01*
X69480Y-30966D01*
X69480Y-33192D01*
X69454Y-33166D01*
X69454Y-32361D01*
X69454Y-32180D01*
X69385Y-32013D01*
X69257Y-31885D01*
X69091Y-31816D01*
X68910Y-31816D01*
X68743Y-31885D01*
X68615Y-32013D01*
X68546Y-32179D01*
X68546Y-32360D01*
X68615Y-32527D01*
X68743Y-32655D01*
X68909Y-32724D01*
X69090Y-32724D01*
X69257Y-32655D01*
X69385Y-32527D01*
X69454Y-32361D01*
X69454Y-33166D01*
X69374Y-33086D01*
X69290Y-33030D01*
X69190Y-33010D01*
X68480Y-33010D01*
X68480Y-30966D01*
X68480Y-30775D01*
X68407Y-30599D01*
X68272Y-30463D01*
X68134Y-30406D01*
X68196Y-30394D01*
X68227Y-30309D01*
X68000Y-30082D01*
X67788Y-30294D01*
X67788Y-29870D01*
X67561Y-29643D01*
X67500Y-29665D01*
X67439Y-29643D01*
X67227Y-29855D01*
X67227Y-29431D01*
X67196Y-29346D01*
X66980Y-29311D01*
X66804Y-29346D01*
X66773Y-29431D01*
X67000Y-29658D01*
X67227Y-29431D01*
X67227Y-29855D01*
X67212Y-29870D01*
X67439Y-30097D01*
X67500Y-30074D01*
X67561Y-30097D01*
X67788Y-29870D01*
X67788Y-30294D01*
X67773Y-30309D01*
X67804Y-30394D01*
X67869Y-30404D01*
X67729Y-30463D01*
X67593Y-30598D01*
X67520Y-30774D01*
X67520Y-30965D01*
X67593Y-31141D01*
X67728Y-31277D01*
X67904Y-31350D01*
X68095Y-31350D01*
X68271Y-31277D01*
X68407Y-31142D01*
X68480Y-30966D01*
X68480Y-33010D01*
X68454Y-33010D01*
X68454Y-32361D01*
X68454Y-32180D01*
X68385Y-32013D01*
X68257Y-31885D01*
X68091Y-31816D01*
X67910Y-31816D01*
X67743Y-31885D01*
X67615Y-32013D01*
X67546Y-32179D01*
X67546Y-32360D01*
X67615Y-32527D01*
X67743Y-32655D01*
X67909Y-32724D01*
X68090Y-32724D01*
X68257Y-32655D01*
X68385Y-32527D01*
X68454Y-32361D01*
X68454Y-33010D01*
X68120Y-33010D01*
X68119Y-33010D01*
X68099Y-33014D01*
X68021Y-33030D01*
X67936Y-33086D01*
X67934Y-33088D01*
X67684Y-33338D01*
X67480Y-33338D01*
X67480Y-30966D01*
X67480Y-30775D01*
X67407Y-30599D01*
X67272Y-30463D01*
X67134Y-30406D01*
X67196Y-30394D01*
X67227Y-30309D01*
X67000Y-30082D01*
X66788Y-30294D01*
X66788Y-29870D01*
X66561Y-29643D01*
X66500Y-29665D01*
X66439Y-29643D01*
X66227Y-29855D01*
X66227Y-29431D01*
X66196Y-29346D01*
X65980Y-29311D01*
X65804Y-29346D01*
X65773Y-29431D01*
X66000Y-29658D01*
X66227Y-29431D01*
X66227Y-29855D01*
X66212Y-29870D01*
X66439Y-30097D01*
X66500Y-30074D01*
X66561Y-30097D01*
X66788Y-29870D01*
X66788Y-30294D01*
X66773Y-30309D01*
X66804Y-30394D01*
X66869Y-30404D01*
X66729Y-30463D01*
X66593Y-30598D01*
X66520Y-30774D01*
X66520Y-30965D01*
X66593Y-31141D01*
X66728Y-31277D01*
X66904Y-31350D01*
X67095Y-31350D01*
X67271Y-31277D01*
X67407Y-31142D01*
X67480Y-30966D01*
X67480Y-33338D01*
X67454Y-33338D01*
X67454Y-32361D01*
X67454Y-32180D01*
X67385Y-32013D01*
X67257Y-31885D01*
X67091Y-31816D01*
X66910Y-31816D01*
X66743Y-31885D01*
X66615Y-32013D01*
X66546Y-32179D01*
X66546Y-32360D01*
X66615Y-32527D01*
X66743Y-32655D01*
X66909Y-32724D01*
X67090Y-32724D01*
X67257Y-32655D01*
X67385Y-32527D01*
X67454Y-32361D01*
X67454Y-33338D01*
X66480Y-33338D01*
X66480Y-31206D01*
X66480Y-31134D01*
X66480Y-30534D01*
X66453Y-30468D01*
X66402Y-30417D01*
X66336Y-30390D01*
X66264Y-30390D01*
X66197Y-30390D01*
X66227Y-30309D01*
X66000Y-30082D01*
X65788Y-30294D01*
X65788Y-29870D01*
X65561Y-29643D01*
X65476Y-29674D01*
X65441Y-29890D01*
X65476Y-30066D01*
X65561Y-30097D01*
X65788Y-29870D01*
X65788Y-30294D01*
X65773Y-30309D01*
X65802Y-30390D01*
X65664Y-30390D01*
X65598Y-30417D01*
X65547Y-30468D01*
X65520Y-30534D01*
X65520Y-30606D01*
X65520Y-31206D01*
X65547Y-31272D01*
X65598Y-31323D01*
X65664Y-31350D01*
X65736Y-31350D01*
X66336Y-31350D01*
X66402Y-31323D01*
X66453Y-31272D01*
X66480Y-31206D01*
X66480Y-33338D01*
X66454Y-33338D01*
X66454Y-32361D01*
X66454Y-32180D01*
X66385Y-32013D01*
X66257Y-31885D01*
X66091Y-31816D01*
X65910Y-31816D01*
X65743Y-31885D01*
X65615Y-32013D01*
X65546Y-32179D01*
X65546Y-32360D01*
X65615Y-32527D01*
X65743Y-32655D01*
X65909Y-32724D01*
X66090Y-32724D01*
X66257Y-32655D01*
X66385Y-32527D01*
X66454Y-32361D01*
X66454Y-33338D01*
X65535Y-33338D01*
X65535Y-32257D01*
X65499Y-32077D01*
X65414Y-32049D01*
X65221Y-32242D01*
X65221Y-31856D01*
X65193Y-31771D01*
X64987Y-31735D01*
X64807Y-31771D01*
X64779Y-31856D01*
X65000Y-32076D01*
X65221Y-31856D01*
X65221Y-32242D01*
X65194Y-32270D01*
X65414Y-32491D01*
X65499Y-32463D01*
X65535Y-32257D01*
X65535Y-33338D01*
X65221Y-33338D01*
X65221Y-32684D01*
X65000Y-32464D01*
X64806Y-32657D01*
X64806Y-32270D01*
X64586Y-32049D01*
X64501Y-32077D01*
X64465Y-32283D01*
X64501Y-32463D01*
X64586Y-32491D01*
X64806Y-32270D01*
X64806Y-32657D01*
X64779Y-32684D01*
X64807Y-32769D01*
X65013Y-32805D01*
X65193Y-32769D01*
X65221Y-32684D01*
X65221Y-33338D01*
X63772Y-33338D01*
X64184Y-32926D01*
X64240Y-32842D01*
X64240Y-32841D01*
X64260Y-32742D01*
X64260Y-32652D01*
X64385Y-32527D01*
X64454Y-32361D01*
X64454Y-32180D01*
X64385Y-32013D01*
X64257Y-31885D01*
X64091Y-31816D01*
X63910Y-31816D01*
X63743Y-31885D01*
X63615Y-32013D01*
X63546Y-32179D01*
X63546Y-32360D01*
X63615Y-32527D01*
X63731Y-32643D01*
X62960Y-33414D01*
X62958Y-33416D01*
X62787Y-33587D01*
X62785Y-33589D01*
X61986Y-34388D01*
X61956Y-34433D01*
X61949Y-34426D01*
X61813Y-34370D01*
X61949Y-34314D01*
X62096Y-34167D01*
X62176Y-33974D01*
X62176Y-33766D01*
X62096Y-33573D01*
X61949Y-33426D01*
X61813Y-33370D01*
X61949Y-33314D01*
X62096Y-33167D01*
X62176Y-32974D01*
X62176Y-32766D01*
X62096Y-32573D01*
X61949Y-32426D01*
X61813Y-32370D01*
X61949Y-32314D01*
X62096Y-32167D01*
X62176Y-31974D01*
X62176Y-31766D01*
X62096Y-31573D01*
X61949Y-31426D01*
X61756Y-31346D01*
X61548Y-31346D01*
X60844Y-31346D01*
X60651Y-31426D01*
X60504Y-31573D01*
X60424Y-31766D01*
X60424Y-31974D01*
X60504Y-32167D01*
X60651Y-32314D01*
X60786Y-32370D01*
X60651Y-32426D01*
X60504Y-32573D01*
X60424Y-32766D01*
X60424Y-32974D01*
X60504Y-33167D01*
X60651Y-33314D01*
X60786Y-33370D01*
X60651Y-33426D01*
X60504Y-33573D01*
X60424Y-33766D01*
X60424Y-33974D01*
X60504Y-34167D01*
X60651Y-34314D01*
X60786Y-34370D01*
X60651Y-34426D01*
X60504Y-34573D01*
X60424Y-34766D01*
X60424Y-34974D01*
X60504Y-35167D01*
X60651Y-35314D01*
X60844Y-35394D01*
X61052Y-35394D01*
X61756Y-35394D01*
X61910Y-35330D01*
X61910Y-35412D01*
X60624Y-36697D01*
X59959Y-36031D01*
X59959Y-30850D01*
X59924Y-30674D01*
X59880Y-30657D01*
X59880Y-29966D01*
X59880Y-29775D01*
X59807Y-29599D01*
X59672Y-29463D01*
X59496Y-29390D01*
X59305Y-29390D01*
X59129Y-29463D01*
X58993Y-29598D01*
X58920Y-29774D01*
X58920Y-29965D01*
X58993Y-30141D01*
X59128Y-30277D01*
X59265Y-30333D01*
X59204Y-30346D01*
X59173Y-30431D01*
X59400Y-30658D01*
X59627Y-30431D01*
X59596Y-30346D01*
X59530Y-30335D01*
X59671Y-30277D01*
X59807Y-30142D01*
X59880Y-29966D01*
X59880Y-30657D01*
X59839Y-30643D01*
X59612Y-30870D01*
X59839Y-31097D01*
X59924Y-31066D01*
X59959Y-30850D01*
X59959Y-36031D01*
X59880Y-35952D01*
X59880Y-35775D01*
X59880Y-34966D01*
X59880Y-34775D01*
X59880Y-33966D01*
X59880Y-33775D01*
X59880Y-32966D01*
X59880Y-32775D01*
X59880Y-31966D01*
X59880Y-31775D01*
X59807Y-31599D01*
X59672Y-31463D01*
X59534Y-31406D01*
X59596Y-31394D01*
X59627Y-31309D01*
X59400Y-31082D01*
X59188Y-31294D01*
X59188Y-30870D01*
X58961Y-30643D01*
X58876Y-30674D01*
X58841Y-30890D01*
X58876Y-31066D01*
X58961Y-31097D01*
X59188Y-30870D01*
X59188Y-31294D01*
X59173Y-31309D01*
X59204Y-31394D01*
X59269Y-31404D01*
X59129Y-31463D01*
X58993Y-31598D01*
X58920Y-31774D01*
X58920Y-31965D01*
X58993Y-32141D01*
X59128Y-32277D01*
X59304Y-32350D01*
X59495Y-32350D01*
X59671Y-32277D01*
X59807Y-32142D01*
X59880Y-31966D01*
X59880Y-32775D01*
X59807Y-32599D01*
X59672Y-32463D01*
X59496Y-32390D01*
X59305Y-32390D01*
X59129Y-32463D01*
X58993Y-32598D01*
X58920Y-32774D01*
X58920Y-32965D01*
X58993Y-33141D01*
X59128Y-33277D01*
X59304Y-33350D01*
X59495Y-33350D01*
X59671Y-33277D01*
X59807Y-33142D01*
X59880Y-32966D01*
X59880Y-33775D01*
X59807Y-33599D01*
X59672Y-33463D01*
X59496Y-33390D01*
X59305Y-33390D01*
X59129Y-33463D01*
X58993Y-33598D01*
X58920Y-33774D01*
X58920Y-33965D01*
X58993Y-34141D01*
X59128Y-34277D01*
X59304Y-34350D01*
X59495Y-34350D01*
X59671Y-34277D01*
X59807Y-34142D01*
X59880Y-33966D01*
X59880Y-34775D01*
X59807Y-34599D01*
X59672Y-34463D01*
X59496Y-34390D01*
X59305Y-34390D01*
X59129Y-34463D01*
X58993Y-34598D01*
X58920Y-34774D01*
X58920Y-34965D01*
X58993Y-35141D01*
X59128Y-35277D01*
X59304Y-35350D01*
X59495Y-35350D01*
X59671Y-35277D01*
X59807Y-35142D01*
X59880Y-34966D01*
X59880Y-35775D01*
X59807Y-35599D01*
X59672Y-35463D01*
X59496Y-35390D01*
X59305Y-35390D01*
X59129Y-35463D01*
X58993Y-35598D01*
X58920Y-35774D01*
X58920Y-35965D01*
X58993Y-36141D01*
X59128Y-36277D01*
X59265Y-36333D01*
X59204Y-36346D01*
X59173Y-36431D01*
X59400Y-36658D01*
X59463Y-36593D01*
X59675Y-36805D01*
X59612Y-36870D01*
X59676Y-36934D01*
X59500Y-37110D01*
X59428Y-37110D01*
X59400Y-37082D01*
X59372Y-37110D01*
X59316Y-37110D01*
X59132Y-36926D01*
X59188Y-36870D01*
X58961Y-36643D01*
X58878Y-36672D01*
X58692Y-36486D01*
X58608Y-36430D01*
X58508Y-36410D01*
X58508Y-30036D01*
X58475Y-29868D01*
X58389Y-29829D01*
X58147Y-30070D01*
X58389Y-30311D01*
X58475Y-30272D01*
X58508Y-30036D01*
X58508Y-36410D01*
X58380Y-36410D01*
X58380Y-36006D01*
X58380Y-35934D01*
X58380Y-35334D01*
X58353Y-35268D01*
X58302Y-35217D01*
X58236Y-35190D01*
X58164Y-35190D01*
X58141Y-35190D01*
X58141Y-30559D01*
X58141Y-29581D01*
X58102Y-29495D01*
X57866Y-29462D01*
X57698Y-29495D01*
X57659Y-29581D01*
X57900Y-29823D01*
X58141Y-29581D01*
X58141Y-30559D01*
X57900Y-30317D01*
X57659Y-30559D01*
X57698Y-30645D01*
X57934Y-30678D01*
X58102Y-30645D01*
X58141Y-30559D01*
X58141Y-35190D01*
X57653Y-35190D01*
X57653Y-30070D01*
X57411Y-29829D01*
X57325Y-29868D01*
X57292Y-30104D01*
X57325Y-30272D01*
X57411Y-30311D01*
X57653Y-30070D01*
X57653Y-35190D01*
X57564Y-35190D01*
X57498Y-35217D01*
X57447Y-35268D01*
X57420Y-35334D01*
X57420Y-35406D01*
X57420Y-36006D01*
X57447Y-36072D01*
X57498Y-36123D01*
X57564Y-36150D01*
X57636Y-36150D01*
X58236Y-36150D01*
X58302Y-36123D01*
X58353Y-36072D01*
X58380Y-36006D01*
X58380Y-36410D01*
X58311Y-36410D01*
X58307Y-36399D01*
X58172Y-36263D01*
X57996Y-36190D01*
X57805Y-36190D01*
X57629Y-36263D01*
X57493Y-36398D01*
X57420Y-36574D01*
X57420Y-36765D01*
X57493Y-36941D01*
X57628Y-37077D01*
X57683Y-37100D01*
X57115Y-37100D01*
X57171Y-37077D01*
X57307Y-36942D01*
X57380Y-36766D01*
X57380Y-36575D01*
X57380Y-35766D01*
X57380Y-35575D01*
X57307Y-35399D01*
X57172Y-35263D01*
X56996Y-35190D01*
X56805Y-35190D01*
X56629Y-35263D01*
X56493Y-35398D01*
X56430Y-35549D01*
X56430Y-30456D01*
X56430Y-30384D01*
X56430Y-29684D01*
X56403Y-29618D01*
X56352Y-29567D01*
X56286Y-29540D01*
X56214Y-29540D01*
X55514Y-29540D01*
X55448Y-29567D01*
X55397Y-29618D01*
X55370Y-29684D01*
X55370Y-29756D01*
X55370Y-30456D01*
X55397Y-30522D01*
X55448Y-30573D01*
X55514Y-30600D01*
X55586Y-30600D01*
X56286Y-30600D01*
X56352Y-30573D01*
X56403Y-30522D01*
X56430Y-30456D01*
X56430Y-35549D01*
X56420Y-35574D01*
X56420Y-35765D01*
X56493Y-35941D01*
X56628Y-36077D01*
X56804Y-36150D01*
X56995Y-36150D01*
X57171Y-36077D01*
X57307Y-35942D01*
X57380Y-35766D01*
X57380Y-36575D01*
X57307Y-36399D01*
X57172Y-36263D01*
X56996Y-36190D01*
X56805Y-36190D01*
X56629Y-36263D01*
X56493Y-36398D01*
X56420Y-36574D01*
X56420Y-36765D01*
X56493Y-36941D01*
X56628Y-37077D01*
X56683Y-37100D01*
X56115Y-37100D01*
X56171Y-37077D01*
X56307Y-36942D01*
X56380Y-36766D01*
X56380Y-36575D01*
X56380Y-35766D01*
X56380Y-35575D01*
X56307Y-35399D01*
X56172Y-35263D01*
X55996Y-35190D01*
X55805Y-35190D01*
X55629Y-35263D01*
X55493Y-35398D01*
X55420Y-35574D01*
X55420Y-35765D01*
X55493Y-35941D01*
X55628Y-36077D01*
X55804Y-36150D01*
X55995Y-36150D01*
X56171Y-36077D01*
X56307Y-35942D01*
X56380Y-35766D01*
X56380Y-36575D01*
X56307Y-36399D01*
X56172Y-36263D01*
X55996Y-36190D01*
X55805Y-36190D01*
X55629Y-36263D01*
X55493Y-36398D01*
X55420Y-36574D01*
X55420Y-36765D01*
X55493Y-36941D01*
X55628Y-37077D01*
X55683Y-37100D01*
X54824Y-37100D01*
X54880Y-36966D01*
X54880Y-36775D01*
X54880Y-35966D01*
X54880Y-35775D01*
X54880Y-34966D01*
X54880Y-34775D01*
X54880Y-33966D01*
X54880Y-33775D01*
X54880Y-32966D01*
X54880Y-32775D01*
X54880Y-31966D01*
X54880Y-31775D01*
X54880Y-30966D01*
X54880Y-30775D01*
X54880Y-30206D01*
X54880Y-30134D01*
X54880Y-29534D01*
X54853Y-29468D01*
X54802Y-29417D01*
X54736Y-29390D01*
X54664Y-29390D01*
X54245Y-29390D01*
X53743Y-28887D01*
X53668Y-28838D01*
X53580Y-28819D01*
X53575Y-28820D01*
X46420Y-28820D01*
X46332Y-28838D01*
X46257Y-28887D01*
X46255Y-28889D01*
X45754Y-29390D01*
X45264Y-29390D01*
X45198Y-29417D01*
X45147Y-29468D01*
X45120Y-29534D01*
X45120Y-29606D01*
X45120Y-30206D01*
X45147Y-30272D01*
X45198Y-30323D01*
X45264Y-30350D01*
X45336Y-30350D01*
X45936Y-30350D01*
X46002Y-30323D01*
X46053Y-30272D01*
X46080Y-30206D01*
X46080Y-30134D01*
X46080Y-29715D01*
X46515Y-29280D01*
X53484Y-29280D01*
X53920Y-29715D01*
X53920Y-30206D01*
X53947Y-30272D01*
X53998Y-30323D01*
X54064Y-30350D01*
X54136Y-30350D01*
X54736Y-30350D01*
X54802Y-30323D01*
X54853Y-30272D01*
X54880Y-30206D01*
X54880Y-30775D01*
X54807Y-30599D01*
X54672Y-30463D01*
X54496Y-30390D01*
X54305Y-30390D01*
X54129Y-30463D01*
X53993Y-30598D01*
X53920Y-30774D01*
X53920Y-30965D01*
X53993Y-31141D01*
X54128Y-31277D01*
X54304Y-31350D01*
X54495Y-31350D01*
X54671Y-31277D01*
X54807Y-31142D01*
X54880Y-30966D01*
X54880Y-31775D01*
X54807Y-31599D01*
X54672Y-31463D01*
X54496Y-31390D01*
X54305Y-31390D01*
X54129Y-31463D01*
X53993Y-31598D01*
X53920Y-31774D01*
X53920Y-31965D01*
X53993Y-32141D01*
X54128Y-32277D01*
X54304Y-32350D01*
X54495Y-32350D01*
X54671Y-32277D01*
X54807Y-32142D01*
X54880Y-31966D01*
X54880Y-32775D01*
X54807Y-32599D01*
X54672Y-32463D01*
X54496Y-32390D01*
X54305Y-32390D01*
X54129Y-32463D01*
X53993Y-32598D01*
X53920Y-32774D01*
X53920Y-32965D01*
X53993Y-33141D01*
X54128Y-33277D01*
X54304Y-33350D01*
X54495Y-33350D01*
X54671Y-33277D01*
X54807Y-33142D01*
X54880Y-32966D01*
X54880Y-33775D01*
X54807Y-33599D01*
X54672Y-33463D01*
X54496Y-33390D01*
X54305Y-33390D01*
X54129Y-33463D01*
X53993Y-33598D01*
X53920Y-33774D01*
X53920Y-33965D01*
X53993Y-34141D01*
X54128Y-34277D01*
X54304Y-34350D01*
X54495Y-34350D01*
X54671Y-34277D01*
X54807Y-34142D01*
X54880Y-33966D01*
X54880Y-34775D01*
X54807Y-34599D01*
X54672Y-34463D01*
X54496Y-34390D01*
X54305Y-34390D01*
X54129Y-34463D01*
X53993Y-34598D01*
X53920Y-34774D01*
X53920Y-34965D01*
X53993Y-35141D01*
X54128Y-35277D01*
X54304Y-35350D01*
X54495Y-35350D01*
X54671Y-35277D01*
X54807Y-35142D01*
X54880Y-34966D01*
X54880Y-35775D01*
X54807Y-35599D01*
X54672Y-35463D01*
X54496Y-35390D01*
X54305Y-35390D01*
X54129Y-35463D01*
X53993Y-35598D01*
X53920Y-35774D01*
X53920Y-35965D01*
X53993Y-36141D01*
X54128Y-36277D01*
X54304Y-36350D01*
X54495Y-36350D01*
X54671Y-36277D01*
X54807Y-36142D01*
X54880Y-35966D01*
X54880Y-36775D01*
X54807Y-36599D01*
X54672Y-36463D01*
X54496Y-36390D01*
X54305Y-36390D01*
X54129Y-36463D01*
X53993Y-36598D01*
X53920Y-36774D01*
X53920Y-36965D01*
X53975Y-37100D01*
X53376Y-37100D01*
X53376Y-34974D01*
X53376Y-34766D01*
X53296Y-34573D01*
X53149Y-34426D01*
X53013Y-34370D01*
X53149Y-34314D01*
X53296Y-34167D01*
X53376Y-33974D01*
X53376Y-33766D01*
X53296Y-33573D01*
X53149Y-33426D01*
X53013Y-33370D01*
X53149Y-33314D01*
X53296Y-33167D01*
X53376Y-32974D01*
X53376Y-32766D01*
X53296Y-32573D01*
X53149Y-32426D01*
X53013Y-32370D01*
X53149Y-32314D01*
X53296Y-32167D01*
X53376Y-31974D01*
X53376Y-31766D01*
X53296Y-31573D01*
X53149Y-31426D01*
X52956Y-31346D01*
X52748Y-31346D01*
X52044Y-31346D01*
X51851Y-31426D01*
X51704Y-31573D01*
X51624Y-31766D01*
X51624Y-31974D01*
X51704Y-32167D01*
X51851Y-32314D01*
X51986Y-32370D01*
X51851Y-32426D01*
X51704Y-32573D01*
X51624Y-32766D01*
X51624Y-32974D01*
X51704Y-33167D01*
X51851Y-33314D01*
X51986Y-33370D01*
X51851Y-33426D01*
X51704Y-33573D01*
X51624Y-33766D01*
X51624Y-33974D01*
X51704Y-34167D01*
X51851Y-34314D01*
X51986Y-34370D01*
X51851Y-34426D01*
X51704Y-34573D01*
X51624Y-34766D01*
X51624Y-34974D01*
X51704Y-35167D01*
X51851Y-35314D01*
X52044Y-35394D01*
X52252Y-35394D01*
X52956Y-35394D01*
X53149Y-35314D01*
X53296Y-35167D01*
X53376Y-34974D01*
X53376Y-37100D01*
X51174Y-37100D01*
X51214Y-37060D01*
X51159Y-37005D01*
X51137Y-36983D01*
X51159Y-36850D01*
X51159Y-30850D01*
X51124Y-30674D01*
X51080Y-30657D01*
X51080Y-29966D01*
X51080Y-29775D01*
X51007Y-29599D01*
X50872Y-29463D01*
X50696Y-29390D01*
X50505Y-29390D01*
X50329Y-29463D01*
X50193Y-29598D01*
X50120Y-29774D01*
X50120Y-29965D01*
X50193Y-30141D01*
X50328Y-30277D01*
X50465Y-30333D01*
X50404Y-30346D01*
X50373Y-30431D01*
X50600Y-30658D01*
X50827Y-30431D01*
X50796Y-30346D01*
X50730Y-30335D01*
X50871Y-30277D01*
X51007Y-30142D01*
X51080Y-29966D01*
X51080Y-30657D01*
X51039Y-30643D01*
X50812Y-30870D01*
X51039Y-31097D01*
X51124Y-31066D01*
X51159Y-30850D01*
X51159Y-36850D01*
X51124Y-36674D01*
X51080Y-36657D01*
X51080Y-35966D01*
X51080Y-35775D01*
X51080Y-34966D01*
X51080Y-34775D01*
X51080Y-33966D01*
X51080Y-33775D01*
X51080Y-32966D01*
X51080Y-32775D01*
X51080Y-31966D01*
X51080Y-31775D01*
X51007Y-31599D01*
X50872Y-31463D01*
X50734Y-31406D01*
X50796Y-31394D01*
X50827Y-31309D01*
X50600Y-31082D01*
X50388Y-31294D01*
X50388Y-30870D01*
X50161Y-30643D01*
X50076Y-30674D01*
X50041Y-30890D01*
X50076Y-31066D01*
X50161Y-31097D01*
X50388Y-30870D01*
X50388Y-31294D01*
X50373Y-31309D01*
X50404Y-31394D01*
X50469Y-31404D01*
X50329Y-31463D01*
X50193Y-31598D01*
X50120Y-31774D01*
X50120Y-31965D01*
X50193Y-32141D01*
X50328Y-32277D01*
X50504Y-32350D01*
X50695Y-32350D01*
X50871Y-32277D01*
X51007Y-32142D01*
X51080Y-31966D01*
X51080Y-32775D01*
X51007Y-32599D01*
X50872Y-32463D01*
X50696Y-32390D01*
X50505Y-32390D01*
X50329Y-32463D01*
X50193Y-32598D01*
X50120Y-32774D01*
X50120Y-32965D01*
X50193Y-33141D01*
X50328Y-33277D01*
X50504Y-33350D01*
X50695Y-33350D01*
X50871Y-33277D01*
X51007Y-33142D01*
X51080Y-32966D01*
X51080Y-33775D01*
X51007Y-33599D01*
X50872Y-33463D01*
X50696Y-33390D01*
X50505Y-33390D01*
X50329Y-33463D01*
X50193Y-33598D01*
X50120Y-33774D01*
X50120Y-33965D01*
X50193Y-34141D01*
X50328Y-34277D01*
X50504Y-34350D01*
X50695Y-34350D01*
X50871Y-34277D01*
X51007Y-34142D01*
X51080Y-33966D01*
X51080Y-34775D01*
X51007Y-34599D01*
X50872Y-34463D01*
X50696Y-34390D01*
X50505Y-34390D01*
X50329Y-34463D01*
X50193Y-34598D01*
X50120Y-34774D01*
X50120Y-34965D01*
X50193Y-35141D01*
X50328Y-35277D01*
X50504Y-35350D01*
X50695Y-35350D01*
X50871Y-35277D01*
X51007Y-35142D01*
X51080Y-34966D01*
X51080Y-35775D01*
X51007Y-35599D01*
X50872Y-35463D01*
X50696Y-35390D01*
X50505Y-35390D01*
X50329Y-35463D01*
X50193Y-35598D01*
X50120Y-35774D01*
X50120Y-35965D01*
X50193Y-36141D01*
X50328Y-36277D01*
X50465Y-36333D01*
X50404Y-36346D01*
X50373Y-36431D01*
X50600Y-36658D01*
X50827Y-36431D01*
X50796Y-36346D01*
X50730Y-36335D01*
X50871Y-36277D01*
X51007Y-36142D01*
X51080Y-35966D01*
X51080Y-36657D01*
X51039Y-36643D01*
X50812Y-36870D01*
X50876Y-36934D01*
X50710Y-37100D01*
X50618Y-37100D01*
X50600Y-37082D01*
X50582Y-37100D01*
X50490Y-37100D01*
X50388Y-36998D01*
X50324Y-36934D01*
X50388Y-36870D01*
X50161Y-36643D01*
X50076Y-36674D01*
X50041Y-36890D01*
X50060Y-36985D01*
X49986Y-37060D01*
X50026Y-37100D01*
X49708Y-37100D01*
X49708Y-30036D01*
X49675Y-29868D01*
X49589Y-29829D01*
X49347Y-30070D01*
X49589Y-30311D01*
X49675Y-30272D01*
X49708Y-30036D01*
X49708Y-37100D01*
X49315Y-37100D01*
X49371Y-37077D01*
X49507Y-36942D01*
X49580Y-36766D01*
X49580Y-36575D01*
X49580Y-36006D01*
X49580Y-35934D01*
X49580Y-35334D01*
X49553Y-35268D01*
X49502Y-35217D01*
X49436Y-35190D01*
X49364Y-35190D01*
X49341Y-35190D01*
X49341Y-30559D01*
X49341Y-29581D01*
X49302Y-29495D01*
X49066Y-29462D01*
X48898Y-29495D01*
X48859Y-29581D01*
X49100Y-29823D01*
X49341Y-29581D01*
X49341Y-30559D01*
X49100Y-30317D01*
X48859Y-30559D01*
X48898Y-30645D01*
X49134Y-30678D01*
X49302Y-30645D01*
X49341Y-30559D01*
X49341Y-35190D01*
X48853Y-35190D01*
X48853Y-30070D01*
X48611Y-29829D01*
X48525Y-29868D01*
X48492Y-30104D01*
X48525Y-30272D01*
X48611Y-30311D01*
X48853Y-30070D01*
X48853Y-35190D01*
X48764Y-35190D01*
X48698Y-35217D01*
X48647Y-35268D01*
X48620Y-35334D01*
X48620Y-35406D01*
X48620Y-36006D01*
X48647Y-36072D01*
X48698Y-36123D01*
X48764Y-36150D01*
X48836Y-36150D01*
X49436Y-36150D01*
X49502Y-36123D01*
X49553Y-36072D01*
X49580Y-36006D01*
X49580Y-36575D01*
X49507Y-36399D01*
X49372Y-36263D01*
X49196Y-36190D01*
X49005Y-36190D01*
X48829Y-36263D01*
X48693Y-36398D01*
X48620Y-36574D01*
X48620Y-36765D01*
X48693Y-36941D01*
X48828Y-37077D01*
X48883Y-37100D01*
X48315Y-37100D01*
X48371Y-37077D01*
X48507Y-36942D01*
X48580Y-36766D01*
X48580Y-36575D01*
X48580Y-35766D01*
X48580Y-35575D01*
X48507Y-35399D01*
X48372Y-35263D01*
X48196Y-35190D01*
X48005Y-35190D01*
X47829Y-35263D01*
X47693Y-35398D01*
X47630Y-35549D01*
X47630Y-30456D01*
X47630Y-30384D01*
X47630Y-29684D01*
X47603Y-29618D01*
X47552Y-29567D01*
X47486Y-29540D01*
X47414Y-29540D01*
X46714Y-29540D01*
X46648Y-29567D01*
X46597Y-29618D01*
X46570Y-29684D01*
X46570Y-29756D01*
X46570Y-30456D01*
X46597Y-30522D01*
X46648Y-30573D01*
X46714Y-30600D01*
X46786Y-30600D01*
X47486Y-30600D01*
X47552Y-30573D01*
X47603Y-30522D01*
X47630Y-30456D01*
X47630Y-35549D01*
X47620Y-35574D01*
X47620Y-35765D01*
X47693Y-35941D01*
X47828Y-36077D01*
X48004Y-36150D01*
X48195Y-36150D01*
X48371Y-36077D01*
X48507Y-35942D01*
X48580Y-35766D01*
X48580Y-36575D01*
X48507Y-36399D01*
X48372Y-36263D01*
X48196Y-36190D01*
X48005Y-36190D01*
X47829Y-36263D01*
X47693Y-36398D01*
X47620Y-36574D01*
X47620Y-36765D01*
X47693Y-36941D01*
X47828Y-37077D01*
X47883Y-37100D01*
X47315Y-37100D01*
X47371Y-37077D01*
X47507Y-36942D01*
X47580Y-36766D01*
X47580Y-36575D01*
X47507Y-36399D01*
X47372Y-36263D01*
X47196Y-36190D01*
X47008Y-36190D01*
X46942Y-36124D01*
X47004Y-36150D01*
X47195Y-36150D01*
X47371Y-36077D01*
X47507Y-35942D01*
X47580Y-35766D01*
X47580Y-35575D01*
X47507Y-35399D01*
X47372Y-35263D01*
X47196Y-35190D01*
X47005Y-35190D01*
X46829Y-35263D01*
X46693Y-35398D01*
X46620Y-35574D01*
X46620Y-35765D01*
X46646Y-35828D01*
X46004Y-35186D01*
X45979Y-35169D01*
X46007Y-35142D01*
X46080Y-34966D01*
X46080Y-34775D01*
X46080Y-33966D01*
X46080Y-33775D01*
X46080Y-32966D01*
X46080Y-32775D01*
X46080Y-31966D01*
X46080Y-31775D01*
X46080Y-30966D01*
X46080Y-30775D01*
X46007Y-30599D01*
X45872Y-30463D01*
X45696Y-30390D01*
X45505Y-30390D01*
X45329Y-30463D01*
X45193Y-30598D01*
X45120Y-30774D01*
X45120Y-30965D01*
X45193Y-31141D01*
X45328Y-31277D01*
X45504Y-31350D01*
X45695Y-31350D01*
X45871Y-31277D01*
X46007Y-31142D01*
X46080Y-30966D01*
X46080Y-31775D01*
X46007Y-31599D01*
X45872Y-31463D01*
X45696Y-31390D01*
X45505Y-31390D01*
X45329Y-31463D01*
X45193Y-31598D01*
X45120Y-31774D01*
X45120Y-31965D01*
X45193Y-32141D01*
X45328Y-32277D01*
X45504Y-32350D01*
X45695Y-32350D01*
X45871Y-32277D01*
X46007Y-32142D01*
X46080Y-31966D01*
X46080Y-32775D01*
X46007Y-32599D01*
X45872Y-32463D01*
X45696Y-32390D01*
X45505Y-32390D01*
X45329Y-32463D01*
X45193Y-32598D01*
X45120Y-32774D01*
X45120Y-32965D01*
X45193Y-33141D01*
X45328Y-33277D01*
X45504Y-33350D01*
X45695Y-33350D01*
X45871Y-33277D01*
X46007Y-33142D01*
X46080Y-32966D01*
X46080Y-33775D01*
X46007Y-33599D01*
X45872Y-33463D01*
X45696Y-33390D01*
X45505Y-33390D01*
X45329Y-33463D01*
X45193Y-33598D01*
X45120Y-33774D01*
X45120Y-33965D01*
X45193Y-34141D01*
X45328Y-34277D01*
X45504Y-34350D01*
X45695Y-34350D01*
X45871Y-34277D01*
X46007Y-34142D01*
X46080Y-33966D01*
X46080Y-34775D01*
X46007Y-34599D01*
X45872Y-34463D01*
X45696Y-34390D01*
X45505Y-34390D01*
X45329Y-34463D01*
X45193Y-34598D01*
X45120Y-34774D01*
X45120Y-34965D01*
X45193Y-35141D01*
X45225Y-35173D01*
X45206Y-35186D01*
X45204Y-35188D01*
X45080Y-35312D01*
X45080Y-33970D01*
X45036Y-33748D01*
X44954Y-33625D01*
X44954Y-32061D01*
X44954Y-31880D01*
X44885Y-31713D01*
X44757Y-31585D01*
X44591Y-31516D01*
X44410Y-31516D01*
X44243Y-31585D01*
X44115Y-31713D01*
X44046Y-31879D01*
X44046Y-32060D01*
X44115Y-32227D01*
X44243Y-32355D01*
X44409Y-32424D01*
X44590Y-32424D01*
X44757Y-32355D01*
X44885Y-32227D01*
X44954Y-32061D01*
X44954Y-33625D01*
X44910Y-33560D01*
X44722Y-33434D01*
X44500Y-33390D01*
X44278Y-33434D01*
X44090Y-33560D01*
X43692Y-33958D01*
X42458Y-33958D01*
X42458Y-32505D01*
X42425Y-32340D01*
X42331Y-32279D01*
X42039Y-32570D01*
X42331Y-32861D01*
X42425Y-32800D01*
X42458Y-32505D01*
X42458Y-33958D01*
X42075Y-33958D01*
X41991Y-33922D01*
X41991Y-33201D01*
X41991Y-31939D01*
X41930Y-31845D01*
X41635Y-31812D01*
X41470Y-31845D01*
X41409Y-31939D01*
X41700Y-32231D01*
X41991Y-31939D01*
X41991Y-33201D01*
X41700Y-32909D01*
X41409Y-33201D01*
X41470Y-33295D01*
X41765Y-33328D01*
X41930Y-33295D01*
X41991Y-33201D01*
X41991Y-33922D01*
X41836Y-33858D01*
X41565Y-33858D01*
X41361Y-33942D01*
X41361Y-32570D01*
X41069Y-32279D01*
X40975Y-32340D01*
X40942Y-32635D01*
X40975Y-32800D01*
X41069Y-32861D01*
X41361Y-32570D01*
X41361Y-33942D01*
X41315Y-33961D01*
X41124Y-34153D01*
X41020Y-34402D01*
X41020Y-34673D01*
X41123Y-34923D01*
X41315Y-35114D01*
X41564Y-35218D01*
X41835Y-35218D01*
X42077Y-35118D01*
X43932Y-35118D01*
X44154Y-35074D01*
X44342Y-34948D01*
X44910Y-34380D01*
X45036Y-34192D01*
X45080Y-33970D01*
X45080Y-35312D01*
X44676Y-35716D01*
X44620Y-35800D01*
X44600Y-35900D01*
X44600Y-41810D01*
X44530Y-41810D01*
X43108Y-41810D01*
X43084Y-41786D01*
X43104Y-41741D01*
X43104Y-41580D01*
X43043Y-41431D01*
X42929Y-41318D01*
X42781Y-41256D01*
X42620Y-41256D01*
X42471Y-41317D01*
X42458Y-41330D01*
X42458Y-36905D01*
X42425Y-36740D01*
X42331Y-36679D01*
X42039Y-36970D01*
X42331Y-37261D01*
X42425Y-37200D01*
X42458Y-36905D01*
X42458Y-41330D01*
X42358Y-41431D01*
X42296Y-41579D01*
X42296Y-41740D01*
X42357Y-41889D01*
X42360Y-41891D01*
X42360Y-41918D01*
X42358Y-41921D01*
X42296Y-42069D01*
X42296Y-42230D01*
X42349Y-42360D01*
X42296Y-42489D01*
X42296Y-42650D01*
X42357Y-42799D01*
X42471Y-42912D01*
X42619Y-42974D01*
X42780Y-42974D01*
X42929Y-42913D01*
X43042Y-42799D01*
X43104Y-42651D01*
X43104Y-42534D01*
X43148Y-42490D01*
X44530Y-42490D01*
X44572Y-42490D01*
X44600Y-42517D01*
X44600Y-45900D01*
X44620Y-46000D01*
X44676Y-46084D01*
X45144Y-46551D01*
X45146Y-46554D01*
X45230Y-46609D01*
X45231Y-46610D01*
X45330Y-46630D01*
X46400Y-46630D01*
X46499Y-46610D01*
X46500Y-46610D01*
X46584Y-46554D01*
X46992Y-46145D01*
X47004Y-46150D01*
X47195Y-46150D01*
X47371Y-46077D01*
X47507Y-45942D01*
X47580Y-45766D01*
X47580Y-45575D01*
X47580Y-44766D01*
X47580Y-44575D01*
X47507Y-44399D01*
X47372Y-44263D01*
X47196Y-44190D01*
X47005Y-44190D01*
X46829Y-44263D01*
X46693Y-44398D01*
X46620Y-44574D01*
X46620Y-44765D01*
X46693Y-44941D01*
X46828Y-45077D01*
X47004Y-45150D01*
X47195Y-45150D01*
X47371Y-45077D01*
X47507Y-44942D01*
X47580Y-44766D01*
X47580Y-45575D01*
X47507Y-45399D01*
X47372Y-45263D01*
X47196Y-45190D01*
X47005Y-45190D01*
X46829Y-45263D01*
X46693Y-45398D01*
X46620Y-45574D01*
X46620Y-45765D01*
X46624Y-45777D01*
X46292Y-46110D01*
X46020Y-46110D01*
X46080Y-45966D01*
X46080Y-45775D01*
X46062Y-45732D01*
X46422Y-45372D01*
X46424Y-45371D01*
X46425Y-45371D01*
X46474Y-45296D01*
X46492Y-45208D01*
X46492Y-39829D01*
X46599Y-39829D01*
X46709Y-39784D01*
X46793Y-39700D01*
X46834Y-39600D01*
X47486Y-39600D01*
X47552Y-39573D01*
X47603Y-39522D01*
X47630Y-39456D01*
X47630Y-39384D01*
X47630Y-38684D01*
X47603Y-38618D01*
X47552Y-38567D01*
X47486Y-38540D01*
X47414Y-38540D01*
X46772Y-38540D01*
X46944Y-38368D01*
X52892Y-38368D01*
X53151Y-38626D01*
X53151Y-38659D01*
X53196Y-38769D01*
X53242Y-38815D01*
X53177Y-38880D01*
X53131Y-38990D01*
X53131Y-39109D01*
X53176Y-39219D01*
X53260Y-39303D01*
X53370Y-39349D01*
X53489Y-39349D01*
X53599Y-39304D01*
X53605Y-39298D01*
X53610Y-39303D01*
X53720Y-39349D01*
X53839Y-39349D01*
X53949Y-39304D01*
X53964Y-39289D01*
X53998Y-39323D01*
X54064Y-39350D01*
X54136Y-39350D01*
X54736Y-39350D01*
X54802Y-39323D01*
X54853Y-39272D01*
X54880Y-39206D01*
X54880Y-39134D01*
X54880Y-38570D01*
X55445Y-38570D01*
X55397Y-38618D01*
X55370Y-38684D01*
X55370Y-38756D01*
X55370Y-39456D01*
X55397Y-39522D01*
X55448Y-39573D01*
X55514Y-39600D01*
X55586Y-39600D01*
X56286Y-39600D01*
X56352Y-39573D01*
X56403Y-39522D01*
X56430Y-39456D01*
X56430Y-39384D01*
X56430Y-38684D01*
X56403Y-38618D01*
X56355Y-38570D01*
X57663Y-38570D01*
X57659Y-38581D01*
X57900Y-38823D01*
X58141Y-38581D01*
X58136Y-38570D01*
X58190Y-38570D01*
X58210Y-38570D01*
X58294Y-38570D01*
X58720Y-38995D01*
X58720Y-39095D01*
X58719Y-39100D01*
X58738Y-39188D01*
X58787Y-39263D01*
X58995Y-39470D01*
X58786Y-39680D01*
X58862Y-39756D01*
X58841Y-39890D01*
X58876Y-40066D01*
X58961Y-40097D01*
X59188Y-39870D01*
X59124Y-39806D01*
X59336Y-39594D01*
X59400Y-39658D01*
X59464Y-39594D01*
X59676Y-39806D01*
X59612Y-39870D01*
X59839Y-40097D01*
X59924Y-40066D01*
X59959Y-39850D01*
X59939Y-39754D01*
X60014Y-39680D01*
X59894Y-39560D01*
X60235Y-39560D01*
X60240Y-39561D01*
X60240Y-39560D01*
X60328Y-39542D01*
X60403Y-39493D01*
X63520Y-36375D01*
X63520Y-36886D01*
X63547Y-36952D01*
X63598Y-37003D01*
X63664Y-37030D01*
X63736Y-37030D01*
X64336Y-37030D01*
X64402Y-37003D01*
X64453Y-36952D01*
X64480Y-36886D01*
X64480Y-36814D01*
X64480Y-36448D01*
X64520Y-36475D01*
X64520Y-36485D01*
X64593Y-36661D01*
X64728Y-36797D01*
X64904Y-36870D01*
X65095Y-36870D01*
X65271Y-36797D01*
X65407Y-36662D01*
X65442Y-36576D01*
X65476Y-36746D01*
X65561Y-36777D01*
X65788Y-36550D01*
X65768Y-36530D01*
X66232Y-36530D01*
X66212Y-36550D01*
X66439Y-36777D01*
X66524Y-36746D01*
X66553Y-36565D01*
X66593Y-36661D01*
X66728Y-36797D01*
X66904Y-36870D01*
X67095Y-36870D01*
X67271Y-36797D01*
X67407Y-36662D01*
X67461Y-36530D01*
X67520Y-36530D01*
X67520Y-36645D01*
X67593Y-36821D01*
X67728Y-36957D01*
X67904Y-37030D01*
X68095Y-37030D01*
X68271Y-36957D01*
X68407Y-36822D01*
X68480Y-36646D01*
X68480Y-36530D01*
X68538Y-36530D01*
X68593Y-36661D01*
X68728Y-36797D01*
X68904Y-36870D01*
X69095Y-36870D01*
X69271Y-36797D01*
X69361Y-36707D01*
X69407Y-36662D01*
X69480Y-36486D01*
X69480Y-36295D01*
X69407Y-36119D01*
X69336Y-36047D01*
X69333Y-36032D01*
X69264Y-35929D01*
X69298Y-35922D01*
X69373Y-35873D01*
X69593Y-35653D01*
X69642Y-35578D01*
X69646Y-35558D01*
X69743Y-35655D01*
X69909Y-35724D01*
X70090Y-35724D01*
X70257Y-35655D01*
X70385Y-35527D01*
X70454Y-35361D01*
X70454Y-35180D01*
X70433Y-35130D01*
X70436Y-35130D01*
X70483Y-35177D01*
X70465Y-35283D01*
X70501Y-35463D01*
X70586Y-35491D01*
X70806Y-35270D01*
X70733Y-35197D01*
X70800Y-35130D01*
X71200Y-35130D01*
X71266Y-35196D01*
X71194Y-35270D01*
X71414Y-35491D01*
X71499Y-35463D01*
X71535Y-35257D01*
X71518Y-35175D01*
X71549Y-35144D01*
X71557Y-35152D01*
X71546Y-35179D01*
X71546Y-35360D01*
X71615Y-35527D01*
X71743Y-35655D01*
X71909Y-35724D01*
X72090Y-35724D01*
X72257Y-35655D01*
X72385Y-35527D01*
X72454Y-35361D01*
X72454Y-35180D01*
X72433Y-35130D01*
X72534Y-35130D01*
X72556Y-35152D01*
X72546Y-35179D01*
X72546Y-35360D01*
X72615Y-35527D01*
X72743Y-35655D01*
X72909Y-35724D01*
X73090Y-35724D01*
X73257Y-35655D01*
X73385Y-35527D01*
X73454Y-35361D01*
X73454Y-35180D01*
X73433Y-35130D01*
X73534Y-35130D01*
X73557Y-35152D01*
X73546Y-35179D01*
X73546Y-35360D01*
X73615Y-35527D01*
X73743Y-35655D01*
X73909Y-35724D01*
X74090Y-35724D01*
X74257Y-35655D01*
X74385Y-35527D01*
X74454Y-35361D01*
X74454Y-35180D01*
X74433Y-35130D01*
X74534Y-35130D01*
X74557Y-35152D01*
X74546Y-35179D01*
X74546Y-35360D01*
X74615Y-35527D01*
X74743Y-35655D01*
X74909Y-35724D01*
X75090Y-35724D01*
X75257Y-35655D01*
X75385Y-35527D01*
X75454Y-35361D01*
X75454Y-35180D01*
X75433Y-35130D01*
X75492Y-35130D01*
X75546Y-35184D01*
X75546Y-35360D01*
X75615Y-35527D01*
X75743Y-35655D01*
X75761Y-35662D01*
X75909Y-35724D01*
X76090Y-35724D01*
X76257Y-35655D01*
X76385Y-35527D01*
X76454Y-35361D01*
X76454Y-40826D01*
X76370Y-40742D01*
X76260Y-40696D01*
X76141Y-40696D01*
X76031Y-40741D01*
X76007Y-40765D01*
X75761Y-40765D01*
X75699Y-40765D01*
X75699Y-39605D01*
X75699Y-39486D01*
X75654Y-39376D01*
X75570Y-39292D01*
X75460Y-39246D01*
X75341Y-39246D01*
X75231Y-39291D01*
X75147Y-39375D01*
X75101Y-39485D01*
X75101Y-39518D01*
X74899Y-39720D01*
X74899Y-39605D01*
X74899Y-39486D01*
X74854Y-39376D01*
X74770Y-39292D01*
X74660Y-39246D01*
X74541Y-39246D01*
X74431Y-39291D01*
X74407Y-39315D01*
X74250Y-39315D01*
X74162Y-39333D01*
X74087Y-39382D01*
X74085Y-39384D01*
X71535Y-41934D01*
X71535Y-41357D01*
X71499Y-41177D01*
X71414Y-41149D01*
X71221Y-41342D01*
X71221Y-40956D01*
X71193Y-40871D01*
X70987Y-40835D01*
X70807Y-40871D01*
X70779Y-40956D01*
X71000Y-41176D01*
X71221Y-40956D01*
X71221Y-41342D01*
X71194Y-41370D01*
X71414Y-41591D01*
X71499Y-41563D01*
X71535Y-41357D01*
X71535Y-41934D01*
X71221Y-42248D01*
X71221Y-41784D01*
X71000Y-41564D01*
X70806Y-41757D01*
X70806Y-41370D01*
X70586Y-41149D01*
X70501Y-41177D01*
X70465Y-41383D01*
X70501Y-41563D01*
X70586Y-41591D01*
X70806Y-41370D01*
X70806Y-41757D01*
X70779Y-41784D01*
X70807Y-41869D01*
X71013Y-41905D01*
X71193Y-41869D01*
X71221Y-41784D01*
X71221Y-42248D01*
X71037Y-42432D01*
X70988Y-42507D01*
X70969Y-42595D01*
X70970Y-42599D01*
X70970Y-44445D01*
X70929Y-44463D01*
X70793Y-44598D01*
X70720Y-44774D01*
X70720Y-44965D01*
X70793Y-45141D01*
X70928Y-45277D01*
X71007Y-45310D01*
X70985Y-45310D01*
X70900Y-45310D01*
X70849Y-45310D01*
X70753Y-45349D01*
X70680Y-45422D01*
X70640Y-45518D01*
X70640Y-45621D01*
X70640Y-45655D01*
X70705Y-45720D01*
X71050Y-45720D01*
X71050Y-45630D01*
X71350Y-45630D01*
X71350Y-45720D01*
X71440Y-45720D01*
X71440Y-46020D01*
X71350Y-46020D01*
X71350Y-46365D01*
X71415Y-46430D01*
X71551Y-46430D01*
X71647Y-46391D01*
X71720Y-46318D01*
X71760Y-46222D01*
X71760Y-46170D01*
X71760Y-46119D01*
X71760Y-46096D01*
X71761Y-46097D01*
X71988Y-45870D01*
X71761Y-45643D01*
X71760Y-45643D01*
X71760Y-45621D01*
X71760Y-45570D01*
X71760Y-45518D01*
X71720Y-45422D01*
X71647Y-45349D01*
X71551Y-45310D01*
X71500Y-45310D01*
X71415Y-45310D01*
X71391Y-45310D01*
X71471Y-45277D01*
X71607Y-45142D01*
X71680Y-44966D01*
X71680Y-44775D01*
X71607Y-44599D01*
X71472Y-44463D01*
X71430Y-44445D01*
X71430Y-42690D01*
X74345Y-39775D01*
X74407Y-39775D01*
X74430Y-39798D01*
X74540Y-39844D01*
X74659Y-39844D01*
X74769Y-39799D01*
X74853Y-39715D01*
X74899Y-39605D01*
X74899Y-39720D01*
X72037Y-42582D01*
X71988Y-42657D01*
X71969Y-42745D01*
X71970Y-42749D01*
X71970Y-44445D01*
X71929Y-44463D01*
X71793Y-44598D01*
X71720Y-44774D01*
X71720Y-44965D01*
X71793Y-45141D01*
X71928Y-45277D01*
X72065Y-45333D01*
X72004Y-45346D01*
X71973Y-45431D01*
X72200Y-45658D01*
X72427Y-45431D01*
X72396Y-45346D01*
X72330Y-45335D01*
X72471Y-45277D01*
X72607Y-45142D01*
X72680Y-44966D01*
X72680Y-44775D01*
X72607Y-44599D01*
X72472Y-44463D01*
X72430Y-44445D01*
X72430Y-42840D01*
X75426Y-39844D01*
X75459Y-39844D01*
X75569Y-39799D01*
X75653Y-39715D01*
X75699Y-39605D01*
X75699Y-40765D01*
X75027Y-40765D01*
X75026Y-40765D01*
X74939Y-40783D01*
X74864Y-40832D01*
X74862Y-40834D01*
X73037Y-42659D01*
X72988Y-42734D01*
X72969Y-42822D01*
X72970Y-42826D01*
X72970Y-44445D01*
X72929Y-44463D01*
X72793Y-44598D01*
X72720Y-44774D01*
X72720Y-44965D01*
X72793Y-45141D01*
X72928Y-45277D01*
X73065Y-45333D01*
X73004Y-45346D01*
X72973Y-45431D01*
X73200Y-45658D01*
X73427Y-45431D01*
X73396Y-45346D01*
X73330Y-45335D01*
X73471Y-45277D01*
X73607Y-45142D01*
X73680Y-44966D01*
X73680Y-44775D01*
X73607Y-44599D01*
X73472Y-44463D01*
X73430Y-44445D01*
X73430Y-42917D01*
X75122Y-41225D01*
X75761Y-41225D01*
X76007Y-41225D01*
X76030Y-41248D01*
X76140Y-41294D01*
X76259Y-41294D01*
X76369Y-41249D01*
X76453Y-41165D01*
X76499Y-41055D01*
X76499Y-44928D01*
X76424Y-44943D01*
X76274Y-45044D01*
X76173Y-45194D01*
X76140Y-45364D01*
X76140Y-46864D01*
X76113Y-47000D01*
X76040Y-47110D01*
X75930Y-47183D01*
X75794Y-47210D01*
X75761Y-47210D01*
X75759Y-47210D01*
X75759Y-45850D01*
X75724Y-45674D01*
X75680Y-45657D01*
X75680Y-44966D01*
X75680Y-44775D01*
X75607Y-44599D01*
X75472Y-44463D01*
X75296Y-44390D01*
X75105Y-44390D01*
X74929Y-44463D01*
X74793Y-44598D01*
X74720Y-44774D01*
X74720Y-44965D01*
X74793Y-45141D01*
X74928Y-45277D01*
X75065Y-45333D01*
X75004Y-45346D01*
X74973Y-45431D01*
X75200Y-45658D01*
X75427Y-45431D01*
X75396Y-45346D01*
X75330Y-45335D01*
X75471Y-45277D01*
X75607Y-45142D01*
X75680Y-44966D01*
X75680Y-45657D01*
X75639Y-45643D01*
X75412Y-45870D01*
X75639Y-46097D01*
X75724Y-46066D01*
X75759Y-45850D01*
X75759Y-47210D01*
X75427Y-47210D01*
X75427Y-46309D01*
X75200Y-46082D01*
X74988Y-46294D01*
X74988Y-45870D01*
X74761Y-45643D01*
X74700Y-45665D01*
X74680Y-45657D01*
X74680Y-44966D01*
X74680Y-44775D01*
X74607Y-44599D01*
X74472Y-44463D01*
X74296Y-44390D01*
X74105Y-44390D01*
X73929Y-44463D01*
X73793Y-44598D01*
X73720Y-44774D01*
X73720Y-44965D01*
X73793Y-45141D01*
X73928Y-45277D01*
X74065Y-45333D01*
X74004Y-45346D01*
X73973Y-45431D01*
X74200Y-45658D01*
X74427Y-45431D01*
X74396Y-45346D01*
X74330Y-45335D01*
X74471Y-45277D01*
X74607Y-45142D01*
X74680Y-44966D01*
X74680Y-45657D01*
X74639Y-45643D01*
X74412Y-45870D01*
X74639Y-46097D01*
X74700Y-46074D01*
X74761Y-46097D01*
X74988Y-45870D01*
X74988Y-46294D01*
X74973Y-46309D01*
X75004Y-46394D01*
X75220Y-46429D01*
X75396Y-46394D01*
X75427Y-46309D01*
X75427Y-47210D01*
X74427Y-47210D01*
X74427Y-46309D01*
X74200Y-46082D01*
X73988Y-46294D01*
X73988Y-45870D01*
X73761Y-45643D01*
X73700Y-45665D01*
X73639Y-45643D01*
X73412Y-45870D01*
X73639Y-46097D01*
X73700Y-46074D01*
X73761Y-46097D01*
X73988Y-45870D01*
X73988Y-46294D01*
X73973Y-46309D01*
X74004Y-46394D01*
X74220Y-46429D01*
X74396Y-46394D01*
X74427Y-46309D01*
X74427Y-47210D01*
X73427Y-47210D01*
X73427Y-46309D01*
X73200Y-46082D01*
X72988Y-46294D01*
X72988Y-45870D01*
X72761Y-45643D01*
X72700Y-45665D01*
X72639Y-45643D01*
X72412Y-45870D01*
X72639Y-46097D01*
X72700Y-46074D01*
X72761Y-46097D01*
X72988Y-45870D01*
X72988Y-46294D01*
X72973Y-46309D01*
X73004Y-46394D01*
X73220Y-46429D01*
X73396Y-46394D01*
X73427Y-46309D01*
X73427Y-47210D01*
X72427Y-47210D01*
X72427Y-46309D01*
X72200Y-46082D01*
X71988Y-46294D01*
X71973Y-46309D01*
X72004Y-46394D01*
X72220Y-46429D01*
X72396Y-46394D01*
X72427Y-46309D01*
X72427Y-47210D01*
X71050Y-47210D01*
X71050Y-46365D01*
X71050Y-46020D01*
X70705Y-46020D01*
X70640Y-46085D01*
X70640Y-46119D01*
X70640Y-46222D01*
X70680Y-46318D01*
X70753Y-46391D01*
X70849Y-46430D01*
X70985Y-46430D01*
X71050Y-46365D01*
X71050Y-47210D01*
X70454Y-47210D01*
X70454Y-41461D01*
X70454Y-41280D01*
X70385Y-41113D01*
X70257Y-40985D01*
X70091Y-40916D01*
X69910Y-40916D01*
X69743Y-40985D01*
X69615Y-41113D01*
X69546Y-41279D01*
X69546Y-41460D01*
X69615Y-41627D01*
X69743Y-41755D01*
X69909Y-41824D01*
X70090Y-41824D01*
X70257Y-41755D01*
X70385Y-41627D01*
X70454Y-41461D01*
X70454Y-47210D01*
X69850Y-47210D01*
X69759Y-47210D01*
X69759Y-45850D01*
X69724Y-45674D01*
X69680Y-45657D01*
X69680Y-44966D01*
X69680Y-44775D01*
X69607Y-44599D01*
X69472Y-44463D01*
X69454Y-44455D01*
X69454Y-41461D01*
X69454Y-41280D01*
X69385Y-41113D01*
X69361Y-41089D01*
X69257Y-40985D01*
X69091Y-40916D01*
X68910Y-40916D01*
X68743Y-40985D01*
X68615Y-41113D01*
X68546Y-41279D01*
X68546Y-41460D01*
X68615Y-41627D01*
X68743Y-41755D01*
X68909Y-41824D01*
X69090Y-41824D01*
X69257Y-41755D01*
X69361Y-41651D01*
X69385Y-41627D01*
X69454Y-41461D01*
X69454Y-44455D01*
X69361Y-44416D01*
X69296Y-44390D01*
X69105Y-44390D01*
X68929Y-44463D01*
X68793Y-44598D01*
X68720Y-44774D01*
X68720Y-44965D01*
X68793Y-45141D01*
X68928Y-45277D01*
X69065Y-45333D01*
X69004Y-45346D01*
X68973Y-45431D01*
X69200Y-45658D01*
X69361Y-45497D01*
X69427Y-45431D01*
X69396Y-45346D01*
X69361Y-45340D01*
X69330Y-45335D01*
X69361Y-45322D01*
X69471Y-45277D01*
X69607Y-45142D01*
X69680Y-44966D01*
X69680Y-45657D01*
X69639Y-45643D01*
X69412Y-45870D01*
X69639Y-46097D01*
X69724Y-46066D01*
X69759Y-45850D01*
X69759Y-47210D01*
X69427Y-47210D01*
X69427Y-46309D01*
X69361Y-46243D01*
X69200Y-46082D01*
X68988Y-46294D01*
X68988Y-45870D01*
X68761Y-45643D01*
X68700Y-45665D01*
X68680Y-45657D01*
X68680Y-44966D01*
X68680Y-44775D01*
X68607Y-44599D01*
X68472Y-44463D01*
X68454Y-44455D01*
X68454Y-41461D01*
X68454Y-41280D01*
X68385Y-41113D01*
X68257Y-40985D01*
X68091Y-40916D01*
X67910Y-40916D01*
X67743Y-40985D01*
X67615Y-41113D01*
X67546Y-41279D01*
X67546Y-41460D01*
X67615Y-41627D01*
X67743Y-41755D01*
X67909Y-41824D01*
X68090Y-41824D01*
X68257Y-41755D01*
X68385Y-41627D01*
X68454Y-41461D01*
X68454Y-44455D01*
X68296Y-44390D01*
X68105Y-44390D01*
X67929Y-44463D01*
X67793Y-44598D01*
X67720Y-44774D01*
X67720Y-44965D01*
X67793Y-45141D01*
X67928Y-45277D01*
X68065Y-45333D01*
X68004Y-45346D01*
X67973Y-45431D01*
X68200Y-45658D01*
X68427Y-45431D01*
X68396Y-45346D01*
X68330Y-45335D01*
X68471Y-45277D01*
X68607Y-45142D01*
X68680Y-44966D01*
X68680Y-45657D01*
X68639Y-45643D01*
X68412Y-45870D01*
X68639Y-46097D01*
X68700Y-46074D01*
X68761Y-46097D01*
X68988Y-45870D01*
X68988Y-46294D01*
X68973Y-46309D01*
X69004Y-46394D01*
X69220Y-46429D01*
X69361Y-46400D01*
X69396Y-46394D01*
X69427Y-46309D01*
X69427Y-47210D01*
X69361Y-47210D01*
X68427Y-47210D01*
X68427Y-46309D01*
X68200Y-46082D01*
X67988Y-46294D01*
X67988Y-45870D01*
X67761Y-45643D01*
X67700Y-45665D01*
X67680Y-45657D01*
X67680Y-44966D01*
X67680Y-44775D01*
X67607Y-44599D01*
X67472Y-44463D01*
X67454Y-44455D01*
X67454Y-41461D01*
X67454Y-41280D01*
X67385Y-41113D01*
X67257Y-40985D01*
X67091Y-40916D01*
X66910Y-40916D01*
X66743Y-40985D01*
X66615Y-41113D01*
X66546Y-41279D01*
X66546Y-41460D01*
X66615Y-41627D01*
X66743Y-41755D01*
X66909Y-41824D01*
X67090Y-41824D01*
X67257Y-41755D01*
X67385Y-41627D01*
X67454Y-41461D01*
X67454Y-44455D01*
X67296Y-44390D01*
X67105Y-44390D01*
X66929Y-44463D01*
X66793Y-44598D01*
X66720Y-44774D01*
X66720Y-44965D01*
X66793Y-45141D01*
X66928Y-45277D01*
X67065Y-45333D01*
X67004Y-45346D01*
X66973Y-45431D01*
X67200Y-45658D01*
X67427Y-45431D01*
X67396Y-45346D01*
X67330Y-45335D01*
X67471Y-45277D01*
X67607Y-45142D01*
X67680Y-44966D01*
X67680Y-45657D01*
X67639Y-45643D01*
X67412Y-45870D01*
X67639Y-46097D01*
X67700Y-46074D01*
X67761Y-46097D01*
X67988Y-45870D01*
X67988Y-46294D01*
X67973Y-46309D01*
X68004Y-46394D01*
X68220Y-46429D01*
X68396Y-46394D01*
X68427Y-46309D01*
X68427Y-47210D01*
X67427Y-47210D01*
X67427Y-46309D01*
X67200Y-46082D01*
X66988Y-46294D01*
X66988Y-45870D01*
X66761Y-45643D01*
X66700Y-45665D01*
X66680Y-45657D01*
X66680Y-44966D01*
X66680Y-44775D01*
X66607Y-44599D01*
X66472Y-44463D01*
X66454Y-44455D01*
X66454Y-41461D01*
X66454Y-41280D01*
X66385Y-41113D01*
X66257Y-40985D01*
X66091Y-40916D01*
X65910Y-40916D01*
X65743Y-40985D01*
X65615Y-41113D01*
X65546Y-41279D01*
X65546Y-41460D01*
X65615Y-41627D01*
X65743Y-41755D01*
X65909Y-41824D01*
X66090Y-41824D01*
X66257Y-41755D01*
X66385Y-41627D01*
X66454Y-41461D01*
X66454Y-44455D01*
X66296Y-44390D01*
X66105Y-44390D01*
X65929Y-44463D01*
X65793Y-44598D01*
X65720Y-44774D01*
X65720Y-44965D01*
X65793Y-45141D01*
X65928Y-45277D01*
X66065Y-45333D01*
X66004Y-45346D01*
X65973Y-45431D01*
X66200Y-45658D01*
X66427Y-45431D01*
X66396Y-45346D01*
X66330Y-45335D01*
X66471Y-45277D01*
X66607Y-45142D01*
X66680Y-44966D01*
X66680Y-45657D01*
X66639Y-45643D01*
X66412Y-45870D01*
X66639Y-46097D01*
X66700Y-46074D01*
X66761Y-46097D01*
X66988Y-45870D01*
X66988Y-46294D01*
X66973Y-46309D01*
X67004Y-46394D01*
X67220Y-46429D01*
X67396Y-46394D01*
X67427Y-46309D01*
X67427Y-47210D01*
X66427Y-47210D01*
X66427Y-46309D01*
X66200Y-46082D01*
X65988Y-46294D01*
X65988Y-45870D01*
X65761Y-45643D01*
X65700Y-45665D01*
X65680Y-45657D01*
X65680Y-44966D01*
X65680Y-44775D01*
X65607Y-44599D01*
X65472Y-44463D01*
X65454Y-44455D01*
X65454Y-41461D01*
X65454Y-41280D01*
X65385Y-41113D01*
X65257Y-40985D01*
X65091Y-40916D01*
X64910Y-40916D01*
X64743Y-40985D01*
X64615Y-41113D01*
X64546Y-41279D01*
X64546Y-41460D01*
X64615Y-41627D01*
X64743Y-41755D01*
X64909Y-41824D01*
X65090Y-41824D01*
X65257Y-41755D01*
X65385Y-41627D01*
X65454Y-41461D01*
X65454Y-44455D01*
X65296Y-44390D01*
X65105Y-44390D01*
X64929Y-44463D01*
X64793Y-44598D01*
X64720Y-44774D01*
X64720Y-44965D01*
X64793Y-45141D01*
X64928Y-45277D01*
X65065Y-45333D01*
X65004Y-45346D01*
X64973Y-45431D01*
X65200Y-45658D01*
X65427Y-45431D01*
X65396Y-45346D01*
X65330Y-45335D01*
X65471Y-45277D01*
X65607Y-45142D01*
X65680Y-44966D01*
X65680Y-45657D01*
X65639Y-45643D01*
X65412Y-45870D01*
X65639Y-46097D01*
X65700Y-46074D01*
X65761Y-46097D01*
X65988Y-45870D01*
X65988Y-46294D01*
X65973Y-46309D01*
X66004Y-46394D01*
X66220Y-46429D01*
X66396Y-46394D01*
X66427Y-46309D01*
X66427Y-47210D01*
X65427Y-47210D01*
X65427Y-46309D01*
X65200Y-46082D01*
X64988Y-46294D01*
X64988Y-45870D01*
X64761Y-45643D01*
X64760Y-45643D01*
X64760Y-45621D01*
X64760Y-45570D01*
X64760Y-45518D01*
X64720Y-45422D01*
X64680Y-45382D01*
X64647Y-45349D01*
X64551Y-45310D01*
X64500Y-45310D01*
X64415Y-45310D01*
X64391Y-45310D01*
X64471Y-45277D01*
X64607Y-45142D01*
X64680Y-44966D01*
X64680Y-44775D01*
X64607Y-44599D01*
X64535Y-44526D01*
X64535Y-41697D01*
X64535Y-41594D01*
X64535Y-41572D01*
X64535Y-41168D01*
X64535Y-41146D01*
X64535Y-41043D01*
X64495Y-40947D01*
X64422Y-40874D01*
X64326Y-40835D01*
X64202Y-40835D01*
X64137Y-40900D01*
X64137Y-41233D01*
X64470Y-41233D01*
X64535Y-41168D01*
X64535Y-41572D01*
X64470Y-41507D01*
X64137Y-41507D01*
X64137Y-41840D01*
X64202Y-41905D01*
X64326Y-41905D01*
X64422Y-41866D01*
X64495Y-41793D01*
X64535Y-41697D01*
X64535Y-44526D01*
X64472Y-44463D01*
X64296Y-44390D01*
X64105Y-44390D01*
X63929Y-44463D01*
X63863Y-44528D01*
X63863Y-41840D01*
X63863Y-41507D01*
X63863Y-41233D01*
X63863Y-40900D01*
X63798Y-40835D01*
X63674Y-40835D01*
X63578Y-40874D01*
X63505Y-40947D01*
X63465Y-41043D01*
X63465Y-41146D01*
X63465Y-41168D01*
X63530Y-41233D01*
X63863Y-41233D01*
X63863Y-41507D01*
X63530Y-41507D01*
X63465Y-41572D01*
X63465Y-41594D01*
X63465Y-41697D01*
X63505Y-41793D01*
X63578Y-41866D01*
X63674Y-41905D01*
X63798Y-41905D01*
X63863Y-41840D01*
X63863Y-44528D01*
X63793Y-44598D01*
X63720Y-44774D01*
X63720Y-44965D01*
X63793Y-45141D01*
X63928Y-45277D01*
X64007Y-45310D01*
X63985Y-45310D01*
X63900Y-45310D01*
X63849Y-45310D01*
X63753Y-45349D01*
X63680Y-45422D01*
X63640Y-45518D01*
X63640Y-45621D01*
X63640Y-45655D01*
X63705Y-45720D01*
X64050Y-45720D01*
X64050Y-45630D01*
X64350Y-45630D01*
X64350Y-45720D01*
X64440Y-45720D01*
X64440Y-46020D01*
X64350Y-46020D01*
X64350Y-46365D01*
X64415Y-46430D01*
X64551Y-46430D01*
X64647Y-46391D01*
X64720Y-46318D01*
X64760Y-46222D01*
X64760Y-46170D01*
X64760Y-46119D01*
X64760Y-46096D01*
X64761Y-46097D01*
X64988Y-45870D01*
X64988Y-46294D01*
X64973Y-46309D01*
X65004Y-46394D01*
X65220Y-46429D01*
X65396Y-46394D01*
X65427Y-46309D01*
X65427Y-47210D01*
X64700Y-47210D01*
X64050Y-47210D01*
X64050Y-46365D01*
X64050Y-46020D01*
X63705Y-46020D01*
X63640Y-46085D01*
X63640Y-46119D01*
X63640Y-46222D01*
X63680Y-46318D01*
X63753Y-46391D01*
X63849Y-46430D01*
X63985Y-46430D01*
X64050Y-46365D01*
X64050Y-47210D01*
X62035Y-47210D01*
X63245Y-45999D01*
X63247Y-45998D01*
X63248Y-45998D01*
X63297Y-45923D01*
X63315Y-45835D01*
X63315Y-39381D01*
X63882Y-38813D01*
X63909Y-38824D01*
X64090Y-38824D01*
X64117Y-38812D01*
X64385Y-39080D01*
X64387Y-39083D01*
X64462Y-39132D01*
X64549Y-39150D01*
X64549Y-39149D01*
X64550Y-39150D01*
X69361Y-39150D01*
X75554Y-39150D01*
X75761Y-39356D01*
X75825Y-39420D01*
X75825Y-39752D01*
X75802Y-39775D01*
X75761Y-39873D01*
X75756Y-39885D01*
X75756Y-40004D01*
X75761Y-40016D01*
X75801Y-40114D01*
X75885Y-40198D01*
X75995Y-40244D01*
X76114Y-40244D01*
X76224Y-40199D01*
X76308Y-40115D01*
X76354Y-40005D01*
X76354Y-39886D01*
X76309Y-39776D01*
X76285Y-39752D01*
X76285Y-39325D01*
X76284Y-39324D01*
X76285Y-39324D01*
X76267Y-39237D01*
X76218Y-39162D01*
X76215Y-39160D01*
X75813Y-38757D01*
X75761Y-38723D01*
X75738Y-38708D01*
X75650Y-38689D01*
X75645Y-38690D01*
X71322Y-38690D01*
X71385Y-38627D01*
X71454Y-38461D01*
X71454Y-38280D01*
X71385Y-38113D01*
X71257Y-37985D01*
X71221Y-37970D01*
X71221Y-35684D01*
X71000Y-35464D01*
X70779Y-35684D01*
X70807Y-35769D01*
X71013Y-35805D01*
X71193Y-35769D01*
X71221Y-35684D01*
X71221Y-37970D01*
X71091Y-37916D01*
X70910Y-37916D01*
X70743Y-37985D01*
X70615Y-38113D01*
X70546Y-38279D01*
X70546Y-38460D01*
X70615Y-38627D01*
X70678Y-38690D01*
X70322Y-38690D01*
X70385Y-38627D01*
X70454Y-38461D01*
X70454Y-38280D01*
X70385Y-38113D01*
X70257Y-37985D01*
X70091Y-37916D01*
X69910Y-37916D01*
X69743Y-37985D01*
X69615Y-38113D01*
X69546Y-38279D01*
X69546Y-38460D01*
X69615Y-38627D01*
X69678Y-38690D01*
X69361Y-38690D01*
X69322Y-38690D01*
X69361Y-38651D01*
X69385Y-38627D01*
X69454Y-38461D01*
X69454Y-38280D01*
X69385Y-38113D01*
X69361Y-38089D01*
X69257Y-37985D01*
X69091Y-37916D01*
X68910Y-37916D01*
X68743Y-37985D01*
X68615Y-38113D01*
X68546Y-38279D01*
X68546Y-38460D01*
X68615Y-38627D01*
X68678Y-38690D01*
X68322Y-38690D01*
X68385Y-38627D01*
X68454Y-38461D01*
X68454Y-38280D01*
X68385Y-38113D01*
X68257Y-37985D01*
X68091Y-37916D01*
X67910Y-37916D01*
X67743Y-37985D01*
X67615Y-38113D01*
X67546Y-38279D01*
X67546Y-38460D01*
X67615Y-38627D01*
X67678Y-38690D01*
X67322Y-38690D01*
X67385Y-38627D01*
X67454Y-38461D01*
X67454Y-38280D01*
X67385Y-38113D01*
X67257Y-37985D01*
X67091Y-37916D01*
X66910Y-37916D01*
X66743Y-37985D01*
X66615Y-38113D01*
X66546Y-38279D01*
X66546Y-38460D01*
X66615Y-38627D01*
X66678Y-38690D01*
X66322Y-38690D01*
X66385Y-38627D01*
X66454Y-38461D01*
X66454Y-38280D01*
X66385Y-38113D01*
X66257Y-37985D01*
X66227Y-37972D01*
X66227Y-36989D01*
X66000Y-36762D01*
X65773Y-36989D01*
X65804Y-37074D01*
X66020Y-37109D01*
X66196Y-37074D01*
X66227Y-36989D01*
X66227Y-37972D01*
X66091Y-37916D01*
X65910Y-37916D01*
X65743Y-37985D01*
X65615Y-38113D01*
X65546Y-38279D01*
X65546Y-38460D01*
X65568Y-38514D01*
X65535Y-38481D01*
X65516Y-38462D01*
X65535Y-38357D01*
X65499Y-38177D01*
X65414Y-38149D01*
X65221Y-38342D01*
X65221Y-37956D01*
X65193Y-37871D01*
X64987Y-37835D01*
X64807Y-37871D01*
X64779Y-37956D01*
X65000Y-38176D01*
X65221Y-37956D01*
X65221Y-38342D01*
X65194Y-38370D01*
X65266Y-38443D01*
X65073Y-38637D01*
X65000Y-38564D01*
X64926Y-38636D01*
X64733Y-38443D01*
X64806Y-38370D01*
X64586Y-38149D01*
X64501Y-38177D01*
X64465Y-38383D01*
X64481Y-38464D01*
X64450Y-38495D01*
X64442Y-38487D01*
X64454Y-38461D01*
X64454Y-38280D01*
X64385Y-38113D01*
X64257Y-37985D01*
X64091Y-37916D01*
X63910Y-37916D01*
X63743Y-37985D01*
X63615Y-38113D01*
X63546Y-38279D01*
X63546Y-38460D01*
X63557Y-38486D01*
X62922Y-39122D01*
X62873Y-39197D01*
X62854Y-39285D01*
X62855Y-39289D01*
X62855Y-45739D01*
X62176Y-46418D01*
X62176Y-43974D01*
X62176Y-43766D01*
X62096Y-43573D01*
X61949Y-43426D01*
X61813Y-43370D01*
X61949Y-43314D01*
X62096Y-43167D01*
X62176Y-42974D01*
X62176Y-42766D01*
X62096Y-42573D01*
X61949Y-42426D01*
X61813Y-42370D01*
X61949Y-42314D01*
X62096Y-42167D01*
X62176Y-41974D01*
X62176Y-41766D01*
X62096Y-41573D01*
X61949Y-41426D01*
X61813Y-41370D01*
X61949Y-41314D01*
X62096Y-41167D01*
X62176Y-40974D01*
X62176Y-40766D01*
X62096Y-40573D01*
X61949Y-40426D01*
X61756Y-40346D01*
X61548Y-40346D01*
X60844Y-40346D01*
X60651Y-40426D01*
X60504Y-40573D01*
X60424Y-40766D01*
X60424Y-40974D01*
X60504Y-41167D01*
X60651Y-41314D01*
X60786Y-41370D01*
X60651Y-41426D01*
X60504Y-41573D01*
X60424Y-41766D01*
X60424Y-41974D01*
X60504Y-42167D01*
X60651Y-42314D01*
X60786Y-42370D01*
X60651Y-42426D01*
X60504Y-42573D01*
X60424Y-42766D01*
X60424Y-42974D01*
X60504Y-43167D01*
X60651Y-43314D01*
X60786Y-43370D01*
X60651Y-43426D01*
X60504Y-43573D01*
X60424Y-43766D01*
X60424Y-43974D01*
X60504Y-44167D01*
X60651Y-44314D01*
X60844Y-44394D01*
X61052Y-44394D01*
X61756Y-44394D01*
X61949Y-44314D01*
X62096Y-44167D01*
X62176Y-43974D01*
X62176Y-46418D01*
X61604Y-46990D01*
X59959Y-46990D01*
X59959Y-45850D01*
X59924Y-45674D01*
X59880Y-45657D01*
X59880Y-44966D01*
X59880Y-44775D01*
X59880Y-43966D01*
X59880Y-43775D01*
X59880Y-42966D01*
X59880Y-42775D01*
X59880Y-41966D01*
X59880Y-41775D01*
X59880Y-40966D01*
X59880Y-40775D01*
X59807Y-40599D01*
X59672Y-40463D01*
X59534Y-40406D01*
X59596Y-40394D01*
X59627Y-40309D01*
X59400Y-40082D01*
X59188Y-40294D01*
X59173Y-40309D01*
X59204Y-40394D01*
X59269Y-40404D01*
X59129Y-40463D01*
X58993Y-40598D01*
X58920Y-40774D01*
X58920Y-40965D01*
X58993Y-41141D01*
X59128Y-41277D01*
X59304Y-41350D01*
X59495Y-41350D01*
X59671Y-41277D01*
X59807Y-41142D01*
X59880Y-40966D01*
X59880Y-41775D01*
X59807Y-41599D01*
X59672Y-41463D01*
X59496Y-41390D01*
X59305Y-41390D01*
X59129Y-41463D01*
X58993Y-41598D01*
X58920Y-41774D01*
X58920Y-41965D01*
X58993Y-42141D01*
X59128Y-42277D01*
X59304Y-42350D01*
X59495Y-42350D01*
X59671Y-42277D01*
X59807Y-42142D01*
X59880Y-41966D01*
X59880Y-42775D01*
X59807Y-42599D01*
X59672Y-42463D01*
X59496Y-42390D01*
X59305Y-42390D01*
X59129Y-42463D01*
X58993Y-42598D01*
X58920Y-42774D01*
X58920Y-42965D01*
X58993Y-43141D01*
X59128Y-43277D01*
X59304Y-43350D01*
X59495Y-43350D01*
X59671Y-43277D01*
X59807Y-43142D01*
X59880Y-42966D01*
X59880Y-43775D01*
X59807Y-43599D01*
X59672Y-43463D01*
X59496Y-43390D01*
X59305Y-43390D01*
X59129Y-43463D01*
X58993Y-43598D01*
X58920Y-43774D01*
X58920Y-43965D01*
X58993Y-44141D01*
X59128Y-44277D01*
X59304Y-44350D01*
X59495Y-44350D01*
X59671Y-44277D01*
X59807Y-44142D01*
X59880Y-43966D01*
X59880Y-44775D01*
X59807Y-44599D01*
X59672Y-44463D01*
X59496Y-44390D01*
X59305Y-44390D01*
X59129Y-44463D01*
X58993Y-44598D01*
X58920Y-44774D01*
X58920Y-44965D01*
X58993Y-45141D01*
X59128Y-45277D01*
X59265Y-45333D01*
X59204Y-45346D01*
X59173Y-45431D01*
X59400Y-45658D01*
X59627Y-45431D01*
X59596Y-45346D01*
X59530Y-45335D01*
X59671Y-45277D01*
X59807Y-45142D01*
X59880Y-44966D01*
X59880Y-45657D01*
X59839Y-45643D01*
X59612Y-45870D01*
X59839Y-46097D01*
X59924Y-46066D01*
X59959Y-45850D01*
X59959Y-46990D01*
X59627Y-46990D01*
X59627Y-46309D01*
X59400Y-46082D01*
X59188Y-46294D01*
X59188Y-45870D01*
X58961Y-45643D01*
X58876Y-45674D01*
X58841Y-45890D01*
X58876Y-46066D01*
X58961Y-46097D01*
X59188Y-45870D01*
X59188Y-46294D01*
X59173Y-46309D01*
X59204Y-46394D01*
X59420Y-46429D01*
X59596Y-46394D01*
X59627Y-46309D01*
X59627Y-46990D01*
X58508Y-46990D01*
X58508Y-39036D01*
X58475Y-38868D01*
X58389Y-38829D01*
X58147Y-39070D01*
X58389Y-39311D01*
X58475Y-39272D01*
X58508Y-39036D01*
X58508Y-46990D01*
X58380Y-46990D01*
X58380Y-45766D01*
X58380Y-45575D01*
X58380Y-45006D01*
X58380Y-44934D01*
X58380Y-44334D01*
X58353Y-44268D01*
X58302Y-44217D01*
X58236Y-44190D01*
X58164Y-44190D01*
X58141Y-44190D01*
X58141Y-39559D01*
X57900Y-39317D01*
X57659Y-39559D01*
X57698Y-39645D01*
X57934Y-39678D01*
X58102Y-39645D01*
X58141Y-39559D01*
X58141Y-44190D01*
X57653Y-44190D01*
X57653Y-39070D01*
X57411Y-38829D01*
X57325Y-38868D01*
X57292Y-39104D01*
X57325Y-39272D01*
X57411Y-39311D01*
X57653Y-39070D01*
X57653Y-44190D01*
X57564Y-44190D01*
X57498Y-44217D01*
X57447Y-44268D01*
X57420Y-44334D01*
X57420Y-44406D01*
X57420Y-45006D01*
X57447Y-45072D01*
X57498Y-45123D01*
X57564Y-45150D01*
X57636Y-45150D01*
X58236Y-45150D01*
X58302Y-45123D01*
X58353Y-45072D01*
X58380Y-45006D01*
X58380Y-45575D01*
X58307Y-45399D01*
X58172Y-45263D01*
X57996Y-45190D01*
X57805Y-45190D01*
X57629Y-45263D01*
X57493Y-45398D01*
X57420Y-45574D01*
X57420Y-45765D01*
X57493Y-45941D01*
X57628Y-46077D01*
X57804Y-46150D01*
X57995Y-46150D01*
X58171Y-46077D01*
X58307Y-45942D01*
X58380Y-45766D01*
X58380Y-46990D01*
X57380Y-46990D01*
X57380Y-45766D01*
X57380Y-45575D01*
X57380Y-44766D01*
X57380Y-44575D01*
X57307Y-44399D01*
X57172Y-44263D01*
X56996Y-44190D01*
X56805Y-44190D01*
X56629Y-44263D01*
X56493Y-44398D01*
X56420Y-44574D01*
X56420Y-44765D01*
X56493Y-44941D01*
X56628Y-45077D01*
X56804Y-45150D01*
X56995Y-45150D01*
X57171Y-45077D01*
X57307Y-44942D01*
X57380Y-44766D01*
X57380Y-45575D01*
X57307Y-45399D01*
X57172Y-45263D01*
X56996Y-45190D01*
X56805Y-45190D01*
X56629Y-45263D01*
X56493Y-45398D01*
X56420Y-45574D01*
X56420Y-45765D01*
X56493Y-45941D01*
X56628Y-46077D01*
X56804Y-46150D01*
X56995Y-46150D01*
X57171Y-46077D01*
X57307Y-45942D01*
X57380Y-45766D01*
X57380Y-46990D01*
X56380Y-46990D01*
X56380Y-45766D01*
X56380Y-45575D01*
X56380Y-44766D01*
X56380Y-44575D01*
X56307Y-44399D01*
X56172Y-44263D01*
X55996Y-44190D01*
X55805Y-44190D01*
X55629Y-44263D01*
X55493Y-44398D01*
X55420Y-44574D01*
X55420Y-44765D01*
X55493Y-44941D01*
X55628Y-45077D01*
X55804Y-45150D01*
X55995Y-45150D01*
X56171Y-45077D01*
X56307Y-44942D01*
X56380Y-44766D01*
X56380Y-45575D01*
X56307Y-45399D01*
X56172Y-45263D01*
X55996Y-45190D01*
X55805Y-45190D01*
X55629Y-45263D01*
X55493Y-45398D01*
X55420Y-45574D01*
X55420Y-45765D01*
X55493Y-45941D01*
X55628Y-46077D01*
X55804Y-46150D01*
X55995Y-46150D01*
X56171Y-46077D01*
X56307Y-45942D01*
X56380Y-45766D01*
X56380Y-46990D01*
X54880Y-46990D01*
X54880Y-45966D01*
X54880Y-45775D01*
X54880Y-44966D01*
X54880Y-44775D01*
X54880Y-43966D01*
X54880Y-43775D01*
X54880Y-42966D01*
X54880Y-42775D01*
X54880Y-41966D01*
X54880Y-41775D01*
X54880Y-40966D01*
X54880Y-40775D01*
X54880Y-39966D01*
X54880Y-39775D01*
X54807Y-39599D01*
X54672Y-39463D01*
X54496Y-39390D01*
X54305Y-39390D01*
X54129Y-39463D01*
X53993Y-39598D01*
X53920Y-39774D01*
X53920Y-39965D01*
X53993Y-40141D01*
X54128Y-40277D01*
X54304Y-40350D01*
X54495Y-40350D01*
X54671Y-40277D01*
X54807Y-40142D01*
X54880Y-39966D01*
X54880Y-40775D01*
X54807Y-40599D01*
X54672Y-40463D01*
X54496Y-40390D01*
X54305Y-40390D01*
X54129Y-40463D01*
X53993Y-40598D01*
X53920Y-40774D01*
X53920Y-40965D01*
X53993Y-41141D01*
X54128Y-41277D01*
X54304Y-41350D01*
X54495Y-41350D01*
X54671Y-41277D01*
X54807Y-41142D01*
X54880Y-40966D01*
X54880Y-41775D01*
X54807Y-41599D01*
X54672Y-41463D01*
X54496Y-41390D01*
X54305Y-41390D01*
X54129Y-41463D01*
X53993Y-41598D01*
X53920Y-41774D01*
X53920Y-41965D01*
X53993Y-42141D01*
X54128Y-42277D01*
X54304Y-42350D01*
X54495Y-42350D01*
X54671Y-42277D01*
X54807Y-42142D01*
X54880Y-41966D01*
X54880Y-42775D01*
X54807Y-42599D01*
X54672Y-42463D01*
X54496Y-42390D01*
X54305Y-42390D01*
X54129Y-42463D01*
X53993Y-42598D01*
X53920Y-42774D01*
X53920Y-42965D01*
X53993Y-43141D01*
X54128Y-43277D01*
X54304Y-43350D01*
X54495Y-43350D01*
X54671Y-43277D01*
X54807Y-43142D01*
X54880Y-42966D01*
X54880Y-43775D01*
X54807Y-43599D01*
X54672Y-43463D01*
X54496Y-43390D01*
X54305Y-43390D01*
X54129Y-43463D01*
X53993Y-43598D01*
X53920Y-43774D01*
X53920Y-43965D01*
X53993Y-44141D01*
X54128Y-44277D01*
X54304Y-44350D01*
X54495Y-44350D01*
X54671Y-44277D01*
X54807Y-44142D01*
X54880Y-43966D01*
X54880Y-44775D01*
X54807Y-44599D01*
X54672Y-44463D01*
X54496Y-44390D01*
X54305Y-44390D01*
X54129Y-44463D01*
X53993Y-44598D01*
X53920Y-44774D01*
X53920Y-44965D01*
X53993Y-45141D01*
X54128Y-45277D01*
X54304Y-45350D01*
X54495Y-45350D01*
X54671Y-45277D01*
X54807Y-45142D01*
X54880Y-44966D01*
X54880Y-45775D01*
X54807Y-45599D01*
X54672Y-45463D01*
X54496Y-45390D01*
X54305Y-45390D01*
X54129Y-45463D01*
X53993Y-45598D01*
X53920Y-45774D01*
X53920Y-45965D01*
X53993Y-46141D01*
X54128Y-46277D01*
X54304Y-46350D01*
X54495Y-46350D01*
X54671Y-46277D01*
X54807Y-46142D01*
X54880Y-45966D01*
X54880Y-46990D01*
X53376Y-46990D01*
X53376Y-43974D01*
X53376Y-43766D01*
X53296Y-43573D01*
X53149Y-43426D01*
X53013Y-43370D01*
X53149Y-43314D01*
X53296Y-43167D01*
X53376Y-42974D01*
X53376Y-42766D01*
X53296Y-42573D01*
X53149Y-42426D01*
X53013Y-42370D01*
X53149Y-42314D01*
X53296Y-42167D01*
X53376Y-41974D01*
X53376Y-41766D01*
X53296Y-41573D01*
X53149Y-41426D01*
X53013Y-41370D01*
X53149Y-41314D01*
X53296Y-41167D01*
X53376Y-40974D01*
X53376Y-40766D01*
X53296Y-40573D01*
X53149Y-40426D01*
X52956Y-40346D01*
X52748Y-40346D01*
X52044Y-40346D01*
X51851Y-40426D01*
X51704Y-40573D01*
X51624Y-40766D01*
X51624Y-40974D01*
X51704Y-41167D01*
X51851Y-41314D01*
X51986Y-41370D01*
X51851Y-41426D01*
X51704Y-41573D01*
X51624Y-41766D01*
X51624Y-41974D01*
X51704Y-42167D01*
X51851Y-42314D01*
X51986Y-42370D01*
X51851Y-42426D01*
X51704Y-42573D01*
X51624Y-42766D01*
X51624Y-42974D01*
X51704Y-43167D01*
X51851Y-43314D01*
X51986Y-43370D01*
X51851Y-43426D01*
X51704Y-43573D01*
X51624Y-43766D01*
X51624Y-43974D01*
X51704Y-44167D01*
X51851Y-44314D01*
X52044Y-44394D01*
X52252Y-44394D01*
X52956Y-44394D01*
X53149Y-44314D01*
X53296Y-44167D01*
X53376Y-43974D01*
X53376Y-46990D01*
X51159Y-46990D01*
X51159Y-45850D01*
X51159Y-39850D01*
X51124Y-39674D01*
X51080Y-39657D01*
X51080Y-38966D01*
X51080Y-38775D01*
X51007Y-38599D01*
X50872Y-38463D01*
X50696Y-38390D01*
X50505Y-38390D01*
X50329Y-38463D01*
X50193Y-38598D01*
X50120Y-38774D01*
X50120Y-38965D01*
X50193Y-39141D01*
X50328Y-39277D01*
X50465Y-39333D01*
X50404Y-39346D01*
X50373Y-39431D01*
X50600Y-39658D01*
X50827Y-39431D01*
X50796Y-39346D01*
X50730Y-39335D01*
X50871Y-39277D01*
X51007Y-39142D01*
X51080Y-38966D01*
X51080Y-39657D01*
X51039Y-39643D01*
X50812Y-39870D01*
X51039Y-40097D01*
X51124Y-40066D01*
X51159Y-39850D01*
X51159Y-45850D01*
X51124Y-45674D01*
X51080Y-45657D01*
X51080Y-44966D01*
X51080Y-44775D01*
X51080Y-43966D01*
X51080Y-43775D01*
X51080Y-42966D01*
X51080Y-42775D01*
X51080Y-41966D01*
X51080Y-41775D01*
X51080Y-40966D01*
X51080Y-40775D01*
X51007Y-40599D01*
X50872Y-40463D01*
X50734Y-40406D01*
X50796Y-40394D01*
X50827Y-40309D01*
X50600Y-40082D01*
X50388Y-40294D01*
X50388Y-39870D01*
X50161Y-39643D01*
X50076Y-39674D01*
X50041Y-39890D01*
X50076Y-40066D01*
X50161Y-40097D01*
X50388Y-39870D01*
X50388Y-40294D01*
X50373Y-40309D01*
X50404Y-40394D01*
X50469Y-40404D01*
X50329Y-40463D01*
X50193Y-40598D01*
X50120Y-40774D01*
X50120Y-40965D01*
X50193Y-41141D01*
X50328Y-41277D01*
X50504Y-41350D01*
X50695Y-41350D01*
X50871Y-41277D01*
X51007Y-41142D01*
X51080Y-40966D01*
X51080Y-41775D01*
X51007Y-41599D01*
X50872Y-41463D01*
X50696Y-41390D01*
X50505Y-41390D01*
X50329Y-41463D01*
X50193Y-41598D01*
X50120Y-41774D01*
X50120Y-41965D01*
X50193Y-42141D01*
X50328Y-42277D01*
X50504Y-42350D01*
X50695Y-42350D01*
X50871Y-42277D01*
X51007Y-42142D01*
X51080Y-41966D01*
X51080Y-42775D01*
X51007Y-42599D01*
X50872Y-42463D01*
X50696Y-42390D01*
X50505Y-42390D01*
X50329Y-42463D01*
X50193Y-42598D01*
X50120Y-42774D01*
X50120Y-42965D01*
X50193Y-43141D01*
X50328Y-43277D01*
X50504Y-43350D01*
X50695Y-43350D01*
X50871Y-43277D01*
X51007Y-43142D01*
X51080Y-42966D01*
X51080Y-43775D01*
X51007Y-43599D01*
X50872Y-43463D01*
X50696Y-43390D01*
X50505Y-43390D01*
X50329Y-43463D01*
X50193Y-43598D01*
X50120Y-43774D01*
X50120Y-43965D01*
X50193Y-44141D01*
X50328Y-44277D01*
X50504Y-44350D01*
X50695Y-44350D01*
X50871Y-44277D01*
X51007Y-44142D01*
X51080Y-43966D01*
X51080Y-44775D01*
X51007Y-44599D01*
X50872Y-44463D01*
X50696Y-44390D01*
X50505Y-44390D01*
X50329Y-44463D01*
X50193Y-44598D01*
X50120Y-44774D01*
X50120Y-44965D01*
X50193Y-45141D01*
X50328Y-45277D01*
X50465Y-45333D01*
X50404Y-45346D01*
X50373Y-45431D01*
X50600Y-45658D01*
X50827Y-45431D01*
X50796Y-45346D01*
X50730Y-45335D01*
X50871Y-45277D01*
X51007Y-45142D01*
X51080Y-44966D01*
X51080Y-45657D01*
X51039Y-45643D01*
X50812Y-45870D01*
X51039Y-46097D01*
X51124Y-46066D01*
X51159Y-45850D01*
X51159Y-46990D01*
X50827Y-46990D01*
X50827Y-46309D01*
X50600Y-46082D01*
X50388Y-46294D01*
X50388Y-45870D01*
X50161Y-45643D01*
X50076Y-45674D01*
X50041Y-45890D01*
X50076Y-46066D01*
X50161Y-46097D01*
X50388Y-45870D01*
X50388Y-46294D01*
X50373Y-46309D01*
X50404Y-46394D01*
X50620Y-46429D01*
X50796Y-46394D01*
X50827Y-46309D01*
X50827Y-46990D01*
X49708Y-46990D01*
X49708Y-39036D01*
X49675Y-38868D01*
X49589Y-38829D01*
X49347Y-39070D01*
X49589Y-39311D01*
X49675Y-39272D01*
X49708Y-39036D01*
X49708Y-46990D01*
X49580Y-46990D01*
X49580Y-45766D01*
X49580Y-45575D01*
X49580Y-45006D01*
X49580Y-44934D01*
X49580Y-44334D01*
X49553Y-44268D01*
X49502Y-44217D01*
X49436Y-44190D01*
X49364Y-44190D01*
X49341Y-44190D01*
X49341Y-39559D01*
X49341Y-38581D01*
X49302Y-38495D01*
X49066Y-38462D01*
X48898Y-38495D01*
X48859Y-38581D01*
X49100Y-38823D01*
X49341Y-38581D01*
X49341Y-39559D01*
X49100Y-39317D01*
X48859Y-39559D01*
X48898Y-39645D01*
X49134Y-39678D01*
X49302Y-39645D01*
X49341Y-39559D01*
X49341Y-44190D01*
X48853Y-44190D01*
X48853Y-39070D01*
X48611Y-38829D01*
X48525Y-38868D01*
X48492Y-39104D01*
X48525Y-39272D01*
X48611Y-39311D01*
X48853Y-39070D01*
X48853Y-44190D01*
X48764Y-44190D01*
X48698Y-44217D01*
X48647Y-44268D01*
X48620Y-44334D01*
X48620Y-44406D01*
X48620Y-45006D01*
X48647Y-45072D01*
X48698Y-45123D01*
X48764Y-45150D01*
X48836Y-45150D01*
X49436Y-45150D01*
X49502Y-45123D01*
X49553Y-45072D01*
X49580Y-45006D01*
X49580Y-45575D01*
X49507Y-45399D01*
X49372Y-45263D01*
X49196Y-45190D01*
X49005Y-45190D01*
X48829Y-45263D01*
X48693Y-45398D01*
X48620Y-45574D01*
X48620Y-45765D01*
X48693Y-45941D01*
X48828Y-46077D01*
X49004Y-46150D01*
X49195Y-46150D01*
X49371Y-46077D01*
X49507Y-45942D01*
X49580Y-45766D01*
X49580Y-46990D01*
X48580Y-46990D01*
X48580Y-45766D01*
X48580Y-45575D01*
X48580Y-44766D01*
X48580Y-44575D01*
X48507Y-44399D01*
X48372Y-44263D01*
X48196Y-44190D01*
X48005Y-44190D01*
X47829Y-44263D01*
X47693Y-44398D01*
X47620Y-44574D01*
X47620Y-44765D01*
X47693Y-44941D01*
X47828Y-45077D01*
X48004Y-45150D01*
X48195Y-45150D01*
X48371Y-45077D01*
X48507Y-44942D01*
X48580Y-44766D01*
X48580Y-45575D01*
X48507Y-45399D01*
X48372Y-45263D01*
X48196Y-45190D01*
X48005Y-45190D01*
X47829Y-45263D01*
X47693Y-45398D01*
X47620Y-45574D01*
X47620Y-45765D01*
X47693Y-45941D01*
X47828Y-46077D01*
X48004Y-46150D01*
X48195Y-46150D01*
X48371Y-46077D01*
X48507Y-45942D01*
X48580Y-45766D01*
X48580Y-46990D01*
X42376Y-46990D01*
X42150Y-46764D01*
X42150Y-45670D01*
X42132Y-45582D01*
X42083Y-45507D01*
X42080Y-45505D01*
X41333Y-44757D01*
X41258Y-44708D01*
X41170Y-44689D01*
X41165Y-44690D01*
X40065Y-44690D01*
X39880Y-44504D01*
X39880Y-40215D01*
X40927Y-39168D01*
X41059Y-39168D01*
X41123Y-39323D01*
X41315Y-39514D01*
X41564Y-39618D01*
X41835Y-39618D01*
X42085Y-39515D01*
X42276Y-39323D01*
X42380Y-39074D01*
X42380Y-38803D01*
X42277Y-38553D01*
X42085Y-38362D01*
X41991Y-38322D01*
X41991Y-37601D01*
X41991Y-36339D01*
X41930Y-36245D01*
X41635Y-36212D01*
X41470Y-36245D01*
X41409Y-36339D01*
X41700Y-36631D01*
X41991Y-36339D01*
X41991Y-37601D01*
X41700Y-37309D01*
X41409Y-37601D01*
X41470Y-37695D01*
X41765Y-37728D01*
X41930Y-37695D01*
X41991Y-37601D01*
X41991Y-38322D01*
X41836Y-38258D01*
X41565Y-38258D01*
X41361Y-38342D01*
X41361Y-36970D01*
X41069Y-36679D01*
X40975Y-36740D01*
X40942Y-37035D01*
X40975Y-37200D01*
X41069Y-37261D01*
X41361Y-36970D01*
X41361Y-38342D01*
X41315Y-38361D01*
X41124Y-38553D01*
X41059Y-38708D01*
X40832Y-38708D01*
X40744Y-38726D01*
X40669Y-38775D01*
X40667Y-38777D01*
X39660Y-39784D01*
X39660Y-31176D01*
X39687Y-31040D01*
X39760Y-30930D01*
X39870Y-30857D01*
X40006Y-30830D01*
X41506Y-30830D01*
X41676Y-30797D01*
X41826Y-30696D01*
X41927Y-30546D01*
X41960Y-30376D01*
X41960Y-28876D01*
X41987Y-28740D01*
X42060Y-28630D01*
X42170Y-28557D01*
X42306Y-28530D01*
X75794Y-28530D01*
X75930Y-28557D01*
X76040Y-28630D01*
X76113Y-28740D01*
X76140Y-28876D01*
X76140Y-30376D01*
X76173Y-30546D01*
X76274Y-30696D01*
X76424Y-30797D01*
X76594Y-30830D01*
X78094Y-30830D01*
X78230Y-30857D01*
X78340Y-30930D01*
X78413Y-31040D01*
X78440Y-31176D01*
X78440Y-44564D01*
X78440Y-44564D01*
G37*
G54D25*
X78440Y-44564D02*
X78413Y-44700D01*
X78340Y-44810D01*
X78230Y-44883D01*
X78094Y-44910D01*
X77454Y-44910D01*
X77454Y-35361D01*
X77454Y-35180D01*
X77454Y-32361D01*
X77454Y-32180D01*
X77385Y-32013D01*
X77257Y-31885D01*
X77091Y-31816D01*
X76910Y-31816D01*
X76743Y-31885D01*
X76615Y-32013D01*
X76546Y-32179D01*
X76546Y-32360D01*
X76615Y-32527D01*
X76743Y-32655D01*
X76909Y-32724D01*
X77090Y-32724D01*
X77257Y-32655D01*
X77385Y-32527D01*
X77454Y-32361D01*
X77454Y-35180D01*
X77385Y-35013D01*
X77257Y-34885D01*
X77091Y-34816D01*
X76910Y-34816D01*
X76743Y-34885D01*
X76615Y-35013D01*
X76546Y-35179D01*
X76546Y-35360D01*
X76615Y-35527D01*
X76743Y-35655D01*
X76909Y-35724D01*
X77090Y-35724D01*
X77257Y-35655D01*
X77385Y-35527D01*
X77454Y-35361D01*
X77454Y-44910D01*
X76594Y-44910D01*
X76499Y-44928D01*
X76499Y-41055D01*
X76499Y-40936D01*
X76454Y-40826D01*
X76454Y-35361D01*
X76454Y-35180D01*
X76454Y-32361D01*
X76454Y-32180D01*
X76385Y-32013D01*
X76257Y-31885D01*
X76091Y-31816D01*
X76059Y-31816D01*
X76059Y-29770D01*
X76024Y-29594D01*
X75939Y-29563D01*
X75727Y-29775D01*
X75727Y-29351D01*
X75696Y-29266D01*
X75480Y-29231D01*
X75304Y-29266D01*
X75273Y-29351D01*
X75500Y-29578D01*
X75727Y-29351D01*
X75727Y-29775D01*
X75712Y-29790D01*
X75939Y-30017D01*
X76024Y-29986D01*
X76059Y-29770D01*
X76059Y-31816D01*
X75910Y-31816D01*
X75743Y-31885D01*
X75727Y-31901D01*
X75727Y-30229D01*
X75500Y-30002D01*
X75288Y-30214D01*
X75288Y-29790D01*
X75061Y-29563D01*
X74976Y-29594D01*
X74946Y-29774D01*
X74907Y-29679D01*
X74772Y-29543D01*
X74596Y-29470D01*
X74405Y-29470D01*
X74229Y-29543D01*
X74093Y-29678D01*
X74020Y-29854D01*
X74020Y-30045D01*
X74093Y-30221D01*
X74228Y-30357D01*
X74404Y-30430D01*
X74595Y-30430D01*
X74771Y-30357D01*
X74907Y-30222D01*
X74980Y-30046D01*
X74980Y-29987D01*
X75061Y-30017D01*
X75288Y-29790D01*
X75288Y-30214D01*
X75273Y-30229D01*
X75304Y-30314D01*
X75520Y-30349D01*
X75696Y-30314D01*
X75727Y-30229D01*
X75727Y-31901D01*
X75615Y-32013D01*
X75546Y-32179D01*
X75546Y-32360D01*
X75615Y-32527D01*
X75743Y-32655D01*
X75909Y-32724D01*
X76090Y-32724D01*
X76257Y-32655D01*
X76385Y-32527D01*
X76454Y-32361D01*
X76454Y-35180D01*
X76385Y-35013D01*
X76257Y-34885D01*
X76091Y-34816D01*
X75914Y-34816D01*
X75454Y-34356D01*
X75454Y-32361D01*
X75454Y-32180D01*
X75385Y-32013D01*
X75257Y-31885D01*
X75091Y-31816D01*
X74910Y-31816D01*
X74743Y-31885D01*
X74615Y-32013D01*
X74546Y-32179D01*
X74546Y-32360D01*
X74615Y-32527D01*
X74743Y-32655D01*
X74909Y-32724D01*
X75090Y-32724D01*
X75257Y-32655D01*
X75385Y-32527D01*
X75454Y-32361D01*
X75454Y-34356D01*
X74546Y-33448D01*
X74462Y-33392D01*
X74454Y-33390D01*
X74454Y-32361D01*
X74454Y-32180D01*
X74385Y-32013D01*
X74257Y-31885D01*
X74091Y-31816D01*
X73980Y-31816D01*
X73980Y-29886D01*
X73980Y-29695D01*
X73907Y-29519D01*
X73772Y-29383D01*
X73596Y-29310D01*
X73405Y-29310D01*
X73229Y-29383D01*
X73093Y-29518D01*
X73020Y-29694D01*
X73020Y-29885D01*
X73093Y-30061D01*
X73228Y-30197D01*
X73404Y-30270D01*
X73595Y-30270D01*
X73771Y-30197D01*
X73907Y-30062D01*
X73980Y-29886D01*
X73980Y-31816D01*
X73910Y-31816D01*
X73743Y-31885D01*
X73615Y-32013D01*
X73546Y-32179D01*
X73546Y-32360D01*
X73615Y-32527D01*
X73743Y-32655D01*
X73909Y-32724D01*
X74090Y-32724D01*
X74257Y-32655D01*
X74385Y-32527D01*
X74454Y-32361D01*
X74454Y-33390D01*
X74362Y-33372D01*
X73535Y-33372D01*
X73535Y-32257D01*
X73499Y-32077D01*
X73414Y-32049D01*
X73221Y-32242D01*
X73221Y-31856D01*
X73193Y-31771D01*
X72987Y-31735D01*
X72980Y-31736D01*
X72980Y-30046D01*
X72980Y-29855D01*
X72907Y-29679D01*
X72772Y-29543D01*
X72596Y-29470D01*
X72405Y-29470D01*
X72229Y-29543D01*
X72093Y-29678D01*
X72020Y-29854D01*
X72020Y-30045D01*
X72093Y-30221D01*
X72228Y-30357D01*
X72404Y-30430D01*
X72595Y-30430D01*
X72771Y-30357D01*
X72907Y-30222D01*
X72980Y-30046D01*
X72980Y-31736D01*
X72807Y-31771D01*
X72779Y-31856D01*
X73000Y-32076D01*
X73221Y-31856D01*
X73221Y-32242D01*
X73194Y-32270D01*
X73414Y-32491D01*
X73499Y-32463D01*
X73535Y-32257D01*
X73535Y-33372D01*
X73221Y-33372D01*
X73221Y-32684D01*
X73000Y-32464D01*
X72806Y-32657D01*
X72806Y-32270D01*
X72586Y-32049D01*
X72501Y-32077D01*
X72465Y-32283D01*
X72501Y-32463D01*
X72586Y-32491D01*
X72806Y-32270D01*
X72806Y-32657D01*
X72779Y-32684D01*
X72807Y-32769D01*
X73013Y-32805D01*
X73193Y-32769D01*
X73221Y-32684D01*
X73221Y-33372D01*
X72454Y-33372D01*
X72454Y-32361D01*
X72454Y-32180D01*
X72385Y-32013D01*
X72257Y-31885D01*
X72091Y-31816D01*
X71980Y-31816D01*
X71980Y-29886D01*
X71980Y-29695D01*
X71907Y-29519D01*
X71772Y-29383D01*
X71596Y-29310D01*
X71405Y-29310D01*
X71229Y-29383D01*
X71093Y-29518D01*
X71020Y-29694D01*
X71020Y-29885D01*
X71093Y-30061D01*
X71228Y-30197D01*
X71404Y-30270D01*
X71595Y-30270D01*
X71771Y-30197D01*
X71907Y-30062D01*
X71980Y-29886D01*
X71980Y-31816D01*
X71910Y-31816D01*
X71743Y-31885D01*
X71615Y-32013D01*
X71546Y-32179D01*
X71546Y-32360D01*
X71615Y-32527D01*
X71743Y-32655D01*
X71909Y-32724D01*
X72090Y-32724D01*
X72257Y-32655D01*
X72385Y-32527D01*
X72454Y-32361D01*
X72454Y-33372D01*
X71454Y-33372D01*
X71454Y-32361D01*
X71454Y-32180D01*
X71385Y-32013D01*
X71257Y-31885D01*
X71091Y-31816D01*
X70980Y-31816D01*
X70980Y-30286D01*
X70980Y-30214D01*
X70980Y-29614D01*
X70953Y-29548D01*
X70902Y-29497D01*
X70836Y-29470D01*
X70764Y-29470D01*
X70164Y-29470D01*
X70098Y-29497D01*
X70047Y-29548D01*
X70020Y-29614D01*
X70020Y-29686D01*
X70020Y-30286D01*
X70047Y-30352D01*
X70098Y-30403D01*
X70164Y-30430D01*
X70236Y-30430D01*
X70836Y-30430D01*
X70902Y-30403D01*
X70953Y-30352D01*
X70980Y-30286D01*
X70980Y-31816D01*
X70910Y-31816D01*
X70743Y-31885D01*
X70615Y-32013D01*
X70546Y-32179D01*
X70546Y-32360D01*
X70615Y-32527D01*
X70743Y-32655D01*
X70909Y-32724D01*
X71090Y-32724D01*
X71257Y-32655D01*
X71385Y-32527D01*
X71454Y-32361D01*
X71454Y-33372D01*
X70454Y-33372D01*
X70454Y-32361D01*
X70454Y-32180D01*
X70385Y-32013D01*
X70257Y-31885D01*
X70091Y-31816D01*
X69910Y-31816D01*
X69743Y-31885D01*
X69615Y-32013D01*
X69559Y-32147D01*
X69559Y-29850D01*
X69524Y-29674D01*
X69439Y-29643D01*
X69227Y-29855D01*
X69227Y-29431D01*
X69196Y-29346D01*
X68980Y-29311D01*
X68804Y-29346D01*
X68773Y-29431D01*
X69000Y-29658D01*
X69227Y-29431D01*
X69227Y-29855D01*
X69212Y-29870D01*
X69439Y-30097D01*
X69524Y-30066D01*
X69559Y-29850D01*
X69559Y-32147D01*
X69546Y-32179D01*
X69546Y-32360D01*
X69615Y-32527D01*
X69743Y-32655D01*
X69909Y-32724D01*
X70090Y-32724D01*
X70257Y-32655D01*
X70385Y-32527D01*
X70454Y-32361D01*
X70454Y-33372D01*
X69660Y-33372D01*
X69480Y-33192D01*
X69480Y-30966D01*
X69480Y-30775D01*
X69407Y-30599D01*
X69272Y-30463D01*
X69134Y-30406D01*
X69196Y-30394D01*
X69227Y-30309D01*
X69000Y-30082D01*
X68788Y-30294D01*
X68788Y-29870D01*
X68561Y-29643D01*
X68500Y-29665D01*
X68439Y-29643D01*
X68227Y-29855D01*
X68227Y-29431D01*
X68196Y-29346D01*
X67980Y-29311D01*
X67804Y-29346D01*
X67773Y-29431D01*
X68000Y-29658D01*
X68227Y-29431D01*
X68227Y-29855D01*
X68212Y-29870D01*
X68439Y-30097D01*
X68500Y-30074D01*
X68561Y-30097D01*
X68788Y-29870D01*
X68788Y-30294D01*
X68773Y-30309D01*
X68804Y-30394D01*
X68869Y-30404D01*
X68729Y-30463D01*
X68593Y-30598D01*
X68520Y-30774D01*
X68520Y-30965D01*
X68593Y-31141D01*
X68728Y-31277D01*
X68904Y-31350D01*
X69095Y-31350D01*
X69271Y-31277D01*
X69407Y-31142D01*
X69480Y-30966D01*
X69480Y-33192D01*
X69454Y-33166D01*
X69454Y-32361D01*
X69454Y-32180D01*
X69385Y-32013D01*
X69257Y-31885D01*
X69091Y-31816D01*
X68910Y-31816D01*
X68743Y-31885D01*
X68615Y-32013D01*
X68546Y-32179D01*
X68546Y-32360D01*
X68615Y-32527D01*
X68743Y-32655D01*
X68909Y-32724D01*
X69090Y-32724D01*
X69257Y-32655D01*
X69385Y-32527D01*
X69454Y-32361D01*
X69454Y-33166D01*
X69374Y-33086D01*
X69290Y-33030D01*
X69190Y-33010D01*
X68480Y-33010D01*
X68480Y-30966D01*
X68480Y-30775D01*
X68407Y-30599D01*
X68272Y-30463D01*
X68134Y-30406D01*
X68196Y-30394D01*
X68227Y-30309D01*
X68000Y-30082D01*
X67788Y-30294D01*
X67788Y-29870D01*
X67561Y-29643D01*
X67500Y-29665D01*
X67439Y-29643D01*
X67227Y-29855D01*
X67227Y-29431D01*
X67196Y-29346D01*
X66980Y-29311D01*
X66804Y-29346D01*
X66773Y-29431D01*
X67000Y-29658D01*
X67227Y-29431D01*
X67227Y-29855D01*
X67212Y-29870D01*
X67439Y-30097D01*
X67500Y-30074D01*
X67561Y-30097D01*
X67788Y-29870D01*
X67788Y-30294D01*
X67773Y-30309D01*
X67804Y-30394D01*
X67869Y-30404D01*
X67729Y-30463D01*
X67593Y-30598D01*
X67520Y-30774D01*
X67520Y-30965D01*
X67593Y-31141D01*
X67728Y-31277D01*
X67904Y-31350D01*
X68095Y-31350D01*
X68271Y-31277D01*
X68407Y-31142D01*
X68480Y-30966D01*
X68480Y-33010D01*
X68454Y-33010D01*
X68454Y-32361D01*
X68454Y-32180D01*
X68385Y-32013D01*
X68257Y-31885D01*
X68091Y-31816D01*
X67910Y-31816D01*
X67743Y-31885D01*
X67615Y-32013D01*
X67546Y-32179D01*
X67546Y-32360D01*
X67615Y-32527D01*
X67743Y-32655D01*
X67909Y-32724D01*
X68090Y-32724D01*
X68257Y-32655D01*
X68385Y-32527D01*
X68454Y-32361D01*
X68454Y-33010D01*
X68120Y-33010D01*
X68119Y-33010D01*
X68099Y-33014D01*
X68021Y-33030D01*
X67936Y-33086D01*
X67934Y-33088D01*
X67684Y-33338D01*
X67480Y-33338D01*
X67480Y-30966D01*
X67480Y-30775D01*
X67407Y-30599D01*
X67272Y-30463D01*
X67134Y-30406D01*
X67196Y-30394D01*
X67227Y-30309D01*
X67000Y-30082D01*
X66788Y-30294D01*
X66788Y-29870D01*
X66561Y-29643D01*
X66500Y-29665D01*
X66439Y-29643D01*
X66227Y-29855D01*
X66227Y-29431D01*
X66196Y-29346D01*
X65980Y-29311D01*
X65804Y-29346D01*
X65773Y-29431D01*
X66000Y-29658D01*
X66227Y-29431D01*
X66227Y-29855D01*
X66212Y-29870D01*
X66439Y-30097D01*
X66500Y-30074D01*
X66561Y-30097D01*
X66788Y-29870D01*
X66788Y-30294D01*
X66773Y-30309D01*
X66804Y-30394D01*
X66869Y-30404D01*
X66729Y-30463D01*
X66593Y-30598D01*
X66520Y-30774D01*
X66520Y-30965D01*
X66593Y-31141D01*
X66728Y-31277D01*
X66904Y-31350D01*
X67095Y-31350D01*
X67271Y-31277D01*
X67407Y-31142D01*
X67480Y-30966D01*
X67480Y-33338D01*
X67454Y-33338D01*
X67454Y-32361D01*
X67454Y-32180D01*
X67385Y-32013D01*
X67257Y-31885D01*
X67091Y-31816D01*
X66910Y-31816D01*
X66743Y-31885D01*
X66615Y-32013D01*
X66546Y-32179D01*
X66546Y-32360D01*
X66615Y-32527D01*
X66743Y-32655D01*
X66909Y-32724D01*
X67090Y-32724D01*
X67257Y-32655D01*
X67385Y-32527D01*
X67454Y-32361D01*
X67454Y-33338D01*
X66480Y-33338D01*
X66480Y-31206D01*
X66480Y-31134D01*
X66480Y-30534D01*
X66453Y-30468D01*
X66402Y-30417D01*
X66336Y-30390D01*
X66264Y-30390D01*
X66197Y-30390D01*
X66227Y-30309D01*
X66000Y-30082D01*
X65788Y-30294D01*
X65788Y-29870D01*
X65561Y-29643D01*
X65476Y-29674D01*
X65441Y-29890D01*
X65476Y-30066D01*
X65561Y-30097D01*
X65788Y-29870D01*
X65788Y-30294D01*
X65773Y-30309D01*
X65802Y-30390D01*
X65664Y-30390D01*
X65598Y-30417D01*
X65547Y-30468D01*
X65520Y-30534D01*
X65520Y-30606D01*
X65520Y-31206D01*
X65547Y-31272D01*
X65598Y-31323D01*
X65664Y-31350D01*
X65736Y-31350D01*
X66336Y-31350D01*
X66402Y-31323D01*
X66453Y-31272D01*
X66480Y-31206D01*
X66480Y-33338D01*
X66454Y-33338D01*
X66454Y-32361D01*
X66454Y-32180D01*
X66385Y-32013D01*
X66257Y-31885D01*
X66091Y-31816D01*
X65910Y-31816D01*
X65743Y-31885D01*
X65615Y-32013D01*
X65546Y-32179D01*
X65546Y-32360D01*
X65615Y-32527D01*
X65743Y-32655D01*
X65909Y-32724D01*
X66090Y-32724D01*
X66257Y-32655D01*
X66385Y-32527D01*
X66454Y-32361D01*
X66454Y-33338D01*
X65535Y-33338D01*
X65535Y-32257D01*
X65499Y-32077D01*
X65414Y-32049D01*
X65221Y-32242D01*
X65221Y-31856D01*
X65193Y-31771D01*
X64987Y-31735D01*
X64807Y-31771D01*
X64779Y-31856D01*
X65000Y-32076D01*
X65221Y-31856D01*
X65221Y-32242D01*
X65194Y-32270D01*
X65414Y-32491D01*
X65499Y-32463D01*
X65535Y-32257D01*
X65535Y-33338D01*
X65221Y-33338D01*
X65221Y-32684D01*
X65000Y-32464D01*
X64806Y-32657D01*
X64806Y-32270D01*
X64586Y-32049D01*
X64501Y-32077D01*
X64465Y-32283D01*
X64501Y-32463D01*
X64586Y-32491D01*
X64806Y-32270D01*
X64806Y-32657D01*
X64779Y-32684D01*
X64807Y-32769D01*
X65013Y-32805D01*
X65193Y-32769D01*
X65221Y-32684D01*
X65221Y-33338D01*
X63772Y-33338D01*
X64184Y-32926D01*
X64240Y-32842D01*
X64240Y-32841D01*
X64260Y-32742D01*
X64260Y-32652D01*
X64385Y-32527D01*
X64454Y-32361D01*
X64454Y-32180D01*
X64385Y-32013D01*
X64257Y-31885D01*
X64091Y-31816D01*
X63910Y-31816D01*
X63743Y-31885D01*
X63615Y-32013D01*
X63546Y-32179D01*
X63546Y-32360D01*
X63615Y-32527D01*
X63731Y-32643D01*
X62960Y-33414D01*
X62958Y-33416D01*
X62787Y-33587D01*
X62785Y-33589D01*
X61986Y-34388D01*
X61956Y-34433D01*
X61949Y-34426D01*
X61813Y-34370D01*
X61949Y-34314D01*
X62096Y-34167D01*
X62176Y-33974D01*
X62176Y-33766D01*
X62096Y-33573D01*
X61949Y-33426D01*
X61813Y-33370D01*
X61949Y-33314D01*
X62096Y-33167D01*
X62176Y-32974D01*
X62176Y-32766D01*
X62096Y-32573D01*
X61949Y-32426D01*
X61813Y-32370D01*
X61949Y-32314D01*
X62096Y-32167D01*
X62176Y-31974D01*
X62176Y-31766D01*
X62096Y-31573D01*
X61949Y-31426D01*
X61756Y-31346D01*
X61548Y-31346D01*
X60844Y-31346D01*
X60651Y-31426D01*
X60504Y-31573D01*
X60424Y-31766D01*
X60424Y-31974D01*
X60504Y-32167D01*
X60651Y-32314D01*
X60786Y-32370D01*
X60651Y-32426D01*
X60504Y-32573D01*
X60424Y-32766D01*
X60424Y-32974D01*
X60504Y-33167D01*
X60651Y-33314D01*
X60786Y-33370D01*
X60651Y-33426D01*
X60504Y-33573D01*
X60424Y-33766D01*
X60424Y-33974D01*
X60504Y-34167D01*
X60651Y-34314D01*
X60786Y-34370D01*
X60651Y-34426D01*
X60504Y-34573D01*
X60424Y-34766D01*
X60424Y-34974D01*
X60504Y-35167D01*
X60651Y-35314D01*
X60844Y-35394D01*
X61052Y-35394D01*
X61756Y-35394D01*
X61910Y-35330D01*
X61910Y-35412D01*
X60624Y-36697D01*
X59959Y-36031D01*
X59959Y-30850D01*
X59924Y-30674D01*
X59880Y-30657D01*
X59880Y-29966D01*
X59880Y-29775D01*
X59807Y-29599D01*
X59672Y-29463D01*
X59496Y-29390D01*
X59305Y-29390D01*
X59129Y-29463D01*
X58993Y-29598D01*
X58920Y-29774D01*
X58920Y-29965D01*
X58993Y-30141D01*
X59128Y-30277D01*
X59265Y-30333D01*
X59204Y-30346D01*
X59173Y-30431D01*
X59400Y-30658D01*
X59627Y-30431D01*
X59596Y-30346D01*
X59530Y-30335D01*
X59671Y-30277D01*
X59807Y-30142D01*
X59880Y-29966D01*
X59880Y-30657D01*
X59839Y-30643D01*
X59612Y-30870D01*
X59839Y-31097D01*
X59924Y-31066D01*
X59959Y-30850D01*
X59959Y-36031D01*
X59880Y-35952D01*
X59880Y-35775D01*
X59880Y-34966D01*
X59880Y-34775D01*
X59880Y-33966D01*
X59880Y-33775D01*
X59880Y-32966D01*
X59880Y-32775D01*
X59880Y-31966D01*
X59880Y-31775D01*
X59807Y-31599D01*
X59672Y-31463D01*
X59534Y-31406D01*
X59596Y-31394D01*
X59627Y-31309D01*
X59400Y-31082D01*
X59188Y-31294D01*
X59188Y-30870D01*
X58961Y-30643D01*
X58876Y-30674D01*
X58841Y-30890D01*
X58876Y-31066D01*
X58961Y-31097D01*
X59188Y-30870D01*
X59188Y-31294D01*
X59173Y-31309D01*
X59204Y-31394D01*
X59269Y-31404D01*
X59129Y-31463D01*
X58993Y-31598D01*
X58920Y-31774D01*
X58920Y-31965D01*
X58993Y-32141D01*
X59128Y-32277D01*
X59304Y-32350D01*
X59495Y-32350D01*
X59671Y-32277D01*
X59807Y-32142D01*
X59880Y-31966D01*
X59880Y-32775D01*
X59807Y-32599D01*
X59672Y-32463D01*
X59496Y-32390D01*
X59305Y-32390D01*
X59129Y-32463D01*
X58993Y-32598D01*
X58920Y-32774D01*
X58920Y-32965D01*
X58993Y-33141D01*
X59128Y-33277D01*
X59304Y-33350D01*
X59495Y-33350D01*
X59671Y-33277D01*
X59807Y-33142D01*
X59880Y-32966D01*
X59880Y-33775D01*
X59807Y-33599D01*
X59672Y-33463D01*
X59496Y-33390D01*
X59305Y-33390D01*
X59129Y-33463D01*
X58993Y-33598D01*
X58920Y-33774D01*
X58920Y-33965D01*
X58993Y-34141D01*
X59128Y-34277D01*
X59304Y-34350D01*
X59495Y-34350D01*
X59671Y-34277D01*
X59807Y-34142D01*
X59880Y-33966D01*
X59880Y-34775D01*
X59807Y-34599D01*
X59672Y-34463D01*
X59496Y-34390D01*
X59305Y-34390D01*
X59129Y-34463D01*
X58993Y-34598D01*
X58920Y-34774D01*
X58920Y-34965D01*
X58993Y-35141D01*
X59128Y-35277D01*
X59304Y-35350D01*
X59495Y-35350D01*
X59671Y-35277D01*
X59807Y-35142D01*
X59880Y-34966D01*
X59880Y-35775D01*
X59807Y-35599D01*
X59672Y-35463D01*
X59496Y-35390D01*
X59305Y-35390D01*
X59129Y-35463D01*
X58993Y-35598D01*
X58920Y-35774D01*
X58920Y-35965D01*
X58993Y-36141D01*
X59128Y-36277D01*
X59265Y-36333D01*
X59204Y-36346D01*
X59173Y-36431D01*
X59400Y-36658D01*
X59463Y-36593D01*
X59675Y-36805D01*
X59612Y-36870D01*
X59676Y-36934D01*
X59500Y-37110D01*
X59428Y-37110D01*
X59400Y-37082D01*
X59372Y-37110D01*
X59316Y-37110D01*
X59132Y-36926D01*
X59188Y-36870D01*
X58961Y-36643D01*
X58878Y-36672D01*
X58692Y-36486D01*
X58608Y-36430D01*
X58508Y-36410D01*
X58508Y-30036D01*
X58475Y-29868D01*
X58389Y-29829D01*
X58147Y-30070D01*
X58389Y-30311D01*
X58475Y-30272D01*
X58508Y-30036D01*
X58508Y-36410D01*
X58380Y-36410D01*
X58380Y-36006D01*
X58380Y-35934D01*
X58380Y-35334D01*
X58353Y-35268D01*
X58302Y-35217D01*
X58236Y-35190D01*
X58164Y-35190D01*
X58141Y-35190D01*
X58141Y-30559D01*
X58141Y-29581D01*
X58102Y-29495D01*
X57866Y-29462D01*
X57698Y-29495D01*
X57659Y-29581D01*
X57900Y-29823D01*
X58141Y-29581D01*
X58141Y-30559D01*
X57900Y-30317D01*
X57659Y-30559D01*
X57698Y-30645D01*
X57934Y-30678D01*
X58102Y-30645D01*
X58141Y-30559D01*
X58141Y-35190D01*
X57653Y-35190D01*
X57653Y-30070D01*
X57411Y-29829D01*
X57325Y-29868D01*
X57292Y-30104D01*
X57325Y-30272D01*
X57411Y-30311D01*
X57653Y-30070D01*
X57653Y-35190D01*
X57564Y-35190D01*
X57498Y-35217D01*
X57447Y-35268D01*
X57420Y-35334D01*
X57420Y-35406D01*
X57420Y-36006D01*
X57447Y-36072D01*
X57498Y-36123D01*
X57564Y-36150D01*
X57636Y-36150D01*
X58236Y-36150D01*
X58302Y-36123D01*
X58353Y-36072D01*
X58380Y-36006D01*
X58380Y-36410D01*
X58311Y-36410D01*
X58307Y-36399D01*
X58172Y-36263D01*
X57996Y-36190D01*
X57805Y-36190D01*
X57629Y-36263D01*
X57493Y-36398D01*
X57420Y-36574D01*
X57420Y-36765D01*
X57493Y-36941D01*
X57628Y-37077D01*
X57683Y-37100D01*
X57115Y-37100D01*
X57171Y-37077D01*
X57307Y-36942D01*
X57380Y-36766D01*
X57380Y-36575D01*
X57380Y-35766D01*
X57380Y-35575D01*
X57307Y-35399D01*
X57172Y-35263D01*
X56996Y-35190D01*
X56805Y-35190D01*
X56629Y-35263D01*
X56493Y-35398D01*
X56430Y-35549D01*
X56430Y-30456D01*
X56430Y-30384D01*
X56430Y-29684D01*
X56403Y-29618D01*
X56352Y-29567D01*
X56286Y-29540D01*
X56214Y-29540D01*
X55514Y-29540D01*
X55448Y-29567D01*
X55397Y-29618D01*
X55370Y-29684D01*
X55370Y-29756D01*
X55370Y-30456D01*
X55397Y-30522D01*
X55448Y-30573D01*
X55514Y-30600D01*
X55586Y-30600D01*
X56286Y-30600D01*
X56352Y-30573D01*
X56403Y-30522D01*
X56430Y-30456D01*
X56430Y-35549D01*
X56420Y-35574D01*
X56420Y-35765D01*
X56493Y-35941D01*
X56628Y-36077D01*
X56804Y-36150D01*
X56995Y-36150D01*
X57171Y-36077D01*
X57307Y-35942D01*
X57380Y-35766D01*
X57380Y-36575D01*
X57307Y-36399D01*
X57172Y-36263D01*
X56996Y-36190D01*
X56805Y-36190D01*
X56629Y-36263D01*
X56493Y-36398D01*
X56420Y-36574D01*
X56420Y-36765D01*
X56493Y-36941D01*
X56628Y-37077D01*
X56683Y-37100D01*
X56115Y-37100D01*
X56171Y-37077D01*
X56307Y-36942D01*
X56380Y-36766D01*
X56380Y-36575D01*
X56380Y-35766D01*
X56380Y-35575D01*
X56307Y-35399D01*
X56172Y-35263D01*
X55996Y-35190D01*
X55805Y-35190D01*
X55629Y-35263D01*
X55493Y-35398D01*
X55420Y-35574D01*
X55420Y-35765D01*
X55493Y-35941D01*
X55628Y-36077D01*
X55804Y-36150D01*
X55995Y-36150D01*
X56171Y-36077D01*
X56307Y-35942D01*
X56380Y-35766D01*
X56380Y-36575D01*
X56307Y-36399D01*
X56172Y-36263D01*
X55996Y-36190D01*
X55805Y-36190D01*
X55629Y-36263D01*
X55493Y-36398D01*
X55420Y-36574D01*
X55420Y-36765D01*
X55493Y-36941D01*
X55628Y-37077D01*
X55683Y-37100D01*
X54824Y-37100D01*
X54880Y-36966D01*
X54880Y-36775D01*
X54880Y-35966D01*
X54880Y-35775D01*
X54880Y-34966D01*
X54880Y-34775D01*
X54880Y-33966D01*
X54880Y-33775D01*
X54880Y-32966D01*
X54880Y-32775D01*
X54880Y-31966D01*
X54880Y-31775D01*
X54880Y-30966D01*
X54880Y-30775D01*
X54880Y-30206D01*
X54880Y-30134D01*
X54880Y-29534D01*
X54853Y-29468D01*
X54802Y-29417D01*
X54736Y-29390D01*
X54664Y-29390D01*
X54245Y-29390D01*
X53743Y-28887D01*
X53668Y-28838D01*
X53580Y-28819D01*
X53575Y-28820D01*
X46420Y-28820D01*
X46332Y-28838D01*
X46257Y-28887D01*
X46255Y-28889D01*
X45754Y-29390D01*
X45264Y-29390D01*
X45198Y-29417D01*
X45147Y-29468D01*
X45120Y-29534D01*
X45120Y-29606D01*
X45120Y-30206D01*
X45147Y-30272D01*
X45198Y-30323D01*
X45264Y-30350D01*
X45336Y-30350D01*
X45936Y-30350D01*
X46002Y-30323D01*
X46053Y-30272D01*
X46080Y-30206D01*
X46080Y-30134D01*
X46080Y-29715D01*
X46515Y-29280D01*
X53484Y-29280D01*
X53920Y-29715D01*
X53920Y-30206D01*
X53947Y-30272D01*
X53998Y-30323D01*
X54064Y-30350D01*
X54136Y-30350D01*
X54736Y-30350D01*
X54802Y-30323D01*
X54853Y-30272D01*
X54880Y-30206D01*
X54880Y-30775D01*
X54807Y-30599D01*
X54672Y-30463D01*
X54496Y-30390D01*
X54305Y-30390D01*
X54129Y-30463D01*
X53993Y-30598D01*
X53920Y-30774D01*
X53920Y-30965D01*
X53993Y-31141D01*
X54128Y-31277D01*
X54304Y-31350D01*
X54495Y-31350D01*
X54671Y-31277D01*
X54807Y-31142D01*
X54880Y-30966D01*
X54880Y-31775D01*
X54807Y-31599D01*
X54672Y-31463D01*
X54496Y-31390D01*
X54305Y-31390D01*
X54129Y-31463D01*
X53993Y-31598D01*
X53920Y-31774D01*
X53920Y-31965D01*
X53993Y-32141D01*
X54128Y-32277D01*
X54304Y-32350D01*
X54495Y-32350D01*
X54671Y-32277D01*
X54807Y-32142D01*
X54880Y-31966D01*
X54880Y-32775D01*
X54807Y-32599D01*
X54672Y-32463D01*
X54496Y-32390D01*
X54305Y-32390D01*
X54129Y-32463D01*
X53993Y-32598D01*
X53920Y-32774D01*
X53920Y-32965D01*
X53993Y-33141D01*
X54128Y-33277D01*
X54304Y-33350D01*
X54495Y-33350D01*
X54671Y-33277D01*
X54807Y-33142D01*
X54880Y-32966D01*
X54880Y-33775D01*
X54807Y-33599D01*
X54672Y-33463D01*
X54496Y-33390D01*
X54305Y-33390D01*
X54129Y-33463D01*
X53993Y-33598D01*
X53920Y-33774D01*
X53920Y-33965D01*
X53993Y-34141D01*
X54128Y-34277D01*
X54304Y-34350D01*
X54495Y-34350D01*
X54671Y-34277D01*
X54807Y-34142D01*
X54880Y-33966D01*
X54880Y-34775D01*
X54807Y-34599D01*
X54672Y-34463D01*
X54496Y-34390D01*
X54305Y-34390D01*
X54129Y-34463D01*
X53993Y-34598D01*
X53920Y-34774D01*
X53920Y-34965D01*
X53993Y-35141D01*
X54128Y-35277D01*
X54304Y-35350D01*
X54495Y-35350D01*
X54671Y-35277D01*
X54807Y-35142D01*
X54880Y-34966D01*
X54880Y-35775D01*
X54807Y-35599D01*
X54672Y-35463D01*
X54496Y-35390D01*
X54305Y-35390D01*
X54129Y-35463D01*
X53993Y-35598D01*
X53920Y-35774D01*
X53920Y-35965D01*
X53993Y-36141D01*
X54128Y-36277D01*
X54304Y-36350D01*
X54495Y-36350D01*
X54671Y-36277D01*
X54807Y-36142D01*
X54880Y-35966D01*
X54880Y-36775D01*
X54807Y-36599D01*
X54672Y-36463D01*
X54496Y-36390D01*
X54305Y-36390D01*
X54129Y-36463D01*
X53993Y-36598D01*
X53920Y-36774D01*
X53920Y-36965D01*
X53975Y-37100D01*
X53376Y-37100D01*
X53376Y-34974D01*
X53376Y-34766D01*
X53296Y-34573D01*
X53149Y-34426D01*
X53013Y-34370D01*
X53149Y-34314D01*
X53296Y-34167D01*
X53376Y-33974D01*
X53376Y-33766D01*
X53296Y-33573D01*
X53149Y-33426D01*
X53013Y-33370D01*
X53149Y-33314D01*
X53296Y-33167D01*
X53376Y-32974D01*
X53376Y-32766D01*
X53296Y-32573D01*
X53149Y-32426D01*
X53013Y-32370D01*
X53149Y-32314D01*
X53296Y-32167D01*
X53376Y-31974D01*
X53376Y-31766D01*
X53296Y-31573D01*
X53149Y-31426D01*
X52956Y-31346D01*
X52748Y-31346D01*
X52044Y-31346D01*
X51851Y-31426D01*
X51704Y-31573D01*
X51624Y-31766D01*
X51624Y-31974D01*
X51704Y-32167D01*
X51851Y-32314D01*
X51986Y-32370D01*
X51851Y-32426D01*
X51704Y-32573D01*
X51624Y-32766D01*
X51624Y-32974D01*
X51704Y-33167D01*
X51851Y-33314D01*
X51986Y-33370D01*
X51851Y-33426D01*
X51704Y-33573D01*
X51624Y-33766D01*
X51624Y-33974D01*
X51704Y-34167D01*
X51851Y-34314D01*
X51986Y-34370D01*
X51851Y-34426D01*
X51704Y-34573D01*
X51624Y-34766D01*
X51624Y-34974D01*
X51704Y-35167D01*
X51851Y-35314D01*
X52044Y-35394D01*
X52252Y-35394D01*
X52956Y-35394D01*
X53149Y-35314D01*
X53296Y-35167D01*
X53376Y-34974D01*
X53376Y-37100D01*
X51174Y-37100D01*
X51214Y-37060D01*
X51159Y-37005D01*
X51137Y-36983D01*
X51159Y-36850D01*
X51159Y-30850D01*
X51124Y-30674D01*
X51080Y-30657D01*
X51080Y-29966D01*
X51080Y-29775D01*
X51007Y-29599D01*
X50872Y-29463D01*
X50696Y-29390D01*
X50505Y-29390D01*
X50329Y-29463D01*
X50193Y-29598D01*
X50120Y-29774D01*
X50120Y-29965D01*
X50193Y-30141D01*
X50328Y-30277D01*
X50465Y-30333D01*
X50404Y-30346D01*
X50373Y-30431D01*
X50600Y-30658D01*
X50827Y-30431D01*
X50796Y-30346D01*
X50730Y-30335D01*
X50871Y-30277D01*
X51007Y-30142D01*
X51080Y-29966D01*
X51080Y-30657D01*
X51039Y-30643D01*
X50812Y-30870D01*
X51039Y-31097D01*
X51124Y-31066D01*
X51159Y-30850D01*
X51159Y-36850D01*
X51124Y-36674D01*
X51080Y-36657D01*
X51080Y-35966D01*
X51080Y-35775D01*
X51080Y-34966D01*
X51080Y-34775D01*
X51080Y-33966D01*
X51080Y-33775D01*
X51080Y-32966D01*
X51080Y-32775D01*
X51080Y-31966D01*
X51080Y-31775D01*
X51007Y-31599D01*
X50872Y-31463D01*
X50734Y-31406D01*
X50796Y-31394D01*
X50827Y-31309D01*
X50600Y-31082D01*
X50388Y-31294D01*
X50388Y-30870D01*
X50161Y-30643D01*
X50076Y-30674D01*
X50041Y-30890D01*
X50076Y-31066D01*
X50161Y-31097D01*
X50388Y-30870D01*
X50388Y-31294D01*
X50373Y-31309D01*
X50404Y-31394D01*
X50469Y-31404D01*
X50329Y-31463D01*
X50193Y-31598D01*
X50120Y-31774D01*
X50120Y-31965D01*
X50193Y-32141D01*
X50328Y-32277D01*
X50504Y-32350D01*
X50695Y-32350D01*
X50871Y-32277D01*
X51007Y-32142D01*
X51080Y-31966D01*
X51080Y-32775D01*
X51007Y-32599D01*
X50872Y-32463D01*
X50696Y-32390D01*
X50505Y-32390D01*
X50329Y-32463D01*
X50193Y-32598D01*
X50120Y-32774D01*
X50120Y-32965D01*
X50193Y-33141D01*
X50328Y-33277D01*
X50504Y-33350D01*
X50695Y-33350D01*
X50871Y-33277D01*
X51007Y-33142D01*
X51080Y-32966D01*
X51080Y-33775D01*
X51007Y-33599D01*
X50872Y-33463D01*
X50696Y-33390D01*
X50505Y-33390D01*
X50329Y-33463D01*
X50193Y-33598D01*
X50120Y-33774D01*
X50120Y-33965D01*
X50193Y-34141D01*
X50328Y-34277D01*
X50504Y-34350D01*
X50695Y-34350D01*
X50871Y-34277D01*
X51007Y-34142D01*
X51080Y-33966D01*
X51080Y-34775D01*
X51007Y-34599D01*
X50872Y-34463D01*
X50696Y-34390D01*
X50505Y-34390D01*
X50329Y-34463D01*
X50193Y-34598D01*
X50120Y-34774D01*
X50120Y-34965D01*
X50193Y-35141D01*
X50328Y-35277D01*
X50504Y-35350D01*
X50695Y-35350D01*
X50871Y-35277D01*
X51007Y-35142D01*
X51080Y-34966D01*
X51080Y-35775D01*
X51007Y-35599D01*
X50872Y-35463D01*
X50696Y-35390D01*
X50505Y-35390D01*
X50329Y-35463D01*
X50193Y-35598D01*
X50120Y-35774D01*
X50120Y-35965D01*
X50193Y-36141D01*
X50328Y-36277D01*
X50465Y-36333D01*
X50404Y-36346D01*
X50373Y-36431D01*
X50600Y-36658D01*
X50827Y-36431D01*
X50796Y-36346D01*
X50730Y-36335D01*
X50871Y-36277D01*
X51007Y-36142D01*
X51080Y-35966D01*
X51080Y-36657D01*
X51039Y-36643D01*
X50812Y-36870D01*
X50876Y-36934D01*
X50710Y-37100D01*
X50618Y-37100D01*
X50600Y-37082D01*
X50582Y-37100D01*
X50490Y-37100D01*
X50388Y-36998D01*
X50324Y-36934D01*
X50388Y-36870D01*
X50161Y-36643D01*
X50076Y-36674D01*
X50041Y-36890D01*
X50060Y-36985D01*
X49986Y-37060D01*
X50026Y-37100D01*
X49708Y-37100D01*
X49708Y-30036D01*
X49675Y-29868D01*
X49589Y-29829D01*
X49347Y-30070D01*
X49589Y-30311D01*
X49675Y-30272D01*
X49708Y-30036D01*
X49708Y-37100D01*
X49315Y-37100D01*
X49371Y-37077D01*
X49507Y-36942D01*
X49580Y-36766D01*
X49580Y-36575D01*
X49580Y-36006D01*
X49580Y-35934D01*
X49580Y-35334D01*
X49553Y-35268D01*
X49502Y-35217D01*
X49436Y-35190D01*
X49364Y-35190D01*
X49341Y-35190D01*
X49341Y-30559D01*
X49341Y-29581D01*
X49302Y-29495D01*
X49066Y-29462D01*
X48898Y-29495D01*
X48859Y-29581D01*
X49100Y-29823D01*
X49341Y-29581D01*
X49341Y-30559D01*
X49100Y-30317D01*
X48859Y-30559D01*
X48898Y-30645D01*
X49134Y-30678D01*
X49302Y-30645D01*
X49341Y-30559D01*
X49341Y-35190D01*
X48853Y-35190D01*
X48853Y-30070D01*
X48611Y-29829D01*
X48525Y-29868D01*
X48492Y-30104D01*
X48525Y-30272D01*
X48611Y-30311D01*
X48853Y-30070D01*
X48853Y-35190D01*
X48764Y-35190D01*
X48698Y-35217D01*
X48647Y-35268D01*
X48620Y-35334D01*
X48620Y-35406D01*
X48620Y-36006D01*
X48647Y-36072D01*
X48698Y-36123D01*
X48764Y-36150D01*
X48836Y-36150D01*
X49436Y-36150D01*
X49502Y-36123D01*
X49553Y-36072D01*
X49580Y-36006D01*
X49580Y-36575D01*
X49507Y-36399D01*
X49372Y-36263D01*
X49196Y-36190D01*
X49005Y-36190D01*
X48829Y-36263D01*
X48693Y-36398D01*
X48620Y-36574D01*
X48620Y-36765D01*
X48693Y-36941D01*
X48828Y-37077D01*
X48883Y-37100D01*
X48315Y-37100D01*
X48371Y-37077D01*
X48507Y-36942D01*
X48580Y-36766D01*
X48580Y-36575D01*
X48580Y-35766D01*
X48580Y-35575D01*
X48507Y-35399D01*
X48372Y-35263D01*
X48196Y-35190D01*
X48005Y-35190D01*
X47829Y-35263D01*
X47693Y-35398D01*
X47630Y-35549D01*
X47630Y-30456D01*
X47630Y-30384D01*
X47630Y-29684D01*
X47603Y-29618D01*
X47552Y-29567D01*
X47486Y-29540D01*
X47414Y-29540D01*
X46714Y-29540D01*
X46648Y-29567D01*
X46597Y-29618D01*
X46570Y-29684D01*
X46570Y-29756D01*
X46570Y-30456D01*
X46597Y-30522D01*
X46648Y-30573D01*
X46714Y-30600D01*
X46786Y-30600D01*
X47486Y-30600D01*
X47552Y-30573D01*
X47603Y-30522D01*
X47630Y-30456D01*
X47630Y-35549D01*
X47620Y-35574D01*
X47620Y-35765D01*
X47693Y-35941D01*
X47828Y-36077D01*
X48004Y-36150D01*
X48195Y-36150D01*
X48371Y-36077D01*
X48507Y-35942D01*
X48580Y-35766D01*
X48580Y-36575D01*
X48507Y-36399D01*
X48372Y-36263D01*
X48196Y-36190D01*
X48005Y-36190D01*
X47829Y-36263D01*
X47693Y-36398D01*
X47620Y-36574D01*
X47620Y-36765D01*
X47693Y-36941D01*
X47828Y-37077D01*
X47883Y-37100D01*
X47315Y-37100D01*
X47371Y-37077D01*
X47507Y-36942D01*
X47580Y-36766D01*
X47580Y-36575D01*
X47507Y-36399D01*
X47372Y-36263D01*
X47196Y-36190D01*
X47008Y-36190D01*
X46942Y-36124D01*
X47004Y-36150D01*
X47195Y-36150D01*
X47371Y-36077D01*
X47507Y-35942D01*
X47580Y-35766D01*
X47580Y-35575D01*
X47507Y-35399D01*
X47372Y-35263D01*
X47196Y-35190D01*
X47005Y-35190D01*
X46829Y-35263D01*
X46693Y-35398D01*
X46620Y-35574D01*
X46620Y-35765D01*
X46646Y-35828D01*
X46004Y-35186D01*
X45979Y-35169D01*
X46007Y-35142D01*
X46080Y-34966D01*
X46080Y-34775D01*
X46080Y-33966D01*
X46080Y-33775D01*
X46080Y-32966D01*
X46080Y-32775D01*
X46080Y-31966D01*
X46080Y-31775D01*
X46080Y-30966D01*
X46080Y-30775D01*
X46007Y-30599D01*
X45872Y-30463D01*
X45696Y-30390D01*
X45505Y-30390D01*
X45329Y-30463D01*
X45193Y-30598D01*
X45120Y-30774D01*
X45120Y-30965D01*
X45193Y-31141D01*
X45328Y-31277D01*
X45504Y-31350D01*
X45695Y-31350D01*
X45871Y-31277D01*
X46007Y-31142D01*
X46080Y-30966D01*
X46080Y-31775D01*
X46007Y-31599D01*
X45872Y-31463D01*
X45696Y-31390D01*
X45505Y-31390D01*
X45329Y-31463D01*
X45193Y-31598D01*
X45120Y-31774D01*
X45120Y-31965D01*
X45193Y-32141D01*
X45328Y-32277D01*
X45504Y-32350D01*
X45695Y-32350D01*
X45871Y-32277D01*
X46007Y-32142D01*
X46080Y-31966D01*
X46080Y-32775D01*
X46007Y-32599D01*
X45872Y-32463D01*
X45696Y-32390D01*
X45505Y-32390D01*
X45329Y-32463D01*
X45193Y-32598D01*
X45120Y-32774D01*
X45120Y-32965D01*
X45193Y-33141D01*
X45328Y-33277D01*
X45504Y-33350D01*
X45695Y-33350D01*
X45871Y-33277D01*
X46007Y-33142D01*
X46080Y-32966D01*
X46080Y-33775D01*
X46007Y-33599D01*
X45872Y-33463D01*
X45696Y-33390D01*
X45505Y-33390D01*
X45329Y-33463D01*
X45193Y-33598D01*
X45120Y-33774D01*
X45120Y-33965D01*
X45193Y-34141D01*
X45328Y-34277D01*
X45504Y-34350D01*
X45695Y-34350D01*
X45871Y-34277D01*
X46007Y-34142D01*
X46080Y-33966D01*
X46080Y-34775D01*
X46007Y-34599D01*
X45872Y-34463D01*
X45696Y-34390D01*
X45505Y-34390D01*
X45329Y-34463D01*
X45193Y-34598D01*
X45120Y-34774D01*
X45120Y-34965D01*
X45193Y-35141D01*
X45225Y-35173D01*
X45206Y-35186D01*
X45204Y-35188D01*
X45080Y-35312D01*
X45080Y-33970D01*
X45036Y-33748D01*
X44954Y-33625D01*
X44954Y-32061D01*
X44954Y-31880D01*
X44885Y-31713D01*
X44757Y-31585D01*
X44591Y-31516D01*
X44410Y-31516D01*
X44243Y-31585D01*
X44115Y-31713D01*
X44046Y-31879D01*
X44046Y-32060D01*
X44115Y-32227D01*
X44243Y-32355D01*
X44409Y-32424D01*
X44590Y-32424D01*
X44757Y-32355D01*
X44885Y-32227D01*
X44954Y-32061D01*
X44954Y-33625D01*
X44910Y-33560D01*
X44722Y-33434D01*
X44500Y-33390D01*
X44278Y-33434D01*
X44090Y-33560D01*
X43692Y-33958D01*
X42458Y-33958D01*
X42458Y-32505D01*
X42425Y-32340D01*
X42331Y-32279D01*
X42039Y-32570D01*
X42331Y-32861D01*
X42425Y-32800D01*
X42458Y-32505D01*
X42458Y-33958D01*
X42075Y-33958D01*
X41991Y-33922D01*
X41991Y-33201D01*
X41991Y-31939D01*
X41930Y-31845D01*
X41635Y-31812D01*
X41470Y-31845D01*
X41409Y-31939D01*
X41700Y-32231D01*
X41991Y-31939D01*
X41991Y-33201D01*
X41700Y-32909D01*
X41409Y-33201D01*
X41470Y-33295D01*
X41765Y-33328D01*
X41930Y-33295D01*
X41991Y-33201D01*
X41991Y-33922D01*
X41836Y-33858D01*
X41565Y-33858D01*
X41361Y-33942D01*
X41361Y-32570D01*
X41069Y-32279D01*
X40975Y-32340D01*
X40942Y-32635D01*
X40975Y-32800D01*
X41069Y-32861D01*
X41361Y-32570D01*
X41361Y-33942D01*
X41315Y-33961D01*
X41124Y-34153D01*
X41020Y-34402D01*
X41020Y-34673D01*
X41123Y-34923D01*
X41315Y-35114D01*
X41564Y-35218D01*
X41835Y-35218D01*
X42077Y-35118D01*
X43932Y-35118D01*
X44154Y-35074D01*
X44342Y-34948D01*
X44910Y-34380D01*
X45036Y-34192D01*
X45080Y-33970D01*
X45080Y-35312D01*
X44676Y-35716D01*
X44620Y-35800D01*
X44600Y-35900D01*
X44600Y-41810D01*
X44530Y-41810D01*
X43108Y-41810D01*
X43084Y-41786D01*
X43104Y-41741D01*
X43104Y-41580D01*
X43043Y-41431D01*
X42929Y-41318D01*
X42781Y-41256D01*
X42620Y-41256D01*
X42471Y-41317D01*
X42458Y-41330D01*
X42458Y-36905D01*
X42425Y-36740D01*
X42331Y-36679D01*
X42039Y-36970D01*
X42331Y-37261D01*
X42425Y-37200D01*
X42458Y-36905D01*
X42458Y-41330D01*
X42358Y-41431D01*
X42296Y-41579D01*
X42296Y-41740D01*
X42357Y-41889D01*
X42360Y-41891D01*
X42360Y-41918D01*
X42358Y-41921D01*
X42296Y-42069D01*
X42296Y-42230D01*
X42349Y-42360D01*
X42296Y-42489D01*
X42296Y-42650D01*
X42357Y-42799D01*
X42471Y-42912D01*
X42619Y-42974D01*
X42780Y-42974D01*
X42929Y-42913D01*
X43042Y-42799D01*
X43104Y-42651D01*
X43104Y-42534D01*
X43148Y-42490D01*
X44530Y-42490D01*
X44572Y-42490D01*
X44600Y-42517D01*
X44600Y-45900D01*
X44620Y-46000D01*
X44676Y-46084D01*
X45144Y-46551D01*
X45146Y-46554D01*
X45230Y-46609D01*
X45231Y-46610D01*
X45330Y-46630D01*
X46400Y-46630D01*
X46499Y-46610D01*
X46500Y-46610D01*
X46584Y-46554D01*
X46992Y-46145D01*
X47004Y-46150D01*
X47195Y-46150D01*
X47371Y-46077D01*
X47507Y-45942D01*
X47580Y-45766D01*
X47580Y-45575D01*
X47580Y-44766D01*
X47580Y-44575D01*
X47507Y-44399D01*
X47372Y-44263D01*
X47196Y-44190D01*
X47005Y-44190D01*
X46829Y-44263D01*
X46693Y-44398D01*
X46620Y-44574D01*
X46620Y-44765D01*
X46693Y-44941D01*
X46828Y-45077D01*
X47004Y-45150D01*
X47195Y-45150D01*
X47371Y-45077D01*
X47507Y-44942D01*
X47580Y-44766D01*
X47580Y-45575D01*
X47507Y-45399D01*
X47372Y-45263D01*
X47196Y-45190D01*
X47005Y-45190D01*
X46829Y-45263D01*
X46693Y-45398D01*
X46620Y-45574D01*
X46620Y-45765D01*
X46624Y-45777D01*
X46292Y-46110D01*
X46020Y-46110D01*
X46080Y-45966D01*
X46080Y-45775D01*
X46062Y-45732D01*
X46422Y-45372D01*
X46424Y-45371D01*
X46425Y-45371D01*
X46474Y-45296D01*
X46492Y-45208D01*
X46492Y-39829D01*
X46599Y-39829D01*
X46709Y-39784D01*
X46793Y-39700D01*
X46834Y-39600D01*
X47486Y-39600D01*
X47552Y-39573D01*
X47603Y-39522D01*
X47630Y-39456D01*
X47630Y-39384D01*
X47630Y-38684D01*
X47603Y-38618D01*
X47552Y-38567D01*
X47486Y-38540D01*
X47414Y-38540D01*
X46772Y-38540D01*
X46944Y-38368D01*
X52892Y-38368D01*
X53151Y-38626D01*
X53151Y-38659D01*
X53196Y-38769D01*
X53242Y-38815D01*
X53177Y-38880D01*
X53131Y-38990D01*
X53131Y-39109D01*
X53176Y-39219D01*
X53260Y-39303D01*
X53370Y-39349D01*
X53489Y-39349D01*
X53599Y-39304D01*
X53605Y-39298D01*
X53610Y-39303D01*
X53720Y-39349D01*
X53839Y-39349D01*
X53949Y-39304D01*
X53964Y-39289D01*
X53998Y-39323D01*
X54064Y-39350D01*
X54136Y-39350D01*
X54736Y-39350D01*
X54802Y-39323D01*
X54853Y-39272D01*
X54880Y-39206D01*
X54880Y-39134D01*
X54880Y-38570D01*
X55445Y-38570D01*
X55397Y-38618D01*
X55370Y-38684D01*
X55370Y-38756D01*
X55370Y-39456D01*
X55397Y-39522D01*
X55448Y-39573D01*
X55514Y-39600D01*
X55586Y-39600D01*
X56286Y-39600D01*
X56352Y-39573D01*
X56403Y-39522D01*
X56430Y-39456D01*
X56430Y-39384D01*
X56430Y-38684D01*
X56403Y-38618D01*
X56355Y-38570D01*
X57663Y-38570D01*
X57659Y-38581D01*
X57900Y-38823D01*
X58141Y-38581D01*
X58136Y-38570D01*
X58190Y-38570D01*
X58210Y-38570D01*
X58294Y-38570D01*
X58720Y-38995D01*
X58720Y-39095D01*
X58719Y-39100D01*
X58738Y-39188D01*
X58787Y-39263D01*
X58995Y-39470D01*
X58786Y-39680D01*
X58862Y-39756D01*
X58841Y-39890D01*
X58876Y-40066D01*
X58961Y-40097D01*
X59188Y-39870D01*
X59124Y-39806D01*
X59336Y-39594D01*
X59400Y-39658D01*
X59464Y-39594D01*
X59676Y-39806D01*
X59612Y-39870D01*
X59839Y-40097D01*
X59924Y-40066D01*
X59959Y-39850D01*
X59939Y-39754D01*
X60014Y-39680D01*
X59894Y-39560D01*
X60235Y-39560D01*
X60240Y-39561D01*
X60240Y-39560D01*
X60328Y-39542D01*
X60403Y-39493D01*
X63520Y-36375D01*
X63520Y-36886D01*
X63547Y-36952D01*
X63598Y-37003D01*
X63664Y-37030D01*
X63736Y-37030D01*
X64336Y-37030D01*
X64402Y-37003D01*
X64453Y-36952D01*
X64480Y-36886D01*
X64480Y-36814D01*
X64480Y-36448D01*
X64520Y-36475D01*
X64520Y-36485D01*
X64593Y-36661D01*
X64728Y-36797D01*
X64904Y-36870D01*
X65095Y-36870D01*
X65271Y-36797D01*
X65407Y-36662D01*
X65442Y-36576D01*
X65476Y-36746D01*
X65561Y-36777D01*
X65788Y-36550D01*
X65768Y-36530D01*
X66232Y-36530D01*
X66212Y-36550D01*
X66439Y-36777D01*
X66524Y-36746D01*
X66553Y-36565D01*
X66593Y-36661D01*
X66728Y-36797D01*
X66904Y-36870D01*
X67095Y-36870D01*
X67271Y-36797D01*
X67407Y-36662D01*
X67461Y-36530D01*
X67520Y-36530D01*
X67520Y-36645D01*
X67593Y-36821D01*
X67728Y-36957D01*
X67904Y-37030D01*
X68095Y-37030D01*
X68271Y-36957D01*
X68407Y-36822D01*
X68480Y-36646D01*
X68480Y-36530D01*
X68538Y-36530D01*
X68593Y-36661D01*
X68728Y-36797D01*
X68904Y-36870D01*
X69095Y-36870D01*
X69271Y-36797D01*
X69361Y-36707D01*
X69407Y-36662D01*
X69480Y-36486D01*
X69480Y-36295D01*
X69407Y-36119D01*
X69336Y-36047D01*
X69333Y-36032D01*
X69264Y-35929D01*
X69298Y-35922D01*
X69373Y-35873D01*
X69593Y-35653D01*
X69642Y-35578D01*
X69646Y-35558D01*
X69743Y-35655D01*
X69909Y-35724D01*
X70090Y-35724D01*
X70257Y-35655D01*
X70385Y-35527D01*
X70454Y-35361D01*
X70454Y-35180D01*
X70433Y-35130D01*
X70436Y-35130D01*
X70483Y-35177D01*
X70465Y-35283D01*
X70501Y-35463D01*
X70586Y-35491D01*
X70806Y-35270D01*
X70733Y-35197D01*
X70800Y-35130D01*
X71200Y-35130D01*
X71266Y-35196D01*
X71194Y-35270D01*
X71414Y-35491D01*
X71499Y-35463D01*
X71535Y-35257D01*
X71518Y-35175D01*
X71549Y-35144D01*
X71557Y-35152D01*
X71546Y-35179D01*
X71546Y-35360D01*
X71615Y-35527D01*
X71743Y-35655D01*
X71909Y-35724D01*
X72090Y-35724D01*
X72257Y-35655D01*
X72385Y-35527D01*
X72454Y-35361D01*
X72454Y-35180D01*
X72433Y-35130D01*
X72534Y-35130D01*
X72556Y-35152D01*
X72546Y-35179D01*
X72546Y-35360D01*
X72615Y-35527D01*
X72743Y-35655D01*
X72909Y-35724D01*
X73090Y-35724D01*
X73257Y-35655D01*
X73385Y-35527D01*
X73454Y-35361D01*
X73454Y-35180D01*
X73433Y-35130D01*
X73534Y-35130D01*
X73557Y-35152D01*
X73546Y-35179D01*
X73546Y-35360D01*
X73615Y-35527D01*
X73743Y-35655D01*
X73909Y-35724D01*
X74090Y-35724D01*
X74257Y-35655D01*
X74385Y-35527D01*
X74454Y-35361D01*
X74454Y-35180D01*
X74433Y-35130D01*
X74534Y-35130D01*
X74557Y-35152D01*
X74546Y-35179D01*
X74546Y-35360D01*
X74615Y-35527D01*
X74743Y-35655D01*
X74909Y-35724D01*
X75090Y-35724D01*
X75257Y-35655D01*
X75385Y-35527D01*
X75454Y-35361D01*
X75454Y-35180D01*
X75433Y-35130D01*
X75492Y-35130D01*
X75546Y-35184D01*
X75546Y-35360D01*
X75615Y-35527D01*
X75743Y-35655D01*
X75761Y-35662D01*
X75909Y-35724D01*
X76090Y-35724D01*
X76257Y-35655D01*
X76385Y-35527D01*
X76454Y-35361D01*
X76454Y-40826D01*
X76370Y-40742D01*
X76260Y-40696D01*
X76141Y-40696D01*
X76031Y-40741D01*
X76007Y-40765D01*
X75761Y-40765D01*
X75699Y-40765D01*
X75699Y-39605D01*
X75699Y-39486D01*
X75654Y-39376D01*
X75570Y-39292D01*
X75460Y-39246D01*
X75341Y-39246D01*
X75231Y-39291D01*
X75147Y-39375D01*
X75101Y-39485D01*
X75101Y-39518D01*
X74899Y-39720D01*
X74899Y-39605D01*
X74899Y-39486D01*
X74854Y-39376D01*
X74770Y-39292D01*
X74660Y-39246D01*
X74541Y-39246D01*
X74431Y-39291D01*
X74407Y-39315D01*
X74250Y-39315D01*
X74162Y-39333D01*
X74087Y-39382D01*
X74085Y-39384D01*
X71535Y-41934D01*
X71535Y-41357D01*
X71499Y-41177D01*
X71414Y-41149D01*
X71221Y-41342D01*
X71221Y-40956D01*
X71193Y-40871D01*
X70987Y-40835D01*
X70807Y-40871D01*
X70779Y-40956D01*
X71000Y-41176D01*
X71221Y-40956D01*
X71221Y-41342D01*
X71194Y-41370D01*
X71414Y-41591D01*
X71499Y-41563D01*
X71535Y-41357D01*
X71535Y-41934D01*
X71221Y-42248D01*
X71221Y-41784D01*
X71000Y-41564D01*
X70806Y-41757D01*
X70806Y-41370D01*
X70586Y-41149D01*
X70501Y-41177D01*
X70465Y-41383D01*
X70501Y-41563D01*
X70586Y-41591D01*
X70806Y-41370D01*
X70806Y-41757D01*
X70779Y-41784D01*
X70807Y-41869D01*
X71013Y-41905D01*
X71193Y-41869D01*
X71221Y-41784D01*
X71221Y-42248D01*
X71037Y-42432D01*
X70988Y-42507D01*
X70969Y-42595D01*
X70970Y-42599D01*
X70970Y-44445D01*
X70929Y-44463D01*
X70793Y-44598D01*
X70720Y-44774D01*
X70720Y-44965D01*
X70793Y-45141D01*
X70928Y-45277D01*
X71007Y-45310D01*
X70985Y-45310D01*
X70900Y-45310D01*
X70849Y-45310D01*
X70753Y-45349D01*
X70680Y-45422D01*
X70640Y-45518D01*
X70640Y-45621D01*
X70640Y-45655D01*
X70705Y-45720D01*
X71050Y-45720D01*
X71050Y-45630D01*
X71350Y-45630D01*
X71350Y-45720D01*
X71440Y-45720D01*
X71440Y-46020D01*
X71350Y-46020D01*
X71350Y-46365D01*
X71415Y-46430D01*
X71551Y-46430D01*
X71647Y-46391D01*
X71720Y-46318D01*
X71760Y-46222D01*
X71760Y-46170D01*
X71760Y-46119D01*
X71760Y-46096D01*
X71761Y-46097D01*
X71988Y-45870D01*
X71761Y-45643D01*
X71760Y-45643D01*
X71760Y-45621D01*
X71760Y-45570D01*
X71760Y-45518D01*
X71720Y-45422D01*
X71647Y-45349D01*
X71551Y-45310D01*
X71500Y-45310D01*
X71415Y-45310D01*
X71391Y-45310D01*
X71471Y-45277D01*
X71607Y-45142D01*
X71680Y-44966D01*
X71680Y-44775D01*
X71607Y-44599D01*
X71472Y-44463D01*
X71430Y-44445D01*
X71430Y-42690D01*
X74345Y-39775D01*
X74407Y-39775D01*
X74430Y-39798D01*
X74540Y-39844D01*
X74659Y-39844D01*
X74769Y-39799D01*
X74853Y-39715D01*
X74899Y-39605D01*
X74899Y-39720D01*
X72037Y-42582D01*
X71988Y-42657D01*
X71969Y-42745D01*
X71970Y-42749D01*
X71970Y-44445D01*
X71929Y-44463D01*
X71793Y-44598D01*
X71720Y-44774D01*
X71720Y-44965D01*
X71793Y-45141D01*
X71928Y-45277D01*
X72065Y-45333D01*
X72004Y-45346D01*
X71973Y-45431D01*
X72200Y-45658D01*
X72427Y-45431D01*
X72396Y-45346D01*
X72330Y-45335D01*
X72471Y-45277D01*
X72607Y-45142D01*
X72680Y-44966D01*
X72680Y-44775D01*
X72607Y-44599D01*
X72472Y-44463D01*
X72430Y-44445D01*
X72430Y-42840D01*
X75426Y-39844D01*
X75459Y-39844D01*
X75569Y-39799D01*
X75653Y-39715D01*
X75699Y-39605D01*
X75699Y-40765D01*
X75027Y-40765D01*
X75026Y-40765D01*
X74939Y-40783D01*
X74864Y-40832D01*
X74862Y-40834D01*
X73037Y-42659D01*
X72988Y-42734D01*
X72969Y-42822D01*
X72970Y-42826D01*
X72970Y-44445D01*
X72929Y-44463D01*
X72793Y-44598D01*
X72720Y-44774D01*
X72720Y-44965D01*
X72793Y-45141D01*
X72928Y-45277D01*
X73065Y-45333D01*
X73004Y-45346D01*
X72973Y-45431D01*
X73200Y-45658D01*
X73427Y-45431D01*
X73396Y-45346D01*
X73330Y-45335D01*
X73471Y-45277D01*
X73607Y-45142D01*
X73680Y-44966D01*
X73680Y-44775D01*
X73607Y-44599D01*
X73472Y-44463D01*
X73430Y-44445D01*
X73430Y-42917D01*
X75122Y-41225D01*
X75761Y-41225D01*
X76007Y-41225D01*
X76030Y-41248D01*
X76140Y-41294D01*
X76259Y-41294D01*
X76369Y-41249D01*
X76453Y-41165D01*
X76499Y-41055D01*
X76499Y-44928D01*
X76424Y-44943D01*
X76274Y-45044D01*
X76173Y-45194D01*
X76140Y-45364D01*
X76140Y-46864D01*
X76113Y-47000D01*
X76040Y-47110D01*
X75930Y-47183D01*
X75794Y-47210D01*
X75761Y-47210D01*
X75759Y-47210D01*
X75759Y-45850D01*
X75724Y-45674D01*
X75680Y-45657D01*
X75680Y-44966D01*
X75680Y-44775D01*
X75607Y-44599D01*
X75472Y-44463D01*
X75296Y-44390D01*
X75105Y-44390D01*
X74929Y-44463D01*
X74793Y-44598D01*
X74720Y-44774D01*
X74720Y-44965D01*
X74793Y-45141D01*
X74928Y-45277D01*
X75065Y-45333D01*
X75004Y-45346D01*
X74973Y-45431D01*
X75200Y-45658D01*
X75427Y-45431D01*
X75396Y-45346D01*
X75330Y-45335D01*
X75471Y-45277D01*
X75607Y-45142D01*
X75680Y-44966D01*
X75680Y-45657D01*
X75639Y-45643D01*
X75412Y-45870D01*
X75639Y-46097D01*
X75724Y-46066D01*
X75759Y-45850D01*
X75759Y-47210D01*
X75427Y-47210D01*
X75427Y-46309D01*
X75200Y-46082D01*
X74988Y-46294D01*
X74988Y-45870D01*
X74761Y-45643D01*
X74700Y-45665D01*
X74680Y-45657D01*
X74680Y-44966D01*
X74680Y-44775D01*
X74607Y-44599D01*
X74472Y-44463D01*
X74296Y-44390D01*
X74105Y-44390D01*
X73929Y-44463D01*
X73793Y-44598D01*
X73720Y-44774D01*
X73720Y-44965D01*
X73793Y-45141D01*
X73928Y-45277D01*
X74065Y-45333D01*
X74004Y-45346D01*
X73973Y-45431D01*
X74200Y-45658D01*
X74427Y-45431D01*
X74396Y-45346D01*
X74330Y-45335D01*
X74471Y-45277D01*
X74607Y-45142D01*
X74680Y-44966D01*
X74680Y-45657D01*
X74639Y-45643D01*
X74412Y-45870D01*
X74639Y-46097D01*
X74700Y-46074D01*
X74761Y-46097D01*
X74988Y-45870D01*
X74988Y-46294D01*
X74973Y-46309D01*
X75004Y-46394D01*
X75220Y-46429D01*
X75396Y-46394D01*
X75427Y-46309D01*
X75427Y-47210D01*
X74427Y-47210D01*
X74427Y-46309D01*
X74200Y-46082D01*
X73988Y-46294D01*
X73988Y-45870D01*
X73761Y-45643D01*
X73700Y-45665D01*
X73639Y-45643D01*
X73412Y-45870D01*
X73639Y-46097D01*
X73700Y-46074D01*
X73761Y-46097D01*
X73988Y-45870D01*
X73988Y-46294D01*
X73973Y-46309D01*
X74004Y-46394D01*
X74220Y-46429D01*
X74396Y-46394D01*
X74427Y-46309D01*
X74427Y-47210D01*
X73427Y-47210D01*
X73427Y-46309D01*
X73200Y-46082D01*
X72988Y-46294D01*
X72988Y-45870D01*
X72761Y-45643D01*
X72700Y-45665D01*
X72639Y-45643D01*
X72412Y-45870D01*
X72639Y-46097D01*
X72700Y-46074D01*
X72761Y-46097D01*
X72988Y-45870D01*
X72988Y-46294D01*
X72973Y-46309D01*
X73004Y-46394D01*
X73220Y-46429D01*
X73396Y-46394D01*
X73427Y-46309D01*
X73427Y-47210D01*
X72427Y-47210D01*
X72427Y-46309D01*
X72200Y-46082D01*
X71988Y-46294D01*
X71973Y-46309D01*
X72004Y-46394D01*
X72220Y-46429D01*
X72396Y-46394D01*
X72427Y-46309D01*
X72427Y-47210D01*
X71050Y-47210D01*
X71050Y-46365D01*
X71050Y-46020D01*
X70705Y-46020D01*
X70640Y-46085D01*
X70640Y-46119D01*
X70640Y-46222D01*
X70680Y-46318D01*
X70753Y-46391D01*
X70849Y-46430D01*
X70985Y-46430D01*
X71050Y-46365D01*
X71050Y-47210D01*
X70454Y-47210D01*
X70454Y-41461D01*
X70454Y-41280D01*
X70385Y-41113D01*
X70257Y-40985D01*
X70091Y-40916D01*
X69910Y-40916D01*
X69743Y-40985D01*
X69615Y-41113D01*
X69546Y-41279D01*
X69546Y-41460D01*
X69615Y-41627D01*
X69743Y-41755D01*
X69909Y-41824D01*
X70090Y-41824D01*
X70257Y-41755D01*
X70385Y-41627D01*
X70454Y-41461D01*
X70454Y-47210D01*
X69850Y-47210D01*
X69759Y-47210D01*
X69759Y-45850D01*
X69724Y-45674D01*
X69680Y-45657D01*
X69680Y-44966D01*
X69680Y-44775D01*
X69607Y-44599D01*
X69472Y-44463D01*
X69454Y-44455D01*
X69454Y-41461D01*
X69454Y-41280D01*
X69385Y-41113D01*
X69361Y-41089D01*
X69257Y-40985D01*
X69091Y-40916D01*
X68910Y-40916D01*
X68743Y-40985D01*
X68615Y-41113D01*
X68546Y-41279D01*
X68546Y-41460D01*
X68615Y-41627D01*
X68743Y-41755D01*
X68909Y-41824D01*
X69090Y-41824D01*
X69257Y-41755D01*
X69361Y-41651D01*
X69385Y-41627D01*
X69454Y-41461D01*
X69454Y-44455D01*
X69361Y-44416D01*
X69296Y-44390D01*
X69105Y-44390D01*
X68929Y-44463D01*
X68793Y-44598D01*
X68720Y-44774D01*
X68720Y-44965D01*
X68793Y-45141D01*
X68928Y-45277D01*
X69065Y-45333D01*
X69004Y-45346D01*
X68973Y-45431D01*
X69200Y-45658D01*
X69361Y-45497D01*
X69427Y-45431D01*
X69396Y-45346D01*
X69361Y-45340D01*
X69330Y-45335D01*
X69361Y-45322D01*
X69471Y-45277D01*
X69607Y-45142D01*
X69680Y-44966D01*
X69680Y-45657D01*
X69639Y-45643D01*
X69412Y-45870D01*
X69639Y-46097D01*
X69724Y-46066D01*
X69759Y-45850D01*
X69759Y-47210D01*
X69427Y-47210D01*
X69427Y-46309D01*
X69361Y-46243D01*
X69200Y-46082D01*
X68988Y-46294D01*
X68988Y-45870D01*
X68761Y-45643D01*
X68700Y-45665D01*
X68680Y-45657D01*
X68680Y-44966D01*
X68680Y-44775D01*
X68607Y-44599D01*
X68472Y-44463D01*
X68454Y-44455D01*
X68454Y-41461D01*
X68454Y-41280D01*
X68385Y-41113D01*
X68257Y-40985D01*
X68091Y-40916D01*
X67910Y-40916D01*
X67743Y-40985D01*
X67615Y-41113D01*
X67546Y-41279D01*
X67546Y-41460D01*
X67615Y-41627D01*
X67743Y-41755D01*
X67909Y-41824D01*
X68090Y-41824D01*
X68257Y-41755D01*
X68385Y-41627D01*
X68454Y-41461D01*
X68454Y-44455D01*
X68296Y-44390D01*
X68105Y-44390D01*
X67929Y-44463D01*
X67793Y-44598D01*
X67720Y-44774D01*
X67720Y-44965D01*
X67793Y-45141D01*
X67928Y-45277D01*
X68065Y-45333D01*
X68004Y-45346D01*
X67973Y-45431D01*
X68200Y-45658D01*
X68427Y-45431D01*
X68396Y-45346D01*
X68330Y-45335D01*
X68471Y-45277D01*
X68607Y-45142D01*
X68680Y-44966D01*
X68680Y-45657D01*
X68639Y-45643D01*
X68412Y-45870D01*
X68639Y-46097D01*
X68700Y-46074D01*
X68761Y-46097D01*
X68988Y-45870D01*
X68988Y-46294D01*
X68973Y-46309D01*
X69004Y-46394D01*
X69220Y-46429D01*
X69361Y-46400D01*
X69396Y-46394D01*
X69427Y-46309D01*
X69427Y-47210D01*
X69361Y-47210D01*
X68427Y-47210D01*
X68427Y-46309D01*
X68200Y-46082D01*
X67988Y-46294D01*
X67988Y-45870D01*
X67761Y-45643D01*
X67700Y-45665D01*
X67680Y-45657D01*
X67680Y-44966D01*
X67680Y-44775D01*
X67607Y-44599D01*
X67472Y-44463D01*
X67454Y-44455D01*
X67454Y-41461D01*
X67454Y-41280D01*
X67385Y-41113D01*
X67257Y-40985D01*
X67091Y-40916D01*
X66910Y-40916D01*
X66743Y-40985D01*
X66615Y-41113D01*
X66546Y-41279D01*
X66546Y-41460D01*
X66615Y-41627D01*
X66743Y-41755D01*
X66909Y-41824D01*
X67090Y-41824D01*
X67257Y-41755D01*
X67385Y-41627D01*
X67454Y-41461D01*
X67454Y-44455D01*
X67296Y-44390D01*
X67105Y-44390D01*
X66929Y-44463D01*
X66793Y-44598D01*
X66720Y-44774D01*
X66720Y-44965D01*
X66793Y-45141D01*
X66928Y-45277D01*
X67065Y-45333D01*
X67004Y-45346D01*
X66973Y-45431D01*
X67200Y-45658D01*
X67427Y-45431D01*
X67396Y-45346D01*
X67330Y-45335D01*
X67471Y-45277D01*
X67607Y-45142D01*
X67680Y-44966D01*
X67680Y-45657D01*
X67639Y-45643D01*
X67412Y-45870D01*
X67639Y-46097D01*
X67700Y-46074D01*
X67761Y-46097D01*
X67988Y-45870D01*
X67988Y-46294D01*
X67973Y-46309D01*
X68004Y-46394D01*
X68220Y-46429D01*
X68396Y-46394D01*
X68427Y-46309D01*
X68427Y-47210D01*
X67427Y-47210D01*
X67427Y-46309D01*
X67200Y-46082D01*
X66988Y-46294D01*
X66988Y-45870D01*
X66761Y-45643D01*
X66700Y-45665D01*
X66680Y-45657D01*
X66680Y-44966D01*
X66680Y-44775D01*
X66607Y-44599D01*
X66472Y-44463D01*
X66454Y-44455D01*
X66454Y-41461D01*
X66454Y-41280D01*
X66385Y-41113D01*
X66257Y-40985D01*
X66091Y-40916D01*
X65910Y-40916D01*
X65743Y-40985D01*
X65615Y-41113D01*
X65546Y-41279D01*
X65546Y-41460D01*
X65615Y-41627D01*
X65743Y-41755D01*
X65909Y-41824D01*
X66090Y-41824D01*
X66257Y-41755D01*
X66385Y-41627D01*
X66454Y-41461D01*
X66454Y-44455D01*
X66296Y-44390D01*
X66105Y-44390D01*
X65929Y-44463D01*
X65793Y-44598D01*
X65720Y-44774D01*
X65720Y-44965D01*
X65793Y-45141D01*
X65928Y-45277D01*
X66065Y-45333D01*
X66004Y-45346D01*
X65973Y-45431D01*
X66200Y-45658D01*
X66427Y-45431D01*
X66396Y-45346D01*
X66330Y-45335D01*
X66471Y-45277D01*
X66607Y-45142D01*
X66680Y-44966D01*
X66680Y-45657D01*
X66639Y-45643D01*
X66412Y-45870D01*
X66639Y-46097D01*
X66700Y-46074D01*
X66761Y-46097D01*
X66988Y-45870D01*
X66988Y-46294D01*
X66973Y-46309D01*
X67004Y-46394D01*
X67220Y-46429D01*
X67396Y-46394D01*
X67427Y-46309D01*
X67427Y-47210D01*
X66427Y-47210D01*
X66427Y-46309D01*
X66200Y-46082D01*
X65988Y-46294D01*
X65988Y-45870D01*
X65761Y-45643D01*
X65700Y-45665D01*
X65680Y-45657D01*
X65680Y-44966D01*
X65680Y-44775D01*
X65607Y-44599D01*
X65472Y-44463D01*
X65454Y-44455D01*
X65454Y-41461D01*
X65454Y-41280D01*
X65385Y-41113D01*
X65257Y-40985D01*
X65091Y-40916D01*
X64910Y-40916D01*
X64743Y-40985D01*
X64615Y-41113D01*
X64546Y-41279D01*
X64546Y-41460D01*
X64615Y-41627D01*
X64743Y-41755D01*
X64909Y-41824D01*
X65090Y-41824D01*
X65257Y-41755D01*
X65385Y-41627D01*
X65454Y-41461D01*
X65454Y-44455D01*
X65296Y-44390D01*
X65105Y-44390D01*
X64929Y-44463D01*
X64793Y-44598D01*
X64720Y-44774D01*
X64720Y-44965D01*
X64793Y-45141D01*
X64928Y-45277D01*
X65065Y-45333D01*
X65004Y-45346D01*
X64973Y-45431D01*
X65200Y-45658D01*
X65427Y-45431D01*
X65396Y-45346D01*
X65330Y-45335D01*
X65471Y-45277D01*
X65607Y-45142D01*
X65680Y-44966D01*
X65680Y-45657D01*
X65639Y-45643D01*
X65412Y-45870D01*
X65639Y-46097D01*
X65700Y-46074D01*
X65761Y-46097D01*
X65988Y-45870D01*
X65988Y-46294D01*
X65973Y-46309D01*
X66004Y-46394D01*
X66220Y-46429D01*
X66396Y-46394D01*
X66427Y-46309D01*
X66427Y-47210D01*
X65427Y-47210D01*
X65427Y-46309D01*
X65200Y-46082D01*
X64988Y-46294D01*
X64988Y-45870D01*
X64761Y-45643D01*
X64760Y-45643D01*
X64760Y-45621D01*
X64760Y-45570D01*
X64760Y-45518D01*
X64720Y-45422D01*
X64680Y-45382D01*
X64647Y-45349D01*
X64551Y-45310D01*
X64500Y-45310D01*
X64415Y-45310D01*
X64391Y-45310D01*
X64471Y-45277D01*
X64607Y-45142D01*
X64680Y-44966D01*
X64680Y-44775D01*
X64607Y-44599D01*
X64535Y-44526D01*
X64535Y-41697D01*
X64535Y-41594D01*
X64535Y-41572D01*
X64535Y-41168D01*
X64535Y-41146D01*
X64535Y-41043D01*
X64495Y-40947D01*
X64422Y-40874D01*
X64326Y-40835D01*
X64202Y-40835D01*
X64137Y-40900D01*
X64137Y-41233D01*
X64470Y-41233D01*
X64535Y-41168D01*
X64535Y-41572D01*
X64470Y-41507D01*
X64137Y-41507D01*
X64137Y-41840D01*
X64202Y-41905D01*
X64326Y-41905D01*
X64422Y-41866D01*
X64495Y-41793D01*
X64535Y-41697D01*
X64535Y-44526D01*
X64472Y-44463D01*
X64296Y-44390D01*
X64105Y-44390D01*
X63929Y-44463D01*
X63863Y-44528D01*
X63863Y-41840D01*
X63863Y-41507D01*
X63863Y-41233D01*
X63863Y-40900D01*
X63798Y-40835D01*
X63674Y-40835D01*
X63578Y-40874D01*
X63505Y-40947D01*
X63465Y-41043D01*
X63465Y-41146D01*
X63465Y-41168D01*
X63530Y-41233D01*
X63863Y-41233D01*
X63863Y-41507D01*
X63530Y-41507D01*
X63465Y-41572D01*
X63465Y-41594D01*
X63465Y-41697D01*
X63505Y-41793D01*
X63578Y-41866D01*
X63674Y-41905D01*
X63798Y-41905D01*
X63863Y-41840D01*
X63863Y-44528D01*
X63793Y-44598D01*
X63720Y-44774D01*
X63720Y-44965D01*
X63793Y-45141D01*
X63928Y-45277D01*
X64007Y-45310D01*
X63985Y-45310D01*
X63900Y-45310D01*
X63849Y-45310D01*
X63753Y-45349D01*
X63680Y-45422D01*
X63640Y-45518D01*
X63640Y-45621D01*
X63640Y-45655D01*
X63705Y-45720D01*
X64050Y-45720D01*
X64050Y-45630D01*
X64350Y-45630D01*
X64350Y-45720D01*
X64440Y-45720D01*
X64440Y-46020D01*
X64350Y-46020D01*
X64350Y-46365D01*
X64415Y-46430D01*
X64551Y-46430D01*
X64647Y-46391D01*
X64720Y-46318D01*
X64760Y-46222D01*
X64760Y-46170D01*
X64760Y-46119D01*
X64760Y-46096D01*
X64761Y-46097D01*
X64988Y-45870D01*
X64988Y-46294D01*
X64973Y-46309D01*
X65004Y-46394D01*
X65220Y-46429D01*
X65396Y-46394D01*
X65427Y-46309D01*
X65427Y-47210D01*
X64700Y-47210D01*
X64050Y-47210D01*
X64050Y-46365D01*
X64050Y-46020D01*
X63705Y-46020D01*
X63640Y-46085D01*
X63640Y-46119D01*
X63640Y-46222D01*
X63680Y-46318D01*
X63753Y-46391D01*
X63849Y-46430D01*
X63985Y-46430D01*
X64050Y-46365D01*
X64050Y-47210D01*
X62035Y-47210D01*
X63245Y-45999D01*
X63247Y-45998D01*
X63248Y-45998D01*
X63297Y-45923D01*
X63315Y-45835D01*
X63315Y-39381D01*
X63882Y-38813D01*
X63909Y-38824D01*
X64090Y-38824D01*
X64117Y-38812D01*
X64385Y-39080D01*
X64387Y-39083D01*
X64462Y-39132D01*
X64549Y-39150D01*
X64549Y-39149D01*
X64550Y-39150D01*
X69361Y-39150D01*
X75554Y-39150D01*
X75761Y-39356D01*
X75825Y-39420D01*
X75825Y-39752D01*
X75802Y-39775D01*
X75761Y-39873D01*
X75756Y-39885D01*
X75756Y-40004D01*
X75761Y-40016D01*
X75801Y-40114D01*
X75885Y-40198D01*
X75995Y-40244D01*
X76114Y-40244D01*
X76224Y-40199D01*
X76308Y-40115D01*
X76354Y-40005D01*
X76354Y-39886D01*
X76309Y-39776D01*
X76285Y-39752D01*
X76285Y-39325D01*
X76284Y-39324D01*
X76285Y-39324D01*
X76267Y-39237D01*
X76218Y-39162D01*
X76215Y-39160D01*
X75813Y-38757D01*
X75761Y-38723D01*
X75738Y-38708D01*
X75650Y-38689D01*
X75645Y-38690D01*
X71322Y-38690D01*
X71385Y-38627D01*
X71454Y-38461D01*
X71454Y-38280D01*
X71385Y-38113D01*
X71257Y-37985D01*
X71221Y-37970D01*
X71221Y-35684D01*
X71000Y-35464D01*
X70779Y-35684D01*
X70807Y-35769D01*
X71013Y-35805D01*
X71193Y-35769D01*
X71221Y-35684D01*
X71221Y-37970D01*
X71091Y-37916D01*
X70910Y-37916D01*
X70743Y-37985D01*
X70615Y-38113D01*
X70546Y-38279D01*
X70546Y-38460D01*
X70615Y-38627D01*
X70678Y-38690D01*
X70322Y-38690D01*
X70385Y-38627D01*
X70454Y-38461D01*
X70454Y-38280D01*
X70385Y-38113D01*
X70257Y-37985D01*
X70091Y-37916D01*
X69910Y-37916D01*
X69743Y-37985D01*
X69615Y-38113D01*
X69546Y-38279D01*
X69546Y-38460D01*
X69615Y-38627D01*
X69678Y-38690D01*
X69361Y-38690D01*
X69322Y-38690D01*
X69361Y-38651D01*
X69385Y-38627D01*
X69454Y-38461D01*
X69454Y-38280D01*
X69385Y-38113D01*
X69361Y-38089D01*
X69257Y-37985D01*
X69091Y-37916D01*
X68910Y-37916D01*
X68743Y-37985D01*
X68615Y-38113D01*
X68546Y-38279D01*
X68546Y-38460D01*
X68615Y-38627D01*
X68678Y-38690D01*
X68322Y-38690D01*
X68385Y-38627D01*
X68454Y-38461D01*
X68454Y-38280D01*
X68385Y-38113D01*
X68257Y-37985D01*
X68091Y-37916D01*
X67910Y-37916D01*
X67743Y-37985D01*
X67615Y-38113D01*
X67546Y-38279D01*
X67546Y-38460D01*
X67615Y-38627D01*
X67678Y-38690D01*
X67322Y-38690D01*
X67385Y-38627D01*
X67454Y-38461D01*
X67454Y-38280D01*
X67385Y-38113D01*
X67257Y-37985D01*
X67091Y-37916D01*
X66910Y-37916D01*
X66743Y-37985D01*
X66615Y-38113D01*
X66546Y-38279D01*
X66546Y-38460D01*
X66615Y-38627D01*
X66678Y-38690D01*
X66322Y-38690D01*
X66385Y-38627D01*
X66454Y-38461D01*
X66454Y-38280D01*
X66385Y-38113D01*
X66257Y-37985D01*
X66227Y-37972D01*
X66227Y-36989D01*
X66000Y-36762D01*
X65773Y-36989D01*
X65804Y-37074D01*
X66020Y-37109D01*
X66196Y-37074D01*
X66227Y-36989D01*
X66227Y-37972D01*
X66091Y-37916D01*
X65910Y-37916D01*
X65743Y-37985D01*
X65615Y-38113D01*
X65546Y-38279D01*
X65546Y-38460D01*
X65568Y-38514D01*
X65535Y-38481D01*
X65516Y-38462D01*
X65535Y-38357D01*
X65499Y-38177D01*
X65414Y-38149D01*
X65221Y-38342D01*
X65221Y-37956D01*
X65193Y-37871D01*
X64987Y-37835D01*
X64807Y-37871D01*
X64779Y-37956D01*
X65000Y-38176D01*
X65221Y-37956D01*
X65221Y-38342D01*
X65194Y-38370D01*
X65266Y-38443D01*
X65073Y-38637D01*
X65000Y-38564D01*
X64926Y-38636D01*
X64733Y-38443D01*
X64806Y-38370D01*
X64586Y-38149D01*
X64501Y-38177D01*
X64465Y-38383D01*
X64481Y-38464D01*
X64450Y-38495D01*
X64442Y-38487D01*
X64454Y-38461D01*
X64454Y-38280D01*
X64385Y-38113D01*
X64257Y-37985D01*
X64091Y-37916D01*
X63910Y-37916D01*
X63743Y-37985D01*
X63615Y-38113D01*
X63546Y-38279D01*
X63546Y-38460D01*
X63557Y-38486D01*
X62922Y-39122D01*
X62873Y-39197D01*
X62854Y-39285D01*
X62855Y-39289D01*
X62855Y-45739D01*
X62176Y-46418D01*
X62176Y-43974D01*
X62176Y-43766D01*
X62096Y-43573D01*
X61949Y-43426D01*
X61813Y-43370D01*
X61949Y-43314D01*
X62096Y-43167D01*
X62176Y-42974D01*
X62176Y-42766D01*
X62096Y-42573D01*
X61949Y-42426D01*
X61813Y-42370D01*
X61949Y-42314D01*
X62096Y-42167D01*
X62176Y-41974D01*
X62176Y-41766D01*
X62096Y-41573D01*
X61949Y-41426D01*
X61813Y-41370D01*
X61949Y-41314D01*
X62096Y-41167D01*
X62176Y-40974D01*
X62176Y-40766D01*
X62096Y-40573D01*
X61949Y-40426D01*
X61756Y-40346D01*
X61548Y-40346D01*
X60844Y-40346D01*
X60651Y-40426D01*
X60504Y-40573D01*
X60424Y-40766D01*
X60424Y-40974D01*
X60504Y-41167D01*
X60651Y-41314D01*
X60786Y-41370D01*
X60651Y-41426D01*
X60504Y-41573D01*
X60424Y-41766D01*
X60424Y-41974D01*
X60504Y-42167D01*
X60651Y-42314D01*
X60786Y-42370D01*
X60651Y-42426D01*
X60504Y-42573D01*
X60424Y-42766D01*
X60424Y-42974D01*
X60504Y-43167D01*
X60651Y-43314D01*
X60786Y-43370D01*
X60651Y-43426D01*
X60504Y-43573D01*
X60424Y-43766D01*
X60424Y-43974D01*
X60504Y-44167D01*
X60651Y-44314D01*
X60844Y-44394D01*
X61052Y-44394D01*
X61756Y-44394D01*
X61949Y-44314D01*
X62096Y-44167D01*
X62176Y-43974D01*
X62176Y-46418D01*
X61604Y-46990D01*
X59959Y-46990D01*
X59959Y-45850D01*
X59924Y-45674D01*
X59880Y-45657D01*
X59880Y-44966D01*
X59880Y-44775D01*
X59880Y-43966D01*
X59880Y-43775D01*
X59880Y-42966D01*
X59880Y-42775D01*
X59880Y-41966D01*
X59880Y-41775D01*
X59880Y-40966D01*
X59880Y-40775D01*
X59807Y-40599D01*
X59672Y-40463D01*
X59534Y-40406D01*
X59596Y-40394D01*
X59627Y-40309D01*
X59400Y-40082D01*
X59188Y-40294D01*
X59173Y-40309D01*
X59204Y-40394D01*
X59269Y-40404D01*
X59129Y-40463D01*
X58993Y-40598D01*
X58920Y-40774D01*
X58920Y-40965D01*
X58993Y-41141D01*
X59128Y-41277D01*
X59304Y-41350D01*
X59495Y-41350D01*
X59671Y-41277D01*
X59807Y-41142D01*
X59880Y-40966D01*
X59880Y-41775D01*
X59807Y-41599D01*
X59672Y-41463D01*
X59496Y-41390D01*
X59305Y-41390D01*
X59129Y-41463D01*
X58993Y-41598D01*
X58920Y-41774D01*
X58920Y-41965D01*
X58993Y-42141D01*
X59128Y-42277D01*
X59304Y-42350D01*
X59495Y-42350D01*
X59671Y-42277D01*
X59807Y-42142D01*
X59880Y-41966D01*
X59880Y-42775D01*
X59807Y-42599D01*
X59672Y-42463D01*
X59496Y-42390D01*
X59305Y-42390D01*
X59129Y-42463D01*
X58993Y-42598D01*
X58920Y-42774D01*
X58920Y-42965D01*
X58993Y-43141D01*
X59128Y-43277D01*
X59304Y-43350D01*
X59495Y-43350D01*
X59671Y-43277D01*
X59807Y-43142D01*
X59880Y-42966D01*
X59880Y-43775D01*
X59807Y-43599D01*
X59672Y-43463D01*
X59496Y-43390D01*
X59305Y-43390D01*
X59129Y-43463D01*
X58993Y-43598D01*
X58920Y-43774D01*
X58920Y-43965D01*
X58993Y-44141D01*
X59128Y-44277D01*
X59304Y-44350D01*
X59495Y-44350D01*
X59671Y-44277D01*
X59807Y-44142D01*
X59880Y-43966D01*
X59880Y-44775D01*
X59807Y-44599D01*
X59672Y-44463D01*
X59496Y-44390D01*
X59305Y-44390D01*
X59129Y-44463D01*
X58993Y-44598D01*
X58920Y-44774D01*
X58920Y-44965D01*
X58993Y-45141D01*
X59128Y-45277D01*
X59265Y-45333D01*
X59204Y-45346D01*
X59173Y-45431D01*
X59400Y-45658D01*
X59627Y-45431D01*
X59596Y-45346D01*
X59530Y-45335D01*
X59671Y-45277D01*
X59807Y-45142D01*
X59880Y-44966D01*
X59880Y-45657D01*
X59839Y-45643D01*
X59612Y-45870D01*
X59839Y-46097D01*
X59924Y-46066D01*
X59959Y-45850D01*
X59959Y-46990D01*
X59627Y-46990D01*
X59627Y-46309D01*
X59400Y-46082D01*
X59188Y-46294D01*
X59188Y-45870D01*
X58961Y-45643D01*
X58876Y-45674D01*
X58841Y-45890D01*
X58876Y-46066D01*
X58961Y-46097D01*
X59188Y-45870D01*
X59188Y-46294D01*
X59173Y-46309D01*
X59204Y-46394D01*
X59420Y-46429D01*
X59596Y-46394D01*
X59627Y-46309D01*
X59627Y-46990D01*
X58508Y-46990D01*
X58508Y-39036D01*
X58475Y-38868D01*
X58389Y-38829D01*
X58147Y-39070D01*
X58389Y-39311D01*
X58475Y-39272D01*
X58508Y-39036D01*
X58508Y-46990D01*
X58380Y-46990D01*
X58380Y-45766D01*
X58380Y-45575D01*
X58380Y-45006D01*
X58380Y-44934D01*
X58380Y-44334D01*
X58353Y-44268D01*
X58302Y-44217D01*
X58236Y-44190D01*
X58164Y-44190D01*
X58141Y-44190D01*
X58141Y-39559D01*
X57900Y-39317D01*
X57659Y-39559D01*
X57698Y-39645D01*
X57934Y-39678D01*
X58102Y-39645D01*
X58141Y-39559D01*
X58141Y-44190D01*
X57653Y-44190D01*
X57653Y-39070D01*
X57411Y-38829D01*
X57325Y-38868D01*
X57292Y-39104D01*
X57325Y-39272D01*
X57411Y-39311D01*
X57653Y-39070D01*
X57653Y-44190D01*
X57564Y-44190D01*
X57498Y-44217D01*
X57447Y-44268D01*
X57420Y-44334D01*
X57420Y-44406D01*
X57420Y-45006D01*
X57447Y-45072D01*
X57498Y-45123D01*
X57564Y-45150D01*
X57636Y-45150D01*
X58236Y-45150D01*
X58302Y-45123D01*
X58353Y-45072D01*
X58380Y-45006D01*
X58380Y-45575D01*
X58307Y-45399D01*
X58172Y-45263D01*
X57996Y-45190D01*
X57805Y-45190D01*
X57629Y-45263D01*
X57493Y-45398D01*
X57420Y-45574D01*
X57420Y-45765D01*
X57493Y-45941D01*
X57628Y-46077D01*
X57804Y-46150D01*
X57995Y-46150D01*
X58171Y-46077D01*
X58307Y-45942D01*
X58380Y-45766D01*
X58380Y-46990D01*
X57380Y-46990D01*
X57380Y-45766D01*
X57380Y-45575D01*
X57380Y-44766D01*
X57380Y-44575D01*
X57307Y-44399D01*
X57172Y-44263D01*
X56996Y-44190D01*
X56805Y-44190D01*
X56629Y-44263D01*
X56493Y-44398D01*
X56420Y-44574D01*
X56420Y-44765D01*
X56493Y-44941D01*
X56628Y-45077D01*
X56804Y-45150D01*
X56995Y-45150D01*
X57171Y-45077D01*
X57307Y-44942D01*
X57380Y-44766D01*
X57380Y-45575D01*
X57307Y-45399D01*
X57172Y-45263D01*
X56996Y-45190D01*
X56805Y-45190D01*
X56629Y-45263D01*
X56493Y-45398D01*
X56420Y-45574D01*
X56420Y-45765D01*
X56493Y-45941D01*
X56628Y-46077D01*
X56804Y-46150D01*
X56995Y-46150D01*
X57171Y-46077D01*
X57307Y-45942D01*
X57380Y-45766D01*
X57380Y-46990D01*
X56380Y-46990D01*
X56380Y-45766D01*
X56380Y-45575D01*
X56380Y-44766D01*
X56380Y-44575D01*
X56307Y-44399D01*
X56172Y-44263D01*
X55996Y-44190D01*
X55805Y-44190D01*
X55629Y-44263D01*
X55493Y-44398D01*
X55420Y-44574D01*
X55420Y-44765D01*
X55493Y-44941D01*
X55628Y-45077D01*
X55804Y-45150D01*
X55995Y-45150D01*
X56171Y-45077D01*
X56307Y-44942D01*
X56380Y-44766D01*
X56380Y-45575D01*
X56307Y-45399D01*
X56172Y-45263D01*
X55996Y-45190D01*
X55805Y-45190D01*
X55629Y-45263D01*
X55493Y-45398D01*
X55420Y-45574D01*
X55420Y-45765D01*
X55493Y-45941D01*
X55628Y-46077D01*
X55804Y-46150D01*
X55995Y-46150D01*
X56171Y-46077D01*
X56307Y-45942D01*
X56380Y-45766D01*
X56380Y-46990D01*
X54880Y-46990D01*
X54880Y-45966D01*
X54880Y-45775D01*
X54880Y-44966D01*
X54880Y-44775D01*
X54880Y-43966D01*
X54880Y-43775D01*
X54880Y-42966D01*
X54880Y-42775D01*
X54880Y-41966D01*
X54880Y-41775D01*
X54880Y-40966D01*
X54880Y-40775D01*
X54880Y-39966D01*
X54880Y-39775D01*
X54807Y-39599D01*
X54672Y-39463D01*
X54496Y-39390D01*
X54305Y-39390D01*
X54129Y-39463D01*
X53993Y-39598D01*
X53920Y-39774D01*
X53920Y-39965D01*
X53993Y-40141D01*
X54128Y-40277D01*
X54304Y-40350D01*
X54495Y-40350D01*
X54671Y-40277D01*
X54807Y-40142D01*
X54880Y-39966D01*
X54880Y-40775D01*
X54807Y-40599D01*
X54672Y-40463D01*
X54496Y-40390D01*
X54305Y-40390D01*
X54129Y-40463D01*
X53993Y-40598D01*
X53920Y-40774D01*
X53920Y-40965D01*
X53993Y-41141D01*
X54128Y-41277D01*
X54304Y-41350D01*
X54495Y-41350D01*
X54671Y-41277D01*
X54807Y-41142D01*
X54880Y-40966D01*
X54880Y-41775D01*
X54807Y-41599D01*
X54672Y-41463D01*
X54496Y-41390D01*
X54305Y-41390D01*
X54129Y-41463D01*
X53993Y-41598D01*
X53920Y-41774D01*
X53920Y-41965D01*
X53993Y-42141D01*
X54128Y-42277D01*
X54304Y-42350D01*
X54495Y-42350D01*
X54671Y-42277D01*
X54807Y-42142D01*
X54880Y-41966D01*
X54880Y-42775D01*
X54807Y-42599D01*
X54672Y-42463D01*
X54496Y-42390D01*
X54305Y-42390D01*
X54129Y-42463D01*
X53993Y-42598D01*
X53920Y-42774D01*
X53920Y-42965D01*
X53993Y-43141D01*
X54128Y-43277D01*
X54304Y-43350D01*
X54495Y-43350D01*
X54671Y-43277D01*
X54807Y-43142D01*
X54880Y-42966D01*
X54880Y-43775D01*
X54807Y-43599D01*
X54672Y-43463D01*
X54496Y-43390D01*
X54305Y-43390D01*
X54129Y-43463D01*
X53993Y-43598D01*
X53920Y-43774D01*
X53920Y-43965D01*
X53993Y-44141D01*
X54128Y-44277D01*
X54304Y-44350D01*
X54495Y-44350D01*
X54671Y-44277D01*
X54807Y-44142D01*
X54880Y-43966D01*
X54880Y-44775D01*
X54807Y-44599D01*
X54672Y-44463D01*
X54496Y-44390D01*
X54305Y-44390D01*
X54129Y-44463D01*
X53993Y-44598D01*
X53920Y-44774D01*
X53920Y-44965D01*
X53993Y-45141D01*
X54128Y-45277D01*
X54304Y-45350D01*
X54495Y-45350D01*
X54671Y-45277D01*
X54807Y-45142D01*
X54880Y-44966D01*
X54880Y-45775D01*
X54807Y-45599D01*
X54672Y-45463D01*
X54496Y-45390D01*
X54305Y-45390D01*
X54129Y-45463D01*
X53993Y-45598D01*
X53920Y-45774D01*
X53920Y-45965D01*
X53993Y-46141D01*
X54128Y-46277D01*
X54304Y-46350D01*
X54495Y-46350D01*
X54671Y-46277D01*
X54807Y-46142D01*
X54880Y-45966D01*
X54880Y-46990D01*
X53376Y-46990D01*
X53376Y-43974D01*
X53376Y-43766D01*
X53296Y-43573D01*
X53149Y-43426D01*
X53013Y-43370D01*
X53149Y-43314D01*
X53296Y-43167D01*
X53376Y-42974D01*
X53376Y-42766D01*
X53296Y-42573D01*
X53149Y-42426D01*
X53013Y-42370D01*
X53149Y-42314D01*
X53296Y-42167D01*
X53376Y-41974D01*
X53376Y-41766D01*
X53296Y-41573D01*
X53149Y-41426D01*
X53013Y-41370D01*
X53149Y-41314D01*
X53296Y-41167D01*
X53376Y-40974D01*
X53376Y-40766D01*
X53296Y-40573D01*
X53149Y-40426D01*
X52956Y-40346D01*
X52748Y-40346D01*
X52044Y-40346D01*
X51851Y-40426D01*
X51704Y-40573D01*
X51624Y-40766D01*
X51624Y-40974D01*
X51704Y-41167D01*
X51851Y-41314D01*
X51986Y-41370D01*
X51851Y-41426D01*
X51704Y-41573D01*
X51624Y-41766D01*
X51624Y-41974D01*
X51704Y-42167D01*
X51851Y-42314D01*
X51986Y-42370D01*
X51851Y-42426D01*
X51704Y-42573D01*
X51624Y-42766D01*
X51624Y-42974D01*
X51704Y-43167D01*
X51851Y-43314D01*
X51986Y-43370D01*
X51851Y-43426D01*
X51704Y-43573D01*
X51624Y-43766D01*
X51624Y-43974D01*
X51704Y-44167D01*
X51851Y-44314D01*
X52044Y-44394D01*
X52252Y-44394D01*
X52956Y-44394D01*
X53149Y-44314D01*
X53296Y-44167D01*
X53376Y-43974D01*
X53376Y-46990D01*
X51159Y-46990D01*
X51159Y-45850D01*
X51159Y-39850D01*
X51124Y-39674D01*
X51080Y-39657D01*
X51080Y-38966D01*
X51080Y-38775D01*
X51007Y-38599D01*
X50872Y-38463D01*
X50696Y-38390D01*
X50505Y-38390D01*
X50329Y-38463D01*
X50193Y-38598D01*
X50120Y-38774D01*
X50120Y-38965D01*
X50193Y-39141D01*
X50328Y-39277D01*
X50465Y-39333D01*
X50404Y-39346D01*
X50373Y-39431D01*
X50600Y-39658D01*
X50827Y-39431D01*
X50796Y-39346D01*
X50730Y-39335D01*
X50871Y-39277D01*
X51007Y-39142D01*
X51080Y-38966D01*
X51080Y-39657D01*
X51039Y-39643D01*
X50812Y-39870D01*
X51039Y-40097D01*
X51124Y-40066D01*
X51159Y-39850D01*
X51159Y-45850D01*
X51124Y-45674D01*
X51080Y-45657D01*
X51080Y-44966D01*
X51080Y-44775D01*
X51080Y-43966D01*
X51080Y-43775D01*
X51080Y-42966D01*
X51080Y-42775D01*
X51080Y-41966D01*
X51080Y-41775D01*
X51080Y-40966D01*
X51080Y-40775D01*
X51007Y-40599D01*
X50872Y-40463D01*
X50734Y-40406D01*
X50796Y-40394D01*
X50827Y-40309D01*
X50600Y-40082D01*
X50388Y-40294D01*
X50388Y-39870D01*
X50161Y-39643D01*
X50076Y-39674D01*
X50041Y-39890D01*
X50076Y-40066D01*
X50161Y-40097D01*
X50388Y-39870D01*
X50388Y-40294D01*
X50373Y-40309D01*
X50404Y-40394D01*
X50469Y-40404D01*
X50329Y-40463D01*
X50193Y-40598D01*
X50120Y-40774D01*
X50120Y-40965D01*
X50193Y-41141D01*
X50328Y-41277D01*
X50504Y-41350D01*
X50695Y-41350D01*
X50871Y-41277D01*
X51007Y-41142D01*
X51080Y-40966D01*
X51080Y-41775D01*
X51007Y-41599D01*
X50872Y-41463D01*
X50696Y-41390D01*
X50505Y-41390D01*
X50329Y-41463D01*
X50193Y-41598D01*
X50120Y-41774D01*
X50120Y-41965D01*
X50193Y-42141D01*
X50328Y-42277D01*
X50504Y-42350D01*
X50695Y-42350D01*
X50871Y-42277D01*
X51007Y-42142D01*
X51080Y-41966D01*
X51080Y-42775D01*
X51007Y-42599D01*
X50872Y-42463D01*
X50696Y-42390D01*
X50505Y-42390D01*
X50329Y-42463D01*
X50193Y-42598D01*
X50120Y-42774D01*
X50120Y-42965D01*
X50193Y-43141D01*
X50328Y-43277D01*
X50504Y-43350D01*
X50695Y-43350D01*
X50871Y-43277D01*
X51007Y-43142D01*
X51080Y-42966D01*
X51080Y-43775D01*
X51007Y-43599D01*
X50872Y-43463D01*
X50696Y-43390D01*
X50505Y-43390D01*
X50329Y-43463D01*
X50193Y-43598D01*
X50120Y-43774D01*
X50120Y-43965D01*
X50193Y-44141D01*
X50328Y-44277D01*
X50504Y-44350D01*
X50695Y-44350D01*
X50871Y-44277D01*
X51007Y-44142D01*
X51080Y-43966D01*
X51080Y-44775D01*
X51007Y-44599D01*
X50872Y-44463D01*
X50696Y-44390D01*
X50505Y-44390D01*
X50329Y-44463D01*
X50193Y-44598D01*
X50120Y-44774D01*
X50120Y-44965D01*
X50193Y-45141D01*
X50328Y-45277D01*
X50465Y-45333D01*
X50404Y-45346D01*
X50373Y-45431D01*
X50600Y-45658D01*
X50827Y-45431D01*
X50796Y-45346D01*
X50730Y-45335D01*
X50871Y-45277D01*
X51007Y-45142D01*
X51080Y-44966D01*
X51080Y-45657D01*
X51039Y-45643D01*
X50812Y-45870D01*
X51039Y-46097D01*
X51124Y-46066D01*
X51159Y-45850D01*
X51159Y-46990D01*
X50827Y-46990D01*
X50827Y-46309D01*
X50600Y-46082D01*
X50388Y-46294D01*
X50388Y-45870D01*
X50161Y-45643D01*
X50076Y-45674D01*
X50041Y-45890D01*
X50076Y-46066D01*
X50161Y-46097D01*
X50388Y-45870D01*
X50388Y-46294D01*
X50373Y-46309D01*
X50404Y-46394D01*
X50620Y-46429D01*
X50796Y-46394D01*
X50827Y-46309D01*
X50827Y-46990D01*
X49708Y-46990D01*
X49708Y-39036D01*
X49675Y-38868D01*
X49589Y-38829D01*
X49347Y-39070D01*
X49589Y-39311D01*
X49675Y-39272D01*
X49708Y-39036D01*
X49708Y-46990D01*
X49580Y-46990D01*
X49580Y-45766D01*
X49580Y-45575D01*
X49580Y-45006D01*
X49580Y-44934D01*
X49580Y-44334D01*
X49553Y-44268D01*
X49502Y-44217D01*
X49436Y-44190D01*
X49364Y-44190D01*
X49341Y-44190D01*
X49341Y-39559D01*
X49341Y-38581D01*
X49302Y-38495D01*
X49066Y-38462D01*
X48898Y-38495D01*
X48859Y-38581D01*
X49100Y-38823D01*
X49341Y-38581D01*
X49341Y-39559D01*
X49100Y-39317D01*
X48859Y-39559D01*
X48898Y-39645D01*
X49134Y-39678D01*
X49302Y-39645D01*
X49341Y-39559D01*
X49341Y-44190D01*
X48853Y-44190D01*
X48853Y-39070D01*
X48611Y-38829D01*
X48525Y-38868D01*
X48492Y-39104D01*
X48525Y-39272D01*
X48611Y-39311D01*
X48853Y-39070D01*
X48853Y-44190D01*
X48764Y-44190D01*
X48698Y-44217D01*
X48647Y-44268D01*
X48620Y-44334D01*
X48620Y-44406D01*
X48620Y-45006D01*
X48647Y-45072D01*
X48698Y-45123D01*
X48764Y-45150D01*
X48836Y-45150D01*
X49436Y-45150D01*
X49502Y-45123D01*
X49553Y-45072D01*
X49580Y-45006D01*
X49580Y-45575D01*
X49507Y-45399D01*
X49372Y-45263D01*
X49196Y-45190D01*
X49005Y-45190D01*
X48829Y-45263D01*
X48693Y-45398D01*
X48620Y-45574D01*
X48620Y-45765D01*
X48693Y-45941D01*
X48828Y-46077D01*
X49004Y-46150D01*
X49195Y-46150D01*
X49371Y-46077D01*
X49507Y-45942D01*
X49580Y-45766D01*
X49580Y-46990D01*
X48580Y-46990D01*
X48580Y-45766D01*
X48580Y-45575D01*
X48580Y-44766D01*
X48580Y-44575D01*
X48507Y-44399D01*
X48372Y-44263D01*
X48196Y-44190D01*
X48005Y-44190D01*
X47829Y-44263D01*
X47693Y-44398D01*
X47620Y-44574D01*
X47620Y-44765D01*
X47693Y-44941D01*
X47828Y-45077D01*
X48004Y-45150D01*
X48195Y-45150D01*
X48371Y-45077D01*
X48507Y-44942D01*
X48580Y-44766D01*
X48580Y-45575D01*
X48507Y-45399D01*
X48372Y-45263D01*
X48196Y-45190D01*
X48005Y-45190D01*
X47829Y-45263D01*
X47693Y-45398D01*
X47620Y-45574D01*
X47620Y-45765D01*
X47693Y-45941D01*
X47828Y-46077D01*
X48004Y-46150D01*
X48195Y-46150D01*
X48371Y-46077D01*
X48507Y-45942D01*
X48580Y-45766D01*
X48580Y-46990D01*
X42376Y-46990D01*
X42150Y-46764D01*
X42150Y-45670D01*
X42132Y-45582D01*
X42083Y-45507D01*
X42080Y-45505D01*
X41333Y-44757D01*
X41258Y-44708D01*
X41170Y-44689D01*
X41165Y-44690D01*
X40065Y-44690D01*
X39880Y-44504D01*
X39880Y-40215D01*
X40927Y-39168D01*
X41059Y-39168D01*
X41123Y-39323D01*
X41315Y-39514D01*
X41564Y-39618D01*
X41835Y-39618D01*
X42085Y-39515D01*
X42276Y-39323D01*
X42380Y-39074D01*
X42380Y-38803D01*
X42277Y-38553D01*
X42085Y-38362D01*
X41991Y-38322D01*
X41991Y-37601D01*
X41991Y-36339D01*
X41930Y-36245D01*
X41635Y-36212D01*
X41470Y-36245D01*
X41409Y-36339D01*
X41700Y-36631D01*
X41991Y-36339D01*
X41991Y-37601D01*
X41700Y-37309D01*
X41409Y-37601D01*
X41470Y-37695D01*
X41765Y-37728D01*
X41930Y-37695D01*
X41991Y-37601D01*
X41991Y-38322D01*
X41836Y-38258D01*
X41565Y-38258D01*
X41361Y-38342D01*
X41361Y-36970D01*
X41069Y-36679D01*
X40975Y-36740D01*
X40942Y-37035D01*
X40975Y-37200D01*
X41069Y-37261D01*
X41361Y-36970D01*
X41361Y-38342D01*
X41315Y-38361D01*
X41124Y-38553D01*
X41059Y-38708D01*
X40832Y-38708D01*
X40744Y-38726D01*
X40669Y-38775D01*
X40667Y-38777D01*
X39660Y-39784D01*
X39660Y-31176D01*
X39687Y-31040D01*
X39760Y-30930D01*
X39870Y-30857D01*
X40006Y-30830D01*
X41506Y-30830D01*
X41676Y-30797D01*
X41826Y-30696D01*
X41927Y-30546D01*
X41960Y-30376D01*
X41960Y-28876D01*
X41987Y-28740D01*
X42060Y-28630D01*
X42170Y-28557D01*
X42306Y-28530D01*
X75794Y-28530D01*
X75930Y-28557D01*
X76040Y-28630D01*
X76113Y-28740D01*
X76140Y-28876D01*
X76140Y-30376D01*
X76173Y-30546D01*
X76274Y-30696D01*
X76424Y-30797D01*
X76594Y-30830D01*
X78094Y-30830D01*
X78230Y-30857D01*
X78340Y-30930D01*
X78413Y-31040D01*
X78440Y-31176D01*
X78440Y-44564D01*
M02*
